G04 #@! TF.GenerationSoftware,KiCad,Pcbnew,8.0.7*
G04 #@! TF.CreationDate,2024-12-18T16:58:47-05:00*
G04 #@! TF.ProjectId,PCB-Sch,5043422d-5363-4682-9e6b-696361645f70,rev?*
G04 #@! TF.SameCoordinates,Original*
G04 #@! TF.FileFunction,Copper,L2,Bot*
G04 #@! TF.FilePolarity,Positive*
%FSLAX46Y46*%
G04 Gerber Fmt 4.6, Leading zero omitted, Abs format (unit mm)*
G04 Created by KiCad (PCBNEW 8.0.7) date 2024-12-18 16:58:47*
%MOMM*%
%LPD*%
G01*
G04 APERTURE LIST*
G04 Aperture macros list*
%AMRoundRect*
0 Rectangle with rounded corners*
0 $1 Rounding radius*
0 $2 $3 $4 $5 $6 $7 $8 $9 X,Y pos of 4 corners*
0 Add a 4 corners polygon primitive as box body*
4,1,4,$2,$3,$4,$5,$6,$7,$8,$9,$2,$3,0*
0 Add four circle primitives for the rounded corners*
1,1,$1+$1,$2,$3*
1,1,$1+$1,$4,$5*
1,1,$1+$1,$6,$7*
1,1,$1+$1,$8,$9*
0 Add four rect primitives between the rounded corners*
20,1,$1+$1,$2,$3,$4,$5,0*
20,1,$1+$1,$4,$5,$6,$7,0*
20,1,$1+$1,$6,$7,$8,$9,0*
20,1,$1+$1,$8,$9,$2,$3,0*%
G04 Aperture macros list end*
G04 #@! TA.AperFunction,SMDPad,CuDef*
%ADD10RoundRect,0.225000X0.225000X0.375000X-0.225000X0.375000X-0.225000X-0.375000X0.225000X-0.375000X0*%
G04 #@! TD*
G04 #@! TA.AperFunction,SMDPad,CuDef*
%ADD11RoundRect,0.200000X1.075000X1.050000X-1.075000X1.050000X-1.075000X-1.050000X1.075000X-1.050000X0*%
G04 #@! TD*
G04 #@! TA.AperFunction,SMDPad,CuDef*
%ADD12RoundRect,0.200000X-1.075000X-1.050000X1.075000X-1.050000X1.075000X1.050000X-1.075000X1.050000X0*%
G04 #@! TD*
G04 #@! TA.AperFunction,SMDPad,CuDef*
%ADD13R,1.800000X2.100000*%
G04 #@! TD*
G04 #@! TA.AperFunction,SMDPad,CuDef*
%ADD14R,0.700000X0.600000*%
G04 #@! TD*
G04 #@! TA.AperFunction,SMDPad,CuDef*
%ADD15R,0.700000X1.000000*%
G04 #@! TD*
G04 #@! TA.AperFunction,SMDPad,CuDef*
%ADD16R,0.550000X1.500000*%
G04 #@! TD*
G04 #@! TA.AperFunction,SMDPad,CuDef*
%ADD17R,1.500000X0.550000*%
G04 #@! TD*
G04 #@! TA.AperFunction,SMDPad,CuDef*
%ADD18R,1.800000X1.100000*%
G04 #@! TD*
G04 #@! TA.AperFunction,SMDPad,CuDef*
%ADD19RoundRect,0.250000X-0.350000X-0.450000X0.350000X-0.450000X0.350000X0.450000X-0.350000X0.450000X0*%
G04 #@! TD*
G04 #@! TA.AperFunction,SMDPad,CuDef*
%ADD20RoundRect,0.250000X-0.450000X0.350000X-0.450000X-0.350000X0.450000X-0.350000X0.450000X0.350000X0*%
G04 #@! TD*
G04 #@! TA.AperFunction,SMDPad,CuDef*
%ADD21RoundRect,0.250000X0.350000X0.450000X-0.350000X0.450000X-0.350000X-0.450000X0.350000X-0.450000X0*%
G04 #@! TD*
G04 #@! TA.AperFunction,ComponentPad*
%ADD22C,1.700000*%
G04 #@! TD*
G04 #@! TA.AperFunction,ComponentPad*
%ADD23R,1.700000X1.700000*%
G04 #@! TD*
G04 #@! TA.AperFunction,SMDPad,CuDef*
%ADD24RoundRect,0.250001X-0.624999X0.462499X-0.624999X-0.462499X0.624999X-0.462499X0.624999X0.462499X0*%
G04 #@! TD*
G04 #@! TA.AperFunction,SMDPad,CuDef*
%ADD25RoundRect,0.225000X0.375000X-0.225000X0.375000X0.225000X-0.375000X0.225000X-0.375000X-0.225000X0*%
G04 #@! TD*
G04 #@! TA.AperFunction,SMDPad,CuDef*
%ADD26RoundRect,0.250000X0.337500X0.475000X-0.337500X0.475000X-0.337500X-0.475000X0.337500X-0.475000X0*%
G04 #@! TD*
G04 #@! TA.AperFunction,SMDPad,CuDef*
%ADD27RoundRect,0.250000X-0.337500X-0.475000X0.337500X-0.475000X0.337500X0.475000X-0.337500X0.475000X0*%
G04 #@! TD*
G04 #@! TA.AperFunction,SMDPad,CuDef*
%ADD28RoundRect,0.250000X0.475000X-0.337500X0.475000X0.337500X-0.475000X0.337500X-0.475000X-0.337500X0*%
G04 #@! TD*
G04 #@! TA.AperFunction,SMDPad,CuDef*
%ADD29RoundRect,0.250000X-0.475000X0.337500X-0.475000X-0.337500X0.475000X-0.337500X0.475000X0.337500X0*%
G04 #@! TD*
G04 #@! TA.AperFunction,ComponentPad*
%ADD30O,1.000000X1.600000*%
G04 #@! TD*
G04 #@! TA.AperFunction,ComponentPad*
%ADD31O,1.000000X2.100000*%
G04 #@! TD*
G04 #@! TA.AperFunction,SMDPad,CuDef*
%ADD32R,0.300000X2.450000*%
G04 #@! TD*
G04 #@! TA.AperFunction,SMDPad,CuDef*
%ADD33R,0.600000X2.450000*%
G04 #@! TD*
G04 #@! TA.AperFunction,ViaPad*
%ADD34C,0.800000*%
G04 #@! TD*
G04 #@! TA.AperFunction,Conductor*
%ADD35C,0.250000*%
G04 #@! TD*
G04 #@! TA.AperFunction,Conductor*
%ADD36C,0.200001*%
G04 #@! TD*
G04 APERTURE END LIST*
D10*
X69181250Y-70643750D03*
X65881250Y-70643750D03*
D11*
X187442500Y-146843750D03*
X200369500Y-144303750D03*
X77846250Y-127793750D03*
X90773250Y-125253750D03*
X343244500Y-144303750D03*
X330317500Y-146843750D03*
X319432000Y-144303750D03*
X306505000Y-146843750D03*
X295619500Y-144303750D03*
X282692500Y-146843750D03*
X271807000Y-144303750D03*
X258880000Y-146843750D03*
X128932000Y-144303750D03*
X116005000Y-146843750D03*
X105119500Y-144303750D03*
X92192500Y-146843750D03*
X81307000Y-144303750D03*
X68380000Y-146843750D03*
X328957000Y-125253750D03*
X316030000Y-127793750D03*
X293238250Y-125253750D03*
X280311250Y-127793750D03*
X274188250Y-125253750D03*
X261261250Y-127793750D03*
X255138250Y-125253750D03*
X242211250Y-127793750D03*
X236088250Y-125253750D03*
X223161250Y-127793750D03*
X217038250Y-125253750D03*
X204111250Y-127793750D03*
X197988250Y-125253750D03*
X185061250Y-127793750D03*
X178938250Y-125253750D03*
X166011250Y-127793750D03*
X159888250Y-125253750D03*
X146961250Y-127793750D03*
X140838250Y-125253750D03*
X127911250Y-127793750D03*
X121788250Y-125253750D03*
X108861250Y-127793750D03*
X333719500Y-106203750D03*
X320792500Y-108743750D03*
X302763250Y-106203750D03*
X289836250Y-108743750D03*
X283713250Y-106203750D03*
X270786250Y-108743750D03*
X264663250Y-106203750D03*
X251736250Y-108743750D03*
X245613250Y-106203750D03*
X232686250Y-108743750D03*
X226563250Y-106203750D03*
X213636250Y-108743750D03*
X207513250Y-106203750D03*
X194586250Y-108743750D03*
X188463250Y-106203750D03*
X175536250Y-108743750D03*
X169413250Y-106203750D03*
X156486250Y-108743750D03*
X150363250Y-106203750D03*
X137436250Y-108743750D03*
X131313250Y-106203750D03*
X118386250Y-108743750D03*
X112263250Y-106203750D03*
X99336250Y-108743750D03*
X86069500Y-106203750D03*
X73142500Y-108743750D03*
X340863250Y-87153750D03*
X327936250Y-89693750D03*
X317050750Y-87153750D03*
X304123750Y-89693750D03*
X298000750Y-87153750D03*
X285073750Y-89693750D03*
X278950750Y-87153750D03*
X266023750Y-89693750D03*
X259900750Y-87153750D03*
X246973750Y-89693750D03*
X240850750Y-87153750D03*
X227923750Y-89693750D03*
X221800750Y-87153750D03*
X208873750Y-89693750D03*
X202750750Y-87153750D03*
X189823750Y-89693750D03*
X183700750Y-87153750D03*
X170773750Y-89693750D03*
X164650750Y-87153750D03*
X151723750Y-89693750D03*
X145600750Y-87153750D03*
X132673750Y-89693750D03*
X126550750Y-87153750D03*
X113623750Y-89693750D03*
X107500750Y-87153750D03*
X94573750Y-89693750D03*
X83688250Y-87153750D03*
X70761250Y-89693750D03*
X336100750Y-68103750D03*
X323173750Y-70643750D03*
X307525750Y-68103750D03*
X294598750Y-70643750D03*
X288475750Y-68103750D03*
X275548750Y-70643750D03*
X256498750Y-70643750D03*
X269425750Y-68103750D03*
X250375750Y-68103750D03*
X237448750Y-70643750D03*
X231325750Y-68103750D03*
X218398750Y-70643750D03*
X212275750Y-68103750D03*
X199348750Y-70643750D03*
X193225750Y-68103750D03*
X180298750Y-70643750D03*
X174175750Y-68103750D03*
X161248750Y-70643750D03*
X155125750Y-68103750D03*
X142198750Y-70643750D03*
X136075750Y-68103750D03*
X123148750Y-70643750D03*
D12*
X67241750Y-78263750D03*
X80168750Y-75723750D03*
D11*
X117025750Y-68103750D03*
X104098750Y-70643750D03*
D13*
X227425000Y-151300000D03*
X227425000Y-148400000D03*
X229725000Y-148400000D03*
X229725000Y-151300000D03*
D14*
X81825000Y-80250000D03*
X83825000Y-80250000D03*
X81825000Y-78350000D03*
D15*
X83825000Y-78550000D03*
D16*
X211815000Y-142871250D03*
X212615000Y-142871250D03*
X213415000Y-142871250D03*
X214215000Y-142871250D03*
X215015000Y-142871250D03*
X215815000Y-142871250D03*
X216615000Y-142871250D03*
X217415000Y-142871250D03*
X218215000Y-142871250D03*
X219015000Y-142871250D03*
X219815000Y-142871250D03*
D17*
X221515000Y-144571250D03*
X221515000Y-145371250D03*
X221515000Y-146171250D03*
X221515000Y-146971250D03*
X221515000Y-147771250D03*
X221515000Y-148571250D03*
X221515000Y-149371250D03*
X221515000Y-150171250D03*
X221515000Y-150971250D03*
X221515000Y-151771250D03*
X221515000Y-152571250D03*
D16*
X219815000Y-154271250D03*
X219015000Y-154271250D03*
X218215000Y-154271250D03*
X217415000Y-154271250D03*
X216615000Y-154271250D03*
X215815000Y-154271250D03*
X215015000Y-154271250D03*
X214215000Y-154271250D03*
X213415000Y-154271250D03*
X212615000Y-154271250D03*
X211815000Y-154271250D03*
D17*
X210115000Y-152571250D03*
X210115000Y-151771250D03*
X210115000Y-150971250D03*
X210115000Y-150171250D03*
X210115000Y-149371250D03*
X210115000Y-148571250D03*
X210115000Y-147771250D03*
X210115000Y-146971250D03*
X210115000Y-146171250D03*
X210115000Y-145371250D03*
X210115000Y-144571250D03*
D18*
X251425000Y-146125000D03*
X245225000Y-146125000D03*
X251425000Y-149825000D03*
X245225000Y-149825000D03*
D19*
X240946250Y-146208750D03*
X242946250Y-146208750D03*
D20*
X214371250Y-138652500D03*
X214371250Y-140652500D03*
X211990000Y-138652500D03*
X211990000Y-140652500D03*
D21*
X207650000Y-154500000D03*
X205650000Y-154500000D03*
D22*
X257715000Y-143190000D03*
X257715000Y-140650000D03*
X255175000Y-143190000D03*
X255175000Y-140650000D03*
X252635000Y-143190000D03*
D23*
X252635000Y-140650000D03*
D24*
X79950000Y-80975000D03*
X79950000Y-83950000D03*
D25*
X344387500Y-151702500D03*
X344387500Y-155002500D03*
X320257500Y-152082500D03*
X320257500Y-155382500D03*
X296127500Y-151702500D03*
X296127500Y-155002500D03*
X271997500Y-151702500D03*
X271997500Y-155002500D03*
X200877500Y-152082500D03*
X200877500Y-155382500D03*
X129757500Y-151702500D03*
X129757500Y-155002500D03*
X105627500Y-151702500D03*
X105627500Y-155002500D03*
X81497500Y-151702500D03*
X81497500Y-155002500D03*
X329147500Y-132652500D03*
X329147500Y-135952500D03*
X293587500Y-133032500D03*
X293587500Y-136332500D03*
X274537500Y-132652500D03*
X274537500Y-135952500D03*
X255487500Y-132652500D03*
X255487500Y-135952500D03*
X236437500Y-132652500D03*
X236437500Y-135952500D03*
X217387500Y-132652500D03*
X217387500Y-135952500D03*
X198337500Y-132652500D03*
X198337500Y-135952500D03*
X179287500Y-132652500D03*
X179287500Y-135952500D03*
X160237500Y-132652500D03*
X160237500Y-135952500D03*
X141187500Y-132652500D03*
X141187500Y-135952500D03*
X122137500Y-132652500D03*
X122137500Y-135952500D03*
X90387500Y-132652500D03*
X90387500Y-135952500D03*
X332957500Y-113602500D03*
X332957500Y-116902500D03*
X302477500Y-113602500D03*
X302477500Y-116902500D03*
X283427500Y-113602500D03*
X283427500Y-116902500D03*
X264377500Y-113602500D03*
X264377500Y-116902500D03*
X245327500Y-113602500D03*
X245327500Y-116902500D03*
X226277500Y-113602500D03*
X226277500Y-116902500D03*
X207227500Y-113602500D03*
X207227500Y-116902500D03*
X188177500Y-113602500D03*
X188177500Y-116902500D03*
X169127500Y-113602500D03*
X169127500Y-116902500D03*
X150077500Y-116902500D03*
X150077500Y-113602500D03*
X131027500Y-113602500D03*
X131027500Y-116902500D03*
X111977500Y-113602500D03*
X111977500Y-116902500D03*
X85307500Y-113602500D03*
X85307500Y-116902500D03*
X340577500Y-94552500D03*
X340577500Y-97852500D03*
X316765000Y-94552500D03*
X316765000Y-97852500D03*
X297715000Y-94552500D03*
X297715000Y-97852500D03*
X278665000Y-94552500D03*
X278665000Y-97852500D03*
X259615000Y-94552500D03*
X259615000Y-97852500D03*
X240565000Y-94552500D03*
X240565000Y-97852500D03*
X221515000Y-94552500D03*
X221515000Y-97852500D03*
X202465000Y-94552500D03*
X202465000Y-97852500D03*
X183415000Y-94552500D03*
X183415000Y-97852500D03*
X164365000Y-94552500D03*
X164365000Y-97852500D03*
X145315000Y-94552500D03*
X145315000Y-97852500D03*
X126265000Y-94552500D03*
X126265000Y-97852500D03*
X107215000Y-94552500D03*
X107215000Y-97852500D03*
X83402500Y-94552500D03*
X83402500Y-97852500D03*
X335815000Y-75502500D03*
X335815000Y-78802500D03*
X307240000Y-75502500D03*
X307240000Y-78802500D03*
X288190000Y-75502500D03*
X288190000Y-78802500D03*
X269140000Y-75502500D03*
X269140000Y-78802500D03*
X250090000Y-75502500D03*
X250090000Y-78802500D03*
X231040000Y-75502500D03*
X231040000Y-78802500D03*
X211990000Y-75502500D03*
X211990000Y-78802500D03*
X192940000Y-75502500D03*
X192940000Y-78802500D03*
X173890000Y-75502500D03*
X173890000Y-78802500D03*
X154840000Y-75502500D03*
X154840000Y-78802500D03*
X135790000Y-75502500D03*
X135790000Y-78802500D03*
X116740000Y-78802500D03*
X116740000Y-75502500D03*
X102825000Y-81325000D03*
X102825000Y-78025000D03*
D26*
X219621250Y-139858750D03*
X217546250Y-139858750D03*
D27*
X231750000Y-148400000D03*
X233825000Y-148400000D03*
X233875000Y-151400000D03*
X231800000Y-151400000D03*
D26*
X209302500Y-140652500D03*
X207227500Y-140652500D03*
D28*
X206350000Y-152400000D03*
X206350000Y-150325000D03*
D29*
X226350000Y-143575000D03*
X226350000Y-145650000D03*
D28*
X223650000Y-156575000D03*
X223650000Y-154500000D03*
D12*
X86291750Y-78263750D03*
X99218750Y-75723750D03*
D19*
X88080000Y-70620000D03*
X90080000Y-70620000D03*
D30*
X86740000Y-65015000D03*
X78100000Y-65015000D03*
D31*
X86740000Y-69195000D03*
X78100000Y-69195000D03*
D32*
X82170000Y-70610000D03*
X82670000Y-70610000D03*
X83170000Y-70610000D03*
X81670000Y-70610000D03*
X83670000Y-70610000D03*
X81170000Y-70610000D03*
X84170000Y-70610000D03*
X80670000Y-70610000D03*
D33*
X79970000Y-70610000D03*
X84870000Y-70610000D03*
X79195000Y-70610000D03*
X85645000Y-70610000D03*
D20*
X75300000Y-69690000D03*
X75300000Y-67690000D03*
D34*
X255250000Y-154300000D03*
X217200000Y-145975000D03*
X257715000Y-134760000D03*
X249775000Y-134450000D03*
X240946250Y-146200000D03*
X234200000Y-138700000D03*
X241550000Y-137500000D03*
X228750000Y-139725000D03*
X242750000Y-138775000D03*
X234375000Y-145575000D03*
X219575000Y-146100000D03*
X341262500Y-87362500D03*
X333743750Y-105993750D03*
X328662500Y-125362500D03*
X316834375Y-87440625D03*
X297659375Y-87315625D03*
X303212500Y-106275000D03*
X293687500Y-125300000D03*
X283440625Y-106434375D03*
X278634375Y-87340625D03*
X259609375Y-87365625D03*
X264318750Y-106362500D03*
X246062500Y-106362500D03*
X240850750Y-87153750D03*
X232000000Y-138325000D03*
X236537500Y-125412500D03*
X227012500Y-106362500D03*
X222250000Y-87312500D03*
X202406250Y-87275000D03*
X207168750Y-106300000D03*
X217487500Y-125200000D03*
X200369500Y-144303750D03*
X188912500Y-106350000D03*
X184150000Y-87250000D03*
X169862500Y-106362500D03*
X164525000Y-87275000D03*
X145600750Y-87153750D03*
X150363250Y-106203750D03*
X141275000Y-125425000D03*
X131800000Y-106400000D03*
X127000000Y-87312500D03*
X121443750Y-125412500D03*
X111918750Y-106200000D03*
X107668750Y-87031250D03*
X90773250Y-125253750D03*
X86069500Y-106203750D03*
X84152150Y-87327150D03*
X211990000Y-78802500D03*
X213650000Y-145250000D03*
X254793750Y-125412500D03*
X225300000Y-151125000D03*
X225575000Y-152500000D03*
X273843750Y-125412500D03*
X271462500Y-144462500D03*
X226950000Y-153225000D03*
X296068750Y-144462500D03*
X292575000Y-153700000D03*
X319881250Y-143668750D03*
X324525000Y-156625000D03*
X343244500Y-144303750D03*
X80962500Y-144462500D03*
X136400000Y-151225000D03*
X136375000Y-148225000D03*
X214525000Y-157775000D03*
X105119500Y-144303750D03*
X145575000Y-152475000D03*
X150950000Y-157850000D03*
X146500000Y-155250000D03*
X128932000Y-144303750D03*
X133550000Y-150175000D03*
X200877500Y-155382500D03*
X269450000Y-155050000D03*
X159888250Y-125253750D03*
X167225000Y-137075000D03*
X161000000Y-141700000D03*
X164550000Y-138074999D03*
X161387500Y-145862500D03*
X204300000Y-156400000D03*
X178938250Y-125253750D03*
X187400000Y-137000000D03*
X184500000Y-138074999D03*
X184525000Y-145800000D03*
X184525000Y-140625000D03*
X203350000Y-154625000D03*
X207550000Y-118975000D03*
X207000000Y-135400000D03*
X195675000Y-138074999D03*
X204175000Y-138525000D03*
X198525001Y-138049999D03*
X202225000Y-100800000D03*
X204850000Y-135900000D03*
X197988250Y-125253750D03*
X200525000Y-136050000D03*
X197675000Y-140225000D03*
X201900000Y-148200000D03*
X208450000Y-150175000D03*
X98525000Y-81625000D03*
X78550000Y-79125000D03*
X95600000Y-99300000D03*
X92325000Y-97750000D03*
X95875000Y-116950000D03*
X92525000Y-116900000D03*
X92650000Y-135975000D03*
X96500000Y-132300000D03*
X83825000Y-78550000D03*
X207250000Y-139525000D03*
X208356682Y-141728156D03*
X216150000Y-139850000D03*
X223100000Y-142375000D03*
X209625000Y-142225000D03*
X205675000Y-138600000D03*
X82300000Y-82975000D03*
X225375000Y-156600000D03*
X203725000Y-151950000D03*
X336550000Y-68262500D03*
X307181250Y-68262500D03*
X288925000Y-68262500D03*
X269875000Y-68262500D03*
X250031250Y-67468750D03*
X230981250Y-68262500D03*
X212725000Y-68262500D03*
X192881250Y-67468750D03*
X173831250Y-68262500D03*
X155575000Y-68262500D03*
X136525000Y-68262500D03*
X117475000Y-68262500D03*
X86518750Y-78581250D03*
X67468750Y-78581250D03*
X214281675Y-144425000D03*
X216625000Y-144375000D03*
X84520000Y-73270000D03*
X80227500Y-73262500D03*
D35*
X84170000Y-72310000D02*
X84170000Y-70610000D01*
X83730000Y-74090000D02*
X83610000Y-73970000D01*
X83610000Y-72870000D02*
X84170000Y-72310000D01*
X85530000Y-72945000D02*
X85530000Y-74090000D01*
X85530000Y-74090000D02*
X83730000Y-74090000D01*
X87855000Y-70620000D02*
X85530000Y-72945000D01*
X83610000Y-73970000D02*
X83610000Y-72870000D01*
X88080000Y-70620000D02*
X87855000Y-70620000D01*
X79970000Y-72920000D02*
X79970000Y-70610000D01*
X80227500Y-73177500D02*
X79970000Y-72920000D01*
X80227500Y-73262500D02*
X80227500Y-73177500D01*
X74895000Y-65015000D02*
X78100000Y-65015000D01*
X74740000Y-69690000D02*
X73770000Y-68720000D01*
X73770000Y-68720000D02*
X73770000Y-66140000D01*
X75300000Y-69690000D02*
X74740000Y-69690000D01*
X73770000Y-66140000D02*
X74895000Y-65015000D01*
X81170000Y-69060000D02*
X81170000Y-70610000D01*
X79670000Y-67560000D02*
X81170000Y-69060000D01*
X75300000Y-67690000D02*
X75430000Y-67560000D01*
X75430000Y-67560000D02*
X79670000Y-67560000D01*
X78100000Y-69515000D02*
X79195000Y-70610000D01*
X78100000Y-69195000D02*
X78100000Y-69515000D01*
X77605000Y-69690000D02*
X78100000Y-69195000D01*
X75300000Y-69690000D02*
X77605000Y-69690000D01*
X86740000Y-65015000D02*
X78100000Y-65015000D01*
X86740000Y-69195000D02*
X86740000Y-65015000D01*
D36*
X83080000Y-72135001D02*
X83080000Y-79505000D01*
X83080000Y-79505000D02*
X83825000Y-80250000D01*
X83170000Y-72045001D02*
X83080000Y-72135001D01*
X83170000Y-70610000D02*
X83170000Y-72045001D01*
X82625000Y-79450000D02*
X81825000Y-80250000D01*
X82444999Y-72135001D02*
X82625000Y-72315002D01*
X82625000Y-72315002D02*
X82625000Y-79450000D01*
X82670000Y-71910000D02*
X82670000Y-70610000D01*
X82444999Y-72135001D02*
X82670000Y-71910000D01*
X81719999Y-72135001D02*
X82444999Y-72135001D01*
X81670000Y-72085002D02*
X81719999Y-72135001D01*
X81670000Y-70610000D02*
X81670000Y-72085002D01*
X83170000Y-69134998D02*
X83170000Y-70610000D01*
X82685002Y-68650000D02*
X83170000Y-69134998D01*
X82654998Y-68650000D02*
X82685002Y-68650000D01*
X82170000Y-69134998D02*
X82654998Y-68650000D01*
X82170000Y-70610000D02*
X82170000Y-69134998D01*
D35*
X84520000Y-73270000D02*
X84870000Y-72920000D01*
X84870000Y-72920000D02*
X84870000Y-70610000D01*
X86740000Y-69515000D02*
X85645000Y-70610000D01*
X86740000Y-69195000D02*
X86740000Y-69515000D01*
X88655000Y-69195000D02*
X86740000Y-69195000D01*
X90080000Y-70620000D02*
X88655000Y-69195000D01*
X77805000Y-68660000D02*
X78080000Y-68935000D01*
X86720000Y-68935000D02*
X86720000Y-69255000D01*
X79175000Y-70350000D02*
X79175000Y-70030000D01*
D36*
X83199999Y-70300001D02*
X83150000Y-70350000D01*
D35*
X82025000Y-76800000D02*
X82025000Y-73880000D01*
X80375000Y-78450000D02*
X82025000Y-76800000D01*
X82025000Y-73880000D02*
X80845000Y-73880000D01*
X80845000Y-73880000D02*
X80227500Y-73262500D01*
X211815000Y-143871250D02*
X211815000Y-142871250D01*
X213193750Y-145250000D02*
X211815000Y-143871250D01*
X213650000Y-145250000D02*
X213193750Y-145250000D01*
D36*
X212052500Y-140652500D02*
X213415000Y-142015000D01*
X213415000Y-142015000D02*
X213415000Y-142871250D01*
X211990000Y-140652500D02*
X212052500Y-140652500D01*
X214175000Y-142831250D02*
X214215000Y-142871250D01*
X214175000Y-140848750D02*
X214175000Y-142831250D01*
X214371250Y-140652500D02*
X214175000Y-140848750D01*
D35*
X212615000Y-141996250D02*
X212293750Y-141675000D01*
X212293750Y-141675000D02*
X209302500Y-141675000D01*
X209302500Y-141675000D02*
X209302500Y-141902500D01*
X209302500Y-140652500D02*
X209302500Y-141675000D01*
X212615000Y-142871250D02*
X212615000Y-141996250D01*
X255175000Y-154225000D02*
X255175000Y-143190000D01*
X255250000Y-154300000D02*
X255175000Y-154225000D01*
X218215000Y-144960000D02*
X217200000Y-145975000D01*
X218215000Y-142871250D02*
X218215000Y-144960000D01*
X257405000Y-134450000D02*
X249775000Y-134450000D01*
X257715000Y-134760000D02*
X257405000Y-134450000D01*
X240946250Y-146200000D02*
X240946250Y-146208750D01*
X240946250Y-141446250D02*
X240946250Y-146200000D01*
X240800000Y-141300000D02*
X240946250Y-141446250D01*
X225375000Y-141300000D02*
X240800000Y-141300000D01*
X224300000Y-142375000D02*
X225375000Y-141300000D01*
X226125000Y-143575000D02*
X226350000Y-143575000D01*
X224925000Y-142375000D02*
X226125000Y-143575000D01*
X223100000Y-142375000D02*
X224925000Y-142375000D01*
X223100000Y-142375000D02*
X224300000Y-142375000D01*
X220203445Y-142871250D02*
X219815000Y-142871250D01*
X222224695Y-140850000D02*
X220203445Y-142871250D01*
X232050000Y-140850000D02*
X222224695Y-140850000D01*
X234200000Y-138700000D02*
X232050000Y-140850000D01*
X241925000Y-137125000D02*
X241550000Y-137500000D01*
X253311701Y-137125000D02*
X241925000Y-137125000D01*
X256540000Y-140353299D02*
X253311701Y-137125000D01*
X256540000Y-142015000D02*
X256540000Y-140353299D01*
X257715000Y-143190000D02*
X256540000Y-142015000D01*
X242850000Y-138675000D02*
X253200000Y-138675000D01*
X242750000Y-138775000D02*
X242850000Y-138675000D01*
X253200000Y-138675000D02*
X255175000Y-140650000D01*
X220415000Y-141796250D02*
X219393750Y-141796250D01*
X228650000Y-139625000D02*
X222586250Y-139625000D01*
X222586250Y-139625000D02*
X220415000Y-141796250D01*
X219015000Y-142175000D02*
X219015000Y-142871250D01*
X228750000Y-139725000D02*
X228650000Y-139625000D01*
X219393750Y-141796250D02*
X219015000Y-142175000D01*
X220200000Y-141250000D02*
X223125000Y-138325000D01*
X218591396Y-141525000D02*
X218866396Y-141250000D01*
X223125000Y-138325000D02*
X232000000Y-138325000D01*
X217761250Y-141525000D02*
X218591396Y-141525000D01*
X218866396Y-141250000D02*
X220200000Y-141250000D01*
X217415000Y-141871250D02*
X217761250Y-141525000D01*
X217415000Y-142871250D02*
X217415000Y-141871250D01*
X234375000Y-145575000D02*
X237525000Y-148725000D01*
X242917500Y-148725000D02*
X242946250Y-148696250D01*
X237525000Y-148725000D02*
X242917500Y-148725000D01*
X219805000Y-137600000D02*
X217546250Y-139858750D01*
X239725000Y-137600000D02*
X219805000Y-137600000D01*
X241900000Y-139775000D02*
X239725000Y-137600000D01*
X241900000Y-142800000D02*
X241900000Y-139775000D01*
X245225000Y-146125000D02*
X241900000Y-142800000D01*
X220303750Y-145371250D02*
X219575000Y-146100000D01*
X221515000Y-145371250D02*
X220303750Y-145371250D01*
X250375000Y-140650000D02*
X252635000Y-140650000D01*
X250025000Y-144725000D02*
X250025000Y-141000000D01*
X250025000Y-141000000D02*
X250375000Y-140650000D01*
X251425000Y-146125000D02*
X250025000Y-144725000D01*
X253485000Y-144040000D02*
X252635000Y-143190000D01*
X252575000Y-149825000D02*
X253485000Y-148915000D01*
X253485000Y-148915000D02*
X253485000Y-144040000D01*
X251425000Y-149825000D02*
X252575000Y-149825000D01*
X245225000Y-146125000D02*
X251425000Y-146125000D01*
X245225000Y-149825000D02*
X251425000Y-149825000D01*
X244075000Y-149825000D02*
X245225000Y-149825000D01*
X242946250Y-146208750D02*
X242946250Y-148696250D01*
X242946250Y-148696250D02*
X244075000Y-149825000D01*
X346775000Y-157625000D02*
X348050000Y-156350000D01*
X245314092Y-158267750D02*
X245956842Y-157625000D01*
X219792750Y-158267750D02*
X245314092Y-158267750D01*
X348050000Y-149109250D02*
X343244500Y-144303750D01*
X217415000Y-155890000D02*
X219792750Y-158267750D01*
X245956842Y-157625000D02*
X346775000Y-157625000D01*
X348050000Y-156350000D02*
X348050000Y-149109250D01*
X217415000Y-154271250D02*
X217415000Y-155890000D01*
X200369500Y-145930500D02*
X200369500Y-144303750D01*
X200350000Y-145950000D02*
X200369500Y-145930500D01*
X204875000Y-145950000D02*
X200350000Y-145950000D01*
X208296250Y-149371250D02*
X204875000Y-145950000D01*
X210115000Y-149371250D02*
X208296250Y-149371250D01*
X129103750Y-144303750D02*
X128932000Y-144303750D01*
X133550000Y-148750000D02*
X129103750Y-144303750D01*
X133550000Y-150175000D02*
X133550000Y-148750000D01*
X225225000Y-151125000D02*
X225300000Y-151125000D01*
X224925000Y-150825000D02*
X225225000Y-151125000D01*
X224271250Y-150171250D02*
X224925000Y-150825000D01*
X221515000Y-150171250D02*
X224271250Y-150171250D01*
X227000000Y-151300000D02*
X227425000Y-151300000D01*
X221515000Y-148571250D02*
X224271250Y-148571250D01*
X224271250Y-148571250D02*
X227000000Y-151300000D01*
X224961396Y-152500000D02*
X225575000Y-152500000D01*
X224318198Y-151856802D02*
X224961396Y-152500000D01*
X225050000Y-153225000D02*
X226950000Y-153225000D01*
X224175000Y-152350000D02*
X225050000Y-153225000D01*
X269774695Y-153700000D02*
X292575000Y-153700000D01*
X267697195Y-155777500D02*
X269774695Y-153700000D01*
X247658750Y-155777500D02*
X267697195Y-155777500D01*
X245831250Y-153950000D02*
X247658750Y-155777500D01*
X225050000Y-153950000D02*
X245831250Y-153950000D01*
X224225000Y-153125000D02*
X225050000Y-153950000D01*
X218215000Y-155840000D02*
X218215000Y-154271250D01*
X219862500Y-157487500D02*
X218215000Y-155840000D01*
X240723158Y-157487500D02*
X219862500Y-157487500D01*
X243740908Y-154469750D02*
X240723158Y-157487500D01*
X245519750Y-154469750D02*
X243740908Y-154469750D01*
X324525000Y-156625000D02*
X324475000Y-156675000D01*
X324475000Y-156675000D02*
X247725000Y-156675000D01*
X247725000Y-156675000D02*
X245519750Y-154469750D01*
X136375000Y-151200000D02*
X136400000Y-151225000D01*
X136375000Y-148225000D02*
X136375000Y-151200000D01*
X215675000Y-156250000D02*
X215675000Y-156625000D01*
X215675000Y-156625000D02*
X214525000Y-157775000D01*
X151150000Y-157650000D02*
X150950000Y-157850000D01*
X212550000Y-157650000D02*
X151150000Y-157650000D01*
X215015000Y-155185000D02*
X212550000Y-157650000D01*
X215015000Y-154271250D02*
X215015000Y-155185000D01*
X145575000Y-152475000D02*
X145572500Y-152477500D01*
X113293250Y-152477500D02*
X105119500Y-144303750D01*
X145572500Y-152477500D02*
X113293250Y-152477500D01*
X148375000Y-157125000D02*
X146500000Y-155250000D01*
X204600305Y-157125000D02*
X148375000Y-157125000D01*
X204625305Y-157100000D02*
X204600305Y-157125000D01*
X212075000Y-157100000D02*
X204625305Y-157100000D01*
X214215000Y-154960000D02*
X212075000Y-157100000D01*
X214215000Y-154271250D02*
X214215000Y-154960000D01*
X213415000Y-155010000D02*
X213415000Y-154271250D01*
X212575000Y-155850000D02*
X213415000Y-155010000D01*
X211975000Y-156425000D02*
X212550000Y-155850000D01*
X204300000Y-156400000D02*
X204325000Y-156425000D01*
X212550000Y-155850000D02*
X212575000Y-155850000D01*
X204325000Y-156425000D02*
X211975000Y-156425000D01*
X203850000Y-154625000D02*
X203350000Y-154625000D01*
X205050000Y-155825000D02*
X203850000Y-154625000D01*
X212615000Y-155010000D02*
X211800000Y-155825000D01*
X211800000Y-155825000D02*
X205050000Y-155825000D01*
X212615000Y-154271250D02*
X212615000Y-155010000D01*
X211311250Y-154775000D02*
X211815000Y-154271250D01*
X209950000Y-154775000D02*
X211311250Y-154775000D01*
X209675000Y-154500000D02*
X209950000Y-154775000D01*
X207650000Y-154500000D02*
X209675000Y-154500000D01*
X206675000Y-153475000D02*
X205650000Y-154500000D01*
X210211250Y-154150000D02*
X209536250Y-153475000D01*
X209536250Y-153475000D02*
X206675000Y-153475000D01*
X269497500Y-155002500D02*
X269450000Y-155050000D01*
X271997500Y-155002500D02*
X269497500Y-155002500D01*
X166225001Y-138074999D02*
X167225000Y-137075000D01*
X164550000Y-138074999D02*
X166225001Y-138074999D01*
X161000000Y-145475000D02*
X161000000Y-141700000D01*
X161387500Y-145862500D02*
X161000000Y-145475000D01*
X186325001Y-138074999D02*
X187400000Y-137000000D01*
X184500000Y-138074999D02*
X186325001Y-138074999D01*
X184525000Y-145800000D02*
X184525000Y-140625000D01*
X210115000Y-142715000D02*
X210115000Y-144571250D01*
X209625000Y-142225000D02*
X210115000Y-142715000D01*
X207550000Y-117225000D02*
X207227500Y-116902500D01*
X207550000Y-118975000D02*
X207550000Y-117225000D01*
X204950000Y-137450000D02*
X207000000Y-135400000D01*
X204950000Y-143350000D02*
X204950000Y-137450000D01*
X208550000Y-146950000D02*
X204950000Y-143350000D01*
X196215001Y-138074999D02*
X198337500Y-135952500D01*
X195675000Y-138074999D02*
X196215001Y-138074999D01*
X204175000Y-143375000D02*
X204175000Y-138525000D01*
X208571250Y-147771250D02*
X204175000Y-143375000D01*
X195192500Y-145080400D02*
X195192500Y-142707500D01*
X197126950Y-147014850D02*
X195192500Y-145080400D01*
X201900000Y-148200000D02*
X200714850Y-147014850D01*
X200714850Y-147014850D02*
X197126950Y-147014850D01*
X195192500Y-142707500D02*
X197675000Y-140225000D01*
X203300000Y-137450000D02*
X204850000Y-135900000D01*
X208521250Y-148571250D02*
X203300000Y-143350000D01*
X210115000Y-148571250D02*
X208521250Y-148571250D01*
X203300000Y-143350000D02*
X203300000Y-137450000D01*
X202465000Y-100560000D02*
X202465000Y-97852500D01*
X202225000Y-100800000D02*
X202465000Y-100560000D01*
X198525001Y-138049999D02*
X200525000Y-136050000D01*
X208742500Y-150175000D02*
X208450000Y-150175000D01*
X208746250Y-150171250D02*
X208742500Y-150175000D01*
X205275000Y-149225000D02*
X200877500Y-153622500D01*
X207500000Y-149363604D02*
X207361396Y-149225000D01*
X207361396Y-149225000D02*
X205275000Y-149225000D01*
X208171250Y-150971250D02*
X207500000Y-150300000D01*
X207500000Y-150300000D02*
X207500000Y-149363604D01*
X210115000Y-150971250D02*
X208171250Y-150971250D01*
X200877500Y-153622500D02*
X200877500Y-155382500D01*
X210115000Y-150171250D02*
X208746250Y-150171250D01*
X210115000Y-147771250D02*
X208571250Y-147771250D01*
X208571250Y-146971250D02*
X208550000Y-146950000D01*
X210115000Y-146971250D02*
X208571250Y-146971250D01*
X216825000Y-141075000D02*
X215815000Y-142085000D01*
X215815000Y-142085000D02*
X215815000Y-142871250D01*
X218405000Y-141075000D02*
X216825000Y-141075000D01*
X219621250Y-139858750D02*
X218405000Y-141075000D01*
X223432646Y-150971250D02*
X224318198Y-151856802D01*
X221515000Y-150971250D02*
X223432646Y-150971250D01*
X223596250Y-151771250D02*
X224175000Y-152350000D01*
X221515000Y-151771250D02*
X223596250Y-151771250D01*
X221515000Y-152571250D02*
X223525000Y-152571250D01*
X223671250Y-152571250D02*
X224225000Y-153125000D01*
X215815000Y-156110000D02*
X215675000Y-156250000D01*
X215815000Y-154271250D02*
X215815000Y-156110000D01*
X75674869Y-79125000D02*
X78550000Y-79125000D01*
X69229650Y-72679781D02*
X75674869Y-79125000D01*
X69229650Y-70692150D02*
X69229650Y-72679781D01*
X69181250Y-70643750D02*
X69229650Y-70692150D01*
X67425000Y-69100000D02*
X65881250Y-70643750D01*
X72350131Y-69100000D02*
X67425000Y-69100000D01*
X75018750Y-74706250D02*
X75452650Y-74272350D01*
X75452650Y-72202519D02*
X72350131Y-69100000D01*
X75018750Y-76500400D02*
X75018750Y-74706250D01*
X76117100Y-77598750D02*
X75018750Y-76500400D01*
X78293750Y-77598750D02*
X76117100Y-77598750D01*
X75452650Y-74272350D02*
X75452650Y-72202519D01*
X80168750Y-75723750D02*
X78293750Y-77598750D01*
X98825000Y-81325000D02*
X102825000Y-81325000D01*
X98525000Y-81625000D02*
X98825000Y-81325000D01*
X97047500Y-97852500D02*
X107215000Y-97852500D01*
X95600000Y-99300000D02*
X97047500Y-97852500D01*
X92222500Y-97852500D02*
X92325000Y-97750000D01*
X83402500Y-97852500D02*
X92222500Y-97852500D01*
X95875000Y-116950000D02*
X95922500Y-116902500D01*
X95922500Y-116902500D02*
X111977500Y-116902500D01*
X92522500Y-116902500D02*
X92525000Y-116900000D01*
X85307500Y-116902500D02*
X92522500Y-116902500D01*
X92650000Y-135975000D02*
X90410000Y-135975000D01*
X90410000Y-135975000D02*
X90387500Y-135952500D01*
X100152500Y-135952500D02*
X96500000Y-132300000D01*
X96500000Y-132300000D02*
X96537500Y-132337500D01*
X122137500Y-135952500D02*
X100152500Y-135952500D01*
X207227500Y-139547500D02*
X207250000Y-139525000D01*
X207227500Y-140652500D02*
X207227500Y-139547500D01*
X208099344Y-141728156D02*
X207227500Y-142600000D01*
X208356682Y-141728156D02*
X208099344Y-141728156D01*
X207227500Y-142600000D02*
X207227500Y-143252500D01*
X207227500Y-140652500D02*
X207227500Y-142600000D01*
X216158750Y-139858750D02*
X216150000Y-139850000D01*
X217546250Y-139858750D02*
X216158750Y-139858750D01*
X209302500Y-141902500D02*
X209625000Y-142225000D01*
X207227500Y-143252500D02*
X209346250Y-145371250D01*
X209346250Y-145371250D02*
X210115000Y-145371250D01*
X209302500Y-138602500D02*
X209302500Y-140652500D01*
X209300000Y-138600000D02*
X209302500Y-138602500D01*
X205675000Y-138600000D02*
X209300000Y-138600000D01*
X81325000Y-83950000D02*
X79950000Y-83950000D01*
X82300000Y-82975000D02*
X81325000Y-83950000D01*
X225350000Y-156575000D02*
X225375000Y-156600000D01*
X223650000Y-156575000D02*
X225350000Y-156575000D01*
X206300000Y-151950000D02*
X203725000Y-151950000D01*
X206775000Y-152425000D02*
X206300000Y-151950000D01*
X209968750Y-152425000D02*
X206775000Y-152425000D01*
X210115000Y-152571250D02*
X209968750Y-152425000D01*
X208196250Y-151771250D02*
X206300000Y-149875000D01*
X210115000Y-151771250D02*
X208196250Y-151771250D01*
X211687500Y-151712500D02*
X211628750Y-151771250D01*
X211687500Y-152673750D02*
X210211250Y-154150000D01*
X215112500Y-148287500D02*
X211687500Y-151712500D01*
X211687500Y-151712500D02*
X211687500Y-152673750D01*
X215112500Y-148287500D02*
X215015000Y-148190000D01*
X215225000Y-148400000D02*
X215112500Y-148287500D01*
X211628750Y-151771250D02*
X210115000Y-151771250D01*
X212421250Y-145371250D02*
X210115000Y-145371250D01*
X215337500Y-148287500D02*
X216653750Y-146971250D01*
X215225000Y-148400000D02*
X215337500Y-148287500D01*
X215337500Y-148287500D02*
X212421250Y-145371250D01*
X215015000Y-148190000D02*
X215015000Y-142871250D01*
X219815000Y-152990000D02*
X215225000Y-148400000D01*
X219815000Y-154271250D02*
X219815000Y-152990000D01*
X216653750Y-146971250D02*
X221515000Y-146971250D01*
X220043750Y-154500000D02*
X219815000Y-154271250D01*
X223650000Y-154500000D02*
X220043750Y-154500000D01*
X220318750Y-156575000D02*
X223650000Y-156575000D01*
X219015000Y-155271250D02*
X220318750Y-156575000D01*
X219015000Y-154271250D02*
X219015000Y-155271250D01*
X84350000Y-76600000D02*
X84350000Y-77325000D01*
X86540350Y-74409650D02*
X84350000Y-76600000D01*
X84350000Y-77325000D02*
X83825000Y-77850000D01*
X89750000Y-72221184D02*
X87561534Y-74409650D01*
X87561534Y-74409650D02*
X86540350Y-74409650D01*
X83825000Y-77850000D02*
X83825000Y-78550000D01*
X89750000Y-70650000D02*
X89750000Y-72221184D01*
X80475000Y-78350000D02*
X81825000Y-78350000D01*
X80375000Y-78450000D02*
X80475000Y-78350000D01*
X80375000Y-78450000D02*
X79950000Y-78875000D01*
X79950000Y-78875000D02*
X79950000Y-80975000D01*
X82025000Y-78150000D02*
X81825000Y-78350000D01*
X228875000Y-153500000D02*
X227425000Y-152050000D01*
X230425000Y-153500000D02*
X228875000Y-153500000D01*
X231800000Y-152125000D02*
X230425000Y-153500000D01*
X231800000Y-151400000D02*
X231800000Y-152125000D01*
X227425000Y-152050000D02*
X227425000Y-151300000D01*
X233875000Y-150175000D02*
X233450000Y-149750000D01*
X233450000Y-149750000D02*
X232475000Y-149750000D01*
X233875000Y-151400000D02*
X233875000Y-150175000D01*
X232475000Y-149750000D02*
X233825000Y-148400000D01*
X231275000Y-149750000D02*
X232475000Y-149750000D01*
X229725000Y-151300000D02*
X231275000Y-149750000D01*
X229725000Y-151000000D02*
X229725000Y-151300000D01*
X227425000Y-148700000D02*
X229725000Y-151000000D01*
X227425000Y-148400000D02*
X227425000Y-148700000D01*
X225618198Y-147018198D02*
X224865146Y-147771250D01*
X228493198Y-147018198D02*
X225618198Y-147018198D01*
X229725000Y-148250000D02*
X228493198Y-147018198D01*
X224865146Y-147771250D02*
X221515000Y-147771250D01*
X229725000Y-148400000D02*
X229725000Y-148250000D01*
X231750000Y-148400000D02*
X229725000Y-148400000D01*
X231075000Y-145650000D02*
X233825000Y-148400000D01*
X226350000Y-145650000D02*
X231075000Y-145650000D01*
X225028750Y-146971250D02*
X221515000Y-146971250D01*
X226350000Y-145650000D02*
X225028750Y-146971250D01*
X223753750Y-146171250D02*
X221515000Y-146171250D01*
X226350000Y-143575000D02*
X223753750Y-146171250D01*
X81497500Y-155002500D02*
X105627500Y-155002500D01*
X129757500Y-155002500D02*
X105627500Y-155002500D01*
X130290250Y-154469750D02*
X129757500Y-155002500D01*
X199964750Y-154469750D02*
X130290250Y-154469750D01*
X200877500Y-155382500D02*
X199964750Y-154469750D01*
X344007500Y-155382500D02*
X344387500Y-155002500D01*
X320257500Y-155382500D02*
X344007500Y-155382500D01*
X319877500Y-155002500D02*
X320257500Y-155382500D01*
X296127500Y-155002500D02*
X319877500Y-155002500D01*
X271997500Y-155002500D02*
X296127500Y-155002500D01*
X332957716Y-151752650D02*
X344337350Y-151752650D01*
X330317500Y-146843750D02*
X330317500Y-149112434D01*
X330317500Y-149112434D02*
X332957716Y-151752650D01*
X344337350Y-151752650D02*
X344387500Y-151702500D01*
X309475066Y-152082500D02*
X320257500Y-152082500D01*
X306505000Y-149112434D02*
X309475066Y-152082500D01*
X306505000Y-146843750D02*
X306505000Y-149112434D01*
X296077350Y-151752650D02*
X296127500Y-151702500D01*
X285332716Y-151752650D02*
X296077350Y-151752650D01*
X282692500Y-149112434D02*
X285332716Y-151752650D01*
X282692500Y-146843750D02*
X282692500Y-149112434D01*
X271947350Y-151752650D02*
X271997500Y-151702500D01*
X261520216Y-151752650D02*
X271947350Y-151752650D01*
X258880000Y-149112434D02*
X261520216Y-151752650D01*
X258880000Y-146843750D02*
X258880000Y-149112434D01*
X190412566Y-152082500D02*
X200877500Y-152082500D01*
X187442500Y-149112434D02*
X190412566Y-152082500D01*
X187442500Y-146843750D02*
X187442500Y-149112434D01*
X129707350Y-151752650D02*
X129757500Y-151702500D01*
X118645216Y-151752650D02*
X129707350Y-151752650D01*
X116005000Y-149112434D02*
X118645216Y-151752650D01*
X116005000Y-146843750D02*
X116005000Y-149112434D01*
X294187500Y-135952500D02*
X329147500Y-135952500D01*
X293807500Y-136332500D02*
X294187500Y-135952500D01*
X293587500Y-136332500D02*
X293807500Y-136332500D01*
X217387500Y-135952500D02*
X293207500Y-135952500D01*
X293207500Y-135952500D02*
X293587500Y-136332500D01*
X214909998Y-133474998D02*
X217387500Y-135952500D01*
X200815002Y-133474998D02*
X214909998Y-133474998D01*
X198337500Y-135952500D02*
X200815002Y-133474998D01*
X122137500Y-135952500D02*
X198337500Y-135952500D01*
X329097350Y-132702650D02*
X329147500Y-132652500D01*
X318670216Y-132702650D02*
X329097350Y-132702650D01*
X316030000Y-130062434D02*
X318670216Y-132702650D01*
X316030000Y-127793750D02*
X316030000Y-130062434D01*
X283281316Y-133032500D02*
X293587500Y-133032500D01*
X280311250Y-130062434D02*
X283281316Y-133032500D01*
X280311250Y-127793750D02*
X280311250Y-130062434D01*
X263948816Y-132750000D02*
X274440000Y-132750000D01*
X261261250Y-127793750D02*
X261261250Y-130062434D01*
X261261250Y-130062434D02*
X263948816Y-132750000D01*
X274440000Y-132750000D02*
X274537500Y-132652500D01*
X255437350Y-132702650D02*
X255487500Y-132652500D01*
X244851466Y-132702650D02*
X255437350Y-132702650D01*
X242211250Y-130062434D02*
X244851466Y-132702650D01*
X242211250Y-127793750D02*
X242211250Y-130062434D01*
X223161250Y-130062434D02*
X225801466Y-132702650D01*
X225801466Y-132702650D02*
X236387350Y-132702650D01*
X236387350Y-132702650D02*
X236437500Y-132652500D01*
X223161250Y-127793750D02*
X223161250Y-130062434D01*
X206751466Y-132702650D02*
X217337350Y-132702650D01*
X204111250Y-130062434D02*
X206751466Y-132702650D01*
X217337350Y-132702650D02*
X217387500Y-132652500D01*
X204111250Y-127793750D02*
X204111250Y-130062434D01*
X198240000Y-132750000D02*
X198337500Y-132652500D01*
X187748816Y-132750000D02*
X198240000Y-132750000D01*
X185061250Y-130062434D02*
X187748816Y-132750000D01*
X185061250Y-127793750D02*
X185061250Y-130062434D01*
X179237350Y-132702650D02*
X179287500Y-132652500D01*
X168651466Y-132702650D02*
X179237350Y-132702650D01*
X166011250Y-127793750D02*
X166011250Y-130062434D01*
X166011250Y-130062434D02*
X168651466Y-132702650D01*
X149601466Y-132702650D02*
X160187350Y-132702650D01*
X160187350Y-132702650D02*
X160237500Y-132652500D01*
X146961250Y-130062434D02*
X149601466Y-132702650D01*
X146961250Y-127793750D02*
X146961250Y-130062434D01*
X127911250Y-130062434D02*
X130551466Y-132702650D01*
X127911250Y-127793750D02*
X127911250Y-130062434D01*
X130551466Y-132702650D02*
X141137350Y-132702650D01*
X141137350Y-132702650D02*
X141187500Y-132652500D01*
X131027500Y-116902500D02*
X332957500Y-116902500D01*
X111977500Y-116902500D02*
X131027500Y-116902500D01*
X332907350Y-113652650D02*
X332957500Y-113602500D01*
X323432716Y-113652650D02*
X332907350Y-113652650D01*
X320792500Y-108743750D02*
X320792500Y-111012434D01*
X320792500Y-111012434D02*
X323432716Y-113652650D01*
X302427350Y-113652650D02*
X302477500Y-113602500D01*
X292476466Y-113652650D02*
X302427350Y-113652650D01*
X289836250Y-111012434D02*
X292476466Y-113652650D01*
X289836250Y-108743750D02*
X289836250Y-111012434D01*
X273426466Y-113652650D02*
X283377350Y-113652650D01*
X283377350Y-113652650D02*
X283427500Y-113602500D01*
X270786250Y-111012434D02*
X273426466Y-113652650D01*
X270786250Y-108743750D02*
X270786250Y-111012434D01*
X254376466Y-113652650D02*
X264327350Y-113652650D01*
X264327350Y-113652650D02*
X264377500Y-113602500D01*
X251736250Y-111012434D02*
X254376466Y-113652650D01*
X251736250Y-108743750D02*
X251736250Y-111012434D01*
X245277350Y-113652650D02*
X245327500Y-113602500D01*
X232686250Y-111012434D02*
X235326466Y-113652650D01*
X232686250Y-108743750D02*
X232686250Y-111012434D01*
X235326466Y-113652650D02*
X245277350Y-113652650D01*
X226227350Y-113652650D02*
X226277500Y-113602500D01*
X216276466Y-113652650D02*
X226227350Y-113652650D01*
X213636250Y-108743750D02*
X213636250Y-111012434D01*
X213636250Y-111012434D02*
X216276466Y-113652650D01*
X197226466Y-113652650D02*
X207177350Y-113652650D01*
X207177350Y-113652650D02*
X207227500Y-113602500D01*
X194586250Y-111012434D02*
X197226466Y-113652650D01*
X194586250Y-108743750D02*
X194586250Y-111012434D01*
X188080000Y-113700000D02*
X188177500Y-113602500D01*
X178223816Y-113700000D02*
X188080000Y-113700000D01*
X175536250Y-111012434D02*
X178223816Y-113700000D01*
X175536250Y-108743750D02*
X175536250Y-111012434D01*
X159126466Y-113652650D02*
X169077350Y-113652650D01*
X169077350Y-113652650D02*
X169127500Y-113602500D01*
X156486250Y-111012434D02*
X159126466Y-113652650D01*
X156486250Y-108743750D02*
X156486250Y-111012434D01*
X150027350Y-113652650D02*
X150077500Y-113602500D01*
X140076466Y-113652650D02*
X150027350Y-113652650D01*
X137436250Y-108743750D02*
X137436250Y-111012434D01*
X137436250Y-111012434D02*
X140076466Y-113652650D01*
X130977350Y-113652650D02*
X131027500Y-113602500D01*
X118386250Y-111012434D02*
X121026466Y-113652650D01*
X121026466Y-113652650D02*
X130977350Y-113652650D01*
X118386250Y-108743750D02*
X118386250Y-111012434D01*
X316765000Y-97852500D02*
X107215000Y-97852500D01*
X340577500Y-97852500D02*
X316765000Y-97852500D01*
X340527350Y-94602650D02*
X340577500Y-94552500D01*
X330576466Y-94602650D02*
X340527350Y-94602650D01*
X327936250Y-89693750D02*
X327936250Y-91962434D01*
X327936250Y-91962434D02*
X330576466Y-94602650D01*
X316714850Y-94602650D02*
X316765000Y-94552500D01*
X304123750Y-91962434D02*
X306763966Y-94602650D01*
X306763966Y-94602650D02*
X316714850Y-94602650D01*
X304123750Y-89693750D02*
X304123750Y-91962434D01*
X297664850Y-94602650D02*
X297715000Y-94552500D01*
X285073750Y-91962434D02*
X287713966Y-94602650D01*
X287713966Y-94602650D02*
X297664850Y-94602650D01*
X285073750Y-89693750D02*
X285073750Y-91962434D01*
X278614850Y-94602650D02*
X278665000Y-94552500D01*
X268663966Y-94602650D02*
X278614850Y-94602650D01*
X266023750Y-91962434D02*
X268663966Y-94602650D01*
X266023750Y-89693750D02*
X266023750Y-91962434D01*
X259564850Y-94602650D02*
X259615000Y-94552500D01*
X246973750Y-91962434D02*
X249613966Y-94602650D01*
X249613966Y-94602650D02*
X259564850Y-94602650D01*
X246973750Y-89693750D02*
X246973750Y-91962434D01*
X240514850Y-94602650D02*
X240565000Y-94552500D01*
X230563966Y-94602650D02*
X240514850Y-94602650D01*
X227923750Y-91962434D02*
X230563966Y-94602650D01*
X227923750Y-89693750D02*
X227923750Y-91962434D01*
X221464850Y-94602650D02*
X221515000Y-94552500D01*
X208873750Y-91962434D02*
X211513966Y-94602650D01*
X208873750Y-89693750D02*
X208873750Y-91962434D01*
X211513966Y-94602650D02*
X221464850Y-94602650D01*
X202414850Y-94602650D02*
X202465000Y-94552500D01*
X189823750Y-91962434D02*
X192463966Y-94602650D01*
X189823750Y-89693750D02*
X189823750Y-91962434D01*
X192463966Y-94602650D02*
X202414850Y-94602650D01*
X183364850Y-94602650D02*
X183415000Y-94552500D01*
X173413966Y-94602650D02*
X183364850Y-94602650D01*
X170773750Y-91962434D02*
X173413966Y-94602650D01*
X170773750Y-89693750D02*
X170773750Y-91962434D01*
X164314850Y-94602650D02*
X164365000Y-94552500D01*
X151723750Y-91962434D02*
X154363966Y-94602650D01*
X154363966Y-94602650D02*
X164314850Y-94602650D01*
X151723750Y-89693750D02*
X151723750Y-91962434D01*
X135313966Y-94602650D02*
X145264850Y-94602650D01*
X145264850Y-94602650D02*
X145315000Y-94552500D01*
X132673750Y-91962434D02*
X135313966Y-94602650D01*
X132673750Y-89693750D02*
X132673750Y-91962434D01*
X126192500Y-94625000D02*
X126265000Y-94552500D01*
X116286316Y-94625000D02*
X126192500Y-94625000D01*
X113623750Y-91962434D02*
X116286316Y-94625000D01*
X113623750Y-89693750D02*
X113623750Y-91962434D01*
X307240000Y-78802500D02*
X335815000Y-78802500D01*
X288190000Y-78802500D02*
X307240000Y-78802500D01*
X269140000Y-78802500D02*
X288190000Y-78802500D01*
X250090000Y-78802500D02*
X269140000Y-78802500D01*
X231040000Y-78802500D02*
X250090000Y-78802500D01*
X231040000Y-78802500D02*
X211990000Y-78802500D01*
X192940000Y-78802500D02*
X211990000Y-78802500D01*
X173890000Y-78802500D02*
X192940000Y-78802500D01*
X154840000Y-78802500D02*
X173890000Y-78802500D01*
X135790000Y-78802500D02*
X154840000Y-78802500D01*
X116740000Y-78802500D02*
X135790000Y-78802500D01*
X114217500Y-81325000D02*
X116740000Y-78802500D01*
X102825000Y-81325000D02*
X114217500Y-81325000D01*
X335764850Y-75552650D02*
X335815000Y-75502500D01*
X325813966Y-75552650D02*
X335764850Y-75552650D01*
X323173750Y-72912434D02*
X325813966Y-75552650D01*
X323173750Y-70643750D02*
X323173750Y-72912434D01*
X307189850Y-75552650D02*
X307240000Y-75502500D01*
X297238966Y-75552650D02*
X307189850Y-75552650D01*
X294598750Y-72912434D02*
X297238966Y-75552650D01*
X294598750Y-70643750D02*
X294598750Y-72912434D01*
X278188966Y-75552650D02*
X288139850Y-75552650D01*
X288139850Y-75552650D02*
X288190000Y-75502500D01*
X275548750Y-72912434D02*
X278188966Y-75552650D01*
X275548750Y-70643750D02*
X275548750Y-72912434D01*
X269042500Y-75600000D02*
X269140000Y-75502500D01*
X259186316Y-75600000D02*
X269042500Y-75600000D01*
X256498750Y-72912434D02*
X259186316Y-75600000D01*
X256498750Y-70643750D02*
X256498750Y-72912434D01*
X250039850Y-75552650D02*
X250090000Y-75502500D01*
X240088966Y-75552650D02*
X250039850Y-75552650D01*
X237448750Y-70643750D02*
X237448750Y-72912434D01*
X237448750Y-72912434D02*
X240088966Y-75552650D01*
X218398750Y-72912434D02*
X221038966Y-75552650D01*
X230989850Y-75552650D02*
X231040000Y-75502500D01*
X218398750Y-70643750D02*
X218398750Y-72912434D01*
X221038966Y-75552650D02*
X230989850Y-75552650D01*
X211939850Y-75552650D02*
X211990000Y-75502500D01*
X201988966Y-75552650D02*
X211939850Y-75552650D01*
X199348750Y-70643750D02*
X199348750Y-72912434D01*
X199348750Y-72912434D02*
X201988966Y-75552650D01*
X192492500Y-75950000D02*
X192940000Y-75502500D01*
X183336316Y-75950000D02*
X192492500Y-75950000D01*
X180298750Y-72912434D02*
X183336316Y-75950000D01*
X180298750Y-70643750D02*
X180298750Y-72912434D01*
X163888966Y-75552650D02*
X173839850Y-75552650D01*
X161248750Y-72912434D02*
X163888966Y-75552650D01*
X173839850Y-75552650D02*
X173890000Y-75502500D01*
X161248750Y-70643750D02*
X161248750Y-72912434D01*
X154789850Y-75552650D02*
X154840000Y-75502500D01*
X144838966Y-75552650D02*
X154789850Y-75552650D01*
X142198750Y-72912434D02*
X144838966Y-75552650D01*
X142198750Y-70643750D02*
X142198750Y-72912434D01*
X135692500Y-75600000D02*
X135790000Y-75502500D01*
X125836316Y-75600000D02*
X135692500Y-75600000D01*
X123148750Y-72912434D02*
X125836316Y-75600000D01*
X123148750Y-70643750D02*
X123148750Y-72912434D01*
X116689850Y-75552650D02*
X116740000Y-75502500D01*
X104098750Y-72912434D02*
X106738966Y-75552650D01*
X106738966Y-75552650D02*
X116689850Y-75552650D01*
X104098750Y-70643750D02*
X104098750Y-72912434D01*
X100523750Y-75723750D02*
X102825000Y-78025000D01*
X99218750Y-75723750D02*
X100523750Y-75723750D01*
X97213966Y-94602650D02*
X107164850Y-94602650D01*
X94573750Y-91962434D02*
X97213966Y-94602650D01*
X107164850Y-94602650D02*
X107215000Y-94552500D01*
X94573750Y-89693750D02*
X94573750Y-91962434D01*
X101976466Y-113652650D02*
X111927350Y-113652650D01*
X99336250Y-111012434D02*
X101976466Y-113652650D01*
X111927350Y-113652650D02*
X111977500Y-113602500D01*
X99336250Y-108743750D02*
X99336250Y-111012434D01*
X122015000Y-132775000D02*
X122137500Y-132652500D01*
X111573816Y-132775000D02*
X122015000Y-132775000D01*
X108861250Y-130062434D02*
X111573816Y-132775000D01*
X108861250Y-127793750D02*
X108861250Y-130062434D01*
X105577350Y-151752650D02*
X105627500Y-151702500D01*
X94832716Y-151752650D02*
X105577350Y-151752650D01*
X92192500Y-149112434D02*
X94832716Y-151752650D01*
X92192500Y-146843750D02*
X92192500Y-149112434D01*
X81447350Y-151752650D02*
X81497500Y-151702500D01*
X71020216Y-151752650D02*
X81447350Y-151752650D01*
X68380000Y-146843750D02*
X68380000Y-149112434D01*
X68380000Y-149112434D02*
X71020216Y-151752650D01*
X90337350Y-132702650D02*
X90387500Y-132652500D01*
X80486466Y-132702650D02*
X90337350Y-132702650D01*
X77846250Y-130062434D02*
X80486466Y-132702650D01*
X77846250Y-127793750D02*
X77846250Y-130062434D01*
X85257350Y-113652650D02*
X85307500Y-113602500D01*
X75782716Y-113652650D02*
X85257350Y-113652650D01*
X73142500Y-111012434D02*
X75782716Y-113652650D01*
X73142500Y-108743750D02*
X73142500Y-111012434D01*
X83352350Y-94602650D02*
X83402500Y-94552500D01*
X73401466Y-94602650D02*
X83352350Y-94602650D01*
X70761250Y-91962434D02*
X73401466Y-94602650D01*
X70761250Y-89693750D02*
X70761250Y-91962434D01*
X336391250Y-68103750D02*
X336550000Y-68262500D01*
X336100750Y-68103750D02*
X336391250Y-68103750D01*
X307340000Y-68103750D02*
X307181250Y-68262500D01*
X307525750Y-68103750D02*
X307340000Y-68103750D01*
X288475750Y-68103750D02*
X288766250Y-68103750D01*
X288766250Y-68103750D02*
X288925000Y-68262500D01*
X269716250Y-68103750D02*
X269875000Y-68262500D01*
X269425750Y-68103750D02*
X269716250Y-68103750D01*
X250375750Y-67813250D02*
X250031250Y-67468750D01*
X250375750Y-68103750D02*
X250375750Y-67813250D01*
X231140000Y-68103750D02*
X230981250Y-68262500D01*
X231325750Y-68103750D02*
X231140000Y-68103750D01*
X212566250Y-68103750D02*
X212725000Y-68262500D01*
X212275750Y-68103750D02*
X212566250Y-68103750D01*
X193225750Y-67813250D02*
X192881250Y-67468750D01*
X193225750Y-68103750D02*
X193225750Y-67813250D01*
X173990000Y-68103750D02*
X173831250Y-68262500D01*
X174175750Y-68103750D02*
X173990000Y-68103750D01*
X155416250Y-68103750D02*
X155575000Y-68262500D01*
X155125750Y-68103750D02*
X155416250Y-68103750D01*
X136366250Y-68103750D02*
X136525000Y-68262500D01*
X136075750Y-68103750D02*
X136366250Y-68103750D01*
X117316250Y-68103750D02*
X117475000Y-68262500D01*
X117025750Y-68103750D02*
X117316250Y-68103750D01*
X86291750Y-78354250D02*
X86518750Y-78581250D01*
X86291750Y-78263750D02*
X86291750Y-78354250D01*
X67241750Y-78354250D02*
X67468750Y-78581250D01*
X67241750Y-78263750D02*
X67241750Y-78354250D01*
X213168750Y-144425000D02*
X214281675Y-144425000D01*
X212615000Y-142871250D02*
X212615000Y-143871250D01*
X212615000Y-143871250D02*
X213168750Y-144425000D01*
X216625000Y-144375000D02*
X216625000Y-142881250D01*
X216625000Y-142881250D02*
X216615000Y-142871250D01*
X75300000Y-67690000D02*
X75762397Y-67227603D01*
D36*
X211581801Y-134350001D02*
X212955624Y-135723824D01*
X204743199Y-134350001D02*
X211581801Y-134350001D01*
X199868199Y-139225001D02*
X204743199Y-134350001D01*
X145938526Y-139225001D02*
X199868199Y-139225001D01*
X212955624Y-137686876D02*
X211990000Y-138652500D01*
X145498375Y-138784850D02*
X145938526Y-139225001D01*
X212955624Y-135723824D02*
X212955624Y-137686876D01*
X143556625Y-138784850D02*
X145498375Y-138784850D01*
X100981801Y-139225001D02*
X143116474Y-139225001D01*
X87724999Y-86693199D02*
X87724999Y-90118199D01*
X82600000Y-81568200D02*
X87724999Y-86693199D01*
X93899999Y-132143199D02*
X100981801Y-139225001D01*
X87724999Y-90118199D02*
X93899999Y-96293199D01*
X82600000Y-81075000D02*
X82600000Y-81568200D01*
X81825000Y-80300000D02*
X82600000Y-81075000D01*
X143116474Y-139225001D02*
X143556625Y-138784850D01*
X81825000Y-80250000D02*
X81825000Y-80300000D01*
X93899999Y-96293199D02*
X93899999Y-132143199D01*
X213405626Y-135537426D02*
X213405626Y-137686876D01*
X213405626Y-137686876D02*
X214371250Y-138652500D01*
X204556801Y-133899999D02*
X211768199Y-133899999D01*
X199681801Y-138774999D02*
X204556801Y-133899999D01*
X146124894Y-138774999D02*
X199681801Y-138774999D01*
X145684764Y-138334869D02*
X146124894Y-138774999D01*
X143370236Y-138334869D02*
X145684764Y-138334869D01*
X142930106Y-138774999D02*
X143370236Y-138334869D01*
X94350001Y-131956801D02*
X101168199Y-138774999D01*
X211768199Y-133899999D02*
X213405626Y-135537426D01*
X94350001Y-96106801D02*
X94350001Y-131956801D01*
X83050000Y-81381800D02*
X88175001Y-86506801D01*
X88175001Y-86506801D02*
X88175001Y-89931801D01*
X83050000Y-81075000D02*
X83050000Y-81381800D01*
X83825000Y-80300000D02*
X83050000Y-81075000D01*
X101168199Y-138774999D02*
X142930106Y-138774999D01*
X83825000Y-80250000D02*
X83825000Y-80300000D01*
X88175001Y-89931801D02*
X94350001Y-96106801D01*
G04 #@! TA.AperFunction,Conductor*
G36*
X234616087Y-146704685D02*
G01*
X234636727Y-146721318D01*
X236183681Y-148268272D01*
X236217166Y-148329594D01*
X236220000Y-148355952D01*
X236220000Y-153200500D01*
X236200315Y-153267539D01*
X236147511Y-153313294D01*
X236096000Y-153324500D01*
X231784452Y-153324500D01*
X231717413Y-153304815D01*
X231671658Y-153252011D01*
X231661714Y-153182853D01*
X231690739Y-153119297D01*
X231696771Y-153112819D01*
X231910857Y-152898733D01*
X232152510Y-152657079D01*
X232213831Y-152623596D01*
X232227577Y-152621405D01*
X232290297Y-152614999D01*
X232456834Y-152559814D01*
X232606156Y-152467712D01*
X232730212Y-152343656D01*
X232732252Y-152340347D01*
X232734245Y-152338555D01*
X232734693Y-152337989D01*
X232734789Y-152338065D01*
X232784194Y-152293623D01*
X232853156Y-152282395D01*
X232917240Y-152310234D01*
X232943329Y-152340339D01*
X232945181Y-152343341D01*
X232945183Y-152343344D01*
X233069154Y-152467315D01*
X233218375Y-152559356D01*
X233218380Y-152559358D01*
X233384802Y-152614505D01*
X233384809Y-152614506D01*
X233487519Y-152624999D01*
X233624999Y-152624999D01*
X234125000Y-152624999D01*
X234262472Y-152624999D01*
X234262486Y-152624998D01*
X234365197Y-152614505D01*
X234531619Y-152559358D01*
X234531624Y-152559356D01*
X234680845Y-152467315D01*
X234804815Y-152343345D01*
X234896856Y-152194124D01*
X234896858Y-152194119D01*
X234952005Y-152027697D01*
X234952006Y-152027690D01*
X234962499Y-151924986D01*
X234962500Y-151924973D01*
X234962500Y-151650000D01*
X234125000Y-151650000D01*
X234125000Y-152624999D01*
X233624999Y-152624999D01*
X233625000Y-152624998D01*
X233625000Y-151150000D01*
X234125000Y-151150000D01*
X234962499Y-151150000D01*
X234962499Y-150875028D01*
X234962498Y-150875013D01*
X234952005Y-150772302D01*
X234896858Y-150605880D01*
X234896856Y-150605875D01*
X234804815Y-150456654D01*
X234680845Y-150332684D01*
X234531624Y-150240643D01*
X234531619Y-150240641D01*
X234365197Y-150185494D01*
X234365190Y-150185493D01*
X234262486Y-150175000D01*
X234125000Y-150175000D01*
X234125000Y-151150000D01*
X233625000Y-151150000D01*
X233625000Y-150175000D01*
X233487527Y-150175000D01*
X233487512Y-150175001D01*
X233384802Y-150185494D01*
X233218380Y-150240641D01*
X233218375Y-150240643D01*
X233069154Y-150332684D01*
X232945183Y-150456655D01*
X232945179Y-150456660D01*
X232943326Y-150459665D01*
X232941518Y-150461290D01*
X232940702Y-150462323D01*
X232940525Y-150462183D01*
X232891374Y-150506385D01*
X232822411Y-150517601D01*
X232758331Y-150489752D01*
X232732253Y-150459653D01*
X232732237Y-150459628D01*
X232730212Y-150456344D01*
X232606156Y-150332288D01*
X232513388Y-150275069D01*
X232456836Y-150240187D01*
X232456831Y-150240185D01*
X232455362Y-150239698D01*
X232290297Y-150185001D01*
X232290295Y-150185000D01*
X232187510Y-150174500D01*
X231412498Y-150174500D01*
X231412480Y-150174501D01*
X231309703Y-150185000D01*
X231309696Y-150185002D01*
X231267113Y-150199113D01*
X231197285Y-150201514D01*
X231137243Y-150165783D01*
X231111928Y-150124740D01*
X231068354Y-150007913D01*
X231068352Y-150007910D01*
X231006082Y-149924727D01*
X230981665Y-149859262D01*
X230996517Y-149790989D01*
X231006083Y-149776104D01*
X231021524Y-149755478D01*
X231068796Y-149692331D01*
X231073706Y-149679165D01*
X231115575Y-149623231D01*
X231181038Y-149598811D01*
X231228890Y-149604788D01*
X231259703Y-149614999D01*
X231362491Y-149625500D01*
X232137508Y-149625499D01*
X232137516Y-149625498D01*
X232137519Y-149625498D01*
X232193802Y-149619748D01*
X232240297Y-149614999D01*
X232406834Y-149559814D01*
X232556156Y-149467712D01*
X232680212Y-149343656D01*
X232682252Y-149340347D01*
X232684245Y-149338555D01*
X232684693Y-149337989D01*
X232684789Y-149338065D01*
X232734194Y-149293623D01*
X232803156Y-149282395D01*
X232867240Y-149310234D01*
X232893329Y-149340339D01*
X232895181Y-149343341D01*
X232895183Y-149343344D01*
X233019154Y-149467315D01*
X233168375Y-149559356D01*
X233168380Y-149559358D01*
X233334802Y-149614505D01*
X233334809Y-149614506D01*
X233437519Y-149624999D01*
X233574999Y-149624999D01*
X234075000Y-149624999D01*
X234212472Y-149624999D01*
X234212486Y-149624998D01*
X234315197Y-149614505D01*
X234481619Y-149559358D01*
X234481624Y-149559356D01*
X234630845Y-149467315D01*
X234754815Y-149343345D01*
X234846856Y-149194124D01*
X234846858Y-149194119D01*
X234902005Y-149027697D01*
X234902006Y-149027690D01*
X234912499Y-148924986D01*
X234912500Y-148924973D01*
X234912500Y-148650000D01*
X234075000Y-148650000D01*
X234075000Y-149624999D01*
X233574999Y-149624999D01*
X233575000Y-149624998D01*
X233575000Y-148150000D01*
X234075000Y-148150000D01*
X234912499Y-148150000D01*
X234912499Y-147875028D01*
X234912498Y-147875013D01*
X234902005Y-147772302D01*
X234846858Y-147605880D01*
X234846856Y-147605875D01*
X234754815Y-147456654D01*
X234630845Y-147332684D01*
X234481624Y-147240643D01*
X234481619Y-147240641D01*
X234315197Y-147185494D01*
X234315190Y-147185493D01*
X234212486Y-147175000D01*
X234075000Y-147175000D01*
X234075000Y-148150000D01*
X233575000Y-148150000D01*
X233575000Y-147175000D01*
X233437527Y-147175000D01*
X233437512Y-147175001D01*
X233334802Y-147185494D01*
X233168380Y-147240641D01*
X233168375Y-147240643D01*
X233019154Y-147332684D01*
X232895183Y-147456655D01*
X232895179Y-147456660D01*
X232893326Y-147459665D01*
X232891518Y-147461290D01*
X232890702Y-147462323D01*
X232890525Y-147462183D01*
X232841374Y-147506385D01*
X232772411Y-147517601D01*
X232708331Y-147489752D01*
X232682253Y-147459653D01*
X232682237Y-147459628D01*
X232680212Y-147456344D01*
X232556156Y-147332288D01*
X232406834Y-147240186D01*
X232240297Y-147185001D01*
X232240295Y-147185000D01*
X232137510Y-147174500D01*
X231362498Y-147174500D01*
X231362480Y-147174501D01*
X231259703Y-147185000D01*
X231259698Y-147185001D01*
X231228890Y-147195210D01*
X231159061Y-147197610D01*
X231099020Y-147161877D01*
X231073706Y-147120834D01*
X231068796Y-147107669D01*
X231068793Y-147107664D01*
X230982547Y-146992455D01*
X230982544Y-146992452D01*
X230870087Y-146908266D01*
X230828216Y-146852332D01*
X230823232Y-146782641D01*
X230856718Y-146721318D01*
X230918041Y-146687834D01*
X230944398Y-146685000D01*
X234549048Y-146685000D01*
X234616087Y-146704685D01*
G37*
G04 #@! TD.AperFunction*
G04 #@! TA.AperFunction,Conductor*
G36*
X215432514Y-144115340D02*
G01*
X215432517Y-144115341D01*
X215492127Y-144121750D01*
X215608441Y-144121749D01*
X215675480Y-144141433D01*
X215721235Y-144194237D01*
X215731762Y-144258710D01*
X215719540Y-144375000D01*
X215739326Y-144563256D01*
X215739327Y-144563259D01*
X215797818Y-144743277D01*
X215797821Y-144743284D01*
X215892467Y-144907216D01*
X215995466Y-145021608D01*
X216019129Y-145047888D01*
X216172265Y-145159148D01*
X216172270Y-145159151D01*
X216345192Y-145236142D01*
X216345193Y-145236142D01*
X216345197Y-145236144D01*
X216377650Y-145243042D01*
X216394388Y-145246600D01*
X216455870Y-145279792D01*
X216489647Y-145340955D01*
X216484995Y-145410669D01*
X216468926Y-145440775D01*
X216467467Y-145442781D01*
X216372821Y-145606715D01*
X216372818Y-145606722D01*
X216315817Y-145782154D01*
X216314326Y-145786744D01*
X216294540Y-145975000D01*
X216314326Y-146163256D01*
X216314327Y-146163259D01*
X216372818Y-146343277D01*
X216372821Y-146343284D01*
X216467467Y-146507216D01*
X216513189Y-146557995D01*
X216594129Y-146647888D01*
X216747265Y-146759148D01*
X216747270Y-146759151D01*
X216920192Y-146836142D01*
X216920197Y-146836144D01*
X217105354Y-146875500D01*
X217105355Y-146875500D01*
X217294644Y-146875500D01*
X217294646Y-146875500D01*
X217479803Y-146836144D01*
X217652730Y-146759151D01*
X217805871Y-146647888D01*
X217932533Y-146507216D01*
X218027179Y-146343284D01*
X218085674Y-146163256D01*
X218103321Y-145995345D01*
X218129905Y-145930732D01*
X218138952Y-145920636D01*
X218606664Y-145452925D01*
X218606671Y-145452919D01*
X218613731Y-145445858D01*
X218613733Y-145445858D01*
X218664222Y-145395369D01*
X218696200Y-145377907D01*
X218698355Y-145364711D01*
X218707042Y-145349477D01*
X218769311Y-145256286D01*
X218769312Y-145256285D01*
X218769313Y-145256282D01*
X218769315Y-145256279D01*
X218788835Y-145209151D01*
X218816463Y-145142451D01*
X218840500Y-145021607D01*
X218840500Y-144898393D01*
X218840500Y-144245749D01*
X218860185Y-144178710D01*
X218912989Y-144132955D01*
X218964500Y-144121749D01*
X219337871Y-144121749D01*
X219337872Y-144121749D01*
X219397483Y-144115341D01*
X219397486Y-144115339D01*
X219401744Y-144114882D01*
X219428254Y-144114882D01*
X219432514Y-144115339D01*
X219432517Y-144115341D01*
X219492127Y-144121750D01*
X220137872Y-144121749D01*
X220140500Y-144121749D01*
X220207539Y-144141433D01*
X220253294Y-144194237D01*
X220264500Y-144245749D01*
X220264500Y-144639538D01*
X220244815Y-144706577D01*
X220192011Y-144752332D01*
X220164691Y-144761155D01*
X220121304Y-144769785D01*
X220121295Y-144769787D01*
X220111774Y-144773732D01*
X220111769Y-144773734D01*
X220007468Y-144816935D01*
X220007464Y-144816937D01*
X219978359Y-144836385D01*
X219968567Y-144842929D01*
X219905018Y-144885390D01*
X219883195Y-144907214D01*
X219817892Y-144972517D01*
X219817889Y-144972520D01*
X219715910Y-145074500D01*
X219627229Y-145163181D01*
X219565906Y-145196666D01*
X219539548Y-145199500D01*
X219480354Y-145199500D01*
X219460143Y-145203796D01*
X219295197Y-145238855D01*
X219295192Y-145238857D01*
X219122270Y-145315848D01*
X219122265Y-145315851D01*
X218969129Y-145427111D01*
X218969128Y-145427112D01*
X218902297Y-145501335D01*
X218864637Y-145524535D01*
X218860735Y-145542477D01*
X218844057Y-145566018D01*
X218842466Y-145567785D01*
X218747821Y-145731715D01*
X218747818Y-145731722D01*
X218689327Y-145911740D01*
X218689326Y-145911744D01*
X218669540Y-146100000D01*
X218689326Y-146288256D01*
X218689327Y-146288259D01*
X218747818Y-146468277D01*
X218747821Y-146468284D01*
X218842467Y-146632216D01*
X218926578Y-146725630D01*
X218969129Y-146772888D01*
X219122265Y-146884148D01*
X219122270Y-146884151D01*
X219295192Y-146961142D01*
X219295197Y-146961144D01*
X219480354Y-147000500D01*
X219480355Y-147000500D01*
X219669644Y-147000500D01*
X219669646Y-147000500D01*
X219854803Y-146961144D01*
X220027730Y-146884151D01*
X220180871Y-146772888D01*
X220190423Y-146762278D01*
X220249909Y-146725630D01*
X220282574Y-146721250D01*
X220283591Y-146721250D01*
X220350630Y-146740935D01*
X220382855Y-146770936D01*
X220407454Y-146803796D01*
X220407455Y-146803796D01*
X220407456Y-146803798D01*
X220498540Y-146871984D01*
X220540411Y-146927918D01*
X220545395Y-146997609D01*
X220511909Y-147058932D01*
X220498540Y-147070516D01*
X220407456Y-147138701D01*
X220407454Y-147138704D01*
X220382856Y-147171562D01*
X220326924Y-147213432D01*
X220283591Y-147221250D01*
X220265000Y-147221250D01*
X220265000Y-147294094D01*
X220271619Y-147355648D01*
X220271620Y-147382159D01*
X220270909Y-147388764D01*
X220270909Y-147388767D01*
X220264500Y-147448377D01*
X220264500Y-147448384D01*
X220264500Y-147448385D01*
X220264500Y-148094120D01*
X220264501Y-148094129D01*
X220271367Y-148158001D01*
X220271367Y-148184507D01*
X220270909Y-148188766D01*
X220270909Y-148188767D01*
X220264500Y-148248377D01*
X220264500Y-148248379D01*
X220264500Y-148248383D01*
X220264500Y-148894120D01*
X220264501Y-148894129D01*
X220271367Y-148958001D01*
X220271367Y-148984507D01*
X220270909Y-148988766D01*
X220270909Y-148988767D01*
X220264500Y-149048377D01*
X220264500Y-149048379D01*
X220264500Y-149048383D01*
X220264500Y-149694120D01*
X220264501Y-149694129D01*
X220271367Y-149758001D01*
X220271367Y-149784507D01*
X220270909Y-149788766D01*
X220270909Y-149788767D01*
X220264500Y-149848377D01*
X220264500Y-149848379D01*
X220264500Y-149848383D01*
X220264500Y-150494120D01*
X220264501Y-150494129D01*
X220271367Y-150558001D01*
X220271367Y-150584507D01*
X220270909Y-150588766D01*
X220270909Y-150588767D01*
X220264500Y-150648377D01*
X220264500Y-150648379D01*
X220264500Y-150648383D01*
X220264500Y-151294120D01*
X220264501Y-151294129D01*
X220271367Y-151358001D01*
X220271367Y-151384507D01*
X220270909Y-151388766D01*
X220270909Y-151388767D01*
X220264500Y-151448377D01*
X220264500Y-151448382D01*
X220264500Y-151448383D01*
X220264500Y-152094120D01*
X220264501Y-152094129D01*
X220271367Y-152158001D01*
X220271367Y-152184507D01*
X220270909Y-152188766D01*
X220270909Y-152188767D01*
X220264500Y-152248377D01*
X220264500Y-152248379D01*
X220264500Y-152248383D01*
X220264500Y-152248386D01*
X220264501Y-152897250D01*
X220244817Y-152964289D01*
X220192013Y-153010044D01*
X220140501Y-153021250D01*
X220065000Y-153021250D01*
X220065000Y-153670000D01*
X219790499Y-153670000D01*
X219790499Y-153473378D01*
X219784091Y-153413767D01*
X219759095Y-153346750D01*
X219733797Y-153278921D01*
X219733793Y-153278914D01*
X219647548Y-153163706D01*
X219647546Y-153163705D01*
X219647546Y-153163704D01*
X219614686Y-153139105D01*
X219572817Y-153083171D01*
X219565000Y-153039840D01*
X219565000Y-153021250D01*
X219492166Y-153021250D01*
X219430595Y-153027869D01*
X219404088Y-153027869D01*
X219394818Y-153026872D01*
X219337873Y-153020750D01*
X219337865Y-153020750D01*
X218692129Y-153020750D01*
X218692120Y-153020751D01*
X218628248Y-153027617D01*
X218601742Y-153027617D01*
X218597483Y-153027159D01*
X218537873Y-153020750D01*
X218537864Y-153020750D01*
X217892129Y-153020750D01*
X217892120Y-153020751D01*
X217828248Y-153027617D01*
X217801742Y-153027617D01*
X217797483Y-153027159D01*
X217737873Y-153020750D01*
X217737864Y-153020750D01*
X217092129Y-153020750D01*
X217092120Y-153020751D01*
X217028248Y-153027617D01*
X217001742Y-153027617D01*
X216997483Y-153027159D01*
X216937873Y-153020750D01*
X216937864Y-153020750D01*
X216292129Y-153020750D01*
X216292120Y-153020751D01*
X216228248Y-153027617D01*
X216201742Y-153027617D01*
X216197483Y-153027159D01*
X216137873Y-153020750D01*
X216137864Y-153020750D01*
X215492129Y-153020750D01*
X215492120Y-153020751D01*
X215428248Y-153027617D01*
X215401742Y-153027617D01*
X215397483Y-153027159D01*
X215337873Y-153020750D01*
X215337864Y-153020750D01*
X214692129Y-153020750D01*
X214692120Y-153020751D01*
X214628248Y-153027617D01*
X214601742Y-153027617D01*
X214597483Y-153027159D01*
X214537873Y-153020750D01*
X214537864Y-153020750D01*
X213892129Y-153020750D01*
X213892120Y-153020751D01*
X213828248Y-153027617D01*
X213801742Y-153027617D01*
X213797483Y-153027159D01*
X213737873Y-153020750D01*
X213737864Y-153020750D01*
X213092129Y-153020750D01*
X213092120Y-153020751D01*
X213028248Y-153027617D01*
X213001742Y-153027617D01*
X212997483Y-153027159D01*
X212937873Y-153020750D01*
X212937864Y-153020750D01*
X212292129Y-153020750D01*
X212292120Y-153020751D01*
X212228248Y-153027617D01*
X212201742Y-153027617D01*
X212197483Y-153027159D01*
X212137873Y-153020750D01*
X212137866Y-153020750D01*
X211489499Y-153020750D01*
X211422460Y-153001065D01*
X211376705Y-152948261D01*
X211365499Y-152896750D01*
X211365499Y-152894132D01*
X211365500Y-152894123D01*
X211365499Y-152248378D01*
X211359091Y-152188767D01*
X211359090Y-152188766D01*
X211358380Y-152182154D01*
X211358381Y-152155643D01*
X211364999Y-152094092D01*
X211365000Y-152094077D01*
X211365000Y-152021250D01*
X211346409Y-152021250D01*
X211279370Y-152001565D01*
X211247144Y-151971563D01*
X211222546Y-151938704D01*
X211131457Y-151870515D01*
X211089588Y-151814583D01*
X211084604Y-151744891D01*
X211118089Y-151683568D01*
X211131452Y-151671988D01*
X211222546Y-151603796D01*
X211247143Y-151570937D01*
X211303076Y-151529068D01*
X211346409Y-151521250D01*
X211365000Y-151521250D01*
X211365000Y-151448422D01*
X211364999Y-151448410D01*
X211358380Y-151386854D01*
X211358380Y-151360340D01*
X211359090Y-151353735D01*
X211359091Y-151353733D01*
X211365500Y-151294123D01*
X211365499Y-150648378D01*
X211359091Y-150588767D01*
X211359089Y-150588763D01*
X211358632Y-150584505D01*
X211358632Y-150557995D01*
X211359089Y-150553736D01*
X211359091Y-150553733D01*
X211365500Y-150494123D01*
X211365499Y-149848378D01*
X211359091Y-149788767D01*
X211359089Y-149788763D01*
X211358632Y-149784505D01*
X211358632Y-149757995D01*
X211359089Y-149753736D01*
X211359091Y-149753733D01*
X211365500Y-149694123D01*
X211365499Y-149048378D01*
X211359091Y-148988767D01*
X211359089Y-148988763D01*
X211358632Y-148984505D01*
X211358632Y-148957995D01*
X211359089Y-148953736D01*
X211359091Y-148953733D01*
X211365500Y-148894123D01*
X211365499Y-148248378D01*
X211359091Y-148188767D01*
X211359089Y-148188763D01*
X211358632Y-148184505D01*
X211358632Y-148157995D01*
X211359089Y-148153736D01*
X211359091Y-148153733D01*
X211365500Y-148094123D01*
X211365499Y-147448378D01*
X211359091Y-147388767D01*
X211359089Y-147388763D01*
X211358632Y-147384505D01*
X211358632Y-147357995D01*
X211359089Y-147353736D01*
X211359091Y-147353733D01*
X211365500Y-147294123D01*
X211365499Y-146648378D01*
X211359091Y-146588767D01*
X211359089Y-146588763D01*
X211358632Y-146584505D01*
X211358632Y-146557995D01*
X211359089Y-146553736D01*
X211359091Y-146553733D01*
X211365500Y-146494123D01*
X211365499Y-145848378D01*
X211359091Y-145788767D01*
X211359090Y-145788766D01*
X211358380Y-145782154D01*
X211358381Y-145755643D01*
X211364999Y-145694092D01*
X211365000Y-145694077D01*
X211365000Y-145621250D01*
X211346409Y-145621250D01*
X211279370Y-145601565D01*
X211247144Y-145571563D01*
X211222546Y-145538704D01*
X211131457Y-145470515D01*
X211089588Y-145414583D01*
X211084604Y-145344891D01*
X211118089Y-145283568D01*
X211131452Y-145271988D01*
X211222546Y-145203796D01*
X211247143Y-145170937D01*
X211303076Y-145129068D01*
X211346409Y-145121250D01*
X211365000Y-145121250D01*
X211365000Y-145048422D01*
X211364999Y-145048410D01*
X211358380Y-144986854D01*
X211358380Y-144960340D01*
X211359090Y-144953735D01*
X211359091Y-144953733D01*
X211365500Y-144894123D01*
X211365499Y-144605699D01*
X211385183Y-144538662D01*
X211437987Y-144492907D01*
X211507146Y-144482963D01*
X211570701Y-144511988D01*
X211577180Y-144518020D01*
X212704766Y-145645606D01*
X212704795Y-145645637D01*
X212795014Y-145735856D01*
X212795017Y-145735858D01*
X212846087Y-145769981D01*
X212846088Y-145769983D01*
X212849881Y-145772517D01*
X212897465Y-145804312D01*
X212935168Y-145819929D01*
X212979865Y-145851517D01*
X213044128Y-145922887D01*
X213044135Y-145922893D01*
X213197265Y-146034148D01*
X213197270Y-146034151D01*
X213370192Y-146111142D01*
X213370197Y-146111144D01*
X213555354Y-146150500D01*
X213555355Y-146150500D01*
X213744644Y-146150500D01*
X213744646Y-146150500D01*
X213929803Y-146111144D01*
X214102730Y-146034151D01*
X214255871Y-145922888D01*
X214382533Y-145782216D01*
X214477179Y-145618284D01*
X214535674Y-145438256D01*
X214543695Y-145361928D01*
X214570278Y-145297315D01*
X214616577Y-145261611D01*
X214734405Y-145209151D01*
X214887546Y-145097888D01*
X215014208Y-144957216D01*
X215108854Y-144793284D01*
X215167349Y-144613256D01*
X215187135Y-144425000D01*
X215169605Y-144258210D01*
X215182175Y-144189481D01*
X215229907Y-144138458D01*
X215292926Y-144121250D01*
X215337828Y-144121250D01*
X215337839Y-144121249D01*
X215399395Y-144114630D01*
X215425909Y-144114630D01*
X215432514Y-144115340D01*
G37*
G04 #@! TD.AperFunction*
G04 #@! TA.AperFunction,Conductor*
G36*
X77068789Y-64143421D02*
G01*
X77135826Y-64163108D01*
X77181579Y-64215914D01*
X77191520Y-64285072D01*
X77183345Y-64314873D01*
X77138428Y-64423315D01*
X77138427Y-64423318D01*
X77100000Y-64616504D01*
X77100000Y-64765000D01*
X77800000Y-64765000D01*
X77800000Y-65265000D01*
X77100000Y-65265000D01*
X77100000Y-65413495D01*
X77138427Y-65606681D01*
X77138430Y-65606693D01*
X77213807Y-65788671D01*
X77213814Y-65788684D01*
X77323248Y-65952462D01*
X77323251Y-65952466D01*
X77462533Y-66091748D01*
X77462537Y-66091751D01*
X77626315Y-66201185D01*
X77626328Y-66201192D01*
X77808308Y-66276569D01*
X77850000Y-66284862D01*
X77850000Y-65481988D01*
X77859940Y-65499205D01*
X77915795Y-65555060D01*
X77984204Y-65594556D01*
X78060504Y-65615000D01*
X78139496Y-65615000D01*
X78215796Y-65594556D01*
X78284205Y-65555060D01*
X78340060Y-65499205D01*
X78350000Y-65481988D01*
X78350000Y-66284862D01*
X78391690Y-66276569D01*
X78391692Y-66276569D01*
X78573671Y-66201192D01*
X78573684Y-66201185D01*
X78737462Y-66091751D01*
X78737466Y-66091748D01*
X78876748Y-65952466D01*
X78876751Y-65952462D01*
X78986185Y-65788684D01*
X78986192Y-65788671D01*
X79061569Y-65606693D01*
X79061572Y-65606681D01*
X79099999Y-65413495D01*
X79100000Y-65413492D01*
X79100000Y-65265000D01*
X78400000Y-65265000D01*
X78400000Y-64765000D01*
X79100000Y-64765000D01*
X79100000Y-64616508D01*
X79099999Y-64616504D01*
X79061572Y-64423318D01*
X79061570Y-64423310D01*
X79016685Y-64314947D01*
X79009216Y-64245477D01*
X79040491Y-64182998D01*
X79100580Y-64147346D01*
X79131244Y-64143494D01*
X85708665Y-64143727D01*
X85775700Y-64163413D01*
X85821453Y-64216219D01*
X85831394Y-64285377D01*
X85823218Y-64315178D01*
X85778430Y-64423306D01*
X85778427Y-64423318D01*
X85740000Y-64616504D01*
X85740000Y-64765000D01*
X86440000Y-64765000D01*
X86440000Y-65265000D01*
X85740000Y-65265000D01*
X85740000Y-65413495D01*
X85778427Y-65606681D01*
X85778430Y-65606693D01*
X85853807Y-65788671D01*
X85853814Y-65788684D01*
X85963248Y-65952462D01*
X85963251Y-65952466D01*
X86102533Y-66091748D01*
X86102537Y-66091751D01*
X86266315Y-66201185D01*
X86266328Y-66201192D01*
X86448308Y-66276569D01*
X86490000Y-66284862D01*
X86490000Y-65481988D01*
X86499940Y-65499205D01*
X86555795Y-65555060D01*
X86624204Y-65594556D01*
X86700504Y-65615000D01*
X86779496Y-65615000D01*
X86855796Y-65594556D01*
X86924205Y-65555060D01*
X86980060Y-65499205D01*
X86990000Y-65481988D01*
X86990000Y-66284862D01*
X87031690Y-66276569D01*
X87031692Y-66276569D01*
X87213671Y-66201192D01*
X87213684Y-66201185D01*
X87377462Y-66091751D01*
X87377466Y-66091748D01*
X87516748Y-65952466D01*
X87516751Y-65952462D01*
X87626185Y-65788684D01*
X87626192Y-65788671D01*
X87701569Y-65606693D01*
X87701572Y-65606681D01*
X87739999Y-65413495D01*
X87740000Y-65413492D01*
X87740000Y-65265000D01*
X87040000Y-65265000D01*
X87040000Y-64765000D01*
X87740000Y-64765000D01*
X87740000Y-64616508D01*
X87739999Y-64616504D01*
X87701572Y-64423318D01*
X87701570Y-64423310D01*
X87656812Y-64315253D01*
X87649343Y-64245783D01*
X87680618Y-64183304D01*
X87740707Y-64147652D01*
X87771373Y-64143800D01*
X88776007Y-64143836D01*
X88843043Y-64163522D01*
X88888796Y-64216327D01*
X88900000Y-64267835D01*
X88900000Y-69363392D01*
X88880315Y-69430431D01*
X88827511Y-69476186D01*
X88758353Y-69486130D01*
X88737000Y-69481099D01*
X88582797Y-69430001D01*
X88582795Y-69430000D01*
X88480010Y-69419500D01*
X87679998Y-69419500D01*
X87679980Y-69419501D01*
X87577203Y-69430000D01*
X87556982Y-69436701D01*
X87550932Y-69438706D01*
X87511929Y-69445000D01*
X87040000Y-69445000D01*
X87040000Y-68945000D01*
X87740000Y-68945000D01*
X87740000Y-68546508D01*
X87739999Y-68546504D01*
X87701572Y-68353318D01*
X87701569Y-68353306D01*
X87626192Y-68171328D01*
X87626185Y-68171315D01*
X87516751Y-68007537D01*
X87516748Y-68007533D01*
X87377466Y-67868251D01*
X87377462Y-67868248D01*
X87213684Y-67758814D01*
X87213671Y-67758807D01*
X87031691Y-67683429D01*
X87031683Y-67683427D01*
X86990000Y-67675135D01*
X86990000Y-68478011D01*
X86980060Y-68460795D01*
X86924205Y-68404940D01*
X86855796Y-68365444D01*
X86779496Y-68345000D01*
X86700504Y-68345000D01*
X86624204Y-68365444D01*
X86555795Y-68404940D01*
X86499940Y-68460795D01*
X86490000Y-68478011D01*
X86490000Y-67675136D01*
X86489999Y-67675135D01*
X86448316Y-67683427D01*
X86448308Y-67683429D01*
X86266328Y-67758807D01*
X86266315Y-67758814D01*
X86102537Y-67868248D01*
X86102533Y-67868251D01*
X85963248Y-68007536D01*
X85850427Y-68176387D01*
X85849003Y-68175435D01*
X85805742Y-68219451D01*
X85737600Y-68234892D01*
X85671927Y-68211041D01*
X85669907Y-68209306D01*
X85669811Y-68209432D01*
X85663367Y-68204487D01*
X85663365Y-68204485D01*
X85597750Y-68166602D01*
X85532136Y-68128719D01*
X85458950Y-68109109D01*
X85385766Y-68089500D01*
X85234234Y-68089500D01*
X85087863Y-68128719D01*
X84956635Y-68204485D01*
X84956632Y-68204487D01*
X84849487Y-68311632D01*
X84849485Y-68311635D01*
X84773719Y-68442863D01*
X84734500Y-68589234D01*
X84734500Y-68740768D01*
X84734967Y-68744316D01*
X84734500Y-68747310D01*
X84734500Y-68748893D01*
X84734253Y-68748893D01*
X84724201Y-68813351D01*
X84677821Y-68865606D01*
X84612029Y-68884500D01*
X84522130Y-68884500D01*
X84522120Y-68884501D01*
X84458248Y-68891367D01*
X84431742Y-68891367D01*
X84427483Y-68890909D01*
X84367873Y-68884500D01*
X84367864Y-68884500D01*
X83972130Y-68884500D01*
X83972119Y-68884501D01*
X83933253Y-68888679D01*
X83906748Y-68888679D01*
X83867875Y-68884500D01*
X83867873Y-68884500D01*
X83790364Y-68884500D01*
X83723325Y-68864815D01*
X83682976Y-68822499D01*
X83650520Y-68766282D01*
X83053719Y-68169481D01*
X83053711Y-68169475D01*
X82958163Y-68114311D01*
X82958161Y-68114310D01*
X82916792Y-68090425D01*
X82916791Y-68090424D01*
X82904265Y-68087067D01*
X82764059Y-68049499D01*
X82734056Y-68049499D01*
X82575941Y-68049499D01*
X82499577Y-68069961D01*
X82423212Y-68090423D01*
X82423207Y-68090426D01*
X82286288Y-68169475D01*
X82286280Y-68169481D01*
X81812857Y-68642903D01*
X81751534Y-68676388D01*
X81681842Y-68671404D01*
X81637495Y-68642904D01*
X81608734Y-68614143D01*
X81568733Y-68574142D01*
X81568732Y-68574141D01*
X80162927Y-67168337D01*
X80162925Y-67168334D01*
X80162925Y-67168335D01*
X80155859Y-67161269D01*
X80155858Y-67161267D01*
X80068733Y-67074142D01*
X80068729Y-67074139D01*
X80068728Y-67074138D01*
X79988703Y-67020667D01*
X79988701Y-67020665D01*
X79988701Y-67020666D01*
X79966285Y-67005687D01*
X79926039Y-66989017D01*
X79885792Y-66972347D01*
X79852453Y-66958537D01*
X79842427Y-66956543D01*
X79792029Y-66946518D01*
X79731610Y-66934500D01*
X79731607Y-66934500D01*
X79731606Y-66934500D01*
X76450874Y-66934500D01*
X76383835Y-66914815D01*
X76345336Y-66875598D01*
X76342712Y-66871344D01*
X76218657Y-66747289D01*
X76218656Y-66747288D01*
X76069334Y-66655186D01*
X75902797Y-66600001D01*
X75902795Y-66600000D01*
X75800010Y-66589500D01*
X74799998Y-66589500D01*
X74799980Y-66589501D01*
X74697203Y-66600000D01*
X74697200Y-66600001D01*
X74530668Y-66655185D01*
X74530663Y-66655187D01*
X74381342Y-66747289D01*
X74257289Y-66871342D01*
X74165187Y-67020663D01*
X74165186Y-67020665D01*
X74165186Y-67020666D01*
X74110001Y-67187203D01*
X74110001Y-67187204D01*
X74110000Y-67187204D01*
X74099500Y-67289983D01*
X74099500Y-68090001D01*
X74099501Y-68090019D01*
X74110000Y-68192796D01*
X74110001Y-68192799D01*
X74165185Y-68359331D01*
X74165187Y-68359336D01*
X74257289Y-68508657D01*
X74351304Y-68602672D01*
X74384789Y-68663995D01*
X74379805Y-68733687D01*
X74351305Y-68778034D01*
X74257682Y-68871657D01*
X74165643Y-69020875D01*
X74165641Y-69020880D01*
X74110494Y-69187302D01*
X74110493Y-69187309D01*
X74100000Y-69290013D01*
X74100000Y-69440000D01*
X76499999Y-69440000D01*
X76499999Y-69290028D01*
X76499998Y-69290013D01*
X76489505Y-69187302D01*
X76434358Y-69020880D01*
X76434356Y-69020875D01*
X76342315Y-68871654D01*
X76248695Y-68778034D01*
X76215210Y-68716711D01*
X76220194Y-68647019D01*
X76248691Y-68602676D01*
X76342712Y-68508656D01*
X76434814Y-68359334D01*
X76464252Y-68270495D01*
X76504025Y-68213051D01*
X76568541Y-68186228D01*
X76581958Y-68185500D01*
X77022360Y-68185500D01*
X77089399Y-68205185D01*
X77135154Y-68257989D01*
X77145098Y-68327147D01*
X77139570Y-68347298D01*
X77140196Y-68347488D01*
X77138426Y-68353318D01*
X77100000Y-68546504D01*
X77100000Y-68945000D01*
X77800000Y-68945000D01*
X77800000Y-69445000D01*
X77100000Y-69445000D01*
X77100000Y-69843495D01*
X77138427Y-70036681D01*
X77138430Y-70036693D01*
X77213807Y-70218671D01*
X77213814Y-70218684D01*
X77323248Y-70382462D01*
X77323251Y-70382466D01*
X77462533Y-70521748D01*
X77462537Y-70521751D01*
X77626315Y-70631185D01*
X77626328Y-70631192D01*
X77808308Y-70706569D01*
X77850000Y-70714862D01*
X77850000Y-69911988D01*
X77859940Y-69929205D01*
X77915795Y-69985060D01*
X77984204Y-70024556D01*
X78060504Y-70045000D01*
X78139496Y-70045000D01*
X78215796Y-70024556D01*
X78284205Y-69985060D01*
X78340060Y-69929205D01*
X78350000Y-69911988D01*
X78350000Y-70715079D01*
X78388999Y-70772334D01*
X78395000Y-70810441D01*
X78395000Y-71823016D01*
X78375315Y-71890055D01*
X78322511Y-71935810D01*
X78265838Y-71946909D01*
X76033169Y-71853881D01*
X75967007Y-71831422D01*
X75943614Y-71807475D01*
X75942372Y-71808495D01*
X75938510Y-71803789D01*
X75938508Y-71803786D01*
X75851383Y-71716661D01*
X75851382Y-71716660D01*
X75075041Y-70940319D01*
X75041556Y-70878996D01*
X75046540Y-70809304D01*
X75050000Y-70803920D01*
X75050000Y-70789999D01*
X75550000Y-70789999D01*
X75799972Y-70789999D01*
X75799986Y-70789998D01*
X75902697Y-70779505D01*
X76069119Y-70724358D01*
X76069124Y-70724356D01*
X76218345Y-70632315D01*
X76342315Y-70508345D01*
X76434356Y-70359124D01*
X76434358Y-70359119D01*
X76489505Y-70192697D01*
X76489506Y-70192690D01*
X76499999Y-70089986D01*
X76500000Y-70089973D01*
X76500000Y-69940000D01*
X75550000Y-69940000D01*
X75550000Y-70789999D01*
X75050000Y-70789999D01*
X75050000Y-69940000D01*
X74126083Y-69940000D01*
X74059044Y-69920315D01*
X74038402Y-69903681D01*
X73696319Y-69561597D01*
X73662834Y-69500274D01*
X73660000Y-69473916D01*
X73660000Y-64267305D01*
X73679685Y-64200266D01*
X73732489Y-64154511D01*
X73784001Y-64143305D01*
X77068789Y-64143421D01*
G37*
G04 #@! TD.AperFunction*
M02*
