G04 #@! TF.GenerationSoftware,KiCad,Pcbnew,8.0.7*
G04 #@! TF.CreationDate,2024-12-18T16:58:47-05:00*
G04 #@! TF.ProjectId,PCB-Sch,5043422d-5363-4682-9e6b-696361645f70,rev?*
G04 #@! TF.SameCoordinates,Original*
G04 #@! TF.FileFunction,Soldermask,Top*
G04 #@! TF.FilePolarity,Negative*
%FSLAX46Y46*%
G04 Gerber Fmt 4.6, Leading zero omitted, Abs format (unit mm)*
G04 Created by KiCad (PCBNEW 8.0.7) date 2024-12-18 16:58:47*
%MOMM*%
%LPD*%
G01*
G04 APERTURE LIST*
%ADD10C,1.701800*%
%ADD11C,3.000000*%
%ADD12C,3.987800*%
%ADD13C,3.048000*%
%ADD14O,1.000000X1.600000*%
%ADD15O,1.000000X2.100000*%
%ADD16C,0.650000*%
%ADD17C,0.800000*%
G04 APERTURE END LIST*
D10*
X199607500Y-149383750D03*
D11*
X197067500Y-144303750D03*
D12*
X194527500Y-149383750D03*
D11*
X190717500Y-146843750D03*
D10*
X189447500Y-149383750D03*
D13*
X244527500Y-156368750D03*
X144527500Y-156368750D03*
D12*
X244527500Y-141128750D03*
X144527500Y-141128750D03*
D10*
X90011250Y-130333750D03*
D11*
X87471250Y-125253750D03*
D12*
X84931250Y-130333750D03*
D11*
X81121250Y-127793750D03*
D10*
X79851250Y-130333750D03*
D13*
X96869250Y-123348750D03*
X72993250Y-123348750D03*
D12*
X96869250Y-138588750D03*
X72993250Y-138588750D03*
D10*
X332322500Y-149383750D03*
D11*
X333592500Y-146843750D03*
D12*
X337402500Y-149383750D03*
D11*
X339942500Y-144303750D03*
D10*
X342482500Y-149383750D03*
X308510000Y-149383750D03*
D11*
X309780000Y-146843750D03*
D12*
X313590000Y-149383750D03*
D11*
X316130000Y-144303750D03*
D10*
X318670000Y-149383750D03*
X284697500Y-149383750D03*
D11*
X285967500Y-146843750D03*
D12*
X289777500Y-149383750D03*
D11*
X292317500Y-144303750D03*
D10*
X294857500Y-149383750D03*
X260885000Y-149383750D03*
D11*
X262155000Y-146843750D03*
D12*
X265965000Y-149383750D03*
D11*
X268505000Y-144303750D03*
D10*
X271045000Y-149383750D03*
X118010000Y-149383750D03*
D11*
X119280000Y-146843750D03*
D12*
X123090000Y-149383750D03*
D11*
X125630000Y-144303750D03*
D10*
X128170000Y-149383750D03*
X94197500Y-149383750D03*
D11*
X95467500Y-146843750D03*
D12*
X99277500Y-149383750D03*
D11*
X101817500Y-144303750D03*
D10*
X104357500Y-149383750D03*
X70385000Y-149383750D03*
D11*
X71655000Y-146843750D03*
D12*
X75465000Y-149383750D03*
D11*
X78005000Y-144303750D03*
D10*
X80545000Y-149383750D03*
D12*
X311177000Y-138588750D03*
X335053000Y-138588750D03*
D13*
X311177000Y-123348750D03*
X335053000Y-123348750D03*
D10*
X318035000Y-130333750D03*
D11*
X319305000Y-127793750D03*
D12*
X323115000Y-130333750D03*
D11*
X325655000Y-125253750D03*
D10*
X328195000Y-130333750D03*
X282316250Y-130333750D03*
D11*
X283586250Y-127793750D03*
D12*
X287396250Y-130333750D03*
D11*
X289936250Y-125253750D03*
D10*
X292476250Y-130333750D03*
X263266250Y-130333750D03*
D11*
X264536250Y-127793750D03*
D12*
X268346250Y-130333750D03*
D11*
X270886250Y-125253750D03*
D10*
X273426250Y-130333750D03*
X244216250Y-130333750D03*
D11*
X245486250Y-127793750D03*
D12*
X249296250Y-130333750D03*
D11*
X251836250Y-125253750D03*
D10*
X254376250Y-130333750D03*
X225166250Y-130333750D03*
D11*
X226436250Y-127793750D03*
D12*
X230246250Y-130333750D03*
D11*
X232786250Y-125253750D03*
D10*
X235326250Y-130333750D03*
X206116250Y-130333750D03*
D11*
X207386250Y-127793750D03*
D12*
X211196250Y-130333750D03*
D11*
X213736250Y-125253750D03*
D10*
X216276250Y-130333750D03*
X187066250Y-130333750D03*
D11*
X188336250Y-127793750D03*
D12*
X192146250Y-130333750D03*
D11*
X194686250Y-125253750D03*
D10*
X197226250Y-130333750D03*
X168016250Y-130333750D03*
D11*
X169286250Y-127793750D03*
D12*
X173096250Y-130333750D03*
D11*
X175636250Y-125253750D03*
D10*
X178176250Y-130333750D03*
X148966250Y-130333750D03*
D11*
X150236250Y-127793750D03*
D12*
X154046250Y-130333750D03*
D11*
X156586250Y-125253750D03*
D10*
X159126250Y-130333750D03*
X129916250Y-130333750D03*
D11*
X131186250Y-127793750D03*
D12*
X134996250Y-130333750D03*
D11*
X137536250Y-125253750D03*
D10*
X140076250Y-130333750D03*
X110866250Y-130333750D03*
D11*
X112136250Y-127793750D03*
D12*
X115946250Y-130333750D03*
D11*
X118486250Y-125253750D03*
D10*
X121026250Y-130333750D03*
D12*
X315939500Y-119538750D03*
X339815500Y-119538750D03*
D13*
X315939500Y-104298750D03*
X339815500Y-104298750D03*
D10*
X322797500Y-111283750D03*
D11*
X324067500Y-108743750D03*
D12*
X327877500Y-111283750D03*
D11*
X330417500Y-106203750D03*
D10*
X332957500Y-111283750D03*
X291841250Y-111283750D03*
D11*
X293111250Y-108743750D03*
D12*
X296921250Y-111283750D03*
D11*
X299461250Y-106203750D03*
D10*
X302001250Y-111283750D03*
X272791250Y-111283750D03*
D11*
X274061250Y-108743750D03*
D12*
X277871250Y-111283750D03*
D11*
X280411250Y-106203750D03*
D10*
X282951250Y-111283750D03*
X253741250Y-111283750D03*
D11*
X255011250Y-108743750D03*
D12*
X258821250Y-111283750D03*
D11*
X261361250Y-106203750D03*
D10*
X263901250Y-111283750D03*
X234691250Y-111283750D03*
D11*
X235961250Y-108743750D03*
D12*
X239771250Y-111283750D03*
D11*
X242311250Y-106203750D03*
D10*
X244851250Y-111283750D03*
X215641250Y-111283750D03*
D11*
X216911250Y-108743750D03*
D12*
X220721250Y-111283750D03*
D11*
X223261250Y-106203750D03*
D10*
X225801250Y-111283750D03*
X196591250Y-111283750D03*
D11*
X197861250Y-108743750D03*
D12*
X201671250Y-111283750D03*
D11*
X204211250Y-106203750D03*
D10*
X206751250Y-111283750D03*
X177541250Y-111283750D03*
D11*
X178811250Y-108743750D03*
D12*
X182621250Y-111283750D03*
D11*
X185161250Y-106203750D03*
D10*
X187701250Y-111283750D03*
X158491250Y-111283750D03*
D11*
X159761250Y-108743750D03*
D12*
X163571250Y-111283750D03*
D11*
X166111250Y-106203750D03*
D10*
X168651250Y-111283750D03*
X139441250Y-111283750D03*
D11*
X140711250Y-108743750D03*
D12*
X144521250Y-111283750D03*
D11*
X147061250Y-106203750D03*
D10*
X149601250Y-111283750D03*
X120391250Y-111283750D03*
D11*
X121661250Y-108743750D03*
D12*
X125471250Y-111283750D03*
D11*
X128011250Y-106203750D03*
D10*
X130551250Y-111283750D03*
X101341250Y-111283750D03*
D11*
X102611250Y-108743750D03*
D12*
X106421250Y-111283750D03*
D11*
X108961250Y-106203750D03*
D10*
X111501250Y-111283750D03*
X75147500Y-111283750D03*
D11*
X76417500Y-108743750D03*
D12*
X80227500Y-111283750D03*
D11*
X82767500Y-106203750D03*
D10*
X85307500Y-111283750D03*
X329941250Y-92233750D03*
D11*
X331211250Y-89693750D03*
D12*
X335021250Y-92233750D03*
D11*
X337561250Y-87153750D03*
D10*
X340101250Y-92233750D03*
X306128750Y-92233750D03*
D11*
X307398750Y-89693750D03*
D12*
X311208750Y-92233750D03*
D11*
X313748750Y-87153750D03*
D10*
X316288750Y-92233750D03*
X287078750Y-92233750D03*
D11*
X288348750Y-89693750D03*
D12*
X292158750Y-92233750D03*
D11*
X294698750Y-87153750D03*
D10*
X297238750Y-92233750D03*
X268028750Y-92233750D03*
D11*
X269298750Y-89693750D03*
D12*
X273108750Y-92233750D03*
D11*
X275648750Y-87153750D03*
D10*
X278188750Y-92233750D03*
X248978750Y-92233750D03*
D11*
X250248750Y-89693750D03*
D12*
X254058750Y-92233750D03*
D11*
X256598750Y-87153750D03*
D10*
X259138750Y-92233750D03*
X229928750Y-92233750D03*
D11*
X231198750Y-89693750D03*
D12*
X235008750Y-92233750D03*
D11*
X237548750Y-87153750D03*
D10*
X240088750Y-92233750D03*
X210878750Y-92233750D03*
D11*
X212148750Y-89693750D03*
D12*
X215958750Y-92233750D03*
D11*
X218498750Y-87153750D03*
D10*
X221038750Y-92233750D03*
X191828750Y-92233750D03*
D11*
X193098750Y-89693750D03*
D12*
X196908750Y-92233750D03*
D11*
X199448750Y-87153750D03*
D10*
X201988750Y-92233750D03*
X172778750Y-92233750D03*
D11*
X174048750Y-89693750D03*
D12*
X177858750Y-92233750D03*
D11*
X180398750Y-87153750D03*
D10*
X182938750Y-92233750D03*
X153728750Y-92233750D03*
D11*
X154998750Y-89693750D03*
D12*
X158808750Y-92233750D03*
D11*
X161348750Y-87153750D03*
D10*
X163888750Y-92233750D03*
X134678750Y-92233750D03*
D11*
X135948750Y-89693750D03*
D12*
X139758750Y-92233750D03*
D11*
X142298750Y-87153750D03*
D10*
X144838750Y-92233750D03*
X115628750Y-92233750D03*
D11*
X116898750Y-89693750D03*
D12*
X120708750Y-92233750D03*
D11*
X123248750Y-87153750D03*
D10*
X125788750Y-92233750D03*
X96578750Y-92233750D03*
D11*
X97848750Y-89693750D03*
D12*
X101658750Y-92233750D03*
D11*
X104198750Y-87153750D03*
D10*
X106738750Y-92233750D03*
X72766250Y-92233750D03*
D11*
X74036250Y-89693750D03*
D12*
X77846250Y-92233750D03*
D11*
X80386250Y-87153750D03*
D10*
X82926250Y-92233750D03*
D12*
X318320750Y-81438750D03*
X342196750Y-81438750D03*
D13*
X318320750Y-66198750D03*
X342196750Y-66198750D03*
D10*
X325178750Y-73183750D03*
D11*
X326448750Y-70643750D03*
D12*
X330258750Y-73183750D03*
D11*
X332798750Y-68103750D03*
D10*
X335338750Y-73183750D03*
X296603750Y-73183750D03*
D11*
X297873750Y-70643750D03*
D12*
X301683750Y-73183750D03*
D11*
X304223750Y-68103750D03*
D10*
X306763750Y-73183750D03*
X277553750Y-73183750D03*
D11*
X278823750Y-70643750D03*
D12*
X282633750Y-73183750D03*
D11*
X285173750Y-68103750D03*
D10*
X287713750Y-73183750D03*
X268663750Y-73183750D03*
D11*
X266123750Y-68103750D03*
D12*
X263583750Y-73183750D03*
D11*
X259773750Y-70643750D03*
D10*
X258503750Y-73183750D03*
X239453750Y-73183750D03*
D11*
X240723750Y-70643750D03*
D12*
X244533750Y-73183750D03*
D11*
X247073750Y-68103750D03*
D10*
X249613750Y-73183750D03*
X220403750Y-73183750D03*
D11*
X221673750Y-70643750D03*
D12*
X225483750Y-73183750D03*
D11*
X228023750Y-68103750D03*
D10*
X230563750Y-73183750D03*
X201353750Y-73183750D03*
D11*
X202623750Y-70643750D03*
D12*
X206433750Y-73183750D03*
D11*
X208973750Y-68103750D03*
D10*
X211513750Y-73183750D03*
X182303750Y-73183750D03*
D11*
X183573750Y-70643750D03*
D12*
X187383750Y-73183750D03*
D11*
X189923750Y-68103750D03*
D10*
X192463750Y-73183750D03*
X163253750Y-73183750D03*
D11*
X164523750Y-70643750D03*
D12*
X168333750Y-73183750D03*
D11*
X170873750Y-68103750D03*
D10*
X173413750Y-73183750D03*
X144203750Y-73183750D03*
D11*
X145473750Y-70643750D03*
D12*
X149283750Y-73183750D03*
D11*
X151823750Y-68103750D03*
D10*
X154363750Y-73183750D03*
X125153750Y-73183750D03*
D11*
X126423750Y-70643750D03*
D12*
X130233750Y-73183750D03*
D11*
X132773750Y-68103750D03*
D10*
X135313750Y-73183750D03*
X78163750Y-73183750D03*
D11*
X76893750Y-75723750D03*
D12*
X73083750Y-73183750D03*
D11*
X70543750Y-78263750D03*
D10*
X68003750Y-73183750D03*
X106103750Y-73183750D03*
D11*
X107373750Y-70643750D03*
D12*
X111183750Y-73183750D03*
D11*
X113723750Y-68103750D03*
D10*
X116263750Y-73183750D03*
X97213750Y-73183750D03*
D11*
X95943750Y-75723750D03*
D12*
X92133750Y-73183750D03*
D11*
X89593750Y-78263750D03*
D10*
X87053750Y-73183750D03*
D14*
X86740000Y-65015000D03*
X78100000Y-65015000D03*
D15*
X86740000Y-69195000D03*
X78100000Y-69195000D03*
D16*
X79530000Y-68665000D03*
X85310000Y-68665000D03*
D17*
X255250000Y-154300000D03*
X217200000Y-145975000D03*
X257715000Y-134760000D03*
X249775000Y-134450000D03*
X240946250Y-146200000D03*
X234200000Y-138700000D03*
X241550000Y-137500000D03*
X228750000Y-139725000D03*
X242750000Y-138775000D03*
X234375000Y-145575000D03*
X219575000Y-146100000D03*
X341262500Y-87362500D03*
X333743750Y-105993750D03*
X328662500Y-125362500D03*
X316834375Y-87440625D03*
X297659375Y-87315625D03*
X303212500Y-106275000D03*
X293687500Y-125300000D03*
X283440625Y-106434375D03*
X278634375Y-87340625D03*
X259609375Y-87365625D03*
X264318750Y-106362500D03*
X246062500Y-106362500D03*
X240850750Y-87153750D03*
X232000000Y-138325000D03*
X236537500Y-125412500D03*
X227012500Y-106362500D03*
X222250000Y-87312500D03*
X202406250Y-87275000D03*
X207168750Y-106300000D03*
X217487500Y-125200000D03*
X200369500Y-144303750D03*
X188912500Y-106350000D03*
X184150000Y-87250000D03*
X169862500Y-106362500D03*
X164525000Y-87275000D03*
X145600750Y-87153750D03*
X150363250Y-106203750D03*
X141275000Y-125425000D03*
X131800000Y-106400000D03*
X127000000Y-87312500D03*
X121443750Y-125412500D03*
X111918750Y-106200000D03*
X107668750Y-87031250D03*
X90773250Y-125253750D03*
X86069500Y-106203750D03*
X84152150Y-87327150D03*
X211990000Y-78802500D03*
X213650000Y-145250000D03*
X254793750Y-125412500D03*
X225300000Y-151125000D03*
X225575000Y-152500000D03*
X273843750Y-125412500D03*
X271462500Y-144462500D03*
X226950000Y-153225000D03*
X296068750Y-144462500D03*
X292575000Y-153700000D03*
X319881250Y-143668750D03*
X324525000Y-156625000D03*
X343244500Y-144303750D03*
X80962500Y-144462500D03*
X136400000Y-151225000D03*
X136375000Y-148225000D03*
X214525000Y-157775000D03*
X105119500Y-144303750D03*
X145575000Y-152475000D03*
X150950000Y-157850000D03*
X146500000Y-155250000D03*
X128932000Y-144303750D03*
X133550000Y-150175000D03*
X200877500Y-155382500D03*
X269450000Y-155050000D03*
X159888250Y-125253750D03*
X167225000Y-137075000D03*
X161000000Y-141700000D03*
X164550000Y-138074999D03*
X161387500Y-145862500D03*
X204300000Y-156400000D03*
X178938250Y-125253750D03*
X187400000Y-137000000D03*
X184500000Y-138074999D03*
X184525000Y-145800000D03*
X184525000Y-140625000D03*
X203350000Y-154625000D03*
X207550000Y-118975000D03*
X207000000Y-135400000D03*
X195675000Y-138074999D03*
X204175000Y-138525000D03*
X198525001Y-138049999D03*
X202225000Y-100800000D03*
X204850000Y-135900000D03*
X197988250Y-125253750D03*
X200525000Y-136050000D03*
X197675000Y-140225000D03*
X201900000Y-148200000D03*
X208450000Y-150175000D03*
X98525000Y-81625000D03*
X78550000Y-79125000D03*
X95600000Y-99300000D03*
X92325000Y-97750000D03*
X95875000Y-116950000D03*
X92525000Y-116900000D03*
X92650000Y-135975000D03*
X96500000Y-132300000D03*
X83825000Y-78550000D03*
X207250000Y-139525000D03*
X208356682Y-141728156D03*
X216150000Y-139850000D03*
X223100000Y-142375000D03*
X209625000Y-142225000D03*
X205675000Y-138600000D03*
X82300000Y-82975000D03*
X225375000Y-156600000D03*
X203725000Y-151950000D03*
X336550000Y-68262500D03*
X307181250Y-68262500D03*
X288925000Y-68262500D03*
X269875000Y-68262500D03*
X250031250Y-67468750D03*
X230981250Y-68262500D03*
X212725000Y-68262500D03*
X192881250Y-67468750D03*
X173831250Y-68262500D03*
X155575000Y-68262500D03*
X136525000Y-68262500D03*
X117475000Y-68262500D03*
X86518750Y-78581250D03*
X67468750Y-78581250D03*
X214281675Y-144425000D03*
X216625000Y-144375000D03*
X84520000Y-73270000D03*
X80227500Y-73262500D03*
M02*
