G04 #@! TF.GenerationSoftware,KiCad,Pcbnew,8.0.7*
G04 #@! TF.CreationDate,2024-12-18T16:58:47-05:00*
G04 #@! TF.ProjectId,PCB-Sch,5043422d-5363-4682-9e6b-696361645f70,rev?*
G04 #@! TF.SameCoordinates,Original*
G04 #@! TF.FileFunction,Legend,Bot*
G04 #@! TF.FilePolarity,Positive*
%FSLAX46Y46*%
G04 Gerber Fmt 4.6, Leading zero omitted, Abs format (unit mm)*
G04 Created by KiCad (PCBNEW 8.0.7) date 2024-12-18 16:58:47*
%MOMM*%
%LPD*%
G01*
G04 APERTURE LIST*
%ADD10C,0.150000*%
%ADD11C,0.120000*%
%ADD12C,0.250000*%
G04 APERTURE END LIST*
D10*
X68269344Y-69098569D02*
X68269344Y-68098569D01*
X68269344Y-68098569D02*
X68031249Y-68098569D01*
X68031249Y-68098569D02*
X67888392Y-68146188D01*
X67888392Y-68146188D02*
X67793154Y-68241426D01*
X67793154Y-68241426D02*
X67745535Y-68336664D01*
X67745535Y-68336664D02*
X67697916Y-68527140D01*
X67697916Y-68527140D02*
X67697916Y-68669997D01*
X67697916Y-68669997D02*
X67745535Y-68860473D01*
X67745535Y-68860473D02*
X67793154Y-68955711D01*
X67793154Y-68955711D02*
X67888392Y-69050950D01*
X67888392Y-69050950D02*
X68031249Y-69098569D01*
X68031249Y-69098569D02*
X68269344Y-69098569D01*
X66745535Y-69098569D02*
X67316963Y-69098569D01*
X67031249Y-69098569D02*
X67031249Y-68098569D01*
X67031249Y-68098569D02*
X67126487Y-68241426D01*
X67126487Y-68241426D02*
X67221725Y-68336664D01*
X67221725Y-68336664D02*
X67316963Y-68384283D01*
X231603628Y-149373809D02*
X232079819Y-149373809D01*
X231079819Y-149040476D02*
X231603628Y-149373809D01*
X231603628Y-149373809D02*
X231079819Y-149707142D01*
X232079819Y-150564285D02*
X232079819Y-149992857D01*
X232079819Y-150278571D02*
X231079819Y-150278571D01*
X231079819Y-150278571D02*
X231222676Y-150183333D01*
X231222676Y-150183333D02*
X231317914Y-150088095D01*
X231317914Y-150088095D02*
X231365533Y-149992857D01*
X83586904Y-81204819D02*
X83586904Y-82014342D01*
X83586904Y-82014342D02*
X83539285Y-82109580D01*
X83539285Y-82109580D02*
X83491666Y-82157200D01*
X83491666Y-82157200D02*
X83396428Y-82204819D01*
X83396428Y-82204819D02*
X83205952Y-82204819D01*
X83205952Y-82204819D02*
X83110714Y-82157200D01*
X83110714Y-82157200D02*
X83063095Y-82109580D01*
X83063095Y-82109580D02*
X83015476Y-82014342D01*
X83015476Y-82014342D02*
X83015476Y-81204819D01*
X82586904Y-81300057D02*
X82539285Y-81252438D01*
X82539285Y-81252438D02*
X82444047Y-81204819D01*
X82444047Y-81204819D02*
X82205952Y-81204819D01*
X82205952Y-81204819D02*
X82110714Y-81252438D01*
X82110714Y-81252438D02*
X82063095Y-81300057D01*
X82063095Y-81300057D02*
X82015476Y-81395295D01*
X82015476Y-81395295D02*
X82015476Y-81490533D01*
X82015476Y-81490533D02*
X82063095Y-81633390D01*
X82063095Y-81633390D02*
X82634523Y-82204819D01*
X82634523Y-82204819D02*
X82015476Y-82204819D01*
X207819819Y-147809345D02*
X208629342Y-147809345D01*
X208629342Y-147809345D02*
X208724580Y-147856964D01*
X208724580Y-147856964D02*
X208772200Y-147904583D01*
X208772200Y-147904583D02*
X208819819Y-147999821D01*
X208819819Y-147999821D02*
X208819819Y-148190297D01*
X208819819Y-148190297D02*
X208772200Y-148285535D01*
X208772200Y-148285535D02*
X208724580Y-148333154D01*
X208724580Y-148333154D02*
X208629342Y-148380773D01*
X208629342Y-148380773D02*
X207819819Y-148380773D01*
X208819819Y-149380773D02*
X208819819Y-148809345D01*
X208819819Y-149095059D02*
X207819819Y-149095059D01*
X207819819Y-149095059D02*
X207962676Y-148999821D01*
X207962676Y-148999821D02*
X208057914Y-148904583D01*
X208057914Y-148904583D02*
X208105533Y-148809345D01*
X249658332Y-144782200D02*
X249515475Y-144829819D01*
X249515475Y-144829819D02*
X249277380Y-144829819D01*
X249277380Y-144829819D02*
X249182142Y-144782200D01*
X249182142Y-144782200D02*
X249134523Y-144734580D01*
X249134523Y-144734580D02*
X249086904Y-144639342D01*
X249086904Y-144639342D02*
X249086904Y-144544104D01*
X249086904Y-144544104D02*
X249134523Y-144448866D01*
X249134523Y-144448866D02*
X249182142Y-144401247D01*
X249182142Y-144401247D02*
X249277380Y-144353628D01*
X249277380Y-144353628D02*
X249467856Y-144306009D01*
X249467856Y-144306009D02*
X249563094Y-144258390D01*
X249563094Y-144258390D02*
X249610713Y-144210771D01*
X249610713Y-144210771D02*
X249658332Y-144115533D01*
X249658332Y-144115533D02*
X249658332Y-144020295D01*
X249658332Y-144020295D02*
X249610713Y-143925057D01*
X249610713Y-143925057D02*
X249563094Y-143877438D01*
X249563094Y-143877438D02*
X249467856Y-143829819D01*
X249467856Y-143829819D02*
X249229761Y-143829819D01*
X249229761Y-143829819D02*
X249086904Y-143877438D01*
X248753570Y-143829819D02*
X248515475Y-144829819D01*
X248515475Y-144829819D02*
X248324999Y-144115533D01*
X248324999Y-144115533D02*
X248134523Y-144829819D01*
X248134523Y-144829819D02*
X247896428Y-143829819D01*
X246991666Y-144829819D02*
X247563094Y-144829819D01*
X247277380Y-144829819D02*
X247277380Y-143829819D01*
X247277380Y-143829819D02*
X247372618Y-143972676D01*
X247372618Y-143972676D02*
X247467856Y-144067914D01*
X247467856Y-144067914D02*
X247563094Y-144115533D01*
X242112916Y-148313569D02*
X242446249Y-147837378D01*
X242684344Y-148313569D02*
X242684344Y-147313569D01*
X242684344Y-147313569D02*
X242303392Y-147313569D01*
X242303392Y-147313569D02*
X242208154Y-147361188D01*
X242208154Y-147361188D02*
X242160535Y-147408807D01*
X242160535Y-147408807D02*
X242112916Y-147504045D01*
X242112916Y-147504045D02*
X242112916Y-147646902D01*
X242112916Y-147646902D02*
X242160535Y-147742140D01*
X242160535Y-147742140D02*
X242208154Y-147789759D01*
X242208154Y-147789759D02*
X242303392Y-147837378D01*
X242303392Y-147837378D02*
X242684344Y-147837378D01*
X241255773Y-147313569D02*
X241446249Y-147313569D01*
X241446249Y-147313569D02*
X241541487Y-147361188D01*
X241541487Y-147361188D02*
X241589106Y-147408807D01*
X241589106Y-147408807D02*
X241684344Y-147551664D01*
X241684344Y-147551664D02*
X241731963Y-147742140D01*
X241731963Y-147742140D02*
X241731963Y-148123092D01*
X241731963Y-148123092D02*
X241684344Y-148218330D01*
X241684344Y-148218330D02*
X241636725Y-148265950D01*
X241636725Y-148265950D02*
X241541487Y-148313569D01*
X241541487Y-148313569D02*
X241351011Y-148313569D01*
X241351011Y-148313569D02*
X241255773Y-148265950D01*
X241255773Y-148265950D02*
X241208154Y-148218330D01*
X241208154Y-148218330D02*
X241160535Y-148123092D01*
X241160535Y-148123092D02*
X241160535Y-147884997D01*
X241160535Y-147884997D02*
X241208154Y-147789759D01*
X241208154Y-147789759D02*
X241255773Y-147742140D01*
X241255773Y-147742140D02*
X241351011Y-147694521D01*
X241351011Y-147694521D02*
X241541487Y-147694521D01*
X241541487Y-147694521D02*
X241636725Y-147742140D01*
X241636725Y-147742140D02*
X241684344Y-147789759D01*
X241684344Y-147789759D02*
X241731963Y-147884997D01*
X213176069Y-139485833D02*
X212699878Y-139152500D01*
X213176069Y-138914405D02*
X212176069Y-138914405D01*
X212176069Y-138914405D02*
X212176069Y-139295357D01*
X212176069Y-139295357D02*
X212223688Y-139390595D01*
X212223688Y-139390595D02*
X212271307Y-139438214D01*
X212271307Y-139438214D02*
X212366545Y-139485833D01*
X212366545Y-139485833D02*
X212509402Y-139485833D01*
X212509402Y-139485833D02*
X212604640Y-139438214D01*
X212604640Y-139438214D02*
X212652259Y-139390595D01*
X212652259Y-139390595D02*
X212699878Y-139295357D01*
X212699878Y-139295357D02*
X212699878Y-138914405D01*
X212176069Y-139819167D02*
X212176069Y-140438214D01*
X212176069Y-140438214D02*
X212557021Y-140104881D01*
X212557021Y-140104881D02*
X212557021Y-140247738D01*
X212557021Y-140247738D02*
X212604640Y-140342976D01*
X212604640Y-140342976D02*
X212652259Y-140390595D01*
X212652259Y-140390595D02*
X212747497Y-140438214D01*
X212747497Y-140438214D02*
X212985592Y-140438214D01*
X212985592Y-140438214D02*
X213080830Y-140390595D01*
X213080830Y-140390595D02*
X213128450Y-140342976D01*
X213128450Y-140342976D02*
X213176069Y-140247738D01*
X213176069Y-140247738D02*
X213176069Y-139962024D01*
X213176069Y-139962024D02*
X213128450Y-139866786D01*
X213128450Y-139866786D02*
X213080830Y-139819167D01*
X210794819Y-139485833D02*
X210318628Y-139152500D01*
X210794819Y-138914405D02*
X209794819Y-138914405D01*
X209794819Y-138914405D02*
X209794819Y-139295357D01*
X209794819Y-139295357D02*
X209842438Y-139390595D01*
X209842438Y-139390595D02*
X209890057Y-139438214D01*
X209890057Y-139438214D02*
X209985295Y-139485833D01*
X209985295Y-139485833D02*
X210128152Y-139485833D01*
X210128152Y-139485833D02*
X210223390Y-139438214D01*
X210223390Y-139438214D02*
X210271009Y-139390595D01*
X210271009Y-139390595D02*
X210318628Y-139295357D01*
X210318628Y-139295357D02*
X210318628Y-138914405D01*
X209890057Y-139866786D02*
X209842438Y-139914405D01*
X209842438Y-139914405D02*
X209794819Y-140009643D01*
X209794819Y-140009643D02*
X209794819Y-140247738D01*
X209794819Y-140247738D02*
X209842438Y-140342976D01*
X209842438Y-140342976D02*
X209890057Y-140390595D01*
X209890057Y-140390595D02*
X209985295Y-140438214D01*
X209985295Y-140438214D02*
X210080533Y-140438214D01*
X210080533Y-140438214D02*
X210223390Y-140390595D01*
X210223390Y-140390595D02*
X210794819Y-139819167D01*
X210794819Y-139819167D02*
X210794819Y-140438214D01*
X206816666Y-153304819D02*
X207149999Y-152828628D01*
X207388094Y-153304819D02*
X207388094Y-152304819D01*
X207388094Y-152304819D02*
X207007142Y-152304819D01*
X207007142Y-152304819D02*
X206911904Y-152352438D01*
X206911904Y-152352438D02*
X206864285Y-152400057D01*
X206864285Y-152400057D02*
X206816666Y-152495295D01*
X206816666Y-152495295D02*
X206816666Y-152638152D01*
X206816666Y-152638152D02*
X206864285Y-152733390D01*
X206864285Y-152733390D02*
X206911904Y-152781009D01*
X206911904Y-152781009D02*
X207007142Y-152828628D01*
X207007142Y-152828628D02*
X207388094Y-152828628D01*
X205864285Y-153304819D02*
X206435713Y-153304819D01*
X206149999Y-153304819D02*
X206149999Y-152304819D01*
X206149999Y-152304819D02*
X206245237Y-152447676D01*
X206245237Y-152447676D02*
X206340475Y-152542914D01*
X206340475Y-152542914D02*
X206435713Y-152590533D01*
X252177438Y-136908095D02*
X252129819Y-136812857D01*
X252129819Y-136812857D02*
X252129819Y-136670000D01*
X252129819Y-136670000D02*
X252177438Y-136527143D01*
X252177438Y-136527143D02*
X252272676Y-136431905D01*
X252272676Y-136431905D02*
X252367914Y-136384286D01*
X252367914Y-136384286D02*
X252558390Y-136336667D01*
X252558390Y-136336667D02*
X252701247Y-136336667D01*
X252701247Y-136336667D02*
X252891723Y-136384286D01*
X252891723Y-136384286D02*
X252986961Y-136431905D01*
X252986961Y-136431905D02*
X253082200Y-136527143D01*
X253082200Y-136527143D02*
X253129819Y-136670000D01*
X253129819Y-136670000D02*
X253129819Y-136765238D01*
X253129819Y-136765238D02*
X253082200Y-136908095D01*
X253082200Y-136908095D02*
X253034580Y-136955714D01*
X253034580Y-136955714D02*
X252701247Y-136955714D01*
X252701247Y-136955714D02*
X252701247Y-136765238D01*
X253129819Y-137384286D02*
X252129819Y-137384286D01*
X252129819Y-137384286D02*
X253129819Y-137955714D01*
X253129819Y-137955714D02*
X252129819Y-137955714D01*
X253129819Y-138431905D02*
X252129819Y-138431905D01*
X252129819Y-138431905D02*
X252129819Y-138670000D01*
X252129819Y-138670000D02*
X252177438Y-138812857D01*
X252177438Y-138812857D02*
X252272676Y-138908095D01*
X252272676Y-138908095D02*
X252367914Y-138955714D01*
X252367914Y-138955714D02*
X252558390Y-139003333D01*
X252558390Y-139003333D02*
X252701247Y-139003333D01*
X252701247Y-139003333D02*
X252891723Y-138955714D01*
X252891723Y-138955714D02*
X252986961Y-138908095D01*
X252986961Y-138908095D02*
X253082200Y-138812857D01*
X253082200Y-138812857D02*
X253129819Y-138670000D01*
X253129819Y-138670000D02*
X253129819Y-138431905D01*
X253129819Y-145622380D02*
X252653628Y-145289047D01*
X253129819Y-145050952D02*
X252129819Y-145050952D01*
X252129819Y-145050952D02*
X252129819Y-145431904D01*
X252129819Y-145431904D02*
X252177438Y-145527142D01*
X252177438Y-145527142D02*
X252225057Y-145574761D01*
X252225057Y-145574761D02*
X252320295Y-145622380D01*
X252320295Y-145622380D02*
X252463152Y-145622380D01*
X252463152Y-145622380D02*
X252558390Y-145574761D01*
X252558390Y-145574761D02*
X252606009Y-145527142D01*
X252606009Y-145527142D02*
X252653628Y-145431904D01*
X252653628Y-145431904D02*
X252653628Y-145050952D01*
X253082200Y-146003333D02*
X253129819Y-146146190D01*
X253129819Y-146146190D02*
X253129819Y-146384285D01*
X253129819Y-146384285D02*
X253082200Y-146479523D01*
X253082200Y-146479523D02*
X253034580Y-146527142D01*
X253034580Y-146527142D02*
X252939342Y-146574761D01*
X252939342Y-146574761D02*
X252844104Y-146574761D01*
X252844104Y-146574761D02*
X252748866Y-146527142D01*
X252748866Y-146527142D02*
X252701247Y-146479523D01*
X252701247Y-146479523D02*
X252653628Y-146384285D01*
X252653628Y-146384285D02*
X252606009Y-146193809D01*
X252606009Y-146193809D02*
X252558390Y-146098571D01*
X252558390Y-146098571D02*
X252510771Y-146050952D01*
X252510771Y-146050952D02*
X252415533Y-146003333D01*
X252415533Y-146003333D02*
X252320295Y-146003333D01*
X252320295Y-146003333D02*
X252225057Y-146050952D01*
X252225057Y-146050952D02*
X252177438Y-146098571D01*
X252177438Y-146098571D02*
X252129819Y-146193809D01*
X252129819Y-146193809D02*
X252129819Y-146431904D01*
X252129819Y-146431904D02*
X252177438Y-146574761D01*
X252129819Y-146860476D02*
X252129819Y-147431904D01*
X253129819Y-147146190D02*
X252129819Y-147146190D01*
X255629819Y-136098572D02*
X254629819Y-136098572D01*
X254629819Y-136098572D02*
X255344104Y-136431905D01*
X255344104Y-136431905D02*
X254629819Y-136765238D01*
X254629819Y-136765238D02*
X255629819Y-136765238D01*
X254629819Y-137431905D02*
X254629819Y-137622381D01*
X254629819Y-137622381D02*
X254677438Y-137717619D01*
X254677438Y-137717619D02*
X254772676Y-137812857D01*
X254772676Y-137812857D02*
X254963152Y-137860476D01*
X254963152Y-137860476D02*
X255296485Y-137860476D01*
X255296485Y-137860476D02*
X255486961Y-137812857D01*
X255486961Y-137812857D02*
X255582200Y-137717619D01*
X255582200Y-137717619D02*
X255629819Y-137622381D01*
X255629819Y-137622381D02*
X255629819Y-137431905D01*
X255629819Y-137431905D02*
X255582200Y-137336667D01*
X255582200Y-137336667D02*
X255486961Y-137241429D01*
X255486961Y-137241429D02*
X255296485Y-137193810D01*
X255296485Y-137193810D02*
X254963152Y-137193810D01*
X254963152Y-137193810D02*
X254772676Y-137241429D01*
X254772676Y-137241429D02*
X254677438Y-137336667D01*
X254677438Y-137336667D02*
X254629819Y-137431905D01*
X255582200Y-138241429D02*
X255629819Y-138384286D01*
X255629819Y-138384286D02*
X255629819Y-138622381D01*
X255629819Y-138622381D02*
X255582200Y-138717619D01*
X255582200Y-138717619D02*
X255534580Y-138765238D01*
X255534580Y-138765238D02*
X255439342Y-138812857D01*
X255439342Y-138812857D02*
X255344104Y-138812857D01*
X255344104Y-138812857D02*
X255248866Y-138765238D01*
X255248866Y-138765238D02*
X255201247Y-138717619D01*
X255201247Y-138717619D02*
X255153628Y-138622381D01*
X255153628Y-138622381D02*
X255106009Y-138431905D01*
X255106009Y-138431905D02*
X255058390Y-138336667D01*
X255058390Y-138336667D02*
X255010771Y-138289048D01*
X255010771Y-138289048D02*
X254915533Y-138241429D01*
X254915533Y-138241429D02*
X254820295Y-138241429D01*
X254820295Y-138241429D02*
X254725057Y-138289048D01*
X254725057Y-138289048D02*
X254677438Y-138336667D01*
X254677438Y-138336667D02*
X254629819Y-138431905D01*
X254629819Y-138431905D02*
X254629819Y-138670000D01*
X254629819Y-138670000D02*
X254677438Y-138812857D01*
X255629819Y-139241429D02*
X254629819Y-139241429D01*
X255582200Y-144634286D02*
X255629819Y-144777143D01*
X255629819Y-144777143D02*
X255629819Y-145015238D01*
X255629819Y-145015238D02*
X255582200Y-145110476D01*
X255582200Y-145110476D02*
X255534580Y-145158095D01*
X255534580Y-145158095D02*
X255439342Y-145205714D01*
X255439342Y-145205714D02*
X255344104Y-145205714D01*
X255344104Y-145205714D02*
X255248866Y-145158095D01*
X255248866Y-145158095D02*
X255201247Y-145110476D01*
X255201247Y-145110476D02*
X255153628Y-145015238D01*
X255153628Y-145015238D02*
X255106009Y-144824762D01*
X255106009Y-144824762D02*
X255058390Y-144729524D01*
X255058390Y-144729524D02*
X255010771Y-144681905D01*
X255010771Y-144681905D02*
X254915533Y-144634286D01*
X254915533Y-144634286D02*
X254820295Y-144634286D01*
X254820295Y-144634286D02*
X254725057Y-144681905D01*
X254725057Y-144681905D02*
X254677438Y-144729524D01*
X254677438Y-144729524D02*
X254629819Y-144824762D01*
X254629819Y-144824762D02*
X254629819Y-145062857D01*
X254629819Y-145062857D02*
X254677438Y-145205714D01*
X255534580Y-146205714D02*
X255582200Y-146158095D01*
X255582200Y-146158095D02*
X255629819Y-146015238D01*
X255629819Y-146015238D02*
X255629819Y-145920000D01*
X255629819Y-145920000D02*
X255582200Y-145777143D01*
X255582200Y-145777143D02*
X255486961Y-145681905D01*
X255486961Y-145681905D02*
X255391723Y-145634286D01*
X255391723Y-145634286D02*
X255201247Y-145586667D01*
X255201247Y-145586667D02*
X255058390Y-145586667D01*
X255058390Y-145586667D02*
X254867914Y-145634286D01*
X254867914Y-145634286D02*
X254772676Y-145681905D01*
X254772676Y-145681905D02*
X254677438Y-145777143D01*
X254677438Y-145777143D02*
X254629819Y-145920000D01*
X254629819Y-145920000D02*
X254629819Y-146015238D01*
X254629819Y-146015238D02*
X254677438Y-146158095D01*
X254677438Y-146158095D02*
X254725057Y-146205714D01*
X255629819Y-146634286D02*
X254629819Y-146634286D01*
X255629819Y-147205714D02*
X255058390Y-146777143D01*
X254629819Y-147205714D02*
X255201247Y-146634286D01*
X257129819Y-136586667D02*
X258129819Y-136920000D01*
X258129819Y-136920000D02*
X257129819Y-137253333D01*
X258034580Y-138158095D02*
X258082200Y-138110476D01*
X258082200Y-138110476D02*
X258129819Y-137967619D01*
X258129819Y-137967619D02*
X258129819Y-137872381D01*
X258129819Y-137872381D02*
X258082200Y-137729524D01*
X258082200Y-137729524D02*
X257986961Y-137634286D01*
X257986961Y-137634286D02*
X257891723Y-137586667D01*
X257891723Y-137586667D02*
X257701247Y-137539048D01*
X257701247Y-137539048D02*
X257558390Y-137539048D01*
X257558390Y-137539048D02*
X257367914Y-137586667D01*
X257367914Y-137586667D02*
X257272676Y-137634286D01*
X257272676Y-137634286D02*
X257177438Y-137729524D01*
X257177438Y-137729524D02*
X257129819Y-137872381D01*
X257129819Y-137872381D02*
X257129819Y-137967619D01*
X257129819Y-137967619D02*
X257177438Y-138110476D01*
X257177438Y-138110476D02*
X257225057Y-138158095D01*
X258034580Y-139158095D02*
X258082200Y-139110476D01*
X258082200Y-139110476D02*
X258129819Y-138967619D01*
X258129819Y-138967619D02*
X258129819Y-138872381D01*
X258129819Y-138872381D02*
X258082200Y-138729524D01*
X258082200Y-138729524D02*
X257986961Y-138634286D01*
X257986961Y-138634286D02*
X257891723Y-138586667D01*
X257891723Y-138586667D02*
X257701247Y-138539048D01*
X257701247Y-138539048D02*
X257558390Y-138539048D01*
X257558390Y-138539048D02*
X257367914Y-138586667D01*
X257367914Y-138586667D02*
X257272676Y-138634286D01*
X257272676Y-138634286D02*
X257177438Y-138729524D01*
X257177438Y-138729524D02*
X257129819Y-138872381D01*
X257129819Y-138872381D02*
X257129819Y-138967619D01*
X257129819Y-138967619D02*
X257177438Y-139110476D01*
X257177438Y-139110476D02*
X257225057Y-139158095D01*
X258129819Y-144598572D02*
X257129819Y-144598572D01*
X257129819Y-144598572D02*
X257844104Y-144931905D01*
X257844104Y-144931905D02*
X257129819Y-145265238D01*
X257129819Y-145265238D02*
X258129819Y-145265238D01*
X258129819Y-145741429D02*
X257129819Y-145741429D01*
X258082200Y-146170000D02*
X258129819Y-146312857D01*
X258129819Y-146312857D02*
X258129819Y-146550952D01*
X258129819Y-146550952D02*
X258082200Y-146646190D01*
X258082200Y-146646190D02*
X258034580Y-146693809D01*
X258034580Y-146693809D02*
X257939342Y-146741428D01*
X257939342Y-146741428D02*
X257844104Y-146741428D01*
X257844104Y-146741428D02*
X257748866Y-146693809D01*
X257748866Y-146693809D02*
X257701247Y-146646190D01*
X257701247Y-146646190D02*
X257653628Y-146550952D01*
X257653628Y-146550952D02*
X257606009Y-146360476D01*
X257606009Y-146360476D02*
X257558390Y-146265238D01*
X257558390Y-146265238D02*
X257510771Y-146217619D01*
X257510771Y-146217619D02*
X257415533Y-146170000D01*
X257415533Y-146170000D02*
X257320295Y-146170000D01*
X257320295Y-146170000D02*
X257225057Y-146217619D01*
X257225057Y-146217619D02*
X257177438Y-146265238D01*
X257177438Y-146265238D02*
X257129819Y-146360476D01*
X257129819Y-146360476D02*
X257129819Y-146598571D01*
X257129819Y-146598571D02*
X257177438Y-146741428D01*
X257129819Y-147360476D02*
X257129819Y-147550952D01*
X257129819Y-147550952D02*
X257177438Y-147646190D01*
X257177438Y-147646190D02*
X257272676Y-147741428D01*
X257272676Y-147741428D02*
X257463152Y-147789047D01*
X257463152Y-147789047D02*
X257796485Y-147789047D01*
X257796485Y-147789047D02*
X257986961Y-147741428D01*
X257986961Y-147741428D02*
X258082200Y-147646190D01*
X258082200Y-147646190D02*
X258129819Y-147550952D01*
X258129819Y-147550952D02*
X258129819Y-147360476D01*
X258129819Y-147360476D02*
X258082200Y-147265238D01*
X258082200Y-147265238D02*
X257986961Y-147170000D01*
X257986961Y-147170000D02*
X257796485Y-147122381D01*
X257796485Y-147122381D02*
X257463152Y-147122381D01*
X257463152Y-147122381D02*
X257272676Y-147170000D01*
X257272676Y-147170000D02*
X257177438Y-147265238D01*
X257177438Y-147265238D02*
X257129819Y-147360476D01*
X78061009Y-82129166D02*
X78061009Y-81795833D01*
X78584819Y-81795833D02*
X77584819Y-81795833D01*
X77584819Y-81795833D02*
X77584819Y-82272023D01*
X78584819Y-83176785D02*
X78584819Y-82605357D01*
X78584819Y-82891071D02*
X77584819Y-82891071D01*
X77584819Y-82891071D02*
X77727676Y-82795833D01*
X77727676Y-82795833D02*
X77822914Y-82700595D01*
X77822914Y-82700595D02*
X77870533Y-82605357D01*
X346842319Y-152138214D02*
X345842319Y-152138214D01*
X345842319Y-152138214D02*
X345842319Y-152376309D01*
X345842319Y-152376309D02*
X345889938Y-152519166D01*
X345889938Y-152519166D02*
X345985176Y-152614404D01*
X345985176Y-152614404D02*
X346080414Y-152662023D01*
X346080414Y-152662023D02*
X346270890Y-152709642D01*
X346270890Y-152709642D02*
X346413747Y-152709642D01*
X346413747Y-152709642D02*
X346604223Y-152662023D01*
X346604223Y-152662023D02*
X346699461Y-152614404D01*
X346699461Y-152614404D02*
X346794700Y-152519166D01*
X346794700Y-152519166D02*
X346842319Y-152376309D01*
X346842319Y-152376309D02*
X346842319Y-152138214D01*
X345842319Y-153566785D02*
X345842319Y-153376309D01*
X345842319Y-153376309D02*
X345889938Y-153281071D01*
X345889938Y-153281071D02*
X345937557Y-153233452D01*
X345937557Y-153233452D02*
X346080414Y-153138214D01*
X346080414Y-153138214D02*
X346270890Y-153090595D01*
X346270890Y-153090595D02*
X346651842Y-153090595D01*
X346651842Y-153090595D02*
X346747080Y-153138214D01*
X346747080Y-153138214D02*
X346794700Y-153185833D01*
X346794700Y-153185833D02*
X346842319Y-153281071D01*
X346842319Y-153281071D02*
X346842319Y-153471547D01*
X346842319Y-153471547D02*
X346794700Y-153566785D01*
X346794700Y-153566785D02*
X346747080Y-153614404D01*
X346747080Y-153614404D02*
X346651842Y-153662023D01*
X346651842Y-153662023D02*
X346413747Y-153662023D01*
X346413747Y-153662023D02*
X346318509Y-153614404D01*
X346318509Y-153614404D02*
X346270890Y-153566785D01*
X346270890Y-153566785D02*
X346223271Y-153471547D01*
X346223271Y-153471547D02*
X346223271Y-153281071D01*
X346223271Y-153281071D02*
X346270890Y-153185833D01*
X346270890Y-153185833D02*
X346318509Y-153138214D01*
X346318509Y-153138214D02*
X346413747Y-153090595D01*
X346842319Y-154614404D02*
X346842319Y-154042976D01*
X346842319Y-154328690D02*
X345842319Y-154328690D01*
X345842319Y-154328690D02*
X345985176Y-154233452D01*
X345985176Y-154233452D02*
X346080414Y-154138214D01*
X346080414Y-154138214D02*
X346128033Y-154042976D01*
X322712319Y-152518214D02*
X321712319Y-152518214D01*
X321712319Y-152518214D02*
X321712319Y-152756309D01*
X321712319Y-152756309D02*
X321759938Y-152899166D01*
X321759938Y-152899166D02*
X321855176Y-152994404D01*
X321855176Y-152994404D02*
X321950414Y-153042023D01*
X321950414Y-153042023D02*
X322140890Y-153089642D01*
X322140890Y-153089642D02*
X322283747Y-153089642D01*
X322283747Y-153089642D02*
X322474223Y-153042023D01*
X322474223Y-153042023D02*
X322569461Y-152994404D01*
X322569461Y-152994404D02*
X322664700Y-152899166D01*
X322664700Y-152899166D02*
X322712319Y-152756309D01*
X322712319Y-152756309D02*
X322712319Y-152518214D01*
X321712319Y-153946785D02*
X321712319Y-153756309D01*
X321712319Y-153756309D02*
X321759938Y-153661071D01*
X321759938Y-153661071D02*
X321807557Y-153613452D01*
X321807557Y-153613452D02*
X321950414Y-153518214D01*
X321950414Y-153518214D02*
X322140890Y-153470595D01*
X322140890Y-153470595D02*
X322521842Y-153470595D01*
X322521842Y-153470595D02*
X322617080Y-153518214D01*
X322617080Y-153518214D02*
X322664700Y-153565833D01*
X322664700Y-153565833D02*
X322712319Y-153661071D01*
X322712319Y-153661071D02*
X322712319Y-153851547D01*
X322712319Y-153851547D02*
X322664700Y-153946785D01*
X322664700Y-153946785D02*
X322617080Y-153994404D01*
X322617080Y-153994404D02*
X322521842Y-154042023D01*
X322521842Y-154042023D02*
X322283747Y-154042023D01*
X322283747Y-154042023D02*
X322188509Y-153994404D01*
X322188509Y-153994404D02*
X322140890Y-153946785D01*
X322140890Y-153946785D02*
X322093271Y-153851547D01*
X322093271Y-153851547D02*
X322093271Y-153661071D01*
X322093271Y-153661071D02*
X322140890Y-153565833D01*
X322140890Y-153565833D02*
X322188509Y-153518214D01*
X322188509Y-153518214D02*
X322283747Y-153470595D01*
X321712319Y-154661071D02*
X321712319Y-154756309D01*
X321712319Y-154756309D02*
X321759938Y-154851547D01*
X321759938Y-154851547D02*
X321807557Y-154899166D01*
X321807557Y-154899166D02*
X321902795Y-154946785D01*
X321902795Y-154946785D02*
X322093271Y-154994404D01*
X322093271Y-154994404D02*
X322331366Y-154994404D01*
X322331366Y-154994404D02*
X322521842Y-154946785D01*
X322521842Y-154946785D02*
X322617080Y-154899166D01*
X322617080Y-154899166D02*
X322664700Y-154851547D01*
X322664700Y-154851547D02*
X322712319Y-154756309D01*
X322712319Y-154756309D02*
X322712319Y-154661071D01*
X322712319Y-154661071D02*
X322664700Y-154565833D01*
X322664700Y-154565833D02*
X322617080Y-154518214D01*
X322617080Y-154518214D02*
X322521842Y-154470595D01*
X322521842Y-154470595D02*
X322331366Y-154422976D01*
X322331366Y-154422976D02*
X322093271Y-154422976D01*
X322093271Y-154422976D02*
X321902795Y-154470595D01*
X321902795Y-154470595D02*
X321807557Y-154518214D01*
X321807557Y-154518214D02*
X321759938Y-154565833D01*
X321759938Y-154565833D02*
X321712319Y-154661071D01*
X298582319Y-152138214D02*
X297582319Y-152138214D01*
X297582319Y-152138214D02*
X297582319Y-152376309D01*
X297582319Y-152376309D02*
X297629938Y-152519166D01*
X297629938Y-152519166D02*
X297725176Y-152614404D01*
X297725176Y-152614404D02*
X297820414Y-152662023D01*
X297820414Y-152662023D02*
X298010890Y-152709642D01*
X298010890Y-152709642D02*
X298153747Y-152709642D01*
X298153747Y-152709642D02*
X298344223Y-152662023D01*
X298344223Y-152662023D02*
X298439461Y-152614404D01*
X298439461Y-152614404D02*
X298534700Y-152519166D01*
X298534700Y-152519166D02*
X298582319Y-152376309D01*
X298582319Y-152376309D02*
X298582319Y-152138214D01*
X297582319Y-153614404D02*
X297582319Y-153138214D01*
X297582319Y-153138214D02*
X298058509Y-153090595D01*
X298058509Y-153090595D02*
X298010890Y-153138214D01*
X298010890Y-153138214D02*
X297963271Y-153233452D01*
X297963271Y-153233452D02*
X297963271Y-153471547D01*
X297963271Y-153471547D02*
X298010890Y-153566785D01*
X298010890Y-153566785D02*
X298058509Y-153614404D01*
X298058509Y-153614404D02*
X298153747Y-153662023D01*
X298153747Y-153662023D02*
X298391842Y-153662023D01*
X298391842Y-153662023D02*
X298487080Y-153614404D01*
X298487080Y-153614404D02*
X298534700Y-153566785D01*
X298534700Y-153566785D02*
X298582319Y-153471547D01*
X298582319Y-153471547D02*
X298582319Y-153233452D01*
X298582319Y-153233452D02*
X298534700Y-153138214D01*
X298534700Y-153138214D02*
X298487080Y-153090595D01*
X298582319Y-154138214D02*
X298582319Y-154328690D01*
X298582319Y-154328690D02*
X298534700Y-154423928D01*
X298534700Y-154423928D02*
X298487080Y-154471547D01*
X298487080Y-154471547D02*
X298344223Y-154566785D01*
X298344223Y-154566785D02*
X298153747Y-154614404D01*
X298153747Y-154614404D02*
X297772795Y-154614404D01*
X297772795Y-154614404D02*
X297677557Y-154566785D01*
X297677557Y-154566785D02*
X297629938Y-154519166D01*
X297629938Y-154519166D02*
X297582319Y-154423928D01*
X297582319Y-154423928D02*
X297582319Y-154233452D01*
X297582319Y-154233452D02*
X297629938Y-154138214D01*
X297629938Y-154138214D02*
X297677557Y-154090595D01*
X297677557Y-154090595D02*
X297772795Y-154042976D01*
X297772795Y-154042976D02*
X298010890Y-154042976D01*
X298010890Y-154042976D02*
X298106128Y-154090595D01*
X298106128Y-154090595D02*
X298153747Y-154138214D01*
X298153747Y-154138214D02*
X298201366Y-154233452D01*
X298201366Y-154233452D02*
X298201366Y-154423928D01*
X298201366Y-154423928D02*
X298153747Y-154519166D01*
X298153747Y-154519166D02*
X298106128Y-154566785D01*
X298106128Y-154566785D02*
X298010890Y-154614404D01*
X274452319Y-152138214D02*
X273452319Y-152138214D01*
X273452319Y-152138214D02*
X273452319Y-152376309D01*
X273452319Y-152376309D02*
X273499938Y-152519166D01*
X273499938Y-152519166D02*
X273595176Y-152614404D01*
X273595176Y-152614404D02*
X273690414Y-152662023D01*
X273690414Y-152662023D02*
X273880890Y-152709642D01*
X273880890Y-152709642D02*
X274023747Y-152709642D01*
X274023747Y-152709642D02*
X274214223Y-152662023D01*
X274214223Y-152662023D02*
X274309461Y-152614404D01*
X274309461Y-152614404D02*
X274404700Y-152519166D01*
X274404700Y-152519166D02*
X274452319Y-152376309D01*
X274452319Y-152376309D02*
X274452319Y-152138214D01*
X273452319Y-153614404D02*
X273452319Y-153138214D01*
X273452319Y-153138214D02*
X273928509Y-153090595D01*
X273928509Y-153090595D02*
X273880890Y-153138214D01*
X273880890Y-153138214D02*
X273833271Y-153233452D01*
X273833271Y-153233452D02*
X273833271Y-153471547D01*
X273833271Y-153471547D02*
X273880890Y-153566785D01*
X273880890Y-153566785D02*
X273928509Y-153614404D01*
X273928509Y-153614404D02*
X274023747Y-153662023D01*
X274023747Y-153662023D02*
X274261842Y-153662023D01*
X274261842Y-153662023D02*
X274357080Y-153614404D01*
X274357080Y-153614404D02*
X274404700Y-153566785D01*
X274404700Y-153566785D02*
X274452319Y-153471547D01*
X274452319Y-153471547D02*
X274452319Y-153233452D01*
X274452319Y-153233452D02*
X274404700Y-153138214D01*
X274404700Y-153138214D02*
X274357080Y-153090595D01*
X273880890Y-154233452D02*
X273833271Y-154138214D01*
X273833271Y-154138214D02*
X273785652Y-154090595D01*
X273785652Y-154090595D02*
X273690414Y-154042976D01*
X273690414Y-154042976D02*
X273642795Y-154042976D01*
X273642795Y-154042976D02*
X273547557Y-154090595D01*
X273547557Y-154090595D02*
X273499938Y-154138214D01*
X273499938Y-154138214D02*
X273452319Y-154233452D01*
X273452319Y-154233452D02*
X273452319Y-154423928D01*
X273452319Y-154423928D02*
X273499938Y-154519166D01*
X273499938Y-154519166D02*
X273547557Y-154566785D01*
X273547557Y-154566785D02*
X273642795Y-154614404D01*
X273642795Y-154614404D02*
X273690414Y-154614404D01*
X273690414Y-154614404D02*
X273785652Y-154566785D01*
X273785652Y-154566785D02*
X273833271Y-154519166D01*
X273833271Y-154519166D02*
X273880890Y-154423928D01*
X273880890Y-154423928D02*
X273880890Y-154233452D01*
X273880890Y-154233452D02*
X273928509Y-154138214D01*
X273928509Y-154138214D02*
X273976128Y-154090595D01*
X273976128Y-154090595D02*
X274071366Y-154042976D01*
X274071366Y-154042976D02*
X274261842Y-154042976D01*
X274261842Y-154042976D02*
X274357080Y-154090595D01*
X274357080Y-154090595D02*
X274404700Y-154138214D01*
X274404700Y-154138214D02*
X274452319Y-154233452D01*
X274452319Y-154233452D02*
X274452319Y-154423928D01*
X274452319Y-154423928D02*
X274404700Y-154519166D01*
X274404700Y-154519166D02*
X274357080Y-154566785D01*
X274357080Y-154566785D02*
X274261842Y-154614404D01*
X274261842Y-154614404D02*
X274071366Y-154614404D01*
X274071366Y-154614404D02*
X273976128Y-154566785D01*
X273976128Y-154566785D02*
X273928509Y-154519166D01*
X273928509Y-154519166D02*
X273880890Y-154423928D01*
X203332319Y-152518214D02*
X202332319Y-152518214D01*
X202332319Y-152518214D02*
X202332319Y-152756309D01*
X202332319Y-152756309D02*
X202379938Y-152899166D01*
X202379938Y-152899166D02*
X202475176Y-152994404D01*
X202475176Y-152994404D02*
X202570414Y-153042023D01*
X202570414Y-153042023D02*
X202760890Y-153089642D01*
X202760890Y-153089642D02*
X202903747Y-153089642D01*
X202903747Y-153089642D02*
X203094223Y-153042023D01*
X203094223Y-153042023D02*
X203189461Y-152994404D01*
X203189461Y-152994404D02*
X203284700Y-152899166D01*
X203284700Y-152899166D02*
X203332319Y-152756309D01*
X203332319Y-152756309D02*
X203332319Y-152518214D01*
X202332319Y-153994404D02*
X202332319Y-153518214D01*
X202332319Y-153518214D02*
X202808509Y-153470595D01*
X202808509Y-153470595D02*
X202760890Y-153518214D01*
X202760890Y-153518214D02*
X202713271Y-153613452D01*
X202713271Y-153613452D02*
X202713271Y-153851547D01*
X202713271Y-153851547D02*
X202760890Y-153946785D01*
X202760890Y-153946785D02*
X202808509Y-153994404D01*
X202808509Y-153994404D02*
X202903747Y-154042023D01*
X202903747Y-154042023D02*
X203141842Y-154042023D01*
X203141842Y-154042023D02*
X203237080Y-153994404D01*
X203237080Y-153994404D02*
X203284700Y-153946785D01*
X203284700Y-153946785D02*
X203332319Y-153851547D01*
X203332319Y-153851547D02*
X203332319Y-153613452D01*
X203332319Y-153613452D02*
X203284700Y-153518214D01*
X203284700Y-153518214D02*
X203237080Y-153470595D01*
X202332319Y-154375357D02*
X202332319Y-155042023D01*
X202332319Y-155042023D02*
X203332319Y-154613452D01*
X132212319Y-152138214D02*
X131212319Y-152138214D01*
X131212319Y-152138214D02*
X131212319Y-152376309D01*
X131212319Y-152376309D02*
X131259938Y-152519166D01*
X131259938Y-152519166D02*
X131355176Y-152614404D01*
X131355176Y-152614404D02*
X131450414Y-152662023D01*
X131450414Y-152662023D02*
X131640890Y-152709642D01*
X131640890Y-152709642D02*
X131783747Y-152709642D01*
X131783747Y-152709642D02*
X131974223Y-152662023D01*
X131974223Y-152662023D02*
X132069461Y-152614404D01*
X132069461Y-152614404D02*
X132164700Y-152519166D01*
X132164700Y-152519166D02*
X132212319Y-152376309D01*
X132212319Y-152376309D02*
X132212319Y-152138214D01*
X131212319Y-153614404D02*
X131212319Y-153138214D01*
X131212319Y-153138214D02*
X131688509Y-153090595D01*
X131688509Y-153090595D02*
X131640890Y-153138214D01*
X131640890Y-153138214D02*
X131593271Y-153233452D01*
X131593271Y-153233452D02*
X131593271Y-153471547D01*
X131593271Y-153471547D02*
X131640890Y-153566785D01*
X131640890Y-153566785D02*
X131688509Y-153614404D01*
X131688509Y-153614404D02*
X131783747Y-153662023D01*
X131783747Y-153662023D02*
X132021842Y-153662023D01*
X132021842Y-153662023D02*
X132117080Y-153614404D01*
X132117080Y-153614404D02*
X132164700Y-153566785D01*
X132164700Y-153566785D02*
X132212319Y-153471547D01*
X132212319Y-153471547D02*
X132212319Y-153233452D01*
X132212319Y-153233452D02*
X132164700Y-153138214D01*
X132164700Y-153138214D02*
X132117080Y-153090595D01*
X131212319Y-154519166D02*
X131212319Y-154328690D01*
X131212319Y-154328690D02*
X131259938Y-154233452D01*
X131259938Y-154233452D02*
X131307557Y-154185833D01*
X131307557Y-154185833D02*
X131450414Y-154090595D01*
X131450414Y-154090595D02*
X131640890Y-154042976D01*
X131640890Y-154042976D02*
X132021842Y-154042976D01*
X132021842Y-154042976D02*
X132117080Y-154090595D01*
X132117080Y-154090595D02*
X132164700Y-154138214D01*
X132164700Y-154138214D02*
X132212319Y-154233452D01*
X132212319Y-154233452D02*
X132212319Y-154423928D01*
X132212319Y-154423928D02*
X132164700Y-154519166D01*
X132164700Y-154519166D02*
X132117080Y-154566785D01*
X132117080Y-154566785D02*
X132021842Y-154614404D01*
X132021842Y-154614404D02*
X131783747Y-154614404D01*
X131783747Y-154614404D02*
X131688509Y-154566785D01*
X131688509Y-154566785D02*
X131640890Y-154519166D01*
X131640890Y-154519166D02*
X131593271Y-154423928D01*
X131593271Y-154423928D02*
X131593271Y-154233452D01*
X131593271Y-154233452D02*
X131640890Y-154138214D01*
X131640890Y-154138214D02*
X131688509Y-154090595D01*
X131688509Y-154090595D02*
X131783747Y-154042976D01*
X108082319Y-152138214D02*
X107082319Y-152138214D01*
X107082319Y-152138214D02*
X107082319Y-152376309D01*
X107082319Y-152376309D02*
X107129938Y-152519166D01*
X107129938Y-152519166D02*
X107225176Y-152614404D01*
X107225176Y-152614404D02*
X107320414Y-152662023D01*
X107320414Y-152662023D02*
X107510890Y-152709642D01*
X107510890Y-152709642D02*
X107653747Y-152709642D01*
X107653747Y-152709642D02*
X107844223Y-152662023D01*
X107844223Y-152662023D02*
X107939461Y-152614404D01*
X107939461Y-152614404D02*
X108034700Y-152519166D01*
X108034700Y-152519166D02*
X108082319Y-152376309D01*
X108082319Y-152376309D02*
X108082319Y-152138214D01*
X107082319Y-153614404D02*
X107082319Y-153138214D01*
X107082319Y-153138214D02*
X107558509Y-153090595D01*
X107558509Y-153090595D02*
X107510890Y-153138214D01*
X107510890Y-153138214D02*
X107463271Y-153233452D01*
X107463271Y-153233452D02*
X107463271Y-153471547D01*
X107463271Y-153471547D02*
X107510890Y-153566785D01*
X107510890Y-153566785D02*
X107558509Y-153614404D01*
X107558509Y-153614404D02*
X107653747Y-153662023D01*
X107653747Y-153662023D02*
X107891842Y-153662023D01*
X107891842Y-153662023D02*
X107987080Y-153614404D01*
X107987080Y-153614404D02*
X108034700Y-153566785D01*
X108034700Y-153566785D02*
X108082319Y-153471547D01*
X108082319Y-153471547D02*
X108082319Y-153233452D01*
X108082319Y-153233452D02*
X108034700Y-153138214D01*
X108034700Y-153138214D02*
X107987080Y-153090595D01*
X107082319Y-154566785D02*
X107082319Y-154090595D01*
X107082319Y-154090595D02*
X107558509Y-154042976D01*
X107558509Y-154042976D02*
X107510890Y-154090595D01*
X107510890Y-154090595D02*
X107463271Y-154185833D01*
X107463271Y-154185833D02*
X107463271Y-154423928D01*
X107463271Y-154423928D02*
X107510890Y-154519166D01*
X107510890Y-154519166D02*
X107558509Y-154566785D01*
X107558509Y-154566785D02*
X107653747Y-154614404D01*
X107653747Y-154614404D02*
X107891842Y-154614404D01*
X107891842Y-154614404D02*
X107987080Y-154566785D01*
X107987080Y-154566785D02*
X108034700Y-154519166D01*
X108034700Y-154519166D02*
X108082319Y-154423928D01*
X108082319Y-154423928D02*
X108082319Y-154185833D01*
X108082319Y-154185833D02*
X108034700Y-154090595D01*
X108034700Y-154090595D02*
X107987080Y-154042976D01*
X83952319Y-152138214D02*
X82952319Y-152138214D01*
X82952319Y-152138214D02*
X82952319Y-152376309D01*
X82952319Y-152376309D02*
X82999938Y-152519166D01*
X82999938Y-152519166D02*
X83095176Y-152614404D01*
X83095176Y-152614404D02*
X83190414Y-152662023D01*
X83190414Y-152662023D02*
X83380890Y-152709642D01*
X83380890Y-152709642D02*
X83523747Y-152709642D01*
X83523747Y-152709642D02*
X83714223Y-152662023D01*
X83714223Y-152662023D02*
X83809461Y-152614404D01*
X83809461Y-152614404D02*
X83904700Y-152519166D01*
X83904700Y-152519166D02*
X83952319Y-152376309D01*
X83952319Y-152376309D02*
X83952319Y-152138214D01*
X82952319Y-153614404D02*
X82952319Y-153138214D01*
X82952319Y-153138214D02*
X83428509Y-153090595D01*
X83428509Y-153090595D02*
X83380890Y-153138214D01*
X83380890Y-153138214D02*
X83333271Y-153233452D01*
X83333271Y-153233452D02*
X83333271Y-153471547D01*
X83333271Y-153471547D02*
X83380890Y-153566785D01*
X83380890Y-153566785D02*
X83428509Y-153614404D01*
X83428509Y-153614404D02*
X83523747Y-153662023D01*
X83523747Y-153662023D02*
X83761842Y-153662023D01*
X83761842Y-153662023D02*
X83857080Y-153614404D01*
X83857080Y-153614404D02*
X83904700Y-153566785D01*
X83904700Y-153566785D02*
X83952319Y-153471547D01*
X83952319Y-153471547D02*
X83952319Y-153233452D01*
X83952319Y-153233452D02*
X83904700Y-153138214D01*
X83904700Y-153138214D02*
X83857080Y-153090595D01*
X83285652Y-154519166D02*
X83952319Y-154519166D01*
X82904700Y-154281071D02*
X83618985Y-154042976D01*
X83618985Y-154042976D02*
X83618985Y-154662023D01*
X331602319Y-133088214D02*
X330602319Y-133088214D01*
X330602319Y-133088214D02*
X330602319Y-133326309D01*
X330602319Y-133326309D02*
X330649938Y-133469166D01*
X330649938Y-133469166D02*
X330745176Y-133564404D01*
X330745176Y-133564404D02*
X330840414Y-133612023D01*
X330840414Y-133612023D02*
X331030890Y-133659642D01*
X331030890Y-133659642D02*
X331173747Y-133659642D01*
X331173747Y-133659642D02*
X331364223Y-133612023D01*
X331364223Y-133612023D02*
X331459461Y-133564404D01*
X331459461Y-133564404D02*
X331554700Y-133469166D01*
X331554700Y-133469166D02*
X331602319Y-133326309D01*
X331602319Y-133326309D02*
X331602319Y-133088214D01*
X330602319Y-134564404D02*
X330602319Y-134088214D01*
X330602319Y-134088214D02*
X331078509Y-134040595D01*
X331078509Y-134040595D02*
X331030890Y-134088214D01*
X331030890Y-134088214D02*
X330983271Y-134183452D01*
X330983271Y-134183452D02*
X330983271Y-134421547D01*
X330983271Y-134421547D02*
X331030890Y-134516785D01*
X331030890Y-134516785D02*
X331078509Y-134564404D01*
X331078509Y-134564404D02*
X331173747Y-134612023D01*
X331173747Y-134612023D02*
X331411842Y-134612023D01*
X331411842Y-134612023D02*
X331507080Y-134564404D01*
X331507080Y-134564404D02*
X331554700Y-134516785D01*
X331554700Y-134516785D02*
X331602319Y-134421547D01*
X331602319Y-134421547D02*
X331602319Y-134183452D01*
X331602319Y-134183452D02*
X331554700Y-134088214D01*
X331554700Y-134088214D02*
X331507080Y-134040595D01*
X330602319Y-134945357D02*
X330602319Y-135564404D01*
X330602319Y-135564404D02*
X330983271Y-135231071D01*
X330983271Y-135231071D02*
X330983271Y-135373928D01*
X330983271Y-135373928D02*
X331030890Y-135469166D01*
X331030890Y-135469166D02*
X331078509Y-135516785D01*
X331078509Y-135516785D02*
X331173747Y-135564404D01*
X331173747Y-135564404D02*
X331411842Y-135564404D01*
X331411842Y-135564404D02*
X331507080Y-135516785D01*
X331507080Y-135516785D02*
X331554700Y-135469166D01*
X331554700Y-135469166D02*
X331602319Y-135373928D01*
X331602319Y-135373928D02*
X331602319Y-135088214D01*
X331602319Y-135088214D02*
X331554700Y-134992976D01*
X331554700Y-134992976D02*
X331507080Y-134945357D01*
X296042319Y-133468214D02*
X295042319Y-133468214D01*
X295042319Y-133468214D02*
X295042319Y-133706309D01*
X295042319Y-133706309D02*
X295089938Y-133849166D01*
X295089938Y-133849166D02*
X295185176Y-133944404D01*
X295185176Y-133944404D02*
X295280414Y-133992023D01*
X295280414Y-133992023D02*
X295470890Y-134039642D01*
X295470890Y-134039642D02*
X295613747Y-134039642D01*
X295613747Y-134039642D02*
X295804223Y-133992023D01*
X295804223Y-133992023D02*
X295899461Y-133944404D01*
X295899461Y-133944404D02*
X295994700Y-133849166D01*
X295994700Y-133849166D02*
X296042319Y-133706309D01*
X296042319Y-133706309D02*
X296042319Y-133468214D01*
X295042319Y-134944404D02*
X295042319Y-134468214D01*
X295042319Y-134468214D02*
X295518509Y-134420595D01*
X295518509Y-134420595D02*
X295470890Y-134468214D01*
X295470890Y-134468214D02*
X295423271Y-134563452D01*
X295423271Y-134563452D02*
X295423271Y-134801547D01*
X295423271Y-134801547D02*
X295470890Y-134896785D01*
X295470890Y-134896785D02*
X295518509Y-134944404D01*
X295518509Y-134944404D02*
X295613747Y-134992023D01*
X295613747Y-134992023D02*
X295851842Y-134992023D01*
X295851842Y-134992023D02*
X295947080Y-134944404D01*
X295947080Y-134944404D02*
X295994700Y-134896785D01*
X295994700Y-134896785D02*
X296042319Y-134801547D01*
X296042319Y-134801547D02*
X296042319Y-134563452D01*
X296042319Y-134563452D02*
X295994700Y-134468214D01*
X295994700Y-134468214D02*
X295947080Y-134420595D01*
X295137557Y-135372976D02*
X295089938Y-135420595D01*
X295089938Y-135420595D02*
X295042319Y-135515833D01*
X295042319Y-135515833D02*
X295042319Y-135753928D01*
X295042319Y-135753928D02*
X295089938Y-135849166D01*
X295089938Y-135849166D02*
X295137557Y-135896785D01*
X295137557Y-135896785D02*
X295232795Y-135944404D01*
X295232795Y-135944404D02*
X295328033Y-135944404D01*
X295328033Y-135944404D02*
X295470890Y-135896785D01*
X295470890Y-135896785D02*
X296042319Y-135325357D01*
X296042319Y-135325357D02*
X296042319Y-135944404D01*
X276992319Y-133088214D02*
X275992319Y-133088214D01*
X275992319Y-133088214D02*
X275992319Y-133326309D01*
X275992319Y-133326309D02*
X276039938Y-133469166D01*
X276039938Y-133469166D02*
X276135176Y-133564404D01*
X276135176Y-133564404D02*
X276230414Y-133612023D01*
X276230414Y-133612023D02*
X276420890Y-133659642D01*
X276420890Y-133659642D02*
X276563747Y-133659642D01*
X276563747Y-133659642D02*
X276754223Y-133612023D01*
X276754223Y-133612023D02*
X276849461Y-133564404D01*
X276849461Y-133564404D02*
X276944700Y-133469166D01*
X276944700Y-133469166D02*
X276992319Y-133326309D01*
X276992319Y-133326309D02*
X276992319Y-133088214D01*
X275992319Y-134564404D02*
X275992319Y-134088214D01*
X275992319Y-134088214D02*
X276468509Y-134040595D01*
X276468509Y-134040595D02*
X276420890Y-134088214D01*
X276420890Y-134088214D02*
X276373271Y-134183452D01*
X276373271Y-134183452D02*
X276373271Y-134421547D01*
X276373271Y-134421547D02*
X276420890Y-134516785D01*
X276420890Y-134516785D02*
X276468509Y-134564404D01*
X276468509Y-134564404D02*
X276563747Y-134612023D01*
X276563747Y-134612023D02*
X276801842Y-134612023D01*
X276801842Y-134612023D02*
X276897080Y-134564404D01*
X276897080Y-134564404D02*
X276944700Y-134516785D01*
X276944700Y-134516785D02*
X276992319Y-134421547D01*
X276992319Y-134421547D02*
X276992319Y-134183452D01*
X276992319Y-134183452D02*
X276944700Y-134088214D01*
X276944700Y-134088214D02*
X276897080Y-134040595D01*
X276992319Y-135564404D02*
X276992319Y-134992976D01*
X276992319Y-135278690D02*
X275992319Y-135278690D01*
X275992319Y-135278690D02*
X276135176Y-135183452D01*
X276135176Y-135183452D02*
X276230414Y-135088214D01*
X276230414Y-135088214D02*
X276278033Y-134992976D01*
X257942319Y-133088214D02*
X256942319Y-133088214D01*
X256942319Y-133088214D02*
X256942319Y-133326309D01*
X256942319Y-133326309D02*
X256989938Y-133469166D01*
X256989938Y-133469166D02*
X257085176Y-133564404D01*
X257085176Y-133564404D02*
X257180414Y-133612023D01*
X257180414Y-133612023D02*
X257370890Y-133659642D01*
X257370890Y-133659642D02*
X257513747Y-133659642D01*
X257513747Y-133659642D02*
X257704223Y-133612023D01*
X257704223Y-133612023D02*
X257799461Y-133564404D01*
X257799461Y-133564404D02*
X257894700Y-133469166D01*
X257894700Y-133469166D02*
X257942319Y-133326309D01*
X257942319Y-133326309D02*
X257942319Y-133088214D01*
X256942319Y-134564404D02*
X256942319Y-134088214D01*
X256942319Y-134088214D02*
X257418509Y-134040595D01*
X257418509Y-134040595D02*
X257370890Y-134088214D01*
X257370890Y-134088214D02*
X257323271Y-134183452D01*
X257323271Y-134183452D02*
X257323271Y-134421547D01*
X257323271Y-134421547D02*
X257370890Y-134516785D01*
X257370890Y-134516785D02*
X257418509Y-134564404D01*
X257418509Y-134564404D02*
X257513747Y-134612023D01*
X257513747Y-134612023D02*
X257751842Y-134612023D01*
X257751842Y-134612023D02*
X257847080Y-134564404D01*
X257847080Y-134564404D02*
X257894700Y-134516785D01*
X257894700Y-134516785D02*
X257942319Y-134421547D01*
X257942319Y-134421547D02*
X257942319Y-134183452D01*
X257942319Y-134183452D02*
X257894700Y-134088214D01*
X257894700Y-134088214D02*
X257847080Y-134040595D01*
X256942319Y-135231071D02*
X256942319Y-135326309D01*
X256942319Y-135326309D02*
X256989938Y-135421547D01*
X256989938Y-135421547D02*
X257037557Y-135469166D01*
X257037557Y-135469166D02*
X257132795Y-135516785D01*
X257132795Y-135516785D02*
X257323271Y-135564404D01*
X257323271Y-135564404D02*
X257561366Y-135564404D01*
X257561366Y-135564404D02*
X257751842Y-135516785D01*
X257751842Y-135516785D02*
X257847080Y-135469166D01*
X257847080Y-135469166D02*
X257894700Y-135421547D01*
X257894700Y-135421547D02*
X257942319Y-135326309D01*
X257942319Y-135326309D02*
X257942319Y-135231071D01*
X257942319Y-135231071D02*
X257894700Y-135135833D01*
X257894700Y-135135833D02*
X257847080Y-135088214D01*
X257847080Y-135088214D02*
X257751842Y-135040595D01*
X257751842Y-135040595D02*
X257561366Y-134992976D01*
X257561366Y-134992976D02*
X257323271Y-134992976D01*
X257323271Y-134992976D02*
X257132795Y-135040595D01*
X257132795Y-135040595D02*
X257037557Y-135088214D01*
X257037557Y-135088214D02*
X256989938Y-135135833D01*
X256989938Y-135135833D02*
X256942319Y-135231071D01*
X238892319Y-133088214D02*
X237892319Y-133088214D01*
X237892319Y-133088214D02*
X237892319Y-133326309D01*
X237892319Y-133326309D02*
X237939938Y-133469166D01*
X237939938Y-133469166D02*
X238035176Y-133564404D01*
X238035176Y-133564404D02*
X238130414Y-133612023D01*
X238130414Y-133612023D02*
X238320890Y-133659642D01*
X238320890Y-133659642D02*
X238463747Y-133659642D01*
X238463747Y-133659642D02*
X238654223Y-133612023D01*
X238654223Y-133612023D02*
X238749461Y-133564404D01*
X238749461Y-133564404D02*
X238844700Y-133469166D01*
X238844700Y-133469166D02*
X238892319Y-133326309D01*
X238892319Y-133326309D02*
X238892319Y-133088214D01*
X238225652Y-134516785D02*
X238892319Y-134516785D01*
X237844700Y-134278690D02*
X238558985Y-134040595D01*
X238558985Y-134040595D02*
X238558985Y-134659642D01*
X238892319Y-135088214D02*
X238892319Y-135278690D01*
X238892319Y-135278690D02*
X238844700Y-135373928D01*
X238844700Y-135373928D02*
X238797080Y-135421547D01*
X238797080Y-135421547D02*
X238654223Y-135516785D01*
X238654223Y-135516785D02*
X238463747Y-135564404D01*
X238463747Y-135564404D02*
X238082795Y-135564404D01*
X238082795Y-135564404D02*
X237987557Y-135516785D01*
X237987557Y-135516785D02*
X237939938Y-135469166D01*
X237939938Y-135469166D02*
X237892319Y-135373928D01*
X237892319Y-135373928D02*
X237892319Y-135183452D01*
X237892319Y-135183452D02*
X237939938Y-135088214D01*
X237939938Y-135088214D02*
X237987557Y-135040595D01*
X237987557Y-135040595D02*
X238082795Y-134992976D01*
X238082795Y-134992976D02*
X238320890Y-134992976D01*
X238320890Y-134992976D02*
X238416128Y-135040595D01*
X238416128Y-135040595D02*
X238463747Y-135088214D01*
X238463747Y-135088214D02*
X238511366Y-135183452D01*
X238511366Y-135183452D02*
X238511366Y-135373928D01*
X238511366Y-135373928D02*
X238463747Y-135469166D01*
X238463747Y-135469166D02*
X238416128Y-135516785D01*
X238416128Y-135516785D02*
X238320890Y-135564404D01*
X219842319Y-133088214D02*
X218842319Y-133088214D01*
X218842319Y-133088214D02*
X218842319Y-133326309D01*
X218842319Y-133326309D02*
X218889938Y-133469166D01*
X218889938Y-133469166D02*
X218985176Y-133564404D01*
X218985176Y-133564404D02*
X219080414Y-133612023D01*
X219080414Y-133612023D02*
X219270890Y-133659642D01*
X219270890Y-133659642D02*
X219413747Y-133659642D01*
X219413747Y-133659642D02*
X219604223Y-133612023D01*
X219604223Y-133612023D02*
X219699461Y-133564404D01*
X219699461Y-133564404D02*
X219794700Y-133469166D01*
X219794700Y-133469166D02*
X219842319Y-133326309D01*
X219842319Y-133326309D02*
X219842319Y-133088214D01*
X219175652Y-134516785D02*
X219842319Y-134516785D01*
X218794700Y-134278690D02*
X219508985Y-134040595D01*
X219508985Y-134040595D02*
X219508985Y-134659642D01*
X219270890Y-135183452D02*
X219223271Y-135088214D01*
X219223271Y-135088214D02*
X219175652Y-135040595D01*
X219175652Y-135040595D02*
X219080414Y-134992976D01*
X219080414Y-134992976D02*
X219032795Y-134992976D01*
X219032795Y-134992976D02*
X218937557Y-135040595D01*
X218937557Y-135040595D02*
X218889938Y-135088214D01*
X218889938Y-135088214D02*
X218842319Y-135183452D01*
X218842319Y-135183452D02*
X218842319Y-135373928D01*
X218842319Y-135373928D02*
X218889938Y-135469166D01*
X218889938Y-135469166D02*
X218937557Y-135516785D01*
X218937557Y-135516785D02*
X219032795Y-135564404D01*
X219032795Y-135564404D02*
X219080414Y-135564404D01*
X219080414Y-135564404D02*
X219175652Y-135516785D01*
X219175652Y-135516785D02*
X219223271Y-135469166D01*
X219223271Y-135469166D02*
X219270890Y-135373928D01*
X219270890Y-135373928D02*
X219270890Y-135183452D01*
X219270890Y-135183452D02*
X219318509Y-135088214D01*
X219318509Y-135088214D02*
X219366128Y-135040595D01*
X219366128Y-135040595D02*
X219461366Y-134992976D01*
X219461366Y-134992976D02*
X219651842Y-134992976D01*
X219651842Y-134992976D02*
X219747080Y-135040595D01*
X219747080Y-135040595D02*
X219794700Y-135088214D01*
X219794700Y-135088214D02*
X219842319Y-135183452D01*
X219842319Y-135183452D02*
X219842319Y-135373928D01*
X219842319Y-135373928D02*
X219794700Y-135469166D01*
X219794700Y-135469166D02*
X219747080Y-135516785D01*
X219747080Y-135516785D02*
X219651842Y-135564404D01*
X219651842Y-135564404D02*
X219461366Y-135564404D01*
X219461366Y-135564404D02*
X219366128Y-135516785D01*
X219366128Y-135516785D02*
X219318509Y-135469166D01*
X219318509Y-135469166D02*
X219270890Y-135373928D01*
X200792319Y-133088214D02*
X199792319Y-133088214D01*
X199792319Y-133088214D02*
X199792319Y-133326309D01*
X199792319Y-133326309D02*
X199839938Y-133469166D01*
X199839938Y-133469166D02*
X199935176Y-133564404D01*
X199935176Y-133564404D02*
X200030414Y-133612023D01*
X200030414Y-133612023D02*
X200220890Y-133659642D01*
X200220890Y-133659642D02*
X200363747Y-133659642D01*
X200363747Y-133659642D02*
X200554223Y-133612023D01*
X200554223Y-133612023D02*
X200649461Y-133564404D01*
X200649461Y-133564404D02*
X200744700Y-133469166D01*
X200744700Y-133469166D02*
X200792319Y-133326309D01*
X200792319Y-133326309D02*
X200792319Y-133088214D01*
X200125652Y-134516785D02*
X200792319Y-134516785D01*
X199744700Y-134278690D02*
X200458985Y-134040595D01*
X200458985Y-134040595D02*
X200458985Y-134659642D01*
X199792319Y-134945357D02*
X199792319Y-135612023D01*
X199792319Y-135612023D02*
X200792319Y-135183452D01*
X181742319Y-133088214D02*
X180742319Y-133088214D01*
X180742319Y-133088214D02*
X180742319Y-133326309D01*
X180742319Y-133326309D02*
X180789938Y-133469166D01*
X180789938Y-133469166D02*
X180885176Y-133564404D01*
X180885176Y-133564404D02*
X180980414Y-133612023D01*
X180980414Y-133612023D02*
X181170890Y-133659642D01*
X181170890Y-133659642D02*
X181313747Y-133659642D01*
X181313747Y-133659642D02*
X181504223Y-133612023D01*
X181504223Y-133612023D02*
X181599461Y-133564404D01*
X181599461Y-133564404D02*
X181694700Y-133469166D01*
X181694700Y-133469166D02*
X181742319Y-133326309D01*
X181742319Y-133326309D02*
X181742319Y-133088214D01*
X181075652Y-134516785D02*
X181742319Y-134516785D01*
X180694700Y-134278690D02*
X181408985Y-134040595D01*
X181408985Y-134040595D02*
X181408985Y-134659642D01*
X180742319Y-135469166D02*
X180742319Y-135278690D01*
X180742319Y-135278690D02*
X180789938Y-135183452D01*
X180789938Y-135183452D02*
X180837557Y-135135833D01*
X180837557Y-135135833D02*
X180980414Y-135040595D01*
X180980414Y-135040595D02*
X181170890Y-134992976D01*
X181170890Y-134992976D02*
X181551842Y-134992976D01*
X181551842Y-134992976D02*
X181647080Y-135040595D01*
X181647080Y-135040595D02*
X181694700Y-135088214D01*
X181694700Y-135088214D02*
X181742319Y-135183452D01*
X181742319Y-135183452D02*
X181742319Y-135373928D01*
X181742319Y-135373928D02*
X181694700Y-135469166D01*
X181694700Y-135469166D02*
X181647080Y-135516785D01*
X181647080Y-135516785D02*
X181551842Y-135564404D01*
X181551842Y-135564404D02*
X181313747Y-135564404D01*
X181313747Y-135564404D02*
X181218509Y-135516785D01*
X181218509Y-135516785D02*
X181170890Y-135469166D01*
X181170890Y-135469166D02*
X181123271Y-135373928D01*
X181123271Y-135373928D02*
X181123271Y-135183452D01*
X181123271Y-135183452D02*
X181170890Y-135088214D01*
X181170890Y-135088214D02*
X181218509Y-135040595D01*
X181218509Y-135040595D02*
X181313747Y-134992976D01*
X162692319Y-133088214D02*
X161692319Y-133088214D01*
X161692319Y-133088214D02*
X161692319Y-133326309D01*
X161692319Y-133326309D02*
X161739938Y-133469166D01*
X161739938Y-133469166D02*
X161835176Y-133564404D01*
X161835176Y-133564404D02*
X161930414Y-133612023D01*
X161930414Y-133612023D02*
X162120890Y-133659642D01*
X162120890Y-133659642D02*
X162263747Y-133659642D01*
X162263747Y-133659642D02*
X162454223Y-133612023D01*
X162454223Y-133612023D02*
X162549461Y-133564404D01*
X162549461Y-133564404D02*
X162644700Y-133469166D01*
X162644700Y-133469166D02*
X162692319Y-133326309D01*
X162692319Y-133326309D02*
X162692319Y-133088214D01*
X162025652Y-134516785D02*
X162692319Y-134516785D01*
X161644700Y-134278690D02*
X162358985Y-134040595D01*
X162358985Y-134040595D02*
X162358985Y-134659642D01*
X161692319Y-135516785D02*
X161692319Y-135040595D01*
X161692319Y-135040595D02*
X162168509Y-134992976D01*
X162168509Y-134992976D02*
X162120890Y-135040595D01*
X162120890Y-135040595D02*
X162073271Y-135135833D01*
X162073271Y-135135833D02*
X162073271Y-135373928D01*
X162073271Y-135373928D02*
X162120890Y-135469166D01*
X162120890Y-135469166D02*
X162168509Y-135516785D01*
X162168509Y-135516785D02*
X162263747Y-135564404D01*
X162263747Y-135564404D02*
X162501842Y-135564404D01*
X162501842Y-135564404D02*
X162597080Y-135516785D01*
X162597080Y-135516785D02*
X162644700Y-135469166D01*
X162644700Y-135469166D02*
X162692319Y-135373928D01*
X162692319Y-135373928D02*
X162692319Y-135135833D01*
X162692319Y-135135833D02*
X162644700Y-135040595D01*
X162644700Y-135040595D02*
X162597080Y-134992976D01*
X143642319Y-133088214D02*
X142642319Y-133088214D01*
X142642319Y-133088214D02*
X142642319Y-133326309D01*
X142642319Y-133326309D02*
X142689938Y-133469166D01*
X142689938Y-133469166D02*
X142785176Y-133564404D01*
X142785176Y-133564404D02*
X142880414Y-133612023D01*
X142880414Y-133612023D02*
X143070890Y-133659642D01*
X143070890Y-133659642D02*
X143213747Y-133659642D01*
X143213747Y-133659642D02*
X143404223Y-133612023D01*
X143404223Y-133612023D02*
X143499461Y-133564404D01*
X143499461Y-133564404D02*
X143594700Y-133469166D01*
X143594700Y-133469166D02*
X143642319Y-133326309D01*
X143642319Y-133326309D02*
X143642319Y-133088214D01*
X142975652Y-134516785D02*
X143642319Y-134516785D01*
X142594700Y-134278690D02*
X143308985Y-134040595D01*
X143308985Y-134040595D02*
X143308985Y-134659642D01*
X142975652Y-135469166D02*
X143642319Y-135469166D01*
X142594700Y-135231071D02*
X143308985Y-134992976D01*
X143308985Y-134992976D02*
X143308985Y-135612023D01*
X124592319Y-133088214D02*
X123592319Y-133088214D01*
X123592319Y-133088214D02*
X123592319Y-133326309D01*
X123592319Y-133326309D02*
X123639938Y-133469166D01*
X123639938Y-133469166D02*
X123735176Y-133564404D01*
X123735176Y-133564404D02*
X123830414Y-133612023D01*
X123830414Y-133612023D02*
X124020890Y-133659642D01*
X124020890Y-133659642D02*
X124163747Y-133659642D01*
X124163747Y-133659642D02*
X124354223Y-133612023D01*
X124354223Y-133612023D02*
X124449461Y-133564404D01*
X124449461Y-133564404D02*
X124544700Y-133469166D01*
X124544700Y-133469166D02*
X124592319Y-133326309D01*
X124592319Y-133326309D02*
X124592319Y-133088214D01*
X123925652Y-134516785D02*
X124592319Y-134516785D01*
X123544700Y-134278690D02*
X124258985Y-134040595D01*
X124258985Y-134040595D02*
X124258985Y-134659642D01*
X123592319Y-134945357D02*
X123592319Y-135564404D01*
X123592319Y-135564404D02*
X123973271Y-135231071D01*
X123973271Y-135231071D02*
X123973271Y-135373928D01*
X123973271Y-135373928D02*
X124020890Y-135469166D01*
X124020890Y-135469166D02*
X124068509Y-135516785D01*
X124068509Y-135516785D02*
X124163747Y-135564404D01*
X124163747Y-135564404D02*
X124401842Y-135564404D01*
X124401842Y-135564404D02*
X124497080Y-135516785D01*
X124497080Y-135516785D02*
X124544700Y-135469166D01*
X124544700Y-135469166D02*
X124592319Y-135373928D01*
X124592319Y-135373928D02*
X124592319Y-135088214D01*
X124592319Y-135088214D02*
X124544700Y-134992976D01*
X124544700Y-134992976D02*
X124497080Y-134945357D01*
X92842319Y-133088214D02*
X91842319Y-133088214D01*
X91842319Y-133088214D02*
X91842319Y-133326309D01*
X91842319Y-133326309D02*
X91889938Y-133469166D01*
X91889938Y-133469166D02*
X91985176Y-133564404D01*
X91985176Y-133564404D02*
X92080414Y-133612023D01*
X92080414Y-133612023D02*
X92270890Y-133659642D01*
X92270890Y-133659642D02*
X92413747Y-133659642D01*
X92413747Y-133659642D02*
X92604223Y-133612023D01*
X92604223Y-133612023D02*
X92699461Y-133564404D01*
X92699461Y-133564404D02*
X92794700Y-133469166D01*
X92794700Y-133469166D02*
X92842319Y-133326309D01*
X92842319Y-133326309D02*
X92842319Y-133088214D01*
X92175652Y-134516785D02*
X92842319Y-134516785D01*
X91794700Y-134278690D02*
X92508985Y-134040595D01*
X92508985Y-134040595D02*
X92508985Y-134659642D01*
X91937557Y-134992976D02*
X91889938Y-135040595D01*
X91889938Y-135040595D02*
X91842319Y-135135833D01*
X91842319Y-135135833D02*
X91842319Y-135373928D01*
X91842319Y-135373928D02*
X91889938Y-135469166D01*
X91889938Y-135469166D02*
X91937557Y-135516785D01*
X91937557Y-135516785D02*
X92032795Y-135564404D01*
X92032795Y-135564404D02*
X92128033Y-135564404D01*
X92128033Y-135564404D02*
X92270890Y-135516785D01*
X92270890Y-135516785D02*
X92842319Y-134945357D01*
X92842319Y-134945357D02*
X92842319Y-135564404D01*
X335412319Y-114038214D02*
X334412319Y-114038214D01*
X334412319Y-114038214D02*
X334412319Y-114276309D01*
X334412319Y-114276309D02*
X334459938Y-114419166D01*
X334459938Y-114419166D02*
X334555176Y-114514404D01*
X334555176Y-114514404D02*
X334650414Y-114562023D01*
X334650414Y-114562023D02*
X334840890Y-114609642D01*
X334840890Y-114609642D02*
X334983747Y-114609642D01*
X334983747Y-114609642D02*
X335174223Y-114562023D01*
X335174223Y-114562023D02*
X335269461Y-114514404D01*
X335269461Y-114514404D02*
X335364700Y-114419166D01*
X335364700Y-114419166D02*
X335412319Y-114276309D01*
X335412319Y-114276309D02*
X335412319Y-114038214D01*
X334745652Y-115466785D02*
X335412319Y-115466785D01*
X334364700Y-115228690D02*
X335078985Y-114990595D01*
X335078985Y-114990595D02*
X335078985Y-115609642D01*
X335412319Y-116514404D02*
X335412319Y-115942976D01*
X335412319Y-116228690D02*
X334412319Y-116228690D01*
X334412319Y-116228690D02*
X334555176Y-116133452D01*
X334555176Y-116133452D02*
X334650414Y-116038214D01*
X334650414Y-116038214D02*
X334698033Y-115942976D01*
X304932319Y-114038214D02*
X303932319Y-114038214D01*
X303932319Y-114038214D02*
X303932319Y-114276309D01*
X303932319Y-114276309D02*
X303979938Y-114419166D01*
X303979938Y-114419166D02*
X304075176Y-114514404D01*
X304075176Y-114514404D02*
X304170414Y-114562023D01*
X304170414Y-114562023D02*
X304360890Y-114609642D01*
X304360890Y-114609642D02*
X304503747Y-114609642D01*
X304503747Y-114609642D02*
X304694223Y-114562023D01*
X304694223Y-114562023D02*
X304789461Y-114514404D01*
X304789461Y-114514404D02*
X304884700Y-114419166D01*
X304884700Y-114419166D02*
X304932319Y-114276309D01*
X304932319Y-114276309D02*
X304932319Y-114038214D01*
X304265652Y-115466785D02*
X304932319Y-115466785D01*
X303884700Y-115228690D02*
X304598985Y-114990595D01*
X304598985Y-114990595D02*
X304598985Y-115609642D01*
X303932319Y-116181071D02*
X303932319Y-116276309D01*
X303932319Y-116276309D02*
X303979938Y-116371547D01*
X303979938Y-116371547D02*
X304027557Y-116419166D01*
X304027557Y-116419166D02*
X304122795Y-116466785D01*
X304122795Y-116466785D02*
X304313271Y-116514404D01*
X304313271Y-116514404D02*
X304551366Y-116514404D01*
X304551366Y-116514404D02*
X304741842Y-116466785D01*
X304741842Y-116466785D02*
X304837080Y-116419166D01*
X304837080Y-116419166D02*
X304884700Y-116371547D01*
X304884700Y-116371547D02*
X304932319Y-116276309D01*
X304932319Y-116276309D02*
X304932319Y-116181071D01*
X304932319Y-116181071D02*
X304884700Y-116085833D01*
X304884700Y-116085833D02*
X304837080Y-116038214D01*
X304837080Y-116038214D02*
X304741842Y-115990595D01*
X304741842Y-115990595D02*
X304551366Y-115942976D01*
X304551366Y-115942976D02*
X304313271Y-115942976D01*
X304313271Y-115942976D02*
X304122795Y-115990595D01*
X304122795Y-115990595D02*
X304027557Y-116038214D01*
X304027557Y-116038214D02*
X303979938Y-116085833D01*
X303979938Y-116085833D02*
X303932319Y-116181071D01*
X285882319Y-114038214D02*
X284882319Y-114038214D01*
X284882319Y-114038214D02*
X284882319Y-114276309D01*
X284882319Y-114276309D02*
X284929938Y-114419166D01*
X284929938Y-114419166D02*
X285025176Y-114514404D01*
X285025176Y-114514404D02*
X285120414Y-114562023D01*
X285120414Y-114562023D02*
X285310890Y-114609642D01*
X285310890Y-114609642D02*
X285453747Y-114609642D01*
X285453747Y-114609642D02*
X285644223Y-114562023D01*
X285644223Y-114562023D02*
X285739461Y-114514404D01*
X285739461Y-114514404D02*
X285834700Y-114419166D01*
X285834700Y-114419166D02*
X285882319Y-114276309D01*
X285882319Y-114276309D02*
X285882319Y-114038214D01*
X284882319Y-114942976D02*
X284882319Y-115562023D01*
X284882319Y-115562023D02*
X285263271Y-115228690D01*
X285263271Y-115228690D02*
X285263271Y-115371547D01*
X285263271Y-115371547D02*
X285310890Y-115466785D01*
X285310890Y-115466785D02*
X285358509Y-115514404D01*
X285358509Y-115514404D02*
X285453747Y-115562023D01*
X285453747Y-115562023D02*
X285691842Y-115562023D01*
X285691842Y-115562023D02*
X285787080Y-115514404D01*
X285787080Y-115514404D02*
X285834700Y-115466785D01*
X285834700Y-115466785D02*
X285882319Y-115371547D01*
X285882319Y-115371547D02*
X285882319Y-115085833D01*
X285882319Y-115085833D02*
X285834700Y-114990595D01*
X285834700Y-114990595D02*
X285787080Y-114942976D01*
X285882319Y-116038214D02*
X285882319Y-116228690D01*
X285882319Y-116228690D02*
X285834700Y-116323928D01*
X285834700Y-116323928D02*
X285787080Y-116371547D01*
X285787080Y-116371547D02*
X285644223Y-116466785D01*
X285644223Y-116466785D02*
X285453747Y-116514404D01*
X285453747Y-116514404D02*
X285072795Y-116514404D01*
X285072795Y-116514404D02*
X284977557Y-116466785D01*
X284977557Y-116466785D02*
X284929938Y-116419166D01*
X284929938Y-116419166D02*
X284882319Y-116323928D01*
X284882319Y-116323928D02*
X284882319Y-116133452D01*
X284882319Y-116133452D02*
X284929938Y-116038214D01*
X284929938Y-116038214D02*
X284977557Y-115990595D01*
X284977557Y-115990595D02*
X285072795Y-115942976D01*
X285072795Y-115942976D02*
X285310890Y-115942976D01*
X285310890Y-115942976D02*
X285406128Y-115990595D01*
X285406128Y-115990595D02*
X285453747Y-116038214D01*
X285453747Y-116038214D02*
X285501366Y-116133452D01*
X285501366Y-116133452D02*
X285501366Y-116323928D01*
X285501366Y-116323928D02*
X285453747Y-116419166D01*
X285453747Y-116419166D02*
X285406128Y-116466785D01*
X285406128Y-116466785D02*
X285310890Y-116514404D01*
X266832319Y-114038214D02*
X265832319Y-114038214D01*
X265832319Y-114038214D02*
X265832319Y-114276309D01*
X265832319Y-114276309D02*
X265879938Y-114419166D01*
X265879938Y-114419166D02*
X265975176Y-114514404D01*
X265975176Y-114514404D02*
X266070414Y-114562023D01*
X266070414Y-114562023D02*
X266260890Y-114609642D01*
X266260890Y-114609642D02*
X266403747Y-114609642D01*
X266403747Y-114609642D02*
X266594223Y-114562023D01*
X266594223Y-114562023D02*
X266689461Y-114514404D01*
X266689461Y-114514404D02*
X266784700Y-114419166D01*
X266784700Y-114419166D02*
X266832319Y-114276309D01*
X266832319Y-114276309D02*
X266832319Y-114038214D01*
X265832319Y-114942976D02*
X265832319Y-115562023D01*
X265832319Y-115562023D02*
X266213271Y-115228690D01*
X266213271Y-115228690D02*
X266213271Y-115371547D01*
X266213271Y-115371547D02*
X266260890Y-115466785D01*
X266260890Y-115466785D02*
X266308509Y-115514404D01*
X266308509Y-115514404D02*
X266403747Y-115562023D01*
X266403747Y-115562023D02*
X266641842Y-115562023D01*
X266641842Y-115562023D02*
X266737080Y-115514404D01*
X266737080Y-115514404D02*
X266784700Y-115466785D01*
X266784700Y-115466785D02*
X266832319Y-115371547D01*
X266832319Y-115371547D02*
X266832319Y-115085833D01*
X266832319Y-115085833D02*
X266784700Y-114990595D01*
X266784700Y-114990595D02*
X266737080Y-114942976D01*
X266260890Y-116133452D02*
X266213271Y-116038214D01*
X266213271Y-116038214D02*
X266165652Y-115990595D01*
X266165652Y-115990595D02*
X266070414Y-115942976D01*
X266070414Y-115942976D02*
X266022795Y-115942976D01*
X266022795Y-115942976D02*
X265927557Y-115990595D01*
X265927557Y-115990595D02*
X265879938Y-116038214D01*
X265879938Y-116038214D02*
X265832319Y-116133452D01*
X265832319Y-116133452D02*
X265832319Y-116323928D01*
X265832319Y-116323928D02*
X265879938Y-116419166D01*
X265879938Y-116419166D02*
X265927557Y-116466785D01*
X265927557Y-116466785D02*
X266022795Y-116514404D01*
X266022795Y-116514404D02*
X266070414Y-116514404D01*
X266070414Y-116514404D02*
X266165652Y-116466785D01*
X266165652Y-116466785D02*
X266213271Y-116419166D01*
X266213271Y-116419166D02*
X266260890Y-116323928D01*
X266260890Y-116323928D02*
X266260890Y-116133452D01*
X266260890Y-116133452D02*
X266308509Y-116038214D01*
X266308509Y-116038214D02*
X266356128Y-115990595D01*
X266356128Y-115990595D02*
X266451366Y-115942976D01*
X266451366Y-115942976D02*
X266641842Y-115942976D01*
X266641842Y-115942976D02*
X266737080Y-115990595D01*
X266737080Y-115990595D02*
X266784700Y-116038214D01*
X266784700Y-116038214D02*
X266832319Y-116133452D01*
X266832319Y-116133452D02*
X266832319Y-116323928D01*
X266832319Y-116323928D02*
X266784700Y-116419166D01*
X266784700Y-116419166D02*
X266737080Y-116466785D01*
X266737080Y-116466785D02*
X266641842Y-116514404D01*
X266641842Y-116514404D02*
X266451366Y-116514404D01*
X266451366Y-116514404D02*
X266356128Y-116466785D01*
X266356128Y-116466785D02*
X266308509Y-116419166D01*
X266308509Y-116419166D02*
X266260890Y-116323928D01*
X247782319Y-114038214D02*
X246782319Y-114038214D01*
X246782319Y-114038214D02*
X246782319Y-114276309D01*
X246782319Y-114276309D02*
X246829938Y-114419166D01*
X246829938Y-114419166D02*
X246925176Y-114514404D01*
X246925176Y-114514404D02*
X247020414Y-114562023D01*
X247020414Y-114562023D02*
X247210890Y-114609642D01*
X247210890Y-114609642D02*
X247353747Y-114609642D01*
X247353747Y-114609642D02*
X247544223Y-114562023D01*
X247544223Y-114562023D02*
X247639461Y-114514404D01*
X247639461Y-114514404D02*
X247734700Y-114419166D01*
X247734700Y-114419166D02*
X247782319Y-114276309D01*
X247782319Y-114276309D02*
X247782319Y-114038214D01*
X246782319Y-114942976D02*
X246782319Y-115562023D01*
X246782319Y-115562023D02*
X247163271Y-115228690D01*
X247163271Y-115228690D02*
X247163271Y-115371547D01*
X247163271Y-115371547D02*
X247210890Y-115466785D01*
X247210890Y-115466785D02*
X247258509Y-115514404D01*
X247258509Y-115514404D02*
X247353747Y-115562023D01*
X247353747Y-115562023D02*
X247591842Y-115562023D01*
X247591842Y-115562023D02*
X247687080Y-115514404D01*
X247687080Y-115514404D02*
X247734700Y-115466785D01*
X247734700Y-115466785D02*
X247782319Y-115371547D01*
X247782319Y-115371547D02*
X247782319Y-115085833D01*
X247782319Y-115085833D02*
X247734700Y-114990595D01*
X247734700Y-114990595D02*
X247687080Y-114942976D01*
X246782319Y-115895357D02*
X246782319Y-116562023D01*
X246782319Y-116562023D02*
X247782319Y-116133452D01*
X228732319Y-114038214D02*
X227732319Y-114038214D01*
X227732319Y-114038214D02*
X227732319Y-114276309D01*
X227732319Y-114276309D02*
X227779938Y-114419166D01*
X227779938Y-114419166D02*
X227875176Y-114514404D01*
X227875176Y-114514404D02*
X227970414Y-114562023D01*
X227970414Y-114562023D02*
X228160890Y-114609642D01*
X228160890Y-114609642D02*
X228303747Y-114609642D01*
X228303747Y-114609642D02*
X228494223Y-114562023D01*
X228494223Y-114562023D02*
X228589461Y-114514404D01*
X228589461Y-114514404D02*
X228684700Y-114419166D01*
X228684700Y-114419166D02*
X228732319Y-114276309D01*
X228732319Y-114276309D02*
X228732319Y-114038214D01*
X227732319Y-114942976D02*
X227732319Y-115562023D01*
X227732319Y-115562023D02*
X228113271Y-115228690D01*
X228113271Y-115228690D02*
X228113271Y-115371547D01*
X228113271Y-115371547D02*
X228160890Y-115466785D01*
X228160890Y-115466785D02*
X228208509Y-115514404D01*
X228208509Y-115514404D02*
X228303747Y-115562023D01*
X228303747Y-115562023D02*
X228541842Y-115562023D01*
X228541842Y-115562023D02*
X228637080Y-115514404D01*
X228637080Y-115514404D02*
X228684700Y-115466785D01*
X228684700Y-115466785D02*
X228732319Y-115371547D01*
X228732319Y-115371547D02*
X228732319Y-115085833D01*
X228732319Y-115085833D02*
X228684700Y-114990595D01*
X228684700Y-114990595D02*
X228637080Y-114942976D01*
X227732319Y-116419166D02*
X227732319Y-116228690D01*
X227732319Y-116228690D02*
X227779938Y-116133452D01*
X227779938Y-116133452D02*
X227827557Y-116085833D01*
X227827557Y-116085833D02*
X227970414Y-115990595D01*
X227970414Y-115990595D02*
X228160890Y-115942976D01*
X228160890Y-115942976D02*
X228541842Y-115942976D01*
X228541842Y-115942976D02*
X228637080Y-115990595D01*
X228637080Y-115990595D02*
X228684700Y-116038214D01*
X228684700Y-116038214D02*
X228732319Y-116133452D01*
X228732319Y-116133452D02*
X228732319Y-116323928D01*
X228732319Y-116323928D02*
X228684700Y-116419166D01*
X228684700Y-116419166D02*
X228637080Y-116466785D01*
X228637080Y-116466785D02*
X228541842Y-116514404D01*
X228541842Y-116514404D02*
X228303747Y-116514404D01*
X228303747Y-116514404D02*
X228208509Y-116466785D01*
X228208509Y-116466785D02*
X228160890Y-116419166D01*
X228160890Y-116419166D02*
X228113271Y-116323928D01*
X228113271Y-116323928D02*
X228113271Y-116133452D01*
X228113271Y-116133452D02*
X228160890Y-116038214D01*
X228160890Y-116038214D02*
X228208509Y-115990595D01*
X228208509Y-115990595D02*
X228303747Y-115942976D01*
X209682319Y-114038214D02*
X208682319Y-114038214D01*
X208682319Y-114038214D02*
X208682319Y-114276309D01*
X208682319Y-114276309D02*
X208729938Y-114419166D01*
X208729938Y-114419166D02*
X208825176Y-114514404D01*
X208825176Y-114514404D02*
X208920414Y-114562023D01*
X208920414Y-114562023D02*
X209110890Y-114609642D01*
X209110890Y-114609642D02*
X209253747Y-114609642D01*
X209253747Y-114609642D02*
X209444223Y-114562023D01*
X209444223Y-114562023D02*
X209539461Y-114514404D01*
X209539461Y-114514404D02*
X209634700Y-114419166D01*
X209634700Y-114419166D02*
X209682319Y-114276309D01*
X209682319Y-114276309D02*
X209682319Y-114038214D01*
X208682319Y-114942976D02*
X208682319Y-115562023D01*
X208682319Y-115562023D02*
X209063271Y-115228690D01*
X209063271Y-115228690D02*
X209063271Y-115371547D01*
X209063271Y-115371547D02*
X209110890Y-115466785D01*
X209110890Y-115466785D02*
X209158509Y-115514404D01*
X209158509Y-115514404D02*
X209253747Y-115562023D01*
X209253747Y-115562023D02*
X209491842Y-115562023D01*
X209491842Y-115562023D02*
X209587080Y-115514404D01*
X209587080Y-115514404D02*
X209634700Y-115466785D01*
X209634700Y-115466785D02*
X209682319Y-115371547D01*
X209682319Y-115371547D02*
X209682319Y-115085833D01*
X209682319Y-115085833D02*
X209634700Y-114990595D01*
X209634700Y-114990595D02*
X209587080Y-114942976D01*
X208682319Y-116466785D02*
X208682319Y-115990595D01*
X208682319Y-115990595D02*
X209158509Y-115942976D01*
X209158509Y-115942976D02*
X209110890Y-115990595D01*
X209110890Y-115990595D02*
X209063271Y-116085833D01*
X209063271Y-116085833D02*
X209063271Y-116323928D01*
X209063271Y-116323928D02*
X209110890Y-116419166D01*
X209110890Y-116419166D02*
X209158509Y-116466785D01*
X209158509Y-116466785D02*
X209253747Y-116514404D01*
X209253747Y-116514404D02*
X209491842Y-116514404D01*
X209491842Y-116514404D02*
X209587080Y-116466785D01*
X209587080Y-116466785D02*
X209634700Y-116419166D01*
X209634700Y-116419166D02*
X209682319Y-116323928D01*
X209682319Y-116323928D02*
X209682319Y-116085833D01*
X209682319Y-116085833D02*
X209634700Y-115990595D01*
X209634700Y-115990595D02*
X209587080Y-115942976D01*
X190632319Y-114038214D02*
X189632319Y-114038214D01*
X189632319Y-114038214D02*
X189632319Y-114276309D01*
X189632319Y-114276309D02*
X189679938Y-114419166D01*
X189679938Y-114419166D02*
X189775176Y-114514404D01*
X189775176Y-114514404D02*
X189870414Y-114562023D01*
X189870414Y-114562023D02*
X190060890Y-114609642D01*
X190060890Y-114609642D02*
X190203747Y-114609642D01*
X190203747Y-114609642D02*
X190394223Y-114562023D01*
X190394223Y-114562023D02*
X190489461Y-114514404D01*
X190489461Y-114514404D02*
X190584700Y-114419166D01*
X190584700Y-114419166D02*
X190632319Y-114276309D01*
X190632319Y-114276309D02*
X190632319Y-114038214D01*
X189632319Y-114942976D02*
X189632319Y-115562023D01*
X189632319Y-115562023D02*
X190013271Y-115228690D01*
X190013271Y-115228690D02*
X190013271Y-115371547D01*
X190013271Y-115371547D02*
X190060890Y-115466785D01*
X190060890Y-115466785D02*
X190108509Y-115514404D01*
X190108509Y-115514404D02*
X190203747Y-115562023D01*
X190203747Y-115562023D02*
X190441842Y-115562023D01*
X190441842Y-115562023D02*
X190537080Y-115514404D01*
X190537080Y-115514404D02*
X190584700Y-115466785D01*
X190584700Y-115466785D02*
X190632319Y-115371547D01*
X190632319Y-115371547D02*
X190632319Y-115085833D01*
X190632319Y-115085833D02*
X190584700Y-114990595D01*
X190584700Y-114990595D02*
X190537080Y-114942976D01*
X189965652Y-116419166D02*
X190632319Y-116419166D01*
X189584700Y-116181071D02*
X190298985Y-115942976D01*
X190298985Y-115942976D02*
X190298985Y-116562023D01*
X171582319Y-114038214D02*
X170582319Y-114038214D01*
X170582319Y-114038214D02*
X170582319Y-114276309D01*
X170582319Y-114276309D02*
X170629938Y-114419166D01*
X170629938Y-114419166D02*
X170725176Y-114514404D01*
X170725176Y-114514404D02*
X170820414Y-114562023D01*
X170820414Y-114562023D02*
X171010890Y-114609642D01*
X171010890Y-114609642D02*
X171153747Y-114609642D01*
X171153747Y-114609642D02*
X171344223Y-114562023D01*
X171344223Y-114562023D02*
X171439461Y-114514404D01*
X171439461Y-114514404D02*
X171534700Y-114419166D01*
X171534700Y-114419166D02*
X171582319Y-114276309D01*
X171582319Y-114276309D02*
X171582319Y-114038214D01*
X170582319Y-114942976D02*
X170582319Y-115562023D01*
X170582319Y-115562023D02*
X170963271Y-115228690D01*
X170963271Y-115228690D02*
X170963271Y-115371547D01*
X170963271Y-115371547D02*
X171010890Y-115466785D01*
X171010890Y-115466785D02*
X171058509Y-115514404D01*
X171058509Y-115514404D02*
X171153747Y-115562023D01*
X171153747Y-115562023D02*
X171391842Y-115562023D01*
X171391842Y-115562023D02*
X171487080Y-115514404D01*
X171487080Y-115514404D02*
X171534700Y-115466785D01*
X171534700Y-115466785D02*
X171582319Y-115371547D01*
X171582319Y-115371547D02*
X171582319Y-115085833D01*
X171582319Y-115085833D02*
X171534700Y-114990595D01*
X171534700Y-114990595D02*
X171487080Y-114942976D01*
X170582319Y-115895357D02*
X170582319Y-116514404D01*
X170582319Y-116514404D02*
X170963271Y-116181071D01*
X170963271Y-116181071D02*
X170963271Y-116323928D01*
X170963271Y-116323928D02*
X171010890Y-116419166D01*
X171010890Y-116419166D02*
X171058509Y-116466785D01*
X171058509Y-116466785D02*
X171153747Y-116514404D01*
X171153747Y-116514404D02*
X171391842Y-116514404D01*
X171391842Y-116514404D02*
X171487080Y-116466785D01*
X171487080Y-116466785D02*
X171534700Y-116419166D01*
X171534700Y-116419166D02*
X171582319Y-116323928D01*
X171582319Y-116323928D02*
X171582319Y-116038214D01*
X171582319Y-116038214D02*
X171534700Y-115942976D01*
X171534700Y-115942976D02*
X171487080Y-115895357D01*
X152532319Y-114038214D02*
X151532319Y-114038214D01*
X151532319Y-114038214D02*
X151532319Y-114276309D01*
X151532319Y-114276309D02*
X151579938Y-114419166D01*
X151579938Y-114419166D02*
X151675176Y-114514404D01*
X151675176Y-114514404D02*
X151770414Y-114562023D01*
X151770414Y-114562023D02*
X151960890Y-114609642D01*
X151960890Y-114609642D02*
X152103747Y-114609642D01*
X152103747Y-114609642D02*
X152294223Y-114562023D01*
X152294223Y-114562023D02*
X152389461Y-114514404D01*
X152389461Y-114514404D02*
X152484700Y-114419166D01*
X152484700Y-114419166D02*
X152532319Y-114276309D01*
X152532319Y-114276309D02*
X152532319Y-114038214D01*
X151532319Y-114942976D02*
X151532319Y-115562023D01*
X151532319Y-115562023D02*
X151913271Y-115228690D01*
X151913271Y-115228690D02*
X151913271Y-115371547D01*
X151913271Y-115371547D02*
X151960890Y-115466785D01*
X151960890Y-115466785D02*
X152008509Y-115514404D01*
X152008509Y-115514404D02*
X152103747Y-115562023D01*
X152103747Y-115562023D02*
X152341842Y-115562023D01*
X152341842Y-115562023D02*
X152437080Y-115514404D01*
X152437080Y-115514404D02*
X152484700Y-115466785D01*
X152484700Y-115466785D02*
X152532319Y-115371547D01*
X152532319Y-115371547D02*
X152532319Y-115085833D01*
X152532319Y-115085833D02*
X152484700Y-114990595D01*
X152484700Y-114990595D02*
X152437080Y-114942976D01*
X151627557Y-115942976D02*
X151579938Y-115990595D01*
X151579938Y-115990595D02*
X151532319Y-116085833D01*
X151532319Y-116085833D02*
X151532319Y-116323928D01*
X151532319Y-116323928D02*
X151579938Y-116419166D01*
X151579938Y-116419166D02*
X151627557Y-116466785D01*
X151627557Y-116466785D02*
X151722795Y-116514404D01*
X151722795Y-116514404D02*
X151818033Y-116514404D01*
X151818033Y-116514404D02*
X151960890Y-116466785D01*
X151960890Y-116466785D02*
X152532319Y-115895357D01*
X152532319Y-115895357D02*
X152532319Y-116514404D01*
X133482319Y-114038214D02*
X132482319Y-114038214D01*
X132482319Y-114038214D02*
X132482319Y-114276309D01*
X132482319Y-114276309D02*
X132529938Y-114419166D01*
X132529938Y-114419166D02*
X132625176Y-114514404D01*
X132625176Y-114514404D02*
X132720414Y-114562023D01*
X132720414Y-114562023D02*
X132910890Y-114609642D01*
X132910890Y-114609642D02*
X133053747Y-114609642D01*
X133053747Y-114609642D02*
X133244223Y-114562023D01*
X133244223Y-114562023D02*
X133339461Y-114514404D01*
X133339461Y-114514404D02*
X133434700Y-114419166D01*
X133434700Y-114419166D02*
X133482319Y-114276309D01*
X133482319Y-114276309D02*
X133482319Y-114038214D01*
X132482319Y-114942976D02*
X132482319Y-115562023D01*
X132482319Y-115562023D02*
X132863271Y-115228690D01*
X132863271Y-115228690D02*
X132863271Y-115371547D01*
X132863271Y-115371547D02*
X132910890Y-115466785D01*
X132910890Y-115466785D02*
X132958509Y-115514404D01*
X132958509Y-115514404D02*
X133053747Y-115562023D01*
X133053747Y-115562023D02*
X133291842Y-115562023D01*
X133291842Y-115562023D02*
X133387080Y-115514404D01*
X133387080Y-115514404D02*
X133434700Y-115466785D01*
X133434700Y-115466785D02*
X133482319Y-115371547D01*
X133482319Y-115371547D02*
X133482319Y-115085833D01*
X133482319Y-115085833D02*
X133434700Y-114990595D01*
X133434700Y-114990595D02*
X133387080Y-114942976D01*
X133482319Y-116514404D02*
X133482319Y-115942976D01*
X133482319Y-116228690D02*
X132482319Y-116228690D01*
X132482319Y-116228690D02*
X132625176Y-116133452D01*
X132625176Y-116133452D02*
X132720414Y-116038214D01*
X132720414Y-116038214D02*
X132768033Y-115942976D01*
X114432319Y-114038214D02*
X113432319Y-114038214D01*
X113432319Y-114038214D02*
X113432319Y-114276309D01*
X113432319Y-114276309D02*
X113479938Y-114419166D01*
X113479938Y-114419166D02*
X113575176Y-114514404D01*
X113575176Y-114514404D02*
X113670414Y-114562023D01*
X113670414Y-114562023D02*
X113860890Y-114609642D01*
X113860890Y-114609642D02*
X114003747Y-114609642D01*
X114003747Y-114609642D02*
X114194223Y-114562023D01*
X114194223Y-114562023D02*
X114289461Y-114514404D01*
X114289461Y-114514404D02*
X114384700Y-114419166D01*
X114384700Y-114419166D02*
X114432319Y-114276309D01*
X114432319Y-114276309D02*
X114432319Y-114038214D01*
X113432319Y-114942976D02*
X113432319Y-115562023D01*
X113432319Y-115562023D02*
X113813271Y-115228690D01*
X113813271Y-115228690D02*
X113813271Y-115371547D01*
X113813271Y-115371547D02*
X113860890Y-115466785D01*
X113860890Y-115466785D02*
X113908509Y-115514404D01*
X113908509Y-115514404D02*
X114003747Y-115562023D01*
X114003747Y-115562023D02*
X114241842Y-115562023D01*
X114241842Y-115562023D02*
X114337080Y-115514404D01*
X114337080Y-115514404D02*
X114384700Y-115466785D01*
X114384700Y-115466785D02*
X114432319Y-115371547D01*
X114432319Y-115371547D02*
X114432319Y-115085833D01*
X114432319Y-115085833D02*
X114384700Y-114990595D01*
X114384700Y-114990595D02*
X114337080Y-114942976D01*
X113432319Y-116181071D02*
X113432319Y-116276309D01*
X113432319Y-116276309D02*
X113479938Y-116371547D01*
X113479938Y-116371547D02*
X113527557Y-116419166D01*
X113527557Y-116419166D02*
X113622795Y-116466785D01*
X113622795Y-116466785D02*
X113813271Y-116514404D01*
X113813271Y-116514404D02*
X114051366Y-116514404D01*
X114051366Y-116514404D02*
X114241842Y-116466785D01*
X114241842Y-116466785D02*
X114337080Y-116419166D01*
X114337080Y-116419166D02*
X114384700Y-116371547D01*
X114384700Y-116371547D02*
X114432319Y-116276309D01*
X114432319Y-116276309D02*
X114432319Y-116181071D01*
X114432319Y-116181071D02*
X114384700Y-116085833D01*
X114384700Y-116085833D02*
X114337080Y-116038214D01*
X114337080Y-116038214D02*
X114241842Y-115990595D01*
X114241842Y-115990595D02*
X114051366Y-115942976D01*
X114051366Y-115942976D02*
X113813271Y-115942976D01*
X113813271Y-115942976D02*
X113622795Y-115990595D01*
X113622795Y-115990595D02*
X113527557Y-116038214D01*
X113527557Y-116038214D02*
X113479938Y-116085833D01*
X113479938Y-116085833D02*
X113432319Y-116181071D01*
X87762319Y-114038214D02*
X86762319Y-114038214D01*
X86762319Y-114038214D02*
X86762319Y-114276309D01*
X86762319Y-114276309D02*
X86809938Y-114419166D01*
X86809938Y-114419166D02*
X86905176Y-114514404D01*
X86905176Y-114514404D02*
X87000414Y-114562023D01*
X87000414Y-114562023D02*
X87190890Y-114609642D01*
X87190890Y-114609642D02*
X87333747Y-114609642D01*
X87333747Y-114609642D02*
X87524223Y-114562023D01*
X87524223Y-114562023D02*
X87619461Y-114514404D01*
X87619461Y-114514404D02*
X87714700Y-114419166D01*
X87714700Y-114419166D02*
X87762319Y-114276309D01*
X87762319Y-114276309D02*
X87762319Y-114038214D01*
X86857557Y-114990595D02*
X86809938Y-115038214D01*
X86809938Y-115038214D02*
X86762319Y-115133452D01*
X86762319Y-115133452D02*
X86762319Y-115371547D01*
X86762319Y-115371547D02*
X86809938Y-115466785D01*
X86809938Y-115466785D02*
X86857557Y-115514404D01*
X86857557Y-115514404D02*
X86952795Y-115562023D01*
X86952795Y-115562023D02*
X87048033Y-115562023D01*
X87048033Y-115562023D02*
X87190890Y-115514404D01*
X87190890Y-115514404D02*
X87762319Y-114942976D01*
X87762319Y-114942976D02*
X87762319Y-115562023D01*
X87762319Y-116038214D02*
X87762319Y-116228690D01*
X87762319Y-116228690D02*
X87714700Y-116323928D01*
X87714700Y-116323928D02*
X87667080Y-116371547D01*
X87667080Y-116371547D02*
X87524223Y-116466785D01*
X87524223Y-116466785D02*
X87333747Y-116514404D01*
X87333747Y-116514404D02*
X86952795Y-116514404D01*
X86952795Y-116514404D02*
X86857557Y-116466785D01*
X86857557Y-116466785D02*
X86809938Y-116419166D01*
X86809938Y-116419166D02*
X86762319Y-116323928D01*
X86762319Y-116323928D02*
X86762319Y-116133452D01*
X86762319Y-116133452D02*
X86809938Y-116038214D01*
X86809938Y-116038214D02*
X86857557Y-115990595D01*
X86857557Y-115990595D02*
X86952795Y-115942976D01*
X86952795Y-115942976D02*
X87190890Y-115942976D01*
X87190890Y-115942976D02*
X87286128Y-115990595D01*
X87286128Y-115990595D02*
X87333747Y-116038214D01*
X87333747Y-116038214D02*
X87381366Y-116133452D01*
X87381366Y-116133452D02*
X87381366Y-116323928D01*
X87381366Y-116323928D02*
X87333747Y-116419166D01*
X87333747Y-116419166D02*
X87286128Y-116466785D01*
X87286128Y-116466785D02*
X87190890Y-116514404D01*
X343032319Y-94988214D02*
X342032319Y-94988214D01*
X342032319Y-94988214D02*
X342032319Y-95226309D01*
X342032319Y-95226309D02*
X342079938Y-95369166D01*
X342079938Y-95369166D02*
X342175176Y-95464404D01*
X342175176Y-95464404D02*
X342270414Y-95512023D01*
X342270414Y-95512023D02*
X342460890Y-95559642D01*
X342460890Y-95559642D02*
X342603747Y-95559642D01*
X342603747Y-95559642D02*
X342794223Y-95512023D01*
X342794223Y-95512023D02*
X342889461Y-95464404D01*
X342889461Y-95464404D02*
X342984700Y-95369166D01*
X342984700Y-95369166D02*
X343032319Y-95226309D01*
X343032319Y-95226309D02*
X343032319Y-94988214D01*
X342127557Y-95940595D02*
X342079938Y-95988214D01*
X342079938Y-95988214D02*
X342032319Y-96083452D01*
X342032319Y-96083452D02*
X342032319Y-96321547D01*
X342032319Y-96321547D02*
X342079938Y-96416785D01*
X342079938Y-96416785D02*
X342127557Y-96464404D01*
X342127557Y-96464404D02*
X342222795Y-96512023D01*
X342222795Y-96512023D02*
X342318033Y-96512023D01*
X342318033Y-96512023D02*
X342460890Y-96464404D01*
X342460890Y-96464404D02*
X343032319Y-95892976D01*
X343032319Y-95892976D02*
X343032319Y-96512023D01*
X342460890Y-97083452D02*
X342413271Y-96988214D01*
X342413271Y-96988214D02*
X342365652Y-96940595D01*
X342365652Y-96940595D02*
X342270414Y-96892976D01*
X342270414Y-96892976D02*
X342222795Y-96892976D01*
X342222795Y-96892976D02*
X342127557Y-96940595D01*
X342127557Y-96940595D02*
X342079938Y-96988214D01*
X342079938Y-96988214D02*
X342032319Y-97083452D01*
X342032319Y-97083452D02*
X342032319Y-97273928D01*
X342032319Y-97273928D02*
X342079938Y-97369166D01*
X342079938Y-97369166D02*
X342127557Y-97416785D01*
X342127557Y-97416785D02*
X342222795Y-97464404D01*
X342222795Y-97464404D02*
X342270414Y-97464404D01*
X342270414Y-97464404D02*
X342365652Y-97416785D01*
X342365652Y-97416785D02*
X342413271Y-97369166D01*
X342413271Y-97369166D02*
X342460890Y-97273928D01*
X342460890Y-97273928D02*
X342460890Y-97083452D01*
X342460890Y-97083452D02*
X342508509Y-96988214D01*
X342508509Y-96988214D02*
X342556128Y-96940595D01*
X342556128Y-96940595D02*
X342651366Y-96892976D01*
X342651366Y-96892976D02*
X342841842Y-96892976D01*
X342841842Y-96892976D02*
X342937080Y-96940595D01*
X342937080Y-96940595D02*
X342984700Y-96988214D01*
X342984700Y-96988214D02*
X343032319Y-97083452D01*
X343032319Y-97083452D02*
X343032319Y-97273928D01*
X343032319Y-97273928D02*
X342984700Y-97369166D01*
X342984700Y-97369166D02*
X342937080Y-97416785D01*
X342937080Y-97416785D02*
X342841842Y-97464404D01*
X342841842Y-97464404D02*
X342651366Y-97464404D01*
X342651366Y-97464404D02*
X342556128Y-97416785D01*
X342556128Y-97416785D02*
X342508509Y-97369166D01*
X342508509Y-97369166D02*
X342460890Y-97273928D01*
X319219819Y-94988214D02*
X318219819Y-94988214D01*
X318219819Y-94988214D02*
X318219819Y-95226309D01*
X318219819Y-95226309D02*
X318267438Y-95369166D01*
X318267438Y-95369166D02*
X318362676Y-95464404D01*
X318362676Y-95464404D02*
X318457914Y-95512023D01*
X318457914Y-95512023D02*
X318648390Y-95559642D01*
X318648390Y-95559642D02*
X318791247Y-95559642D01*
X318791247Y-95559642D02*
X318981723Y-95512023D01*
X318981723Y-95512023D02*
X319076961Y-95464404D01*
X319076961Y-95464404D02*
X319172200Y-95369166D01*
X319172200Y-95369166D02*
X319219819Y-95226309D01*
X319219819Y-95226309D02*
X319219819Y-94988214D01*
X318315057Y-95940595D02*
X318267438Y-95988214D01*
X318267438Y-95988214D02*
X318219819Y-96083452D01*
X318219819Y-96083452D02*
X318219819Y-96321547D01*
X318219819Y-96321547D02*
X318267438Y-96416785D01*
X318267438Y-96416785D02*
X318315057Y-96464404D01*
X318315057Y-96464404D02*
X318410295Y-96512023D01*
X318410295Y-96512023D02*
X318505533Y-96512023D01*
X318505533Y-96512023D02*
X318648390Y-96464404D01*
X318648390Y-96464404D02*
X319219819Y-95892976D01*
X319219819Y-95892976D02*
X319219819Y-96512023D01*
X318219819Y-96845357D02*
X318219819Y-97512023D01*
X318219819Y-97512023D02*
X319219819Y-97083452D01*
X300169819Y-94988214D02*
X299169819Y-94988214D01*
X299169819Y-94988214D02*
X299169819Y-95226309D01*
X299169819Y-95226309D02*
X299217438Y-95369166D01*
X299217438Y-95369166D02*
X299312676Y-95464404D01*
X299312676Y-95464404D02*
X299407914Y-95512023D01*
X299407914Y-95512023D02*
X299598390Y-95559642D01*
X299598390Y-95559642D02*
X299741247Y-95559642D01*
X299741247Y-95559642D02*
X299931723Y-95512023D01*
X299931723Y-95512023D02*
X300026961Y-95464404D01*
X300026961Y-95464404D02*
X300122200Y-95369166D01*
X300122200Y-95369166D02*
X300169819Y-95226309D01*
X300169819Y-95226309D02*
X300169819Y-94988214D01*
X299265057Y-95940595D02*
X299217438Y-95988214D01*
X299217438Y-95988214D02*
X299169819Y-96083452D01*
X299169819Y-96083452D02*
X299169819Y-96321547D01*
X299169819Y-96321547D02*
X299217438Y-96416785D01*
X299217438Y-96416785D02*
X299265057Y-96464404D01*
X299265057Y-96464404D02*
X299360295Y-96512023D01*
X299360295Y-96512023D02*
X299455533Y-96512023D01*
X299455533Y-96512023D02*
X299598390Y-96464404D01*
X299598390Y-96464404D02*
X300169819Y-95892976D01*
X300169819Y-95892976D02*
X300169819Y-96512023D01*
X299169819Y-97369166D02*
X299169819Y-97178690D01*
X299169819Y-97178690D02*
X299217438Y-97083452D01*
X299217438Y-97083452D02*
X299265057Y-97035833D01*
X299265057Y-97035833D02*
X299407914Y-96940595D01*
X299407914Y-96940595D02*
X299598390Y-96892976D01*
X299598390Y-96892976D02*
X299979342Y-96892976D01*
X299979342Y-96892976D02*
X300074580Y-96940595D01*
X300074580Y-96940595D02*
X300122200Y-96988214D01*
X300122200Y-96988214D02*
X300169819Y-97083452D01*
X300169819Y-97083452D02*
X300169819Y-97273928D01*
X300169819Y-97273928D02*
X300122200Y-97369166D01*
X300122200Y-97369166D02*
X300074580Y-97416785D01*
X300074580Y-97416785D02*
X299979342Y-97464404D01*
X299979342Y-97464404D02*
X299741247Y-97464404D01*
X299741247Y-97464404D02*
X299646009Y-97416785D01*
X299646009Y-97416785D02*
X299598390Y-97369166D01*
X299598390Y-97369166D02*
X299550771Y-97273928D01*
X299550771Y-97273928D02*
X299550771Y-97083452D01*
X299550771Y-97083452D02*
X299598390Y-96988214D01*
X299598390Y-96988214D02*
X299646009Y-96940595D01*
X299646009Y-96940595D02*
X299741247Y-96892976D01*
X281119819Y-94988214D02*
X280119819Y-94988214D01*
X280119819Y-94988214D02*
X280119819Y-95226309D01*
X280119819Y-95226309D02*
X280167438Y-95369166D01*
X280167438Y-95369166D02*
X280262676Y-95464404D01*
X280262676Y-95464404D02*
X280357914Y-95512023D01*
X280357914Y-95512023D02*
X280548390Y-95559642D01*
X280548390Y-95559642D02*
X280691247Y-95559642D01*
X280691247Y-95559642D02*
X280881723Y-95512023D01*
X280881723Y-95512023D02*
X280976961Y-95464404D01*
X280976961Y-95464404D02*
X281072200Y-95369166D01*
X281072200Y-95369166D02*
X281119819Y-95226309D01*
X281119819Y-95226309D02*
X281119819Y-94988214D01*
X280215057Y-95940595D02*
X280167438Y-95988214D01*
X280167438Y-95988214D02*
X280119819Y-96083452D01*
X280119819Y-96083452D02*
X280119819Y-96321547D01*
X280119819Y-96321547D02*
X280167438Y-96416785D01*
X280167438Y-96416785D02*
X280215057Y-96464404D01*
X280215057Y-96464404D02*
X280310295Y-96512023D01*
X280310295Y-96512023D02*
X280405533Y-96512023D01*
X280405533Y-96512023D02*
X280548390Y-96464404D01*
X280548390Y-96464404D02*
X281119819Y-95892976D01*
X281119819Y-95892976D02*
X281119819Y-96512023D01*
X280119819Y-97416785D02*
X280119819Y-96940595D01*
X280119819Y-96940595D02*
X280596009Y-96892976D01*
X280596009Y-96892976D02*
X280548390Y-96940595D01*
X280548390Y-96940595D02*
X280500771Y-97035833D01*
X280500771Y-97035833D02*
X280500771Y-97273928D01*
X280500771Y-97273928D02*
X280548390Y-97369166D01*
X280548390Y-97369166D02*
X280596009Y-97416785D01*
X280596009Y-97416785D02*
X280691247Y-97464404D01*
X280691247Y-97464404D02*
X280929342Y-97464404D01*
X280929342Y-97464404D02*
X281024580Y-97416785D01*
X281024580Y-97416785D02*
X281072200Y-97369166D01*
X281072200Y-97369166D02*
X281119819Y-97273928D01*
X281119819Y-97273928D02*
X281119819Y-97035833D01*
X281119819Y-97035833D02*
X281072200Y-96940595D01*
X281072200Y-96940595D02*
X281024580Y-96892976D01*
X262069819Y-94988214D02*
X261069819Y-94988214D01*
X261069819Y-94988214D02*
X261069819Y-95226309D01*
X261069819Y-95226309D02*
X261117438Y-95369166D01*
X261117438Y-95369166D02*
X261212676Y-95464404D01*
X261212676Y-95464404D02*
X261307914Y-95512023D01*
X261307914Y-95512023D02*
X261498390Y-95559642D01*
X261498390Y-95559642D02*
X261641247Y-95559642D01*
X261641247Y-95559642D02*
X261831723Y-95512023D01*
X261831723Y-95512023D02*
X261926961Y-95464404D01*
X261926961Y-95464404D02*
X262022200Y-95369166D01*
X262022200Y-95369166D02*
X262069819Y-95226309D01*
X262069819Y-95226309D02*
X262069819Y-94988214D01*
X261165057Y-95940595D02*
X261117438Y-95988214D01*
X261117438Y-95988214D02*
X261069819Y-96083452D01*
X261069819Y-96083452D02*
X261069819Y-96321547D01*
X261069819Y-96321547D02*
X261117438Y-96416785D01*
X261117438Y-96416785D02*
X261165057Y-96464404D01*
X261165057Y-96464404D02*
X261260295Y-96512023D01*
X261260295Y-96512023D02*
X261355533Y-96512023D01*
X261355533Y-96512023D02*
X261498390Y-96464404D01*
X261498390Y-96464404D02*
X262069819Y-95892976D01*
X262069819Y-95892976D02*
X262069819Y-96512023D01*
X261403152Y-97369166D02*
X262069819Y-97369166D01*
X261022200Y-97131071D02*
X261736485Y-96892976D01*
X261736485Y-96892976D02*
X261736485Y-97512023D01*
X243019819Y-94988214D02*
X242019819Y-94988214D01*
X242019819Y-94988214D02*
X242019819Y-95226309D01*
X242019819Y-95226309D02*
X242067438Y-95369166D01*
X242067438Y-95369166D02*
X242162676Y-95464404D01*
X242162676Y-95464404D02*
X242257914Y-95512023D01*
X242257914Y-95512023D02*
X242448390Y-95559642D01*
X242448390Y-95559642D02*
X242591247Y-95559642D01*
X242591247Y-95559642D02*
X242781723Y-95512023D01*
X242781723Y-95512023D02*
X242876961Y-95464404D01*
X242876961Y-95464404D02*
X242972200Y-95369166D01*
X242972200Y-95369166D02*
X243019819Y-95226309D01*
X243019819Y-95226309D02*
X243019819Y-94988214D01*
X242115057Y-95940595D02*
X242067438Y-95988214D01*
X242067438Y-95988214D02*
X242019819Y-96083452D01*
X242019819Y-96083452D02*
X242019819Y-96321547D01*
X242019819Y-96321547D02*
X242067438Y-96416785D01*
X242067438Y-96416785D02*
X242115057Y-96464404D01*
X242115057Y-96464404D02*
X242210295Y-96512023D01*
X242210295Y-96512023D02*
X242305533Y-96512023D01*
X242305533Y-96512023D02*
X242448390Y-96464404D01*
X242448390Y-96464404D02*
X243019819Y-95892976D01*
X243019819Y-95892976D02*
X243019819Y-96512023D01*
X242019819Y-96845357D02*
X242019819Y-97464404D01*
X242019819Y-97464404D02*
X242400771Y-97131071D01*
X242400771Y-97131071D02*
X242400771Y-97273928D01*
X242400771Y-97273928D02*
X242448390Y-97369166D01*
X242448390Y-97369166D02*
X242496009Y-97416785D01*
X242496009Y-97416785D02*
X242591247Y-97464404D01*
X242591247Y-97464404D02*
X242829342Y-97464404D01*
X242829342Y-97464404D02*
X242924580Y-97416785D01*
X242924580Y-97416785D02*
X242972200Y-97369166D01*
X242972200Y-97369166D02*
X243019819Y-97273928D01*
X243019819Y-97273928D02*
X243019819Y-96988214D01*
X243019819Y-96988214D02*
X242972200Y-96892976D01*
X242972200Y-96892976D02*
X242924580Y-96845357D01*
X223969819Y-94988214D02*
X222969819Y-94988214D01*
X222969819Y-94988214D02*
X222969819Y-95226309D01*
X222969819Y-95226309D02*
X223017438Y-95369166D01*
X223017438Y-95369166D02*
X223112676Y-95464404D01*
X223112676Y-95464404D02*
X223207914Y-95512023D01*
X223207914Y-95512023D02*
X223398390Y-95559642D01*
X223398390Y-95559642D02*
X223541247Y-95559642D01*
X223541247Y-95559642D02*
X223731723Y-95512023D01*
X223731723Y-95512023D02*
X223826961Y-95464404D01*
X223826961Y-95464404D02*
X223922200Y-95369166D01*
X223922200Y-95369166D02*
X223969819Y-95226309D01*
X223969819Y-95226309D02*
X223969819Y-94988214D01*
X223065057Y-95940595D02*
X223017438Y-95988214D01*
X223017438Y-95988214D02*
X222969819Y-96083452D01*
X222969819Y-96083452D02*
X222969819Y-96321547D01*
X222969819Y-96321547D02*
X223017438Y-96416785D01*
X223017438Y-96416785D02*
X223065057Y-96464404D01*
X223065057Y-96464404D02*
X223160295Y-96512023D01*
X223160295Y-96512023D02*
X223255533Y-96512023D01*
X223255533Y-96512023D02*
X223398390Y-96464404D01*
X223398390Y-96464404D02*
X223969819Y-95892976D01*
X223969819Y-95892976D02*
X223969819Y-96512023D01*
X223065057Y-96892976D02*
X223017438Y-96940595D01*
X223017438Y-96940595D02*
X222969819Y-97035833D01*
X222969819Y-97035833D02*
X222969819Y-97273928D01*
X222969819Y-97273928D02*
X223017438Y-97369166D01*
X223017438Y-97369166D02*
X223065057Y-97416785D01*
X223065057Y-97416785D02*
X223160295Y-97464404D01*
X223160295Y-97464404D02*
X223255533Y-97464404D01*
X223255533Y-97464404D02*
X223398390Y-97416785D01*
X223398390Y-97416785D02*
X223969819Y-96845357D01*
X223969819Y-96845357D02*
X223969819Y-97464404D01*
X204919819Y-94988214D02*
X203919819Y-94988214D01*
X203919819Y-94988214D02*
X203919819Y-95226309D01*
X203919819Y-95226309D02*
X203967438Y-95369166D01*
X203967438Y-95369166D02*
X204062676Y-95464404D01*
X204062676Y-95464404D02*
X204157914Y-95512023D01*
X204157914Y-95512023D02*
X204348390Y-95559642D01*
X204348390Y-95559642D02*
X204491247Y-95559642D01*
X204491247Y-95559642D02*
X204681723Y-95512023D01*
X204681723Y-95512023D02*
X204776961Y-95464404D01*
X204776961Y-95464404D02*
X204872200Y-95369166D01*
X204872200Y-95369166D02*
X204919819Y-95226309D01*
X204919819Y-95226309D02*
X204919819Y-94988214D01*
X204015057Y-95940595D02*
X203967438Y-95988214D01*
X203967438Y-95988214D02*
X203919819Y-96083452D01*
X203919819Y-96083452D02*
X203919819Y-96321547D01*
X203919819Y-96321547D02*
X203967438Y-96416785D01*
X203967438Y-96416785D02*
X204015057Y-96464404D01*
X204015057Y-96464404D02*
X204110295Y-96512023D01*
X204110295Y-96512023D02*
X204205533Y-96512023D01*
X204205533Y-96512023D02*
X204348390Y-96464404D01*
X204348390Y-96464404D02*
X204919819Y-95892976D01*
X204919819Y-95892976D02*
X204919819Y-96512023D01*
X204919819Y-97464404D02*
X204919819Y-96892976D01*
X204919819Y-97178690D02*
X203919819Y-97178690D01*
X203919819Y-97178690D02*
X204062676Y-97083452D01*
X204062676Y-97083452D02*
X204157914Y-96988214D01*
X204157914Y-96988214D02*
X204205533Y-96892976D01*
X185869819Y-94988214D02*
X184869819Y-94988214D01*
X184869819Y-94988214D02*
X184869819Y-95226309D01*
X184869819Y-95226309D02*
X184917438Y-95369166D01*
X184917438Y-95369166D02*
X185012676Y-95464404D01*
X185012676Y-95464404D02*
X185107914Y-95512023D01*
X185107914Y-95512023D02*
X185298390Y-95559642D01*
X185298390Y-95559642D02*
X185441247Y-95559642D01*
X185441247Y-95559642D02*
X185631723Y-95512023D01*
X185631723Y-95512023D02*
X185726961Y-95464404D01*
X185726961Y-95464404D02*
X185822200Y-95369166D01*
X185822200Y-95369166D02*
X185869819Y-95226309D01*
X185869819Y-95226309D02*
X185869819Y-94988214D01*
X184965057Y-95940595D02*
X184917438Y-95988214D01*
X184917438Y-95988214D02*
X184869819Y-96083452D01*
X184869819Y-96083452D02*
X184869819Y-96321547D01*
X184869819Y-96321547D02*
X184917438Y-96416785D01*
X184917438Y-96416785D02*
X184965057Y-96464404D01*
X184965057Y-96464404D02*
X185060295Y-96512023D01*
X185060295Y-96512023D02*
X185155533Y-96512023D01*
X185155533Y-96512023D02*
X185298390Y-96464404D01*
X185298390Y-96464404D02*
X185869819Y-95892976D01*
X185869819Y-95892976D02*
X185869819Y-96512023D01*
X184869819Y-97131071D02*
X184869819Y-97226309D01*
X184869819Y-97226309D02*
X184917438Y-97321547D01*
X184917438Y-97321547D02*
X184965057Y-97369166D01*
X184965057Y-97369166D02*
X185060295Y-97416785D01*
X185060295Y-97416785D02*
X185250771Y-97464404D01*
X185250771Y-97464404D02*
X185488866Y-97464404D01*
X185488866Y-97464404D02*
X185679342Y-97416785D01*
X185679342Y-97416785D02*
X185774580Y-97369166D01*
X185774580Y-97369166D02*
X185822200Y-97321547D01*
X185822200Y-97321547D02*
X185869819Y-97226309D01*
X185869819Y-97226309D02*
X185869819Y-97131071D01*
X185869819Y-97131071D02*
X185822200Y-97035833D01*
X185822200Y-97035833D02*
X185774580Y-96988214D01*
X185774580Y-96988214D02*
X185679342Y-96940595D01*
X185679342Y-96940595D02*
X185488866Y-96892976D01*
X185488866Y-96892976D02*
X185250771Y-96892976D01*
X185250771Y-96892976D02*
X185060295Y-96940595D01*
X185060295Y-96940595D02*
X184965057Y-96988214D01*
X184965057Y-96988214D02*
X184917438Y-97035833D01*
X184917438Y-97035833D02*
X184869819Y-97131071D01*
X166819819Y-94988214D02*
X165819819Y-94988214D01*
X165819819Y-94988214D02*
X165819819Y-95226309D01*
X165819819Y-95226309D02*
X165867438Y-95369166D01*
X165867438Y-95369166D02*
X165962676Y-95464404D01*
X165962676Y-95464404D02*
X166057914Y-95512023D01*
X166057914Y-95512023D02*
X166248390Y-95559642D01*
X166248390Y-95559642D02*
X166391247Y-95559642D01*
X166391247Y-95559642D02*
X166581723Y-95512023D01*
X166581723Y-95512023D02*
X166676961Y-95464404D01*
X166676961Y-95464404D02*
X166772200Y-95369166D01*
X166772200Y-95369166D02*
X166819819Y-95226309D01*
X166819819Y-95226309D02*
X166819819Y-94988214D01*
X166819819Y-96512023D02*
X166819819Y-95940595D01*
X166819819Y-96226309D02*
X165819819Y-96226309D01*
X165819819Y-96226309D02*
X165962676Y-96131071D01*
X165962676Y-96131071D02*
X166057914Y-96035833D01*
X166057914Y-96035833D02*
X166105533Y-95940595D01*
X166819819Y-96988214D02*
X166819819Y-97178690D01*
X166819819Y-97178690D02*
X166772200Y-97273928D01*
X166772200Y-97273928D02*
X166724580Y-97321547D01*
X166724580Y-97321547D02*
X166581723Y-97416785D01*
X166581723Y-97416785D02*
X166391247Y-97464404D01*
X166391247Y-97464404D02*
X166010295Y-97464404D01*
X166010295Y-97464404D02*
X165915057Y-97416785D01*
X165915057Y-97416785D02*
X165867438Y-97369166D01*
X165867438Y-97369166D02*
X165819819Y-97273928D01*
X165819819Y-97273928D02*
X165819819Y-97083452D01*
X165819819Y-97083452D02*
X165867438Y-96988214D01*
X165867438Y-96988214D02*
X165915057Y-96940595D01*
X165915057Y-96940595D02*
X166010295Y-96892976D01*
X166010295Y-96892976D02*
X166248390Y-96892976D01*
X166248390Y-96892976D02*
X166343628Y-96940595D01*
X166343628Y-96940595D02*
X166391247Y-96988214D01*
X166391247Y-96988214D02*
X166438866Y-97083452D01*
X166438866Y-97083452D02*
X166438866Y-97273928D01*
X166438866Y-97273928D02*
X166391247Y-97369166D01*
X166391247Y-97369166D02*
X166343628Y-97416785D01*
X166343628Y-97416785D02*
X166248390Y-97464404D01*
X147769819Y-94988214D02*
X146769819Y-94988214D01*
X146769819Y-94988214D02*
X146769819Y-95226309D01*
X146769819Y-95226309D02*
X146817438Y-95369166D01*
X146817438Y-95369166D02*
X146912676Y-95464404D01*
X146912676Y-95464404D02*
X147007914Y-95512023D01*
X147007914Y-95512023D02*
X147198390Y-95559642D01*
X147198390Y-95559642D02*
X147341247Y-95559642D01*
X147341247Y-95559642D02*
X147531723Y-95512023D01*
X147531723Y-95512023D02*
X147626961Y-95464404D01*
X147626961Y-95464404D02*
X147722200Y-95369166D01*
X147722200Y-95369166D02*
X147769819Y-95226309D01*
X147769819Y-95226309D02*
X147769819Y-94988214D01*
X147769819Y-96512023D02*
X147769819Y-95940595D01*
X147769819Y-96226309D02*
X146769819Y-96226309D01*
X146769819Y-96226309D02*
X146912676Y-96131071D01*
X146912676Y-96131071D02*
X147007914Y-96035833D01*
X147007914Y-96035833D02*
X147055533Y-95940595D01*
X147198390Y-97083452D02*
X147150771Y-96988214D01*
X147150771Y-96988214D02*
X147103152Y-96940595D01*
X147103152Y-96940595D02*
X147007914Y-96892976D01*
X147007914Y-96892976D02*
X146960295Y-96892976D01*
X146960295Y-96892976D02*
X146865057Y-96940595D01*
X146865057Y-96940595D02*
X146817438Y-96988214D01*
X146817438Y-96988214D02*
X146769819Y-97083452D01*
X146769819Y-97083452D02*
X146769819Y-97273928D01*
X146769819Y-97273928D02*
X146817438Y-97369166D01*
X146817438Y-97369166D02*
X146865057Y-97416785D01*
X146865057Y-97416785D02*
X146960295Y-97464404D01*
X146960295Y-97464404D02*
X147007914Y-97464404D01*
X147007914Y-97464404D02*
X147103152Y-97416785D01*
X147103152Y-97416785D02*
X147150771Y-97369166D01*
X147150771Y-97369166D02*
X147198390Y-97273928D01*
X147198390Y-97273928D02*
X147198390Y-97083452D01*
X147198390Y-97083452D02*
X147246009Y-96988214D01*
X147246009Y-96988214D02*
X147293628Y-96940595D01*
X147293628Y-96940595D02*
X147388866Y-96892976D01*
X147388866Y-96892976D02*
X147579342Y-96892976D01*
X147579342Y-96892976D02*
X147674580Y-96940595D01*
X147674580Y-96940595D02*
X147722200Y-96988214D01*
X147722200Y-96988214D02*
X147769819Y-97083452D01*
X147769819Y-97083452D02*
X147769819Y-97273928D01*
X147769819Y-97273928D02*
X147722200Y-97369166D01*
X147722200Y-97369166D02*
X147674580Y-97416785D01*
X147674580Y-97416785D02*
X147579342Y-97464404D01*
X147579342Y-97464404D02*
X147388866Y-97464404D01*
X147388866Y-97464404D02*
X147293628Y-97416785D01*
X147293628Y-97416785D02*
X147246009Y-97369166D01*
X147246009Y-97369166D02*
X147198390Y-97273928D01*
X128719819Y-94988214D02*
X127719819Y-94988214D01*
X127719819Y-94988214D02*
X127719819Y-95226309D01*
X127719819Y-95226309D02*
X127767438Y-95369166D01*
X127767438Y-95369166D02*
X127862676Y-95464404D01*
X127862676Y-95464404D02*
X127957914Y-95512023D01*
X127957914Y-95512023D02*
X128148390Y-95559642D01*
X128148390Y-95559642D02*
X128291247Y-95559642D01*
X128291247Y-95559642D02*
X128481723Y-95512023D01*
X128481723Y-95512023D02*
X128576961Y-95464404D01*
X128576961Y-95464404D02*
X128672200Y-95369166D01*
X128672200Y-95369166D02*
X128719819Y-95226309D01*
X128719819Y-95226309D02*
X128719819Y-94988214D01*
X128719819Y-96512023D02*
X128719819Y-95940595D01*
X128719819Y-96226309D02*
X127719819Y-96226309D01*
X127719819Y-96226309D02*
X127862676Y-96131071D01*
X127862676Y-96131071D02*
X127957914Y-96035833D01*
X127957914Y-96035833D02*
X128005533Y-95940595D01*
X127719819Y-96845357D02*
X127719819Y-97512023D01*
X127719819Y-97512023D02*
X128719819Y-97083452D01*
X109669819Y-94988214D02*
X108669819Y-94988214D01*
X108669819Y-94988214D02*
X108669819Y-95226309D01*
X108669819Y-95226309D02*
X108717438Y-95369166D01*
X108717438Y-95369166D02*
X108812676Y-95464404D01*
X108812676Y-95464404D02*
X108907914Y-95512023D01*
X108907914Y-95512023D02*
X109098390Y-95559642D01*
X109098390Y-95559642D02*
X109241247Y-95559642D01*
X109241247Y-95559642D02*
X109431723Y-95512023D01*
X109431723Y-95512023D02*
X109526961Y-95464404D01*
X109526961Y-95464404D02*
X109622200Y-95369166D01*
X109622200Y-95369166D02*
X109669819Y-95226309D01*
X109669819Y-95226309D02*
X109669819Y-94988214D01*
X109669819Y-96512023D02*
X109669819Y-95940595D01*
X109669819Y-96226309D02*
X108669819Y-96226309D01*
X108669819Y-96226309D02*
X108812676Y-96131071D01*
X108812676Y-96131071D02*
X108907914Y-96035833D01*
X108907914Y-96035833D02*
X108955533Y-95940595D01*
X108669819Y-97369166D02*
X108669819Y-97178690D01*
X108669819Y-97178690D02*
X108717438Y-97083452D01*
X108717438Y-97083452D02*
X108765057Y-97035833D01*
X108765057Y-97035833D02*
X108907914Y-96940595D01*
X108907914Y-96940595D02*
X109098390Y-96892976D01*
X109098390Y-96892976D02*
X109479342Y-96892976D01*
X109479342Y-96892976D02*
X109574580Y-96940595D01*
X109574580Y-96940595D02*
X109622200Y-96988214D01*
X109622200Y-96988214D02*
X109669819Y-97083452D01*
X109669819Y-97083452D02*
X109669819Y-97273928D01*
X109669819Y-97273928D02*
X109622200Y-97369166D01*
X109622200Y-97369166D02*
X109574580Y-97416785D01*
X109574580Y-97416785D02*
X109479342Y-97464404D01*
X109479342Y-97464404D02*
X109241247Y-97464404D01*
X109241247Y-97464404D02*
X109146009Y-97416785D01*
X109146009Y-97416785D02*
X109098390Y-97369166D01*
X109098390Y-97369166D02*
X109050771Y-97273928D01*
X109050771Y-97273928D02*
X109050771Y-97083452D01*
X109050771Y-97083452D02*
X109098390Y-96988214D01*
X109098390Y-96988214D02*
X109146009Y-96940595D01*
X109146009Y-96940595D02*
X109241247Y-96892976D01*
X85857319Y-94988214D02*
X84857319Y-94988214D01*
X84857319Y-94988214D02*
X84857319Y-95226309D01*
X84857319Y-95226309D02*
X84904938Y-95369166D01*
X84904938Y-95369166D02*
X85000176Y-95464404D01*
X85000176Y-95464404D02*
X85095414Y-95512023D01*
X85095414Y-95512023D02*
X85285890Y-95559642D01*
X85285890Y-95559642D02*
X85428747Y-95559642D01*
X85428747Y-95559642D02*
X85619223Y-95512023D01*
X85619223Y-95512023D02*
X85714461Y-95464404D01*
X85714461Y-95464404D02*
X85809700Y-95369166D01*
X85809700Y-95369166D02*
X85857319Y-95226309D01*
X85857319Y-95226309D02*
X85857319Y-94988214D01*
X85857319Y-96512023D02*
X85857319Y-95940595D01*
X85857319Y-96226309D02*
X84857319Y-96226309D01*
X84857319Y-96226309D02*
X85000176Y-96131071D01*
X85000176Y-96131071D02*
X85095414Y-96035833D01*
X85095414Y-96035833D02*
X85143033Y-95940595D01*
X84857319Y-97416785D02*
X84857319Y-96940595D01*
X84857319Y-96940595D02*
X85333509Y-96892976D01*
X85333509Y-96892976D02*
X85285890Y-96940595D01*
X85285890Y-96940595D02*
X85238271Y-97035833D01*
X85238271Y-97035833D02*
X85238271Y-97273928D01*
X85238271Y-97273928D02*
X85285890Y-97369166D01*
X85285890Y-97369166D02*
X85333509Y-97416785D01*
X85333509Y-97416785D02*
X85428747Y-97464404D01*
X85428747Y-97464404D02*
X85666842Y-97464404D01*
X85666842Y-97464404D02*
X85762080Y-97416785D01*
X85762080Y-97416785D02*
X85809700Y-97369166D01*
X85809700Y-97369166D02*
X85857319Y-97273928D01*
X85857319Y-97273928D02*
X85857319Y-97035833D01*
X85857319Y-97035833D02*
X85809700Y-96940595D01*
X85809700Y-96940595D02*
X85762080Y-96892976D01*
X338269819Y-75938214D02*
X337269819Y-75938214D01*
X337269819Y-75938214D02*
X337269819Y-76176309D01*
X337269819Y-76176309D02*
X337317438Y-76319166D01*
X337317438Y-76319166D02*
X337412676Y-76414404D01*
X337412676Y-76414404D02*
X337507914Y-76462023D01*
X337507914Y-76462023D02*
X337698390Y-76509642D01*
X337698390Y-76509642D02*
X337841247Y-76509642D01*
X337841247Y-76509642D02*
X338031723Y-76462023D01*
X338031723Y-76462023D02*
X338126961Y-76414404D01*
X338126961Y-76414404D02*
X338222200Y-76319166D01*
X338222200Y-76319166D02*
X338269819Y-76176309D01*
X338269819Y-76176309D02*
X338269819Y-75938214D01*
X338269819Y-77462023D02*
X338269819Y-76890595D01*
X338269819Y-77176309D02*
X337269819Y-77176309D01*
X337269819Y-77176309D02*
X337412676Y-77081071D01*
X337412676Y-77081071D02*
X337507914Y-76985833D01*
X337507914Y-76985833D02*
X337555533Y-76890595D01*
X337603152Y-78319166D02*
X338269819Y-78319166D01*
X337222200Y-78081071D02*
X337936485Y-77842976D01*
X337936485Y-77842976D02*
X337936485Y-78462023D01*
X309694819Y-75938214D02*
X308694819Y-75938214D01*
X308694819Y-75938214D02*
X308694819Y-76176309D01*
X308694819Y-76176309D02*
X308742438Y-76319166D01*
X308742438Y-76319166D02*
X308837676Y-76414404D01*
X308837676Y-76414404D02*
X308932914Y-76462023D01*
X308932914Y-76462023D02*
X309123390Y-76509642D01*
X309123390Y-76509642D02*
X309266247Y-76509642D01*
X309266247Y-76509642D02*
X309456723Y-76462023D01*
X309456723Y-76462023D02*
X309551961Y-76414404D01*
X309551961Y-76414404D02*
X309647200Y-76319166D01*
X309647200Y-76319166D02*
X309694819Y-76176309D01*
X309694819Y-76176309D02*
X309694819Y-75938214D01*
X309694819Y-77462023D02*
X309694819Y-76890595D01*
X309694819Y-77176309D02*
X308694819Y-77176309D01*
X308694819Y-77176309D02*
X308837676Y-77081071D01*
X308837676Y-77081071D02*
X308932914Y-76985833D01*
X308932914Y-76985833D02*
X308980533Y-76890595D01*
X308694819Y-77795357D02*
X308694819Y-78414404D01*
X308694819Y-78414404D02*
X309075771Y-78081071D01*
X309075771Y-78081071D02*
X309075771Y-78223928D01*
X309075771Y-78223928D02*
X309123390Y-78319166D01*
X309123390Y-78319166D02*
X309171009Y-78366785D01*
X309171009Y-78366785D02*
X309266247Y-78414404D01*
X309266247Y-78414404D02*
X309504342Y-78414404D01*
X309504342Y-78414404D02*
X309599580Y-78366785D01*
X309599580Y-78366785D02*
X309647200Y-78319166D01*
X309647200Y-78319166D02*
X309694819Y-78223928D01*
X309694819Y-78223928D02*
X309694819Y-77938214D01*
X309694819Y-77938214D02*
X309647200Y-77842976D01*
X309647200Y-77842976D02*
X309599580Y-77795357D01*
X290644819Y-75938214D02*
X289644819Y-75938214D01*
X289644819Y-75938214D02*
X289644819Y-76176309D01*
X289644819Y-76176309D02*
X289692438Y-76319166D01*
X289692438Y-76319166D02*
X289787676Y-76414404D01*
X289787676Y-76414404D02*
X289882914Y-76462023D01*
X289882914Y-76462023D02*
X290073390Y-76509642D01*
X290073390Y-76509642D02*
X290216247Y-76509642D01*
X290216247Y-76509642D02*
X290406723Y-76462023D01*
X290406723Y-76462023D02*
X290501961Y-76414404D01*
X290501961Y-76414404D02*
X290597200Y-76319166D01*
X290597200Y-76319166D02*
X290644819Y-76176309D01*
X290644819Y-76176309D02*
X290644819Y-75938214D01*
X290644819Y-77462023D02*
X290644819Y-76890595D01*
X290644819Y-77176309D02*
X289644819Y-77176309D01*
X289644819Y-77176309D02*
X289787676Y-77081071D01*
X289787676Y-77081071D02*
X289882914Y-76985833D01*
X289882914Y-76985833D02*
X289930533Y-76890595D01*
X289740057Y-77842976D02*
X289692438Y-77890595D01*
X289692438Y-77890595D02*
X289644819Y-77985833D01*
X289644819Y-77985833D02*
X289644819Y-78223928D01*
X289644819Y-78223928D02*
X289692438Y-78319166D01*
X289692438Y-78319166D02*
X289740057Y-78366785D01*
X289740057Y-78366785D02*
X289835295Y-78414404D01*
X289835295Y-78414404D02*
X289930533Y-78414404D01*
X289930533Y-78414404D02*
X290073390Y-78366785D01*
X290073390Y-78366785D02*
X290644819Y-77795357D01*
X290644819Y-77795357D02*
X290644819Y-78414404D01*
X271594819Y-75938214D02*
X270594819Y-75938214D01*
X270594819Y-75938214D02*
X270594819Y-76176309D01*
X270594819Y-76176309D02*
X270642438Y-76319166D01*
X270642438Y-76319166D02*
X270737676Y-76414404D01*
X270737676Y-76414404D02*
X270832914Y-76462023D01*
X270832914Y-76462023D02*
X271023390Y-76509642D01*
X271023390Y-76509642D02*
X271166247Y-76509642D01*
X271166247Y-76509642D02*
X271356723Y-76462023D01*
X271356723Y-76462023D02*
X271451961Y-76414404D01*
X271451961Y-76414404D02*
X271547200Y-76319166D01*
X271547200Y-76319166D02*
X271594819Y-76176309D01*
X271594819Y-76176309D02*
X271594819Y-75938214D01*
X271594819Y-77462023D02*
X271594819Y-76890595D01*
X271594819Y-77176309D02*
X270594819Y-77176309D01*
X270594819Y-77176309D02*
X270737676Y-77081071D01*
X270737676Y-77081071D02*
X270832914Y-76985833D01*
X270832914Y-76985833D02*
X270880533Y-76890595D01*
X271594819Y-78414404D02*
X271594819Y-77842976D01*
X271594819Y-78128690D02*
X270594819Y-78128690D01*
X270594819Y-78128690D02*
X270737676Y-78033452D01*
X270737676Y-78033452D02*
X270832914Y-77938214D01*
X270832914Y-77938214D02*
X270880533Y-77842976D01*
X252544819Y-75938214D02*
X251544819Y-75938214D01*
X251544819Y-75938214D02*
X251544819Y-76176309D01*
X251544819Y-76176309D02*
X251592438Y-76319166D01*
X251592438Y-76319166D02*
X251687676Y-76414404D01*
X251687676Y-76414404D02*
X251782914Y-76462023D01*
X251782914Y-76462023D02*
X251973390Y-76509642D01*
X251973390Y-76509642D02*
X252116247Y-76509642D01*
X252116247Y-76509642D02*
X252306723Y-76462023D01*
X252306723Y-76462023D02*
X252401961Y-76414404D01*
X252401961Y-76414404D02*
X252497200Y-76319166D01*
X252497200Y-76319166D02*
X252544819Y-76176309D01*
X252544819Y-76176309D02*
X252544819Y-75938214D01*
X252544819Y-77462023D02*
X252544819Y-76890595D01*
X252544819Y-77176309D02*
X251544819Y-77176309D01*
X251544819Y-77176309D02*
X251687676Y-77081071D01*
X251687676Y-77081071D02*
X251782914Y-76985833D01*
X251782914Y-76985833D02*
X251830533Y-76890595D01*
X251544819Y-78081071D02*
X251544819Y-78176309D01*
X251544819Y-78176309D02*
X251592438Y-78271547D01*
X251592438Y-78271547D02*
X251640057Y-78319166D01*
X251640057Y-78319166D02*
X251735295Y-78366785D01*
X251735295Y-78366785D02*
X251925771Y-78414404D01*
X251925771Y-78414404D02*
X252163866Y-78414404D01*
X252163866Y-78414404D02*
X252354342Y-78366785D01*
X252354342Y-78366785D02*
X252449580Y-78319166D01*
X252449580Y-78319166D02*
X252497200Y-78271547D01*
X252497200Y-78271547D02*
X252544819Y-78176309D01*
X252544819Y-78176309D02*
X252544819Y-78081071D01*
X252544819Y-78081071D02*
X252497200Y-77985833D01*
X252497200Y-77985833D02*
X252449580Y-77938214D01*
X252449580Y-77938214D02*
X252354342Y-77890595D01*
X252354342Y-77890595D02*
X252163866Y-77842976D01*
X252163866Y-77842976D02*
X251925771Y-77842976D01*
X251925771Y-77842976D02*
X251735295Y-77890595D01*
X251735295Y-77890595D02*
X251640057Y-77938214D01*
X251640057Y-77938214D02*
X251592438Y-77985833D01*
X251592438Y-77985833D02*
X251544819Y-78081071D01*
X233494819Y-76414405D02*
X232494819Y-76414405D01*
X232494819Y-76414405D02*
X232494819Y-76652500D01*
X232494819Y-76652500D02*
X232542438Y-76795357D01*
X232542438Y-76795357D02*
X232637676Y-76890595D01*
X232637676Y-76890595D02*
X232732914Y-76938214D01*
X232732914Y-76938214D02*
X232923390Y-76985833D01*
X232923390Y-76985833D02*
X233066247Y-76985833D01*
X233066247Y-76985833D02*
X233256723Y-76938214D01*
X233256723Y-76938214D02*
X233351961Y-76890595D01*
X233351961Y-76890595D02*
X233447200Y-76795357D01*
X233447200Y-76795357D02*
X233494819Y-76652500D01*
X233494819Y-76652500D02*
X233494819Y-76414405D01*
X233494819Y-77462024D02*
X233494819Y-77652500D01*
X233494819Y-77652500D02*
X233447200Y-77747738D01*
X233447200Y-77747738D02*
X233399580Y-77795357D01*
X233399580Y-77795357D02*
X233256723Y-77890595D01*
X233256723Y-77890595D02*
X233066247Y-77938214D01*
X233066247Y-77938214D02*
X232685295Y-77938214D01*
X232685295Y-77938214D02*
X232590057Y-77890595D01*
X232590057Y-77890595D02*
X232542438Y-77842976D01*
X232542438Y-77842976D02*
X232494819Y-77747738D01*
X232494819Y-77747738D02*
X232494819Y-77557262D01*
X232494819Y-77557262D02*
X232542438Y-77462024D01*
X232542438Y-77462024D02*
X232590057Y-77414405D01*
X232590057Y-77414405D02*
X232685295Y-77366786D01*
X232685295Y-77366786D02*
X232923390Y-77366786D01*
X232923390Y-77366786D02*
X233018628Y-77414405D01*
X233018628Y-77414405D02*
X233066247Y-77462024D01*
X233066247Y-77462024D02*
X233113866Y-77557262D01*
X233113866Y-77557262D02*
X233113866Y-77747738D01*
X233113866Y-77747738D02*
X233066247Y-77842976D01*
X233066247Y-77842976D02*
X233018628Y-77890595D01*
X233018628Y-77890595D02*
X232923390Y-77938214D01*
X214444819Y-76414405D02*
X213444819Y-76414405D01*
X213444819Y-76414405D02*
X213444819Y-76652500D01*
X213444819Y-76652500D02*
X213492438Y-76795357D01*
X213492438Y-76795357D02*
X213587676Y-76890595D01*
X213587676Y-76890595D02*
X213682914Y-76938214D01*
X213682914Y-76938214D02*
X213873390Y-76985833D01*
X213873390Y-76985833D02*
X214016247Y-76985833D01*
X214016247Y-76985833D02*
X214206723Y-76938214D01*
X214206723Y-76938214D02*
X214301961Y-76890595D01*
X214301961Y-76890595D02*
X214397200Y-76795357D01*
X214397200Y-76795357D02*
X214444819Y-76652500D01*
X214444819Y-76652500D02*
X214444819Y-76414405D01*
X213873390Y-77557262D02*
X213825771Y-77462024D01*
X213825771Y-77462024D02*
X213778152Y-77414405D01*
X213778152Y-77414405D02*
X213682914Y-77366786D01*
X213682914Y-77366786D02*
X213635295Y-77366786D01*
X213635295Y-77366786D02*
X213540057Y-77414405D01*
X213540057Y-77414405D02*
X213492438Y-77462024D01*
X213492438Y-77462024D02*
X213444819Y-77557262D01*
X213444819Y-77557262D02*
X213444819Y-77747738D01*
X213444819Y-77747738D02*
X213492438Y-77842976D01*
X213492438Y-77842976D02*
X213540057Y-77890595D01*
X213540057Y-77890595D02*
X213635295Y-77938214D01*
X213635295Y-77938214D02*
X213682914Y-77938214D01*
X213682914Y-77938214D02*
X213778152Y-77890595D01*
X213778152Y-77890595D02*
X213825771Y-77842976D01*
X213825771Y-77842976D02*
X213873390Y-77747738D01*
X213873390Y-77747738D02*
X213873390Y-77557262D01*
X213873390Y-77557262D02*
X213921009Y-77462024D01*
X213921009Y-77462024D02*
X213968628Y-77414405D01*
X213968628Y-77414405D02*
X214063866Y-77366786D01*
X214063866Y-77366786D02*
X214254342Y-77366786D01*
X214254342Y-77366786D02*
X214349580Y-77414405D01*
X214349580Y-77414405D02*
X214397200Y-77462024D01*
X214397200Y-77462024D02*
X214444819Y-77557262D01*
X214444819Y-77557262D02*
X214444819Y-77747738D01*
X214444819Y-77747738D02*
X214397200Y-77842976D01*
X214397200Y-77842976D02*
X214349580Y-77890595D01*
X214349580Y-77890595D02*
X214254342Y-77938214D01*
X214254342Y-77938214D02*
X214063866Y-77938214D01*
X214063866Y-77938214D02*
X213968628Y-77890595D01*
X213968628Y-77890595D02*
X213921009Y-77842976D01*
X213921009Y-77842976D02*
X213873390Y-77747738D01*
X195394819Y-76414405D02*
X194394819Y-76414405D01*
X194394819Y-76414405D02*
X194394819Y-76652500D01*
X194394819Y-76652500D02*
X194442438Y-76795357D01*
X194442438Y-76795357D02*
X194537676Y-76890595D01*
X194537676Y-76890595D02*
X194632914Y-76938214D01*
X194632914Y-76938214D02*
X194823390Y-76985833D01*
X194823390Y-76985833D02*
X194966247Y-76985833D01*
X194966247Y-76985833D02*
X195156723Y-76938214D01*
X195156723Y-76938214D02*
X195251961Y-76890595D01*
X195251961Y-76890595D02*
X195347200Y-76795357D01*
X195347200Y-76795357D02*
X195394819Y-76652500D01*
X195394819Y-76652500D02*
X195394819Y-76414405D01*
X194394819Y-77319167D02*
X194394819Y-77985833D01*
X194394819Y-77985833D02*
X195394819Y-77557262D01*
X176344819Y-76414405D02*
X175344819Y-76414405D01*
X175344819Y-76414405D02*
X175344819Y-76652500D01*
X175344819Y-76652500D02*
X175392438Y-76795357D01*
X175392438Y-76795357D02*
X175487676Y-76890595D01*
X175487676Y-76890595D02*
X175582914Y-76938214D01*
X175582914Y-76938214D02*
X175773390Y-76985833D01*
X175773390Y-76985833D02*
X175916247Y-76985833D01*
X175916247Y-76985833D02*
X176106723Y-76938214D01*
X176106723Y-76938214D02*
X176201961Y-76890595D01*
X176201961Y-76890595D02*
X176297200Y-76795357D01*
X176297200Y-76795357D02*
X176344819Y-76652500D01*
X176344819Y-76652500D02*
X176344819Y-76414405D01*
X175344819Y-77842976D02*
X175344819Y-77652500D01*
X175344819Y-77652500D02*
X175392438Y-77557262D01*
X175392438Y-77557262D02*
X175440057Y-77509643D01*
X175440057Y-77509643D02*
X175582914Y-77414405D01*
X175582914Y-77414405D02*
X175773390Y-77366786D01*
X175773390Y-77366786D02*
X176154342Y-77366786D01*
X176154342Y-77366786D02*
X176249580Y-77414405D01*
X176249580Y-77414405D02*
X176297200Y-77462024D01*
X176297200Y-77462024D02*
X176344819Y-77557262D01*
X176344819Y-77557262D02*
X176344819Y-77747738D01*
X176344819Y-77747738D02*
X176297200Y-77842976D01*
X176297200Y-77842976D02*
X176249580Y-77890595D01*
X176249580Y-77890595D02*
X176154342Y-77938214D01*
X176154342Y-77938214D02*
X175916247Y-77938214D01*
X175916247Y-77938214D02*
X175821009Y-77890595D01*
X175821009Y-77890595D02*
X175773390Y-77842976D01*
X175773390Y-77842976D02*
X175725771Y-77747738D01*
X175725771Y-77747738D02*
X175725771Y-77557262D01*
X175725771Y-77557262D02*
X175773390Y-77462024D01*
X175773390Y-77462024D02*
X175821009Y-77414405D01*
X175821009Y-77414405D02*
X175916247Y-77366786D01*
X157294819Y-76414405D02*
X156294819Y-76414405D01*
X156294819Y-76414405D02*
X156294819Y-76652500D01*
X156294819Y-76652500D02*
X156342438Y-76795357D01*
X156342438Y-76795357D02*
X156437676Y-76890595D01*
X156437676Y-76890595D02*
X156532914Y-76938214D01*
X156532914Y-76938214D02*
X156723390Y-76985833D01*
X156723390Y-76985833D02*
X156866247Y-76985833D01*
X156866247Y-76985833D02*
X157056723Y-76938214D01*
X157056723Y-76938214D02*
X157151961Y-76890595D01*
X157151961Y-76890595D02*
X157247200Y-76795357D01*
X157247200Y-76795357D02*
X157294819Y-76652500D01*
X157294819Y-76652500D02*
X157294819Y-76414405D01*
X156294819Y-77890595D02*
X156294819Y-77414405D01*
X156294819Y-77414405D02*
X156771009Y-77366786D01*
X156771009Y-77366786D02*
X156723390Y-77414405D01*
X156723390Y-77414405D02*
X156675771Y-77509643D01*
X156675771Y-77509643D02*
X156675771Y-77747738D01*
X156675771Y-77747738D02*
X156723390Y-77842976D01*
X156723390Y-77842976D02*
X156771009Y-77890595D01*
X156771009Y-77890595D02*
X156866247Y-77938214D01*
X156866247Y-77938214D02*
X157104342Y-77938214D01*
X157104342Y-77938214D02*
X157199580Y-77890595D01*
X157199580Y-77890595D02*
X157247200Y-77842976D01*
X157247200Y-77842976D02*
X157294819Y-77747738D01*
X157294819Y-77747738D02*
X157294819Y-77509643D01*
X157294819Y-77509643D02*
X157247200Y-77414405D01*
X157247200Y-77414405D02*
X157199580Y-77366786D01*
X138244819Y-76414405D02*
X137244819Y-76414405D01*
X137244819Y-76414405D02*
X137244819Y-76652500D01*
X137244819Y-76652500D02*
X137292438Y-76795357D01*
X137292438Y-76795357D02*
X137387676Y-76890595D01*
X137387676Y-76890595D02*
X137482914Y-76938214D01*
X137482914Y-76938214D02*
X137673390Y-76985833D01*
X137673390Y-76985833D02*
X137816247Y-76985833D01*
X137816247Y-76985833D02*
X138006723Y-76938214D01*
X138006723Y-76938214D02*
X138101961Y-76890595D01*
X138101961Y-76890595D02*
X138197200Y-76795357D01*
X138197200Y-76795357D02*
X138244819Y-76652500D01*
X138244819Y-76652500D02*
X138244819Y-76414405D01*
X137578152Y-77842976D02*
X138244819Y-77842976D01*
X137197200Y-77604881D02*
X137911485Y-77366786D01*
X137911485Y-77366786D02*
X137911485Y-77985833D01*
X119194819Y-76414405D02*
X118194819Y-76414405D01*
X118194819Y-76414405D02*
X118194819Y-76652500D01*
X118194819Y-76652500D02*
X118242438Y-76795357D01*
X118242438Y-76795357D02*
X118337676Y-76890595D01*
X118337676Y-76890595D02*
X118432914Y-76938214D01*
X118432914Y-76938214D02*
X118623390Y-76985833D01*
X118623390Y-76985833D02*
X118766247Y-76985833D01*
X118766247Y-76985833D02*
X118956723Y-76938214D01*
X118956723Y-76938214D02*
X119051961Y-76890595D01*
X119051961Y-76890595D02*
X119147200Y-76795357D01*
X119147200Y-76795357D02*
X119194819Y-76652500D01*
X119194819Y-76652500D02*
X119194819Y-76414405D01*
X118194819Y-77319167D02*
X118194819Y-77938214D01*
X118194819Y-77938214D02*
X118575771Y-77604881D01*
X118575771Y-77604881D02*
X118575771Y-77747738D01*
X118575771Y-77747738D02*
X118623390Y-77842976D01*
X118623390Y-77842976D02*
X118671009Y-77890595D01*
X118671009Y-77890595D02*
X118766247Y-77938214D01*
X118766247Y-77938214D02*
X119004342Y-77938214D01*
X119004342Y-77938214D02*
X119099580Y-77890595D01*
X119099580Y-77890595D02*
X119147200Y-77842976D01*
X119147200Y-77842976D02*
X119194819Y-77747738D01*
X119194819Y-77747738D02*
X119194819Y-77462024D01*
X119194819Y-77462024D02*
X119147200Y-77366786D01*
X119147200Y-77366786D02*
X119099580Y-77319167D01*
X105279819Y-78936905D02*
X104279819Y-78936905D01*
X104279819Y-78936905D02*
X104279819Y-79175000D01*
X104279819Y-79175000D02*
X104327438Y-79317857D01*
X104327438Y-79317857D02*
X104422676Y-79413095D01*
X104422676Y-79413095D02*
X104517914Y-79460714D01*
X104517914Y-79460714D02*
X104708390Y-79508333D01*
X104708390Y-79508333D02*
X104851247Y-79508333D01*
X104851247Y-79508333D02*
X105041723Y-79460714D01*
X105041723Y-79460714D02*
X105136961Y-79413095D01*
X105136961Y-79413095D02*
X105232200Y-79317857D01*
X105232200Y-79317857D02*
X105279819Y-79175000D01*
X105279819Y-79175000D02*
X105279819Y-78936905D01*
X104375057Y-79889286D02*
X104327438Y-79936905D01*
X104327438Y-79936905D02*
X104279819Y-80032143D01*
X104279819Y-80032143D02*
X104279819Y-80270238D01*
X104279819Y-80270238D02*
X104327438Y-80365476D01*
X104327438Y-80365476D02*
X104375057Y-80413095D01*
X104375057Y-80413095D02*
X104470295Y-80460714D01*
X104470295Y-80460714D02*
X104565533Y-80460714D01*
X104565533Y-80460714D02*
X104708390Y-80413095D01*
X104708390Y-80413095D02*
X105279819Y-79841667D01*
X105279819Y-79841667D02*
X105279819Y-80460714D01*
X218750416Y-138538330D02*
X218798035Y-138585950D01*
X218798035Y-138585950D02*
X218940892Y-138633569D01*
X218940892Y-138633569D02*
X219036130Y-138633569D01*
X219036130Y-138633569D02*
X219178987Y-138585950D01*
X219178987Y-138585950D02*
X219274225Y-138490711D01*
X219274225Y-138490711D02*
X219321844Y-138395473D01*
X219321844Y-138395473D02*
X219369463Y-138204997D01*
X219369463Y-138204997D02*
X219369463Y-138062140D01*
X219369463Y-138062140D02*
X219321844Y-137871664D01*
X219321844Y-137871664D02*
X219274225Y-137776426D01*
X219274225Y-137776426D02*
X219178987Y-137681188D01*
X219178987Y-137681188D02*
X219036130Y-137633569D01*
X219036130Y-137633569D02*
X218940892Y-137633569D01*
X218940892Y-137633569D02*
X218798035Y-137681188D01*
X218798035Y-137681188D02*
X218750416Y-137728807D01*
X218178987Y-138062140D02*
X218274225Y-138014521D01*
X218274225Y-138014521D02*
X218321844Y-137966902D01*
X218321844Y-137966902D02*
X218369463Y-137871664D01*
X218369463Y-137871664D02*
X218369463Y-137824045D01*
X218369463Y-137824045D02*
X218321844Y-137728807D01*
X218321844Y-137728807D02*
X218274225Y-137681188D01*
X218274225Y-137681188D02*
X218178987Y-137633569D01*
X218178987Y-137633569D02*
X217988511Y-137633569D01*
X217988511Y-137633569D02*
X217893273Y-137681188D01*
X217893273Y-137681188D02*
X217845654Y-137728807D01*
X217845654Y-137728807D02*
X217798035Y-137824045D01*
X217798035Y-137824045D02*
X217798035Y-137871664D01*
X217798035Y-137871664D02*
X217845654Y-137966902D01*
X217845654Y-137966902D02*
X217893273Y-138014521D01*
X217893273Y-138014521D02*
X217988511Y-138062140D01*
X217988511Y-138062140D02*
X218178987Y-138062140D01*
X218178987Y-138062140D02*
X218274225Y-138109759D01*
X218274225Y-138109759D02*
X218321844Y-138157378D01*
X218321844Y-138157378D02*
X218369463Y-138252616D01*
X218369463Y-138252616D02*
X218369463Y-138443092D01*
X218369463Y-138443092D02*
X218321844Y-138538330D01*
X218321844Y-138538330D02*
X218274225Y-138585950D01*
X218274225Y-138585950D02*
X218178987Y-138633569D01*
X218178987Y-138633569D02*
X217988511Y-138633569D01*
X217988511Y-138633569D02*
X217893273Y-138585950D01*
X217893273Y-138585950D02*
X217845654Y-138538330D01*
X217845654Y-138538330D02*
X217798035Y-138443092D01*
X217798035Y-138443092D02*
X217798035Y-138252616D01*
X217798035Y-138252616D02*
X217845654Y-138157378D01*
X217845654Y-138157378D02*
X217893273Y-138109759D01*
X217893273Y-138109759D02*
X217988511Y-138062140D01*
X232954166Y-150439580D02*
X233001785Y-150487200D01*
X233001785Y-150487200D02*
X233144642Y-150534819D01*
X233144642Y-150534819D02*
X233239880Y-150534819D01*
X233239880Y-150534819D02*
X233382737Y-150487200D01*
X233382737Y-150487200D02*
X233477975Y-150391961D01*
X233477975Y-150391961D02*
X233525594Y-150296723D01*
X233525594Y-150296723D02*
X233573213Y-150106247D01*
X233573213Y-150106247D02*
X233573213Y-149963390D01*
X233573213Y-149963390D02*
X233525594Y-149772914D01*
X233525594Y-149772914D02*
X233477975Y-149677676D01*
X233477975Y-149677676D02*
X233382737Y-149582438D01*
X233382737Y-149582438D02*
X233239880Y-149534819D01*
X233239880Y-149534819D02*
X233144642Y-149534819D01*
X233144642Y-149534819D02*
X233001785Y-149582438D01*
X233001785Y-149582438D02*
X232954166Y-149630057D01*
X232620832Y-149534819D02*
X231954166Y-149534819D01*
X231954166Y-149534819D02*
X232382737Y-150534819D01*
X233004166Y-153439580D02*
X233051785Y-153487200D01*
X233051785Y-153487200D02*
X233194642Y-153534819D01*
X233194642Y-153534819D02*
X233289880Y-153534819D01*
X233289880Y-153534819D02*
X233432737Y-153487200D01*
X233432737Y-153487200D02*
X233527975Y-153391961D01*
X233527975Y-153391961D02*
X233575594Y-153296723D01*
X233575594Y-153296723D02*
X233623213Y-153106247D01*
X233623213Y-153106247D02*
X233623213Y-152963390D01*
X233623213Y-152963390D02*
X233575594Y-152772914D01*
X233575594Y-152772914D02*
X233527975Y-152677676D01*
X233527975Y-152677676D02*
X233432737Y-152582438D01*
X233432737Y-152582438D02*
X233289880Y-152534819D01*
X233289880Y-152534819D02*
X233194642Y-152534819D01*
X233194642Y-152534819D02*
X233051785Y-152582438D01*
X233051785Y-152582438D02*
X233004166Y-152630057D01*
X232147023Y-152534819D02*
X232337499Y-152534819D01*
X232337499Y-152534819D02*
X232432737Y-152582438D01*
X232432737Y-152582438D02*
X232480356Y-152630057D01*
X232480356Y-152630057D02*
X232575594Y-152772914D01*
X232575594Y-152772914D02*
X232623213Y-152963390D01*
X232623213Y-152963390D02*
X232623213Y-153344342D01*
X232623213Y-153344342D02*
X232575594Y-153439580D01*
X232575594Y-153439580D02*
X232527975Y-153487200D01*
X232527975Y-153487200D02*
X232432737Y-153534819D01*
X232432737Y-153534819D02*
X232242261Y-153534819D01*
X232242261Y-153534819D02*
X232147023Y-153487200D01*
X232147023Y-153487200D02*
X232099404Y-153439580D01*
X232099404Y-153439580D02*
X232051785Y-153344342D01*
X232051785Y-153344342D02*
X232051785Y-153106247D01*
X232051785Y-153106247D02*
X232099404Y-153011009D01*
X232099404Y-153011009D02*
X232147023Y-152963390D01*
X232147023Y-152963390D02*
X232242261Y-152915771D01*
X232242261Y-152915771D02*
X232432737Y-152915771D01*
X232432737Y-152915771D02*
X232527975Y-152963390D01*
X232527975Y-152963390D02*
X232575594Y-153011009D01*
X232575594Y-153011009D02*
X232623213Y-153106247D01*
X208431666Y-139332080D02*
X208479285Y-139379700D01*
X208479285Y-139379700D02*
X208622142Y-139427319D01*
X208622142Y-139427319D02*
X208717380Y-139427319D01*
X208717380Y-139427319D02*
X208860237Y-139379700D01*
X208860237Y-139379700D02*
X208955475Y-139284461D01*
X208955475Y-139284461D02*
X209003094Y-139189223D01*
X209003094Y-139189223D02*
X209050713Y-138998747D01*
X209050713Y-138998747D02*
X209050713Y-138855890D01*
X209050713Y-138855890D02*
X209003094Y-138665414D01*
X209003094Y-138665414D02*
X208955475Y-138570176D01*
X208955475Y-138570176D02*
X208860237Y-138474938D01*
X208860237Y-138474938D02*
X208717380Y-138427319D01*
X208717380Y-138427319D02*
X208622142Y-138427319D01*
X208622142Y-138427319D02*
X208479285Y-138474938D01*
X208479285Y-138474938D02*
X208431666Y-138522557D01*
X207526904Y-138427319D02*
X208003094Y-138427319D01*
X208003094Y-138427319D02*
X208050713Y-138903509D01*
X208050713Y-138903509D02*
X208003094Y-138855890D01*
X208003094Y-138855890D02*
X207907856Y-138808271D01*
X207907856Y-138808271D02*
X207669761Y-138808271D01*
X207669761Y-138808271D02*
X207574523Y-138855890D01*
X207574523Y-138855890D02*
X207526904Y-138903509D01*
X207526904Y-138903509D02*
X207479285Y-138998747D01*
X207479285Y-138998747D02*
X207479285Y-139236842D01*
X207479285Y-139236842D02*
X207526904Y-139332080D01*
X207526904Y-139332080D02*
X207574523Y-139379700D01*
X207574523Y-139379700D02*
X207669761Y-139427319D01*
X207669761Y-139427319D02*
X207907856Y-139427319D01*
X207907856Y-139427319D02*
X208003094Y-139379700D01*
X208003094Y-139379700D02*
X208050713Y-139332080D01*
X208389580Y-151195833D02*
X208437200Y-151148214D01*
X208437200Y-151148214D02*
X208484819Y-151005357D01*
X208484819Y-151005357D02*
X208484819Y-150910119D01*
X208484819Y-150910119D02*
X208437200Y-150767262D01*
X208437200Y-150767262D02*
X208341961Y-150672024D01*
X208341961Y-150672024D02*
X208246723Y-150624405D01*
X208246723Y-150624405D02*
X208056247Y-150576786D01*
X208056247Y-150576786D02*
X207913390Y-150576786D01*
X207913390Y-150576786D02*
X207722914Y-150624405D01*
X207722914Y-150624405D02*
X207627676Y-150672024D01*
X207627676Y-150672024D02*
X207532438Y-150767262D01*
X207532438Y-150767262D02*
X207484819Y-150910119D01*
X207484819Y-150910119D02*
X207484819Y-151005357D01*
X207484819Y-151005357D02*
X207532438Y-151148214D01*
X207532438Y-151148214D02*
X207580057Y-151195833D01*
X207484819Y-151529167D02*
X207484819Y-152148214D01*
X207484819Y-152148214D02*
X207865771Y-151814881D01*
X207865771Y-151814881D02*
X207865771Y-151957738D01*
X207865771Y-151957738D02*
X207913390Y-152052976D01*
X207913390Y-152052976D02*
X207961009Y-152100595D01*
X207961009Y-152100595D02*
X208056247Y-152148214D01*
X208056247Y-152148214D02*
X208294342Y-152148214D01*
X208294342Y-152148214D02*
X208389580Y-152100595D01*
X208389580Y-152100595D02*
X208437200Y-152052976D01*
X208437200Y-152052976D02*
X208484819Y-151957738D01*
X208484819Y-151957738D02*
X208484819Y-151672024D01*
X208484819Y-151672024D02*
X208437200Y-151576786D01*
X208437200Y-151576786D02*
X208389580Y-151529167D01*
X225029580Y-144445833D02*
X225077200Y-144398214D01*
X225077200Y-144398214D02*
X225124819Y-144255357D01*
X225124819Y-144255357D02*
X225124819Y-144160119D01*
X225124819Y-144160119D02*
X225077200Y-144017262D01*
X225077200Y-144017262D02*
X224981961Y-143922024D01*
X224981961Y-143922024D02*
X224886723Y-143874405D01*
X224886723Y-143874405D02*
X224696247Y-143826786D01*
X224696247Y-143826786D02*
X224553390Y-143826786D01*
X224553390Y-143826786D02*
X224362914Y-143874405D01*
X224362914Y-143874405D02*
X224267676Y-143922024D01*
X224267676Y-143922024D02*
X224172438Y-144017262D01*
X224172438Y-144017262D02*
X224124819Y-144160119D01*
X224124819Y-144160119D02*
X224124819Y-144255357D01*
X224124819Y-144255357D02*
X224172438Y-144398214D01*
X224172438Y-144398214D02*
X224220057Y-144445833D01*
X224220057Y-144826786D02*
X224172438Y-144874405D01*
X224172438Y-144874405D02*
X224124819Y-144969643D01*
X224124819Y-144969643D02*
X224124819Y-145207738D01*
X224124819Y-145207738D02*
X224172438Y-145302976D01*
X224172438Y-145302976D02*
X224220057Y-145350595D01*
X224220057Y-145350595D02*
X224315295Y-145398214D01*
X224315295Y-145398214D02*
X224410533Y-145398214D01*
X224410533Y-145398214D02*
X224553390Y-145350595D01*
X224553390Y-145350595D02*
X225124819Y-144779167D01*
X225124819Y-144779167D02*
X225124819Y-145398214D01*
X225689580Y-155370833D02*
X225737200Y-155323214D01*
X225737200Y-155323214D02*
X225784819Y-155180357D01*
X225784819Y-155180357D02*
X225784819Y-155085119D01*
X225784819Y-155085119D02*
X225737200Y-154942262D01*
X225737200Y-154942262D02*
X225641961Y-154847024D01*
X225641961Y-154847024D02*
X225546723Y-154799405D01*
X225546723Y-154799405D02*
X225356247Y-154751786D01*
X225356247Y-154751786D02*
X225213390Y-154751786D01*
X225213390Y-154751786D02*
X225022914Y-154799405D01*
X225022914Y-154799405D02*
X224927676Y-154847024D01*
X224927676Y-154847024D02*
X224832438Y-154942262D01*
X224832438Y-154942262D02*
X224784819Y-155085119D01*
X224784819Y-155085119D02*
X224784819Y-155180357D01*
X224784819Y-155180357D02*
X224832438Y-155323214D01*
X224832438Y-155323214D02*
X224880057Y-155370833D01*
X225784819Y-156323214D02*
X225784819Y-155751786D01*
X225784819Y-156037500D02*
X224784819Y-156037500D01*
X224784819Y-156037500D02*
X224927676Y-155942262D01*
X224927676Y-155942262D02*
X225022914Y-155847024D01*
X225022914Y-155847024D02*
X225070533Y-155751786D01*
X89246666Y-72724819D02*
X89579999Y-72248628D01*
X89818094Y-72724819D02*
X89818094Y-71724819D01*
X89818094Y-71724819D02*
X89437142Y-71724819D01*
X89437142Y-71724819D02*
X89341904Y-71772438D01*
X89341904Y-71772438D02*
X89294285Y-71820057D01*
X89294285Y-71820057D02*
X89246666Y-71915295D01*
X89246666Y-71915295D02*
X89246666Y-72058152D01*
X89246666Y-72058152D02*
X89294285Y-72153390D01*
X89294285Y-72153390D02*
X89341904Y-72201009D01*
X89341904Y-72201009D02*
X89437142Y-72248628D01*
X89437142Y-72248628D02*
X89818094Y-72248628D01*
X88389523Y-72058152D02*
X88389523Y-72724819D01*
X88627618Y-71677200D02*
X88865713Y-72391485D01*
X88865713Y-72391485D02*
X88246666Y-72391485D01*
X84858094Y-71914819D02*
X84858094Y-72724342D01*
X84858094Y-72724342D02*
X84810475Y-72819580D01*
X84810475Y-72819580D02*
X84762856Y-72867200D01*
X84762856Y-72867200D02*
X84667618Y-72914819D01*
X84667618Y-72914819D02*
X84477142Y-72914819D01*
X84477142Y-72914819D02*
X84381904Y-72867200D01*
X84381904Y-72867200D02*
X84334285Y-72819580D01*
X84334285Y-72819580D02*
X84286666Y-72724342D01*
X84286666Y-72724342D02*
X84286666Y-71914819D01*
X83858094Y-72867200D02*
X83715237Y-72914819D01*
X83715237Y-72914819D02*
X83477142Y-72914819D01*
X83477142Y-72914819D02*
X83381904Y-72867200D01*
X83381904Y-72867200D02*
X83334285Y-72819580D01*
X83334285Y-72819580D02*
X83286666Y-72724342D01*
X83286666Y-72724342D02*
X83286666Y-72629104D01*
X83286666Y-72629104D02*
X83334285Y-72533866D01*
X83334285Y-72533866D02*
X83381904Y-72486247D01*
X83381904Y-72486247D02*
X83477142Y-72438628D01*
X83477142Y-72438628D02*
X83667618Y-72391009D01*
X83667618Y-72391009D02*
X83762856Y-72343390D01*
X83762856Y-72343390D02*
X83810475Y-72295771D01*
X83810475Y-72295771D02*
X83858094Y-72200533D01*
X83858094Y-72200533D02*
X83858094Y-72105295D01*
X83858094Y-72105295D02*
X83810475Y-72010057D01*
X83810475Y-72010057D02*
X83762856Y-71962438D01*
X83762856Y-71962438D02*
X83667618Y-71914819D01*
X83667618Y-71914819D02*
X83429523Y-71914819D01*
X83429523Y-71914819D02*
X83286666Y-71962438D01*
X82524761Y-72391009D02*
X82381904Y-72438628D01*
X82381904Y-72438628D02*
X82334285Y-72486247D01*
X82334285Y-72486247D02*
X82286666Y-72581485D01*
X82286666Y-72581485D02*
X82286666Y-72724342D01*
X82286666Y-72724342D02*
X82334285Y-72819580D01*
X82334285Y-72819580D02*
X82381904Y-72867200D01*
X82381904Y-72867200D02*
X82477142Y-72914819D01*
X82477142Y-72914819D02*
X82858094Y-72914819D01*
X82858094Y-72914819D02*
X82858094Y-71914819D01*
X82858094Y-71914819D02*
X82524761Y-71914819D01*
X82524761Y-71914819D02*
X82429523Y-71962438D01*
X82429523Y-71962438D02*
X82381904Y-72010057D01*
X82381904Y-72010057D02*
X82334285Y-72105295D01*
X82334285Y-72105295D02*
X82334285Y-72200533D01*
X82334285Y-72200533D02*
X82381904Y-72295771D01*
X82381904Y-72295771D02*
X82429523Y-72343390D01*
X82429523Y-72343390D02*
X82524761Y-72391009D01*
X82524761Y-72391009D02*
X82858094Y-72391009D01*
X81334285Y-72914819D02*
X81905713Y-72914819D01*
X81619999Y-72914819D02*
X81619999Y-71914819D01*
X81619999Y-71914819D02*
X81715237Y-72057676D01*
X81715237Y-72057676D02*
X81810475Y-72152914D01*
X81810475Y-72152914D02*
X81905713Y-72200533D01*
X74104819Y-68523333D02*
X73628628Y-68190000D01*
X74104819Y-67951905D02*
X73104819Y-67951905D01*
X73104819Y-67951905D02*
X73104819Y-68332857D01*
X73104819Y-68332857D02*
X73152438Y-68428095D01*
X73152438Y-68428095D02*
X73200057Y-68475714D01*
X73200057Y-68475714D02*
X73295295Y-68523333D01*
X73295295Y-68523333D02*
X73438152Y-68523333D01*
X73438152Y-68523333D02*
X73533390Y-68475714D01*
X73533390Y-68475714D02*
X73581009Y-68428095D01*
X73581009Y-68428095D02*
X73628628Y-68332857D01*
X73628628Y-68332857D02*
X73628628Y-67951905D01*
X73104819Y-69428095D02*
X73104819Y-68951905D01*
X73104819Y-68951905D02*
X73581009Y-68904286D01*
X73581009Y-68904286D02*
X73533390Y-68951905D01*
X73533390Y-68951905D02*
X73485771Y-69047143D01*
X73485771Y-69047143D02*
X73485771Y-69285238D01*
X73485771Y-69285238D02*
X73533390Y-69380476D01*
X73533390Y-69380476D02*
X73581009Y-69428095D01*
X73581009Y-69428095D02*
X73676247Y-69475714D01*
X73676247Y-69475714D02*
X73914342Y-69475714D01*
X73914342Y-69475714D02*
X74009580Y-69428095D01*
X74009580Y-69428095D02*
X74057200Y-69380476D01*
X74057200Y-69380476D02*
X74104819Y-69285238D01*
X74104819Y-69285238D02*
X74104819Y-69047143D01*
X74104819Y-69047143D02*
X74057200Y-68951905D01*
X74057200Y-68951905D02*
X74009580Y-68904286D01*
D11*
X69891250Y-71643750D02*
X69891250Y-69643750D01*
X65881250Y-69643750D02*
X69891250Y-69643750D01*
X65881250Y-71643750D02*
X69891250Y-71643750D01*
X226325000Y-152550000D02*
X230825000Y-152550000D01*
X226325000Y-147150000D02*
X226325000Y-152550000D01*
D10*
X82175000Y-80750000D02*
X83475000Y-80750000D01*
X83475000Y-80750000D02*
X83475000Y-77850000D01*
X83475000Y-77850000D02*
X82175000Y-77850000D01*
X82175000Y-80750000D02*
X82175000Y-77850000D01*
X211255000Y-143396250D02*
X210640000Y-143396250D01*
X210640000Y-144071250D02*
X210640000Y-143396250D01*
X220315000Y-143396250D02*
X220990000Y-143396250D01*
X220990000Y-144071250D02*
X220990000Y-143396250D01*
X210640000Y-153071250D02*
X210640000Y-153746250D01*
X211315000Y-153746250D02*
X210640000Y-153746250D01*
X220990000Y-153071250D02*
X220990000Y-153746250D01*
X220315000Y-153746250D02*
X220990000Y-153746250D01*
D11*
X211275000Y-142711250D02*
X210805000Y-143051250D01*
X210805000Y-142371250D01*
X211275000Y-142711250D01*
G36*
X211275000Y-142711250D02*
G01*
X210805000Y-143051250D01*
X210805000Y-142371250D01*
X211275000Y-142711250D01*
G37*
X251045000Y-146935000D02*
X251045000Y-149015000D01*
X250265000Y-145745000D02*
X249775000Y-145255000D01*
X246875000Y-145255000D02*
X249775000Y-145255000D01*
X250265000Y-150205000D02*
X249775000Y-150695000D01*
X246875000Y-150695000D02*
X249775000Y-150695000D01*
X246385000Y-145745000D02*
X246875000Y-145255000D01*
X246385000Y-150205000D02*
X246875000Y-150695000D01*
X245605000Y-146935000D02*
X245605000Y-149015000D01*
X242173314Y-146943750D02*
X241719186Y-146943750D01*
X242173314Y-145473750D02*
X241719186Y-145473750D01*
X213636250Y-139879564D02*
X213636250Y-139425436D01*
X215106250Y-139879564D02*
X215106250Y-139425436D01*
X211255000Y-139879564D02*
X211255000Y-139425436D01*
X212725000Y-139879564D02*
X212725000Y-139425436D01*
X206422936Y-153765000D02*
X206877064Y-153765000D01*
X206422936Y-155235000D02*
X206877064Y-155235000D01*
D12*
X253925000Y-144420000D02*
X251425000Y-144420000D01*
X251425000Y-144420000D02*
X251425000Y-139420000D01*
X251425000Y-139420000D02*
X253925000Y-139420000D01*
X253925000Y-139420000D02*
X253925000Y-144420000D01*
D11*
X79040000Y-83064564D02*
X79040000Y-81860436D01*
X80860000Y-83064564D02*
X80860000Y-81860436D01*
X343387500Y-151702500D02*
X343387500Y-155712500D01*
X345387500Y-151702500D02*
X345387500Y-155712500D01*
X343387500Y-155712500D02*
X345387500Y-155712500D01*
X319257500Y-152082500D02*
X319257500Y-156092500D01*
X321257500Y-152082500D02*
X321257500Y-156092500D01*
X319257500Y-156092500D02*
X321257500Y-156092500D01*
X295127500Y-151702500D02*
X295127500Y-155712500D01*
X297127500Y-151702500D02*
X297127500Y-155712500D01*
X295127500Y-155712500D02*
X297127500Y-155712500D01*
X270997500Y-151702500D02*
X270997500Y-155712500D01*
X272997500Y-151702500D02*
X272997500Y-155712500D01*
X270997500Y-155712500D02*
X272997500Y-155712500D01*
X199877500Y-152082500D02*
X199877500Y-156092500D01*
X201877500Y-152082500D02*
X201877500Y-156092500D01*
X199877500Y-156092500D02*
X201877500Y-156092500D01*
X128757500Y-151702500D02*
X128757500Y-155712500D01*
X130757500Y-151702500D02*
X130757500Y-155712500D01*
X128757500Y-155712500D02*
X130757500Y-155712500D01*
X104627500Y-151702500D02*
X104627500Y-155712500D01*
X106627500Y-151702500D02*
X106627500Y-155712500D01*
X104627500Y-155712500D02*
X106627500Y-155712500D01*
X80497500Y-151702500D02*
X80497500Y-155712500D01*
X82497500Y-151702500D02*
X82497500Y-155712500D01*
X80497500Y-155712500D02*
X82497500Y-155712500D01*
X328147500Y-132652500D02*
X328147500Y-136662500D01*
X330147500Y-132652500D02*
X330147500Y-136662500D01*
X328147500Y-136662500D02*
X330147500Y-136662500D01*
X292587500Y-133032500D02*
X292587500Y-137042500D01*
X294587500Y-133032500D02*
X294587500Y-137042500D01*
X292587500Y-137042500D02*
X294587500Y-137042500D01*
X273537500Y-132652500D02*
X273537500Y-136662500D01*
X275537500Y-132652500D02*
X275537500Y-136662500D01*
X273537500Y-136662500D02*
X275537500Y-136662500D01*
X254487500Y-132652500D02*
X254487500Y-136662500D01*
X256487500Y-132652500D02*
X256487500Y-136662500D01*
X254487500Y-136662500D02*
X256487500Y-136662500D01*
X235437500Y-132652500D02*
X235437500Y-136662500D01*
X237437500Y-132652500D02*
X237437500Y-136662500D01*
X235437500Y-136662500D02*
X237437500Y-136662500D01*
X216387500Y-132652500D02*
X216387500Y-136662500D01*
X218387500Y-132652500D02*
X218387500Y-136662500D01*
X216387500Y-136662500D02*
X218387500Y-136662500D01*
X197337500Y-132652500D02*
X197337500Y-136662500D01*
X199337500Y-132652500D02*
X199337500Y-136662500D01*
X197337500Y-136662500D02*
X199337500Y-136662500D01*
X178287500Y-132652500D02*
X178287500Y-136662500D01*
X180287500Y-132652500D02*
X180287500Y-136662500D01*
X178287500Y-136662500D02*
X180287500Y-136662500D01*
X159237500Y-132652500D02*
X159237500Y-136662500D01*
X161237500Y-132652500D02*
X161237500Y-136662500D01*
X159237500Y-136662500D02*
X161237500Y-136662500D01*
X140187500Y-132652500D02*
X140187500Y-136662500D01*
X142187500Y-132652500D02*
X142187500Y-136662500D01*
X140187500Y-136662500D02*
X142187500Y-136662500D01*
X121137500Y-132652500D02*
X121137500Y-136662500D01*
X123137500Y-132652500D02*
X123137500Y-136662500D01*
X121137500Y-136662500D02*
X123137500Y-136662500D01*
X89387500Y-132652500D02*
X89387500Y-136662500D01*
X91387500Y-132652500D02*
X91387500Y-136662500D01*
X89387500Y-136662500D02*
X91387500Y-136662500D01*
X331957500Y-113602500D02*
X331957500Y-117612500D01*
X333957500Y-113602500D02*
X333957500Y-117612500D01*
X331957500Y-117612500D02*
X333957500Y-117612500D01*
X301477500Y-113602500D02*
X301477500Y-117612500D01*
X303477500Y-113602500D02*
X303477500Y-117612500D01*
X301477500Y-117612500D02*
X303477500Y-117612500D01*
X282427500Y-113602500D02*
X282427500Y-117612500D01*
X284427500Y-113602500D02*
X284427500Y-117612500D01*
X282427500Y-117612500D02*
X284427500Y-117612500D01*
X263377500Y-113602500D02*
X263377500Y-117612500D01*
X265377500Y-113602500D02*
X265377500Y-117612500D01*
X263377500Y-117612500D02*
X265377500Y-117612500D01*
X244327500Y-113602500D02*
X244327500Y-117612500D01*
X246327500Y-113602500D02*
X246327500Y-117612500D01*
X244327500Y-117612500D02*
X246327500Y-117612500D01*
X225277500Y-113602500D02*
X225277500Y-117612500D01*
X227277500Y-113602500D02*
X227277500Y-117612500D01*
X225277500Y-117612500D02*
X227277500Y-117612500D01*
X206227500Y-113602500D02*
X206227500Y-117612500D01*
X208227500Y-113602500D02*
X208227500Y-117612500D01*
X206227500Y-117612500D02*
X208227500Y-117612500D01*
X187177500Y-113602500D02*
X187177500Y-117612500D01*
X189177500Y-113602500D02*
X189177500Y-117612500D01*
X187177500Y-117612500D02*
X189177500Y-117612500D01*
X168127500Y-113602500D02*
X168127500Y-117612500D01*
X170127500Y-113602500D02*
X170127500Y-117612500D01*
X168127500Y-117612500D02*
X170127500Y-117612500D01*
X149077500Y-117612500D02*
X151077500Y-117612500D01*
X151077500Y-113602500D02*
X151077500Y-117612500D01*
X149077500Y-113602500D02*
X149077500Y-117612500D01*
X130027500Y-113602500D02*
X130027500Y-117612500D01*
X132027500Y-113602500D02*
X132027500Y-117612500D01*
X130027500Y-117612500D02*
X132027500Y-117612500D01*
X110977500Y-113602500D02*
X110977500Y-117612500D01*
X112977500Y-113602500D02*
X112977500Y-117612500D01*
X110977500Y-117612500D02*
X112977500Y-117612500D01*
X84307500Y-113602500D02*
X84307500Y-117612500D01*
X86307500Y-113602500D02*
X86307500Y-117612500D01*
X84307500Y-117612500D02*
X86307500Y-117612500D01*
X339577500Y-94552500D02*
X339577500Y-98562500D01*
X341577500Y-94552500D02*
X341577500Y-98562500D01*
X339577500Y-98562500D02*
X341577500Y-98562500D01*
X315765000Y-94552500D02*
X315765000Y-98562500D01*
X317765000Y-94552500D02*
X317765000Y-98562500D01*
X315765000Y-98562500D02*
X317765000Y-98562500D01*
X296715000Y-94552500D02*
X296715000Y-98562500D01*
X298715000Y-94552500D02*
X298715000Y-98562500D01*
X296715000Y-98562500D02*
X298715000Y-98562500D01*
X277665000Y-94552500D02*
X277665000Y-98562500D01*
X279665000Y-94552500D02*
X279665000Y-98562500D01*
X277665000Y-98562500D02*
X279665000Y-98562500D01*
X258615000Y-94552500D02*
X258615000Y-98562500D01*
X260615000Y-94552500D02*
X260615000Y-98562500D01*
X258615000Y-98562500D02*
X260615000Y-98562500D01*
X239565000Y-94552500D02*
X239565000Y-98562500D01*
X241565000Y-94552500D02*
X241565000Y-98562500D01*
X239565000Y-98562500D02*
X241565000Y-98562500D01*
X220515000Y-94552500D02*
X220515000Y-98562500D01*
X222515000Y-94552500D02*
X222515000Y-98562500D01*
X220515000Y-98562500D02*
X222515000Y-98562500D01*
X201465000Y-94552500D02*
X201465000Y-98562500D01*
X203465000Y-94552500D02*
X203465000Y-98562500D01*
X201465000Y-98562500D02*
X203465000Y-98562500D01*
X182415000Y-94552500D02*
X182415000Y-98562500D01*
X184415000Y-94552500D02*
X184415000Y-98562500D01*
X182415000Y-98562500D02*
X184415000Y-98562500D01*
X163365000Y-94552500D02*
X163365000Y-98562500D01*
X165365000Y-94552500D02*
X165365000Y-98562500D01*
X163365000Y-98562500D02*
X165365000Y-98562500D01*
X144315000Y-94552500D02*
X144315000Y-98562500D01*
X146315000Y-94552500D02*
X146315000Y-98562500D01*
X144315000Y-98562500D02*
X146315000Y-98562500D01*
X125265000Y-94552500D02*
X125265000Y-98562500D01*
X127265000Y-94552500D02*
X127265000Y-98562500D01*
X125265000Y-98562500D02*
X127265000Y-98562500D01*
X106215000Y-94552500D02*
X106215000Y-98562500D01*
X108215000Y-94552500D02*
X108215000Y-98562500D01*
X106215000Y-98562500D02*
X108215000Y-98562500D01*
X82402500Y-94552500D02*
X82402500Y-98562500D01*
X84402500Y-94552500D02*
X84402500Y-98562500D01*
X82402500Y-98562500D02*
X84402500Y-98562500D01*
X334815000Y-75502500D02*
X334815000Y-79512500D01*
X336815000Y-75502500D02*
X336815000Y-79512500D01*
X334815000Y-79512500D02*
X336815000Y-79512500D01*
X306240000Y-75502500D02*
X306240000Y-79512500D01*
X308240000Y-75502500D02*
X308240000Y-79512500D01*
X306240000Y-79512500D02*
X308240000Y-79512500D01*
X287190000Y-75502500D02*
X287190000Y-79512500D01*
X289190000Y-75502500D02*
X289190000Y-79512500D01*
X287190000Y-79512500D02*
X289190000Y-79512500D01*
X268140000Y-75502500D02*
X268140000Y-79512500D01*
X270140000Y-75502500D02*
X270140000Y-79512500D01*
X268140000Y-79512500D02*
X270140000Y-79512500D01*
X249090000Y-75502500D02*
X249090000Y-79512500D01*
X251090000Y-75502500D02*
X251090000Y-79512500D01*
X249090000Y-79512500D02*
X251090000Y-79512500D01*
X230040000Y-75502500D02*
X230040000Y-79512500D01*
X232040000Y-75502500D02*
X232040000Y-79512500D01*
X230040000Y-79512500D02*
X232040000Y-79512500D01*
X210990000Y-75502500D02*
X210990000Y-79512500D01*
X212990000Y-75502500D02*
X212990000Y-79512500D01*
X210990000Y-79512500D02*
X212990000Y-79512500D01*
X191940000Y-75502500D02*
X191940000Y-79512500D01*
X193940000Y-75502500D02*
X193940000Y-79512500D01*
X191940000Y-79512500D02*
X193940000Y-79512500D01*
X172890000Y-75502500D02*
X172890000Y-79512500D01*
X174890000Y-75502500D02*
X174890000Y-79512500D01*
X172890000Y-79512500D02*
X174890000Y-79512500D01*
X153840000Y-75502500D02*
X153840000Y-79512500D01*
X155840000Y-75502500D02*
X155840000Y-79512500D01*
X153840000Y-79512500D02*
X155840000Y-79512500D01*
X134790000Y-75502500D02*
X134790000Y-79512500D01*
X136790000Y-75502500D02*
X136790000Y-79512500D01*
X134790000Y-79512500D02*
X136790000Y-79512500D01*
X115740000Y-79512500D02*
X117740000Y-79512500D01*
X117740000Y-75502500D02*
X117740000Y-79512500D01*
X115740000Y-75502500D02*
X115740000Y-79512500D01*
X101825000Y-82035000D02*
X103825000Y-82035000D01*
X103825000Y-78025000D02*
X103825000Y-82035000D01*
X101825000Y-78025000D02*
X101825000Y-82035000D01*
X218322498Y-139123750D02*
X218845002Y-139123750D01*
X218322498Y-140593750D02*
X218845002Y-140593750D01*
X233048752Y-149135000D02*
X232526248Y-149135000D01*
X233048752Y-147665000D02*
X232526248Y-147665000D01*
X233098752Y-150665000D02*
X232576248Y-150665000D01*
X233098752Y-152135000D02*
X232576248Y-152135000D01*
X208003748Y-139917500D02*
X208526252Y-139917500D01*
X208003748Y-141387500D02*
X208526252Y-141387500D01*
X207085000Y-151101248D02*
X207085000Y-151623752D01*
X205615000Y-151101248D02*
X205615000Y-151623752D01*
X225615000Y-144873752D02*
X225615000Y-144351248D01*
X227085000Y-144873752D02*
X227085000Y-144351248D01*
X224385000Y-155276248D02*
X224385000Y-155798752D01*
X222915000Y-155276248D02*
X222915000Y-155798752D01*
X89307064Y-71355000D02*
X88852936Y-71355000D01*
X89307064Y-69885000D02*
X88852936Y-69885000D01*
X76035000Y-68917064D02*
X76035000Y-68462936D01*
X74565000Y-68917064D02*
X74565000Y-68462936D01*
M02*
