M48
; DRILL file {KiCad 8.0.7} date 2024-12-18T17:00:17-0500
; FORMAT={-:-/ absolute / inch / decimal}
; #@! TF.CreationDate,2024-12-18T17:00:17-05:00
; #@! TF.GenerationSoftware,Kicad,Pcbnew,8.0.7
; #@! TF.FileFunction,NonPlated,1,2,NPTH
FMAT,2
INCH
; #@! TA.AperFunction,NonPlated,NPTH,ComponentDrill
T1C0.0256
; #@! TA.AperFunction,NonPlated,NPTH,ComponentDrill
T2C0.0670
; #@! TA.AperFunction,NonPlated,NPTH,ComponentDrill
T3C0.1181
; #@! TA.AperFunction,NonPlated,NPTH,ComponentDrill
T4C0.1200
; #@! TA.AperFunction,NonPlated,NPTH,ComponentDrill
T5C0.1570
%
G90
G05
T1
X3.1311Y-2.7033
X3.3587Y-2.7033
T2
X2.6773Y-2.8813
X2.7711Y-5.8812
X2.8648Y-3.6313
X2.9586Y-4.3812
X3.0773Y-2.8813
X3.1437Y-5.1312
X3.1711Y-5.8812
X3.2648Y-3.6313
X3.3586Y-4.3812
X3.4273Y-2.8813
X3.5437Y-5.1312
X3.7086Y-5.8812
X3.8023Y-3.6313
X3.8273Y-2.8813
X3.9898Y-4.3812
X4.1086Y-5.8812
X4.1773Y-2.8813
X4.2023Y-3.6313
X4.3648Y-5.1312
X4.3898Y-4.3812
X4.5523Y-3.6313
X4.5773Y-2.8813
X4.6461Y-5.8812
X4.7398Y-4.3812
X4.7648Y-5.1312
X4.9273Y-2.8813
X4.9523Y-3.6313
X5.0461Y-5.8812
X5.1148Y-5.1312
X5.1398Y-4.3812
X5.3023Y-3.6313
X5.3273Y-2.8813
X5.4898Y-4.3812
X5.5148Y-5.1312
X5.6773Y-2.8813
X5.7023Y-3.6313
X5.8648Y-5.1312
X5.8898Y-4.3812
X6.0523Y-3.6313
X6.0773Y-2.8813
X6.2398Y-4.3812
X6.2648Y-5.1312
X6.4273Y-2.8813
X6.4523Y-3.6313
X6.6148Y-5.1312
X6.6398Y-4.3812
X6.8023Y-3.6313
X6.8273Y-2.8813
X6.9898Y-4.3812
X7.0148Y-5.1312
X7.1773Y-2.8813
X7.2023Y-3.6313
X7.3648Y-5.1312
X7.3898Y-4.3812
X7.4586Y-5.8812
X7.5523Y-3.6313
X7.5773Y-2.8813
X7.7398Y-4.3812
X7.7648Y-5.1312
X7.8586Y-5.8812
X7.9273Y-2.8813
X7.9523Y-3.6313
X8.1148Y-5.1312
X8.1398Y-4.3812
X8.3023Y-3.6313
X8.3273Y-2.8813
X8.4898Y-4.3812
X8.5148Y-5.1312
X8.6773Y-2.8813
X8.7023Y-3.6313
X8.8648Y-5.1312
X8.8898Y-4.3812
X9.0523Y-3.6313
X9.0773Y-2.8813
X9.2398Y-4.3812
X9.2648Y-5.1312
X9.4273Y-2.8813
X9.4523Y-3.6313
X9.6148Y-5.1312
X9.6398Y-4.3812
X9.8023Y-3.6313
X9.8273Y-2.8813
X9.9898Y-4.3812
X10.0148Y-5.1312
X10.1773Y-2.8813
X10.2023Y-3.6313
X10.2711Y-5.8812
X10.3648Y-5.1312
X10.3898Y-4.3812
X10.5523Y-3.6313
X10.5773Y-2.8813
X10.6711Y-5.8812
X10.7398Y-4.3812
X10.7648Y-5.1312
X10.9273Y-2.8813
X10.9523Y-3.6313
X11.1148Y-5.1312
X11.1398Y-4.3812
X11.2086Y-5.8812
X11.3023Y-3.6313
X11.3273Y-2.8813
X11.4898Y-4.3812
X11.5148Y-5.1312
X11.6086Y-5.8812
X11.6773Y-2.8813
X11.7023Y-3.6313
X11.8898Y-4.3812
X12.0523Y-3.6313
X12.0773Y-2.8813
X12.1461Y-5.8812
X12.4523Y-3.6313
X12.5211Y-5.1312
X12.5461Y-5.8812
X12.7086Y-4.3812
X12.8023Y-2.8813
X12.9211Y-5.1312
X12.9898Y-3.6313
X13.0836Y-5.8812
X13.1086Y-4.3812
X13.2023Y-2.8813
X13.3898Y-3.6313
X13.4836Y-5.8812
T3
X2.7773Y-3.0812
X2.8211Y-5.7812
X2.9148Y-3.5312
X3.0086Y-4.2812
X3.0273Y-2.9812
X3.0711Y-5.6812
X3.1648Y-3.4312
X3.1938Y-5.0312
X3.2586Y-4.1812
X3.4438Y-4.9312
X3.5273Y-3.0812
X3.7586Y-5.7812
X3.7773Y-2.9812
X3.8523Y-3.5312
X4.0086Y-5.6812
X4.0398Y-4.2812
X4.1023Y-3.4312
X4.2273Y-2.7812
X4.2898Y-4.1812
X4.4148Y-5.0312
X4.4773Y-2.6812
X4.6023Y-3.5312
X4.6648Y-4.9312
X4.6961Y-5.7812
X4.7898Y-4.2812
X4.8523Y-3.4312
X4.9461Y-5.6812
X4.9773Y-2.7812
X5.0398Y-4.1812
X5.1648Y-5.0312
X5.2273Y-2.6812
X5.3523Y-3.5312
X5.4148Y-4.9312
X5.5398Y-4.2812
X5.6023Y-3.4312
X5.7273Y-2.7812
X5.7898Y-4.1812
X5.9148Y-5.0312
X5.9773Y-2.6812
X6.1023Y-3.5312
X6.1648Y-4.9312
X6.2898Y-4.2812
X6.3523Y-3.4312
X6.4773Y-2.7812
X6.5398Y-4.1812
X6.6648Y-5.0312
X6.7273Y-2.6812
X6.8523Y-3.5312
X6.9148Y-4.9312
X7.0398Y-4.2812
X7.1023Y-3.4312
X7.2273Y-2.7812
X7.2898Y-4.1812
X7.4148Y-5.0312
X7.4773Y-2.6812
X7.5086Y-5.7812
X7.6023Y-3.5312
X7.6648Y-4.9312
X7.7586Y-5.6812
X7.7898Y-4.2812
X7.8523Y-3.4312
X7.9773Y-2.7812
X8.0398Y-4.1812
X8.1648Y-5.0312
X8.2273Y-2.6812
X8.3523Y-3.5312
X8.4148Y-4.9312
X8.5398Y-4.2812
X8.6023Y-3.4312
X8.7273Y-2.7812
X8.7898Y-4.1812
X8.9148Y-5.0312
X8.9773Y-2.6812
X9.1023Y-3.5312
X9.1648Y-4.9312
X9.2898Y-4.2812
X9.3523Y-3.4312
X9.4773Y-2.7812
X9.5398Y-4.1812
X9.6648Y-5.0312
X9.7273Y-2.6812
X9.8523Y-3.5312
X9.9148Y-4.9312
X10.0398Y-4.2812
X10.1023Y-3.4312
X10.2273Y-2.7812
X10.2898Y-4.1812
X10.3211Y-5.7812
X10.4148Y-5.0312
X10.4773Y-2.6812
X10.5711Y-5.6812
X10.6023Y-3.5312
X10.6648Y-4.9312
X10.7898Y-4.2812
X10.8523Y-3.4312
X10.9773Y-2.7812
X11.0398Y-4.1812
X11.1648Y-5.0312
X11.2273Y-2.6812
X11.2586Y-5.7812
X11.3523Y-3.5312
X11.4148Y-4.9312
X11.5086Y-5.6812
X11.5398Y-4.2812
X11.6023Y-3.4312
X11.7273Y-2.7812
X11.7898Y-4.1812
X11.9773Y-2.6812
X12.1023Y-3.5312
X12.1961Y-5.7812
X12.3523Y-3.4312
X12.4461Y-5.6812
X12.5711Y-5.0312
X12.7586Y-4.2812
X12.8211Y-4.9312
X12.8523Y-2.7812
X13.0086Y-4.1812
X13.0398Y-3.5312
X13.1023Y-2.6812
X13.1336Y-5.7812
X13.2898Y-3.4312
X13.3836Y-5.6812
T4
X2.8737Y-4.8563
X3.8137Y-4.8563
X5.6901Y-6.1562
X9.6271Y-6.1562
X12.2511Y-4.8563
X12.4386Y-4.1063
X12.5323Y-2.6062
X13.1911Y-4.8563
X13.3786Y-4.1063
X13.4723Y-2.6062
T5
X2.8737Y-5.4562
X2.8773Y-2.8813
X2.9711Y-5.8812
X3.0648Y-3.6313
X3.1586Y-4.3812
X3.3438Y-5.1312
X3.6273Y-2.8813
X3.8137Y-5.4562
X3.9086Y-5.8812
X4.0023Y-3.6313
X4.1898Y-4.3812
X4.3773Y-2.8813
X4.5648Y-5.1312
X4.7523Y-3.6313
X4.8461Y-5.8812
X4.9398Y-4.3812
X5.1273Y-2.8813
X5.3148Y-5.1312
X5.5023Y-3.6313
X5.6898Y-4.3812
X5.6901Y-5.5562
X5.8773Y-2.8813
X6.0648Y-5.1312
X6.2523Y-3.6313
X6.4398Y-4.3812
X6.6273Y-2.8813
X6.8148Y-5.1312
X7.0023Y-3.6313
X7.1898Y-4.3812
X7.3773Y-2.8813
X7.5648Y-5.1312
X7.6586Y-5.8812
X7.7523Y-3.6313
X7.9398Y-4.3812
X8.1273Y-2.8813
X8.3148Y-5.1312
X8.5023Y-3.6313
X8.6898Y-4.3812
X8.8773Y-2.8813
X9.0648Y-5.1312
X9.2523Y-3.6313
X9.4398Y-4.3812
X9.6271Y-5.5562
X9.6273Y-2.8813
X9.8148Y-5.1312
X10.0023Y-3.6313
X10.1898Y-4.3812
X10.3773Y-2.8813
X10.4711Y-5.8812
X10.5648Y-5.1312
X10.7523Y-3.6313
X10.9398Y-4.3812
X11.1273Y-2.8813
X11.3148Y-5.1312
X11.4086Y-5.8812
X11.5023Y-3.6313
X11.6898Y-4.3812
X11.8773Y-2.8813
X12.2511Y-5.4562
X12.2523Y-3.6313
X12.3461Y-5.8812
X12.4386Y-4.7062
X12.5323Y-3.2062
X12.7211Y-5.1312
X12.9086Y-4.3812
X13.0023Y-2.8813
X13.1898Y-3.6313
X13.1911Y-5.4562
X13.2836Y-5.8812
X13.3786Y-4.7062
X13.4723Y-3.2062
M30
