M48
; DRILL file {KiCad 8.0.7} date 2024-12-18T17:00:17-0500
; FORMAT={-:-/ absolute / inch / decimal}
; #@! TF.CreationDate,2024-12-18T17:00:17-05:00
; #@! TF.GenerationSoftware,Kicad,Pcbnew,8.0.7
; #@! TF.FileFunction,Plated,1,2,PTH
FMAT,2
INCH
; #@! TA.AperFunction,Plated,PTH,ViaDrill
T1C0.0157
; #@! TA.AperFunction,Plated,PTH,ComponentDrill
T2C0.0236
; #@! TA.AperFunction,Plated,PTH,ComponentDrill
T3C0.0394
%
G90
G05
T1
X2.6562Y-3.0938
X3.0925Y-3.1152
X3.1586Y-2.8844
X3.1875Y-5.6875
X3.2402Y-3.2667
X3.3002Y-3.0925
X3.3131Y-3.4381
X3.3276Y-2.8846
X3.3886Y-4.1812
X3.4062Y-3.0938
X3.5737Y-4.9312
X3.6348Y-3.8484
X3.6427Y-4.6024
X3.6476Y-5.3533
X3.7638Y-3.9094
X3.7746Y-4.6043
X3.7992Y-5.2087
X3.8789Y-3.2136
X4.1386Y-5.6812
X4.2389Y-3.4264
X4.4062Y-4.1811
X4.625Y-2.6875
X4.7812Y-4.9375
X5.0Y-3.4375
X5.0761Y-5.6812
X5.189Y-4.189
X5.2579Y-5.9124
X5.3691Y-5.8356
X5.3701Y-5.9537
X5.375Y-2.6875
X5.562Y-4.938
X5.7313Y-6.003
X5.7323Y-3.4312
X5.7677Y-6.1122
X5.9198Y-4.1812
X5.9429Y-6.2146
X6.125Y-2.6875
X6.2948Y-4.9312
X6.3386Y-5.5787
X6.3538Y-5.7426
X6.4774Y-3.436
X6.4783Y-5.436
X6.5837Y-5.3967
X6.6875Y-4.1875
X6.8438Y-2.6875
X7.0448Y-4.9312
X7.25Y-3.435
X7.2638Y-5.436
X7.2648Y-5.5364
X7.2648Y-5.7402
X7.378Y-5.3937
X7.4375Y-4.187
X7.5938Y-2.6562
X7.7037Y-5.436
X7.7825Y-5.5207
X7.7948Y-4.9312
X7.8159Y-5.435
X7.8886Y-5.6812
X7.8947Y-5.3563
X7.9086Y-6.1174
X7.9488Y-5.8346
X7.9616Y-3.9685
X7.9688Y-3.436
X8.0059Y-6.0876
X8.0207Y-5.9823
X8.0384Y-5.4537
X8.0433Y-6.1575
X8.065Y-5.3504
X8.0974Y-5.4567
X8.1496Y-5.3307
X8.1562Y-4.185
X8.1594Y-5.4931
X8.1713Y-4.6841
X8.203Y-5.5798
X8.2067Y-5.9124
X8.253Y-5.5994
X8.3461Y-3.1025
X8.375Y-2.6875
X8.4114Y-5.7185
X8.4363Y-5.686
X8.4459Y-6.2116
X8.5098Y-5.5059
X8.5285Y-5.6841
X8.5512Y-5.747
X8.5625Y-4.9291
X8.6447Y-5.752
X8.75Y-3.4375
X8.7835Y-5.6053
X8.8701Y-5.9498
X8.873Y-6.1654
X8.8809Y-6.0039
X8.935Y-6.0325
X8.9375Y-4.1875
X9.0059Y-5.501
X9.0938Y-2.6875
X9.1339Y-5.4459
X9.2205Y-5.4606
X9.2274Y-5.7313
X9.3125Y-4.9375
X9.4823Y-3.4312
X9.4861Y-5.7559
X9.5098Y-5.4134
X9.5571Y-5.4636
X9.6875Y-4.1875
X9.8337Y-5.2933
X9.8438Y-2.6562
X10.0312Y-4.9375
X10.0492Y-6.0748
X10.1463Y-5.3055
X10.2208Y-3.4396
X10.4062Y-4.1875
X10.6083Y-6.1043
X10.625Y-2.6875
X10.6875Y-5.6875
X10.7812Y-4.9375
X10.9699Y-3.4386
X11.1591Y-4.1903
X11.375Y-2.6875
X11.5187Y-6.0512
X11.5625Y-4.9331
X11.6562Y-5.6875
X11.7189Y-3.4376
X11.9375Y-4.1841
X12.0938Y-2.6875
X12.4738Y-3.4425
X12.5938Y-5.6562
X12.7766Y-6.1663
X12.9395Y-4.9355
X13.1395Y-4.173
X13.25Y-2.6875
X13.4355Y-3.4395
X13.5136Y-5.6812
T3
X9.9463Y-5.5374
X9.9463Y-5.6374
X10.0463Y-5.5374
X10.0463Y-5.6374
X10.1463Y-5.5374
X10.1463Y-5.6374
T2
G00X3.0748Y-2.5478
M15
G01X3.0748Y-2.5715
M16
G05
G00X3.0748Y-2.7026
M15
G01X3.0748Y-2.7459
M16
G05
G00X3.415Y-2.5478
M15
G01X3.415Y-2.5715
M16
G05
G00X3.415Y-2.7026
M15
G01X3.415Y-2.7459
M16
G05
M30
