M48
; DRILL file {KiCad 8.0.7} date 2024-12-21T12:12:03-0500
; FORMAT={-:-/ absolute / inch / decimal}
; #@! TF.CreationDate,2024-12-21T12:12:03-05:00
; #@! TF.GenerationSoftware,Kicad,Pcbnew,8.0.7
; #@! TF.FileFunction,Plated,1,2,PTH
FMAT,2
INCH
; #@! TA.AperFunction,Plated,PTH,ViaDrill
T1C0.0157
; #@! TA.AperFunction,Plated,PTH,ComponentDrill
T2C0.0236
; #@! TA.AperFunction,Plated,PTH,ComponentDrill
T3C0.0394
; #@! TA.AperFunction,Plated,PTH,ComponentDrill
T4C0.0866
%
G90
G05
T1
X2.6562Y-3.25
X3.0925Y-3.1152
X3.1586Y-2.8844
X3.1988Y-5.8071
X3.25Y-3.3438
X3.284Y-3.3105
X3.3276Y-2.8846
X3.3366Y-5.5384
X3.375Y-3.1875
X3.375Y-3.5
X3.375Y-4.0312
X3.4375Y-4.2812
X3.5312Y-3.2188
X3.5625Y-5.0312
X3.5737Y-4.8125
X3.6348Y-3.8484
X3.6427Y-4.6024
X3.6476Y-5.3533
X3.6875Y-3.3125
X3.7638Y-3.8438
X3.7746Y-4.6043
X3.7992Y-5.2087
X3.8657Y-3.2003
X4.375Y-3.625
X4.375Y-5.5938
X4.42Y-4.028
X4.704Y-2.798
X4.7812Y-4.5625
X4.7812Y-4.75
X4.8125Y-5.0625
X4.982Y-3.28
X4.982Y-3.566
X5.17Y-3.962
X5.1875Y-5.5938
X5.2579Y-5.9124
X5.2812Y-4.2812
X5.3691Y-5.8356
X5.3701Y-5.9537
X5.5625Y-4.6875
X5.5625Y-5.0625
X5.572Y-2.978
X5.7313Y-6.003
X5.732Y-3.262
X5.7677Y-6.1122
X5.894Y-3.7
X5.92Y-3.998
X5.9429Y-6.2146
X6.12Y-2.802
X6.134Y-4.49
X6.294Y-4.78
X6.3386Y-5.5787
X6.3538Y-5.7426
X6.47Y-5.212
X6.4783Y-5.436
X6.48Y-3.282
X6.488Y-3.556
X6.5837Y-5.3967
X6.67Y-4.034
X6.67Y-4.308
X6.96Y-2.804
X7.0448Y-4.7952
X7.162Y-5.05
X7.2323Y-3.316
X7.2638Y-5.436
X7.2648Y-5.5364
X7.2648Y-5.7402
X7.378Y-5.3937
X7.42Y-3.99
X7.422Y-3.702
X7.516Y-4.4
X7.7037Y-5.436
X7.7825Y-5.5207
X7.794Y-4.77
X7.8159Y-5.435
X7.868Y-3.028
X7.894Y-5.076
X7.8947Y-5.3563
X7.9488Y-5.8346
X7.9616Y-3.9685
X7.982Y-3.182
X7.992Y-6.1174
X7.994Y-6.052
X8.006Y-5.698
X8.0207Y-5.9823
X8.0384Y-5.4537
X8.0433Y-6.1575
X8.065Y-5.3504
X8.0974Y-5.4567
X8.1496Y-5.3307
X8.154Y-5.462
X8.1562Y-3.625
X8.1586Y-5.6142
X8.17Y-4.012
X8.1713Y-4.6841
X8.2067Y-5.9124
X8.253Y-5.5994
X8.346Y-3.264
X8.386Y-4.5
X8.4114Y-5.7185
X8.4363Y-5.686
X8.4459Y-6.2116
X8.5098Y-5.5059
X8.5285Y-5.6841
X8.546Y-4.774
X8.5512Y-5.747
X8.562Y-5.048
X8.6447Y-5.752
X8.652Y-3.062
X8.732Y-3.264
X8.7835Y-5.6053
X8.802Y-3.59
X8.8701Y-5.9498
X8.873Y-6.1654
X8.8809Y-6.0039
X8.8858Y-5.8445
X8.908Y-6.0325
X8.92Y-3.978
X9.0059Y-5.501
X9.116Y-4.486
X9.1339Y-5.4459
X9.176Y-2.838
X9.208Y-5.174
X9.2205Y-5.4606
X9.228Y-5.75
X9.2638Y-5.9606
X9.2669Y-5.8417
X9.296Y-4.68
X9.484Y-3.264
X9.4861Y-5.7559
X9.5098Y-5.4134
X9.524Y-3.574
X9.5571Y-5.4636
X9.672Y-3.998
X9.78Y-4.28
X9.8337Y-5.2933
X9.942Y-5.142
X10.0448Y-4.8188
X10.0492Y-6.0748
X10.084Y-3.032
X10.1463Y-5.3055
X10.234Y-3.246
X10.406Y-3.928
X10.4062Y-3.625
X10.462Y-4.338
X10.6083Y-6.1043
X10.622Y-5.818
X10.676Y-2.842
X10.7948Y-4.698
X10.82Y-5.07
X10.864Y-5.688
X10.982Y-3.206
X11.05Y-3.57
X11.168Y-3.974
X11.268Y-4.3
X11.398Y-2.826
X11.5187Y-6.0512
X11.544Y-4.694
X11.58Y-5.096
X11.6386Y-5.7986
X11.732Y-3.166
X11.74Y-3.56
X11.92Y-3.972
X11.966Y-5.48
X12.0Y-4.346
X12.2Y-2.98
X12.38Y-3.22
X12.6Y-5.48
X12.6449Y-3.6136
X12.7766Y-5.8391
X12.7766Y-6.1663
T3
X9.9463Y-5.5374
X9.9463Y-5.6374
X10.0463Y-5.5374
X10.0463Y-5.6374
X10.1463Y-5.5374
X10.1463Y-5.6374
T2
G00X3.0748Y-2.5478
M15
G01X3.0748Y-2.5715
M16
G05
G00X3.0748Y-2.7026
M15
G01X3.0748Y-2.7459
M16
G05
G00X3.415Y-2.5478
M15
G01X3.415Y-2.5715
M16
G05
G00X3.415Y-2.7026
M15
G01X3.415Y-2.7459
M16
G05
T4
G00X2.4843Y-4.7283
M15
G01X2.6339Y-4.7283
M16
G05
G00X13.626Y-4.7283
M15
G01X13.7756Y-4.7283
M16
G05
M30
