G04 #@! TF.GenerationSoftware,KiCad,Pcbnew,8.0.7*
G04 #@! TF.CreationDate,2024-12-21T12:11:45-05:00*
G04 #@! TF.ProjectId,PCB-Sch,5043422d-5363-4682-9e6b-696361645f70,rev?*
G04 #@! TF.SameCoordinates,Original*
G04 #@! TF.FileFunction,Soldermask,Top*
G04 #@! TF.FilePolarity,Negative*
%FSLAX46Y46*%
G04 Gerber Fmt 4.6, Leading zero omitted, Abs format (unit mm)*
G04 Created by KiCad (PCBNEW 8.0.7) date 2024-12-21 12:11:45*
%MOMM*%
%LPD*%
G01*
G04 APERTURE LIST*
%ADD10O,7.000000X3.000000*%
%ADD11C,1.701800*%
%ADD12C,3.000000*%
%ADD13C,3.987800*%
%ADD14C,3.048000*%
%ADD15C,0.650000*%
%ADD16O,1.000000X1.600000*%
%ADD17O,1.000000X2.100000*%
%ADD18C,0.800000*%
G04 APERTURE END LIST*
D10*
X348000000Y-120100000D03*
X65000000Y-120100000D03*
D11*
X159126250Y-130333750D03*
D12*
X156586250Y-125253750D03*
D13*
X154046250Y-130333750D03*
D12*
X150236250Y-127793750D03*
D11*
X148966250Y-130333750D03*
X342482500Y-149383750D03*
D12*
X339942500Y-144303750D03*
D13*
X337402500Y-149383750D03*
D12*
X333592500Y-146843750D03*
D11*
X332322500Y-149383750D03*
X254376250Y-130333750D03*
D12*
X251836250Y-125253750D03*
D13*
X249296250Y-130333750D03*
D12*
X245486250Y-127793750D03*
D11*
X244216250Y-130333750D03*
X302001250Y-111283750D03*
D12*
X299461250Y-106203750D03*
D13*
X296921250Y-111283750D03*
D12*
X293111250Y-108743750D03*
D11*
X291841250Y-111283750D03*
X230563750Y-73183750D03*
D12*
X228023750Y-68103750D03*
D13*
X225483750Y-73183750D03*
D12*
X221673750Y-70643750D03*
D11*
X220403750Y-73183750D03*
X173413750Y-73183750D03*
D12*
X170873750Y-68103750D03*
D13*
X168333750Y-73183750D03*
D12*
X164523750Y-70643750D03*
D11*
X163253750Y-73183750D03*
X235326250Y-130333750D03*
D12*
X232786250Y-125253750D03*
D13*
X230246250Y-130333750D03*
D12*
X226436250Y-127793750D03*
D11*
X225166250Y-130333750D03*
X128170000Y-149383750D03*
D12*
X125630000Y-144303750D03*
D13*
X123090000Y-149383750D03*
D12*
X119280000Y-146843750D03*
D11*
X118010000Y-149383750D03*
X154363750Y-73183750D03*
D12*
X151823750Y-68103750D03*
D13*
X149283750Y-73183750D03*
D12*
X145473750Y-70643750D03*
D11*
X144203750Y-73183750D03*
X116263750Y-73183750D03*
D12*
X113723750Y-68103750D03*
D13*
X111183750Y-73183750D03*
D12*
X107373750Y-70643750D03*
D11*
X106103750Y-73183750D03*
D13*
X335053000Y-138588750D03*
D14*
X335053000Y-123348750D03*
D11*
X328195000Y-130333750D03*
D12*
X325655000Y-125253750D03*
D13*
X323115000Y-130333750D03*
D12*
X319305000Y-127793750D03*
D11*
X318035000Y-130333750D03*
D13*
X311177000Y-138588750D03*
D14*
X311177000Y-123348750D03*
D11*
X282951250Y-111283750D03*
D12*
X280411250Y-106203750D03*
D13*
X277871250Y-111283750D03*
D12*
X274061250Y-108743750D03*
D11*
X272791250Y-111283750D03*
D13*
X96869250Y-138588750D03*
D14*
X96869250Y-123348750D03*
D11*
X90011250Y-130333750D03*
D12*
X87471250Y-125253750D03*
D13*
X84931250Y-130333750D03*
D12*
X81121250Y-127793750D03*
D11*
X79851250Y-130333750D03*
D13*
X72993250Y-138588750D03*
D14*
X72993250Y-123348750D03*
D11*
X216276250Y-130333750D03*
D12*
X213736250Y-125253750D03*
D13*
X211196250Y-130333750D03*
D12*
X207386250Y-127793750D03*
D11*
X206116250Y-130333750D03*
X271045000Y-149383750D03*
D12*
X268505000Y-144303750D03*
D13*
X265965000Y-149383750D03*
D12*
X262155000Y-146843750D03*
D11*
X260885000Y-149383750D03*
X85307500Y-111283750D03*
D12*
X82767500Y-106203750D03*
D13*
X80227500Y-111283750D03*
D12*
X76417500Y-108743750D03*
D11*
X75147500Y-111283750D03*
X182938750Y-92233750D03*
D12*
X180398750Y-87153750D03*
D13*
X177858750Y-92233750D03*
D12*
X174048750Y-89693750D03*
D11*
X172778750Y-92233750D03*
X192463750Y-73183750D03*
D12*
X189923750Y-68103750D03*
D13*
X187383750Y-73183750D03*
D12*
X183573750Y-70643750D03*
D11*
X182303750Y-73183750D03*
X259138750Y-92233750D03*
D12*
X256598750Y-87153750D03*
D13*
X254058750Y-92233750D03*
D12*
X250248750Y-89693750D03*
D11*
X248978750Y-92233750D03*
X340101250Y-92233750D03*
D12*
X337561250Y-87153750D03*
D13*
X335021250Y-92233750D03*
D12*
X331211250Y-89693750D03*
D11*
X329941250Y-92233750D03*
X306763750Y-73183750D03*
D12*
X304223750Y-68103750D03*
D13*
X301683750Y-73183750D03*
D12*
X297873750Y-70643750D03*
D11*
X296603750Y-73183750D03*
X178176250Y-130333750D03*
D12*
X175636250Y-125253750D03*
D13*
X173096250Y-130333750D03*
D12*
X169286250Y-127793750D03*
D11*
X168016250Y-130333750D03*
X130551250Y-111283750D03*
D12*
X128011250Y-106203750D03*
D13*
X125471250Y-111283750D03*
D12*
X121661250Y-108743750D03*
D11*
X120391250Y-111283750D03*
X106738750Y-92233750D03*
D12*
X104198750Y-87153750D03*
D13*
X101658750Y-92233750D03*
D12*
X97848750Y-89693750D03*
D11*
X96578750Y-92233750D03*
X263901250Y-111283750D03*
D12*
X261361250Y-106203750D03*
D13*
X258821250Y-111283750D03*
D12*
X255011250Y-108743750D03*
D11*
X253741250Y-111283750D03*
X225801250Y-111283750D03*
D12*
X223261250Y-106203750D03*
D13*
X220721250Y-111283750D03*
D12*
X216911250Y-108743750D03*
D11*
X215641250Y-111283750D03*
X297238750Y-92233750D03*
D12*
X294698750Y-87153750D03*
D13*
X292158750Y-92233750D03*
D12*
X288348750Y-89693750D03*
D11*
X287078750Y-92233750D03*
X294857500Y-149383750D03*
D12*
X292317500Y-144303750D03*
D13*
X289777500Y-149383750D03*
D12*
X285967500Y-146843750D03*
D11*
X284697500Y-149383750D03*
X221038750Y-92233750D03*
D12*
X218498750Y-87153750D03*
D13*
X215958750Y-92233750D03*
D12*
X212148750Y-89693750D03*
D11*
X210878750Y-92233750D03*
X292476250Y-130333750D03*
D12*
X289936250Y-125253750D03*
D13*
X287396250Y-130333750D03*
D12*
X283586250Y-127793750D03*
D11*
X282316250Y-130333750D03*
X121026250Y-130333750D03*
D12*
X118486250Y-125253750D03*
D13*
X115946250Y-130333750D03*
D12*
X112136250Y-127793750D03*
D11*
X110866250Y-130333750D03*
X87053750Y-73183750D03*
D12*
X89593750Y-78263750D03*
D13*
X92133750Y-73183750D03*
D12*
X95943750Y-75723750D03*
D11*
X97213750Y-73183750D03*
X68003750Y-73183750D03*
D12*
X70543750Y-78263750D03*
D13*
X73083750Y-73183750D03*
D12*
X76893750Y-75723750D03*
D11*
X78163750Y-73183750D03*
D13*
X342196750Y-81438750D03*
D14*
X342196750Y-66198750D03*
D11*
X335338750Y-73183750D03*
D12*
X332798750Y-68103750D03*
D13*
X330258750Y-73183750D03*
D12*
X326448750Y-70643750D03*
D11*
X325178750Y-73183750D03*
D13*
X318320750Y-81438750D03*
D14*
X318320750Y-66198750D03*
D11*
X125788750Y-92233750D03*
D12*
X123248750Y-87153750D03*
D13*
X120708750Y-92233750D03*
D12*
X116898750Y-89693750D03*
D11*
X115628750Y-92233750D03*
X273426250Y-130333750D03*
D12*
X270886250Y-125253750D03*
D13*
X268346250Y-130333750D03*
D12*
X264536250Y-127793750D03*
D11*
X263266250Y-130333750D03*
X187701250Y-111283750D03*
D12*
X185161250Y-106203750D03*
D13*
X182621250Y-111283750D03*
D12*
X178811250Y-108743750D03*
D11*
X177541250Y-111283750D03*
X249613750Y-73183750D03*
D12*
X247073750Y-68103750D03*
D13*
X244533750Y-73183750D03*
D12*
X240723750Y-70643750D03*
D11*
X239453750Y-73183750D03*
X135313750Y-73183750D03*
D12*
X132773750Y-68103750D03*
D13*
X130233750Y-73183750D03*
D12*
X126423750Y-70643750D03*
D11*
X125153750Y-73183750D03*
X240088750Y-92233750D03*
D12*
X237548750Y-87153750D03*
D13*
X235008750Y-92233750D03*
D12*
X231198750Y-89693750D03*
D11*
X229928750Y-92233750D03*
X82926250Y-92233750D03*
D12*
X80386250Y-87153750D03*
D13*
X77846250Y-92233750D03*
D12*
X74036250Y-89693750D03*
D11*
X72766250Y-92233750D03*
X80545000Y-149383750D03*
D12*
X78005000Y-144303750D03*
D13*
X75465000Y-149383750D03*
D12*
X71655000Y-146843750D03*
D11*
X70385000Y-149383750D03*
X318670000Y-149383750D03*
D12*
X316130000Y-144303750D03*
D13*
X313590000Y-149383750D03*
D12*
X309780000Y-146843750D03*
D11*
X308510000Y-149383750D03*
X278188750Y-92233750D03*
D12*
X275648750Y-87153750D03*
D13*
X273108750Y-92233750D03*
D12*
X269298750Y-89693750D03*
D11*
X268028750Y-92233750D03*
D15*
X79530000Y-68665000D03*
X85310000Y-68665000D03*
D16*
X78100000Y-65015000D03*
D17*
X78100000Y-69195000D03*
D16*
X86740000Y-65015000D03*
D17*
X86740000Y-69195000D03*
D11*
X104357500Y-149383750D03*
D12*
X101817500Y-144303750D03*
D13*
X99277500Y-149383750D03*
D12*
X95467500Y-146843750D03*
D11*
X94197500Y-149383750D03*
X140076250Y-130333750D03*
D12*
X137536250Y-125253750D03*
D13*
X134996250Y-130333750D03*
D12*
X131186250Y-127793750D03*
D11*
X129916250Y-130333750D03*
X163888750Y-92233750D03*
D12*
X161348750Y-87153750D03*
D13*
X158808750Y-92233750D03*
D12*
X154998750Y-89693750D03*
D11*
X153728750Y-92233750D03*
X211513750Y-73183750D03*
D12*
X208973750Y-68103750D03*
D13*
X206433750Y-73183750D03*
D12*
X202623750Y-70643750D03*
D11*
X201353750Y-73183750D03*
D13*
X339815500Y-119538750D03*
D14*
X339815500Y-104298750D03*
D11*
X332957500Y-111283750D03*
D12*
X330417500Y-106203750D03*
D13*
X327877500Y-111283750D03*
D12*
X324067500Y-108743750D03*
D11*
X322797500Y-111283750D03*
D13*
X315939500Y-119538750D03*
D14*
X315939500Y-104298750D03*
D11*
X268663750Y-73183750D03*
D12*
X266123750Y-68103750D03*
D13*
X263583750Y-73183750D03*
D12*
X259773750Y-70643750D03*
D11*
X258503750Y-73183750D03*
X244851250Y-111283750D03*
D12*
X242311250Y-106203750D03*
D13*
X239771250Y-111283750D03*
D12*
X235961250Y-108743750D03*
D11*
X234691250Y-111283750D03*
X144838750Y-92233750D03*
D12*
X142298750Y-87153750D03*
D13*
X139758750Y-92233750D03*
D12*
X135948750Y-89693750D03*
D11*
X134678750Y-92233750D03*
X111501250Y-111283750D03*
D12*
X108961250Y-106203750D03*
D13*
X106421250Y-111283750D03*
D12*
X102611250Y-108743750D03*
D11*
X101341250Y-111283750D03*
X168651250Y-111283750D03*
D12*
X166111250Y-106203750D03*
D13*
X163571250Y-111283750D03*
D12*
X159761250Y-108743750D03*
D11*
X158491250Y-111283750D03*
X149601250Y-111283750D03*
D12*
X147061250Y-106203750D03*
D13*
X144521250Y-111283750D03*
D12*
X140711250Y-108743750D03*
D11*
X139441250Y-111283750D03*
X197226250Y-130333750D03*
D12*
X194686250Y-125253750D03*
D13*
X192146250Y-130333750D03*
D12*
X188336250Y-127793750D03*
D11*
X187066250Y-130333750D03*
X201988750Y-92233750D03*
D12*
X199448750Y-87153750D03*
D13*
X196908750Y-92233750D03*
D12*
X193098750Y-89693750D03*
D11*
X191828750Y-92233750D03*
X287713750Y-73183750D03*
D12*
X285173750Y-68103750D03*
D13*
X282633750Y-73183750D03*
D12*
X278823750Y-70643750D03*
D11*
X277553750Y-73183750D03*
X316288750Y-92233750D03*
D12*
X313748750Y-87153750D03*
D13*
X311208750Y-92233750D03*
D12*
X307398750Y-89693750D03*
D11*
X306128750Y-92233750D03*
D14*
X244527500Y-156368750D03*
D13*
X244527500Y-141128750D03*
D11*
X199607500Y-149383750D03*
D12*
X197067500Y-144303750D03*
D13*
X194527500Y-149383750D03*
D12*
X190717500Y-146843750D03*
D11*
X189447500Y-149383750D03*
D14*
X144527500Y-156368750D03*
D13*
X144527500Y-141128750D03*
D11*
X206751250Y-111283750D03*
D12*
X204211250Y-106203750D03*
D13*
X201671250Y-111283750D03*
D12*
X197861250Y-108743750D03*
D11*
X196591250Y-111283750D03*
D18*
X225700000Y-148450000D03*
X235300000Y-151400000D03*
X235380000Y-148380000D03*
X207111600Y-138734800D03*
X216150000Y-139850000D03*
X207227500Y-142600000D03*
X85725000Y-80962500D03*
X223100000Y-142375000D03*
X214281675Y-144425000D03*
X240946250Y-146200000D03*
X225375000Y-156600000D03*
X257715000Y-134760000D03*
X205675000Y-138600000D03*
X203725000Y-151950000D03*
X209625000Y-142225000D03*
X83412500Y-84087500D03*
X216625000Y-144375000D03*
X249775000Y-134450000D03*
X211988400Y-82905600D03*
X213650000Y-145250000D03*
X98188200Y-81288200D03*
X78550000Y-79125000D03*
X92325000Y-97750000D03*
X204850000Y-135900000D03*
X202225000Y-100800000D03*
X95600000Y-97631250D03*
X207550000Y-118975000D03*
X92525000Y-116900000D03*
X95875000Y-116950000D03*
X207000000Y-135400000D03*
X204175000Y-138525000D03*
X195675000Y-138074999D03*
X92650000Y-135975000D03*
X96500000Y-132300000D03*
X202996800Y-155382500D03*
X269450000Y-155050000D03*
X80227500Y-73262500D03*
X84520000Y-73270000D03*
X234200000Y-138700000D03*
X241550000Y-137500000D03*
X228750000Y-139725000D03*
X242750000Y-138775000D03*
X219575000Y-146100000D03*
X234391200Y-146050000D03*
X255250000Y-154300000D03*
X217200000Y-145975000D03*
X136375000Y-148225000D03*
X85725000Y-88900000D03*
X214525000Y-157775000D03*
X90773250Y-122237500D03*
X90487500Y-127793750D03*
X82550000Y-84931250D03*
X136400000Y-151225000D03*
X85725000Y-102393750D03*
X87312500Y-108743750D03*
X67468750Y-82550000D03*
X84750000Y-140675000D03*
X81250000Y-147500000D03*
X122237500Y-128587500D03*
X112268000Y-102311200D03*
X93662500Y-84137500D03*
X111125000Y-142081250D03*
X89693750Y-81756250D03*
X121443750Y-120650000D03*
X145575000Y-152475000D03*
X111125000Y-92075000D03*
X150950000Y-157850000D03*
X121443750Y-115887500D03*
X141287500Y-119062500D03*
X131318000Y-100634800D03*
X134143750Y-108743750D03*
X141287500Y-128587500D03*
X133550000Y-150175000D03*
X119481600Y-71069200D03*
X126542800Y-83312000D03*
X126542800Y-90576400D03*
X146500000Y-155250000D03*
X131762500Y-142081250D03*
X150368000Y-101549200D03*
X161000000Y-141700000D03*
X141528800Y-75641200D03*
X167225000Y-137075000D03*
X145592800Y-82854800D03*
X204300000Y-156400000D03*
X164550000Y-138074999D03*
X159867600Y-121412000D03*
X149707600Y-93980000D03*
X161387500Y-145862500D03*
X164338000Y-132384800D03*
X155803600Y-114046000D03*
X155448000Y-71170800D03*
X184500000Y-138074999D03*
X169418000Y-109423200D03*
X169418000Y-102463600D03*
X187400000Y-137000000D03*
X203047600Y-153720800D03*
X178938250Y-121797750D03*
X184525000Y-140625000D03*
X164795200Y-90322400D03*
X164592000Y-83362800D03*
X184525000Y-145800000D03*
X181914800Y-128270000D03*
X197675000Y-140225000D03*
X188518800Y-94030800D03*
X200507600Y-128930400D03*
X201900000Y-148200000D03*
X190906400Y-111760000D03*
X198525001Y-138049999D03*
X200525000Y-136050000D03*
X208450000Y-150175000D03*
X176784000Y-71221600D03*
X183700750Y-84226400D03*
X197967600Y-121158000D03*
X188468000Y-101346000D03*
X199847200Y-76911200D03*
X207518000Y-101904800D03*
X217474800Y-128219200D03*
X207168750Y-92075000D03*
X202742800Y-80822800D03*
X203352400Y-144729200D03*
X213004400Y-114300000D03*
X217068400Y-121259600D03*
X219760800Y-77774800D03*
X221792800Y-82905600D03*
X223570800Y-91186000D03*
X226568000Y-101041200D03*
X231546400Y-113944400D03*
X232000000Y-138325000D03*
X236118400Y-118872000D03*
X233883200Y-131419600D03*
X240893600Y-82905600D03*
X252526800Y-130606800D03*
X233070400Y-72085200D03*
X225300000Y-151125000D03*
X241909600Y-90779600D03*
X248412000Y-108712000D03*
X255138250Y-122397850D03*
X245668800Y-101549200D03*
X265734800Y-110185200D03*
X264312400Y-99771200D03*
X274828000Y-128778000D03*
X256133600Y-77012800D03*
X264318750Y-92075000D03*
X259943600Y-82448400D03*
X274188250Y-119329200D03*
X225575000Y-152500000D03*
X271170400Y-72186800D03*
X275945600Y-144475200D03*
X280670000Y-90678000D03*
X286207200Y-109220000D03*
X269798800Y-147777200D03*
X278942800Y-81432400D03*
X283667200Y-100939600D03*
X294132000Y-129438400D03*
X226263749Y-153225000D03*
X293217600Y-119227600D03*
X298196000Y-90424000D03*
X289509200Y-71780400D03*
X292575000Y-153700000D03*
X304800000Y-110388400D03*
X303936400Y-139192000D03*
X302768000Y-100888800D03*
X295619500Y-147283500D03*
X297992800Y-80416400D03*
X314452000Y-81788000D03*
X321180000Y-91786250D03*
X320040000Y-139192000D03*
X324525000Y-156625000D03*
X309880000Y-75692000D03*
X324525000Y-148312500D03*
M02*
