G04 #@! TF.GenerationSoftware,KiCad,Pcbnew,8.0.7*
G04 #@! TF.CreationDate,2024-12-21T11:45:03-05:00*
G04 #@! TF.ProjectId,PCB-Sch,5043422d-5363-4682-9e6b-696361645f70,rev?*
G04 #@! TF.SameCoordinates,Original*
G04 #@! TF.FileFunction,Legend,Top*
G04 #@! TF.FilePolarity,Positive*
%FSLAX46Y46*%
G04 Gerber Fmt 4.6, Leading zero omitted, Abs format (unit mm)*
G04 Created by KiCad (PCBNEW 8.0.7) date 2024-12-21 11:45:03*
%MOMM*%
%LPD*%
G01*
G04 APERTURE LIST*
%ADD10C,0.000000*%
G04 APERTURE END LIST*
D10*
G36*
X190531213Y-87148369D02*
G01*
X190633181Y-87171968D01*
X190723115Y-87210703D01*
X190801639Y-87265768D01*
X190869380Y-87338362D01*
X190926961Y-87429680D01*
X190975008Y-87540919D01*
X191014146Y-87673277D01*
X191068193Y-88006131D01*
X191094102Y-88437817D01*
X191096874Y-88977907D01*
X191053001Y-90421592D01*
X190976572Y-92413770D01*
X190898437Y-94508111D01*
X190827743Y-96230383D01*
X190771933Y-97406952D01*
X190751934Y-97736339D01*
X190738446Y-97864188D01*
X190728305Y-97869452D01*
X190708165Y-97875297D01*
X190640055Y-97888577D01*
X190538460Y-97903718D01*
X190407718Y-97920409D01*
X190076161Y-97957203D01*
X189680111Y-97996478D01*
X188674696Y-98049396D01*
X187669281Y-93286894D01*
X187273646Y-91414552D01*
X186944983Y-89837388D01*
X186888426Y-89556268D01*
X187960321Y-89556268D01*
X187974946Y-89778566D01*
X188016545Y-90098146D01*
X188167028Y-90969308D01*
X188384482Y-92050069D01*
X188641625Y-93220748D01*
X188911169Y-94361661D01*
X189165831Y-95353126D01*
X189378324Y-96075459D01*
X189460231Y-96298301D01*
X189521364Y-96408980D01*
X189548788Y-96422905D01*
X189576425Y-96410930D01*
X189631951Y-96314204D01*
X189687167Y-96128646D01*
X189741298Y-95864101D01*
X189843204Y-95137427D01*
X189931467Y-94212936D01*
X189999887Y-93169382D01*
X190042261Y-92085521D01*
X190052390Y-91040107D01*
X190024072Y-90111895D01*
X190009098Y-89871684D01*
X189993582Y-89656160D01*
X189976981Y-89463969D01*
X189958752Y-89293753D01*
X189948857Y-89216462D01*
X189938352Y-89144156D01*
X189927169Y-89076666D01*
X189915240Y-89013822D01*
X189902497Y-88955454D01*
X189888872Y-88901393D01*
X189874297Y-88851470D01*
X189858706Y-88805514D01*
X189842029Y-88763356D01*
X189824199Y-88724828D01*
X189805148Y-88689758D01*
X189784808Y-88657977D01*
X189763112Y-88629317D01*
X189739992Y-88603607D01*
X189715379Y-88580678D01*
X189689207Y-88560360D01*
X189661407Y-88542484D01*
X189631911Y-88526880D01*
X189600651Y-88513379D01*
X189567561Y-88501810D01*
X189532571Y-88492005D01*
X189495615Y-88483794D01*
X189456623Y-88477007D01*
X189415529Y-88471475D01*
X189341519Y-88463323D01*
X189268380Y-88458659D01*
X189196211Y-88457406D01*
X189125107Y-88459486D01*
X189055167Y-88464822D01*
X188986485Y-88473336D01*
X188919161Y-88484950D01*
X188853289Y-88499588D01*
X188788968Y-88517170D01*
X188726295Y-88537621D01*
X188665365Y-88560863D01*
X188606276Y-88586817D01*
X188549125Y-88615407D01*
X188494009Y-88646555D01*
X188441025Y-88680184D01*
X188390269Y-88716215D01*
X188341838Y-88754572D01*
X188295830Y-88795177D01*
X188252341Y-88837952D01*
X188211469Y-88882820D01*
X188173309Y-88929704D01*
X188137959Y-88978525D01*
X188105516Y-89029207D01*
X188076076Y-89081671D01*
X188049738Y-89135841D01*
X188026596Y-89191638D01*
X188006749Y-89248986D01*
X187990294Y-89307807D01*
X187977326Y-89368023D01*
X187967944Y-89429557D01*
X187962243Y-89492331D01*
X187960321Y-89556268D01*
X186888426Y-89556268D01*
X186720500Y-88721591D01*
X186658954Y-88388640D01*
X186637404Y-88233352D01*
X186639712Y-88218012D01*
X186646564Y-88201790D01*
X186673475Y-88166896D01*
X186717283Y-88129055D01*
X186777138Y-88088657D01*
X186852185Y-88046089D01*
X186941572Y-88001738D01*
X187044447Y-87955991D01*
X187159957Y-87909237D01*
X187425470Y-87814256D01*
X187731291Y-87719895D01*
X188070598Y-87629254D01*
X188436570Y-87545433D01*
X189427983Y-87306430D01*
X189818986Y-87215511D01*
X190146854Y-87156413D01*
X190416585Y-87138708D01*
X190531213Y-87148369D01*
G37*
G36*
X168685039Y-100094425D02*
G01*
X168947736Y-100266004D01*
X169821480Y-100879609D01*
X172376363Y-102752363D01*
X174891558Y-104654882D01*
X175715694Y-105305695D01*
X175946145Y-105501459D01*
X176027613Y-105590020D01*
X176024557Y-105608552D01*
X176015572Y-105634100D01*
X176000928Y-105666236D01*
X175980897Y-105704535D01*
X175925758Y-105797915D01*
X175852326Y-105910828D01*
X175762770Y-106039864D01*
X175659262Y-106181612D01*
X175543972Y-106332662D01*
X175419070Y-106489602D01*
X174784072Y-107230436D01*
X170683030Y-105166685D01*
X166581987Y-103102935D01*
X166927296Y-102389298D01*
X168217417Y-102389298D01*
X168238940Y-102490261D01*
X168285268Y-102592153D01*
X168359036Y-102697069D01*
X168462880Y-102807101D01*
X168599435Y-102924342D01*
X168771336Y-103050884D01*
X168981220Y-103188821D01*
X169231722Y-103340246D01*
X169525476Y-103507251D01*
X170253287Y-103896374D01*
X171185736Y-104372935D01*
X171859810Y-104708347D01*
X172443386Y-104990003D01*
X172936502Y-105217477D01*
X173339197Y-105390341D01*
X173651510Y-105508170D01*
X173873479Y-105570537D01*
X173950597Y-105580789D01*
X174005144Y-105577016D01*
X174037125Y-105559164D01*
X174046544Y-105527180D01*
X174033406Y-105481012D01*
X173997716Y-105420604D01*
X173939479Y-105345905D01*
X173858700Y-105256861D01*
X173629534Y-105035524D01*
X173310258Y-104756168D01*
X172900910Y-104418365D01*
X172401528Y-104021690D01*
X171132820Y-103050018D01*
X170776621Y-102782354D01*
X170451157Y-102544571D01*
X170299477Y-102436728D01*
X170154915Y-102336167D01*
X170017281Y-102242824D01*
X169886385Y-102156637D01*
X169762039Y-102077542D01*
X169644055Y-102005477D01*
X169532242Y-101940378D01*
X169426413Y-101882183D01*
X169326378Y-101830829D01*
X169231948Y-101786252D01*
X169142935Y-101748390D01*
X169059149Y-101717180D01*
X168980401Y-101692559D01*
X168906503Y-101674463D01*
X168837265Y-101662830D01*
X168772499Y-101657597D01*
X168712016Y-101658701D01*
X168655627Y-101666079D01*
X168603142Y-101679667D01*
X168578305Y-101688771D01*
X168554373Y-101699403D01*
X168509131Y-101725225D01*
X168467227Y-101757068D01*
X168428472Y-101794870D01*
X168392678Y-101838568D01*
X168359654Y-101888100D01*
X168329213Y-101943401D01*
X168301164Y-102004409D01*
X168275321Y-102071061D01*
X168238243Y-102181791D01*
X168218063Y-102287172D01*
X168217417Y-102389298D01*
X166927296Y-102389298D01*
X166978862Y-102282729D01*
X167183087Y-101923887D01*
X167422039Y-101515437D01*
X167546786Y-101308111D01*
X167670913Y-101106986D01*
X167791320Y-100918264D01*
X167904905Y-100748144D01*
X167959424Y-100674719D01*
X168013632Y-100603502D01*
X168067220Y-100534843D01*
X168119879Y-100469092D01*
X168171297Y-100406595D01*
X168221164Y-100347704D01*
X168269172Y-100292765D01*
X168315009Y-100242129D01*
X168358365Y-100196143D01*
X168398931Y-100155158D01*
X168436397Y-100119520D01*
X168470452Y-100089580D01*
X168500786Y-100065687D01*
X168514461Y-100056116D01*
X168527089Y-100048188D01*
X168538633Y-100041945D01*
X168549052Y-100037432D01*
X168558309Y-100034693D01*
X168566364Y-100033770D01*
X168685039Y-100094425D01*
G37*
G36*
X197748096Y-86619445D02*
G01*
X200035242Y-86774837D01*
X202311227Y-87003402D01*
X204290485Y-87281267D01*
X205079604Y-87431226D01*
X205687454Y-87584557D01*
X206078341Y-87738276D01*
X206181268Y-87814347D01*
X206216569Y-87889397D01*
X206214185Y-87897065D01*
X206207112Y-87905164D01*
X206179362Y-87922521D01*
X206134249Y-87941195D01*
X206072702Y-87960915D01*
X205904031Y-88002411D01*
X205680789Y-88044837D01*
X205410419Y-88086022D01*
X205100360Y-88123797D01*
X204758055Y-88155990D01*
X204390944Y-88180432D01*
X203971038Y-88219054D01*
X203554943Y-88275162D01*
X203143064Y-88348409D01*
X202735802Y-88438453D01*
X202333558Y-88544950D01*
X201936736Y-88667555D01*
X201545737Y-88805924D01*
X201160963Y-88959714D01*
X200782817Y-89128581D01*
X200411701Y-89312180D01*
X200048016Y-89510168D01*
X199692164Y-89722200D01*
X199344549Y-89947934D01*
X199005572Y-90187024D01*
X198675635Y-90439126D01*
X198355140Y-90703898D01*
X197744086Y-91270071D01*
X197454330Y-91570785D01*
X197175625Y-91882792D01*
X196908373Y-92205748D01*
X196652976Y-92539309D01*
X196409836Y-92883131D01*
X196179355Y-93236870D01*
X195961935Y-93600182D01*
X195757979Y-93972723D01*
X195567888Y-94354149D01*
X195392064Y-94744117D01*
X195230910Y-95142281D01*
X195084828Y-95548299D01*
X194954220Y-95961826D01*
X194839488Y-96382518D01*
X194790725Y-96566828D01*
X194743318Y-96733349D01*
X194696764Y-96882894D01*
X194650558Y-97016278D01*
X194627429Y-97077163D01*
X194604198Y-97134313D01*
X194580802Y-97187830D01*
X194557179Y-97237815D01*
X194533265Y-97284370D01*
X194508997Y-97327597D01*
X194484313Y-97367597D01*
X194459149Y-97404472D01*
X194433442Y-97438324D01*
X194407130Y-97469255D01*
X194380149Y-97497366D01*
X194352437Y-97522760D01*
X194323930Y-97545537D01*
X194294566Y-97565800D01*
X194264281Y-97583650D01*
X194233013Y-97599190D01*
X194200698Y-97612520D01*
X194167274Y-97623743D01*
X194132678Y-97632960D01*
X194096846Y-97640273D01*
X194059716Y-97645784D01*
X194021224Y-97649594D01*
X193981308Y-97651806D01*
X193939905Y-97652521D01*
X193756661Y-97640170D01*
X193682828Y-97613627D01*
X193619925Y-97563637D01*
X193567253Y-97482796D01*
X193524117Y-97363701D01*
X193489816Y-97198950D01*
X193463655Y-96981140D01*
X193432959Y-96356734D01*
X193426447Y-95431260D01*
X193463654Y-92440229D01*
X193507889Y-90376891D01*
X193513660Y-90182225D01*
X194596248Y-90182225D01*
X194601365Y-90746892D01*
X194601365Y-93551479D01*
X195183446Y-92784184D01*
X195414039Y-92474830D01*
X195649051Y-92172181D01*
X195887938Y-91876741D01*
X196130159Y-91589013D01*
X196375170Y-91309502D01*
X196622429Y-91038711D01*
X196871393Y-90777145D01*
X197121520Y-90525306D01*
X197372267Y-90283699D01*
X197623092Y-90052829D01*
X197873451Y-89833197D01*
X198122803Y-89625309D01*
X198370605Y-89429669D01*
X198616314Y-89246779D01*
X198859387Y-89077145D01*
X199099282Y-88921269D01*
X199230657Y-88832056D01*
X199356527Y-88743346D01*
X199476352Y-88655644D01*
X199589587Y-88569454D01*
X199695692Y-88485280D01*
X199794122Y-88403624D01*
X199884336Y-88324992D01*
X199965791Y-88249887D01*
X200037944Y-88178813D01*
X200100253Y-88112273D01*
X200152175Y-88050772D01*
X200174071Y-88022068D01*
X200193167Y-87994813D01*
X200209395Y-87969069D01*
X200222688Y-87944900D01*
X200232976Y-87922369D01*
X200240194Y-87901537D01*
X200244271Y-87882470D01*
X200245142Y-87865228D01*
X200242738Y-87849876D01*
X200236991Y-87836477D01*
X200208063Y-87812295D01*
X200152228Y-87789374D01*
X199966929Y-87747386D01*
X199695278Y-87710670D01*
X199351462Y-87679380D01*
X198504071Y-87633697D01*
X197538237Y-87611579D01*
X196567443Y-87614266D01*
X195705170Y-87642997D01*
X195350192Y-87667517D01*
X195064899Y-87699014D01*
X194863477Y-87737642D01*
X194798651Y-87759679D01*
X194760112Y-87783556D01*
X194740598Y-87813058D01*
X194721820Y-87870736D01*
X194686939Y-88064266D01*
X194656398Y-88351433D01*
X194631128Y-88719525D01*
X194612060Y-89155829D01*
X194600123Y-89647633D01*
X194596248Y-90182225D01*
X193513660Y-90182225D01*
X193559566Y-88633534D01*
X193587421Y-87938435D01*
X193616205Y-87391233D01*
X193645609Y-87014565D01*
X193660447Y-86897253D01*
X193675323Y-86831063D01*
X193732251Y-86764338D01*
X193855409Y-86707782D01*
X194282572Y-86623684D01*
X194921118Y-86575786D01*
X195735351Y-86561103D01*
X197748096Y-86619445D01*
G37*
G36*
X172630242Y-95281910D02*
G01*
X172690090Y-95316695D01*
X172878657Y-95475910D01*
X173185666Y-95783332D01*
X173643054Y-96273380D01*
X175136710Y-97939014D01*
X177615111Y-100748144D01*
X179281989Y-102653142D01*
X178408862Y-103420437D01*
X177562197Y-104187726D01*
X174757610Y-101938768D01*
X173593445Y-101022234D01*
X172488810Y-100162752D01*
X171572691Y-99457059D01*
X170974071Y-99001893D01*
X170871215Y-98932214D01*
X170771344Y-98862419D01*
X170674961Y-98793011D01*
X170582571Y-98724494D01*
X170494675Y-98657373D01*
X170411780Y-98592151D01*
X170334388Y-98529332D01*
X170263004Y-98469419D01*
X170198130Y-98412918D01*
X170140272Y-98360331D01*
X170089933Y-98312162D01*
X170047616Y-98268915D01*
X170013826Y-98231095D01*
X169989066Y-98199204D01*
X169980230Y-98185640D01*
X169973841Y-98173747D01*
X169969961Y-98163589D01*
X169968654Y-98155228D01*
X169975056Y-98128692D01*
X169993821Y-98089289D01*
X170024290Y-98037794D01*
X170065806Y-97974981D01*
X170088605Y-97943558D01*
X171556154Y-97943558D01*
X171569240Y-97978162D01*
X171607508Y-98031563D01*
X171753662Y-98189952D01*
X172282932Y-98679432D01*
X173049087Y-99335103D01*
X173957248Y-100080071D01*
X174912539Y-100837441D01*
X175820080Y-101530319D01*
X176584995Y-102081810D01*
X176884317Y-102280506D01*
X177112404Y-102415019D01*
X177747405Y-102758980D01*
X177244695Y-101991685D01*
X177107494Y-101792732D01*
X176901151Y-101521224D01*
X176635896Y-101188945D01*
X176321962Y-100807676D01*
X175588984Y-99945300D01*
X174784072Y-99028352D01*
X174383682Y-98593289D01*
X174001896Y-98187061D01*
X173647396Y-97818660D01*
X173328862Y-97497077D01*
X173185796Y-97356653D01*
X173054977Y-97231305D01*
X172937491Y-97122158D01*
X172834422Y-97030336D01*
X172746856Y-96956961D01*
X172675879Y-96903160D01*
X172622575Y-96870055D01*
X172602889Y-96861614D01*
X172588029Y-96858770D01*
X172561791Y-96860981D01*
X172532839Y-96867464D01*
X172501407Y-96877998D01*
X172467727Y-96892359D01*
X172394553Y-96931672D01*
X172315178Y-96983620D01*
X172231462Y-97046419D01*
X172145266Y-97118288D01*
X172058449Y-97197443D01*
X171972873Y-97282102D01*
X171890398Y-97370481D01*
X171812883Y-97460798D01*
X171742189Y-97551271D01*
X171680178Y-97640115D01*
X171628708Y-97725549D01*
X171607508Y-97766430D01*
X171589641Y-97805789D01*
X171575339Y-97843405D01*
X171564836Y-97879053D01*
X171558363Y-97912512D01*
X171556154Y-97943558D01*
X170088605Y-97943558D01*
X170179338Y-97818505D01*
X170329148Y-97626061D01*
X170509964Y-97403852D01*
X170716514Y-97158078D01*
X170943529Y-96894941D01*
X171185736Y-96620641D01*
X171309327Y-96483402D01*
X171431561Y-96349962D01*
X171551702Y-96221017D01*
X171669014Y-96097265D01*
X171782761Y-95979405D01*
X171892205Y-95868133D01*
X171996611Y-95764147D01*
X172095242Y-95668146D01*
X172187362Y-95580826D01*
X172272234Y-95502885D01*
X172349122Y-95435021D01*
X172417290Y-95377931D01*
X172476001Y-95332314D01*
X172524519Y-95298866D01*
X172544725Y-95286924D01*
X172562107Y-95278286D01*
X172576573Y-95273039D01*
X172588029Y-95271271D01*
X172630242Y-95281910D01*
G37*
G36*
X164084000Y-111252000D02*
G01*
X164123015Y-111255903D01*
X164164234Y-111261754D01*
X164253654Y-111278563D01*
X164430697Y-111317836D01*
X164732384Y-111374473D01*
X165642716Y-111529915D01*
X168222404Y-111940020D01*
X168909597Y-112038826D01*
X169552762Y-112135151D01*
X170137636Y-112226515D01*
X170649956Y-112310437D01*
X171075460Y-112384437D01*
X171399884Y-112446036D01*
X171608967Y-112492751D01*
X171665798Y-112509753D01*
X171688445Y-112522104D01*
X171697444Y-112535378D01*
X171704620Y-112555124D01*
X171710014Y-112580994D01*
X171713664Y-112612640D01*
X171715609Y-112649711D01*
X171715886Y-112691859D01*
X171711597Y-112789992D01*
X171701107Y-112904249D01*
X171684725Y-113031838D01*
X171662763Y-113169969D01*
X171635529Y-113315852D01*
X171614942Y-113424456D01*
X171592379Y-113522403D01*
X171567103Y-113610195D01*
X171538377Y-113688336D01*
X171522491Y-113723945D01*
X171505466Y-113757331D01*
X171487210Y-113788556D01*
X171467632Y-113817683D01*
X171446639Y-113844775D01*
X171424140Y-113869895D01*
X171400042Y-113893107D01*
X171374253Y-113914473D01*
X171346681Y-113934056D01*
X171317234Y-113951919D01*
X171285821Y-113968126D01*
X171252348Y-113982738D01*
X171216724Y-113995820D01*
X171178858Y-114007433D01*
X171138656Y-114017642D01*
X171096027Y-114026508D01*
X171003119Y-114040468D01*
X170899398Y-114049815D01*
X170784127Y-114055053D01*
X170656570Y-114056688D01*
X170422353Y-114069155D01*
X170168176Y-114105573D01*
X169897024Y-114164472D01*
X169611880Y-114244376D01*
X169315728Y-114343814D01*
X169011555Y-114461313D01*
X168702342Y-114595400D01*
X168391076Y-114744603D01*
X168080740Y-114907448D01*
X167774318Y-115082463D01*
X167474795Y-115268175D01*
X167185155Y-115463111D01*
X166908383Y-115665799D01*
X166647462Y-115874765D01*
X166405377Y-116088538D01*
X166185113Y-116305643D01*
X165982205Y-116524797D01*
X165781003Y-116764065D01*
X165582591Y-117021240D01*
X165388055Y-117294111D01*
X165198480Y-117580469D01*
X165014951Y-117878107D01*
X164838554Y-118184813D01*
X164670373Y-118498379D01*
X164511494Y-118816597D01*
X164363002Y-119137256D01*
X164225982Y-119458147D01*
X164101519Y-119777062D01*
X163990699Y-120091791D01*
X163894607Y-120400125D01*
X163814327Y-120699855D01*
X163750946Y-120988772D01*
X163730191Y-121095070D01*
X163719153Y-121146029D01*
X163707693Y-121195477D01*
X163695826Y-121243374D01*
X163683566Y-121289682D01*
X163670929Y-121334363D01*
X163657928Y-121377377D01*
X163644579Y-121418686D01*
X163630895Y-121458250D01*
X163616892Y-121496032D01*
X163602583Y-121531993D01*
X163587983Y-121566093D01*
X163573108Y-121598293D01*
X163557971Y-121628556D01*
X163542586Y-121656843D01*
X163526970Y-121683114D01*
X163511135Y-121707331D01*
X163495097Y-121729455D01*
X163478869Y-121749447D01*
X163462468Y-121767269D01*
X163445906Y-121782882D01*
X163429200Y-121796247D01*
X163412362Y-121807325D01*
X163395408Y-121816078D01*
X163378352Y-121822467D01*
X163361209Y-121826453D01*
X163343994Y-121827997D01*
X163326720Y-121827061D01*
X163309403Y-121823605D01*
X163292057Y-121817591D01*
X163274696Y-121808981D01*
X163229989Y-121716351D01*
X163194856Y-121505743D01*
X163151913Y-120777105D01*
X163143076Y-119716083D01*
X163165555Y-118415697D01*
X163216560Y-116968963D01*
X163274781Y-115830888D01*
X164269073Y-115830888D01*
X164273885Y-115930154D01*
X164282179Y-116019978D01*
X164294079Y-116100384D01*
X164309704Y-116171397D01*
X164329175Y-116233039D01*
X164352614Y-116285336D01*
X164380143Y-116328313D01*
X164411881Y-116361992D01*
X164447950Y-116386398D01*
X164488472Y-116401556D01*
X164533567Y-116407490D01*
X164583356Y-116404224D01*
X164637961Y-116391782D01*
X164697503Y-116370188D01*
X164762103Y-116339467D01*
X164831881Y-116299643D01*
X164906960Y-116250740D01*
X164987459Y-116192782D01*
X165073502Y-116125794D01*
X165165207Y-116049800D01*
X165366093Y-115870889D01*
X165591085Y-115656244D01*
X165841154Y-115406058D01*
X165949493Y-115300470D01*
X166065429Y-115192635D01*
X166187877Y-115083404D01*
X166315750Y-114973631D01*
X166583434Y-114755867D01*
X166859799Y-114546165D01*
X166998525Y-114446468D01*
X167136165Y-114351345D01*
X167271635Y-114261648D01*
X167403849Y-114178229D01*
X167531722Y-114101942D01*
X167654169Y-114033638D01*
X167770106Y-113974171D01*
X167878445Y-113924394D01*
X168093335Y-113823567D01*
X168281677Y-113729212D01*
X168443586Y-113640981D01*
X168514664Y-113599053D01*
X168579178Y-113558525D01*
X168637142Y-113519353D01*
X168688571Y-113481494D01*
X168733478Y-113444905D01*
X168771880Y-113409541D01*
X168803789Y-113375360D01*
X168829221Y-113342317D01*
X168848190Y-113310368D01*
X168860711Y-113279471D01*
X168866799Y-113249582D01*
X168866467Y-113220657D01*
X168859730Y-113192652D01*
X168846604Y-113165525D01*
X168827101Y-113139230D01*
X168801238Y-113113725D01*
X168769028Y-113088967D01*
X168730487Y-113064910D01*
X168685627Y-113041513D01*
X168634465Y-113018731D01*
X168577015Y-112996521D01*
X168513291Y-112974838D01*
X168443307Y-112953640D01*
X168367079Y-112932883D01*
X168195946Y-112892517D01*
X167794523Y-112824720D01*
X167266597Y-112746999D01*
X166674177Y-112669277D01*
X166079278Y-112601477D01*
X165564685Y-112535693D01*
X165356416Y-112518517D01*
X165177215Y-112516727D01*
X165097667Y-112522753D01*
X165024369Y-112534007D01*
X164956982Y-112550948D01*
X164895165Y-112574037D01*
X164838581Y-112603734D01*
X164786890Y-112640499D01*
X164739753Y-112684793D01*
X164696831Y-112737076D01*
X164657785Y-112797808D01*
X164622275Y-112867449D01*
X164589963Y-112946460D01*
X164560509Y-113035301D01*
X164508819Y-113244313D01*
X164464494Y-113498167D01*
X164424819Y-113800546D01*
X164387083Y-114155131D01*
X164306571Y-115035647D01*
X164282238Y-115338916D01*
X164269415Y-115603932D01*
X164269073Y-115830888D01*
X163274781Y-115830888D01*
X163293300Y-115468900D01*
X163392984Y-114008524D01*
X163512822Y-112680853D01*
X163541780Y-112437212D01*
X163569614Y-112221243D01*
X163597060Y-112031474D01*
X163610869Y-111945954D01*
X163624856Y-111866432D01*
X163639115Y-111792723D01*
X163653736Y-111724644D01*
X163668814Y-111662011D01*
X163684439Y-111604639D01*
X163700703Y-111552344D01*
X163717699Y-111504942D01*
X163735518Y-111462249D01*
X163754253Y-111424081D01*
X163773996Y-111390254D01*
X163794839Y-111360584D01*
X163816873Y-111334886D01*
X163840191Y-111312977D01*
X163864885Y-111294672D01*
X163891047Y-111279788D01*
X163918769Y-111268140D01*
X163948143Y-111259544D01*
X163979261Y-111253816D01*
X164012215Y-111250772D01*
X164047098Y-111250228D01*
X164084000Y-111252000D01*
G37*
G36*
X165648530Y-105459971D02*
G01*
X165676945Y-105465090D01*
X165705854Y-105473194D01*
X165735320Y-105484185D01*
X166183458Y-105673528D01*
X167117769Y-106046426D01*
X169889279Y-107124604D01*
X173646362Y-108579811D01*
X173223029Y-109400018D01*
X173183090Y-109483663D01*
X173142879Y-109565641D01*
X173063039Y-109722892D01*
X172986299Y-109868361D01*
X172915450Y-109998637D01*
X172746779Y-110299604D01*
X172405095Y-110270768D01*
X171546233Y-110143334D01*
X168916936Y-109704291D01*
X166138810Y-109205717D01*
X165093912Y-109003868D01*
X164491778Y-108870852D01*
X164455508Y-108855291D01*
X164426097Y-108828219D01*
X164403586Y-108789288D01*
X164388012Y-108738148D01*
X164379415Y-108674450D01*
X164377832Y-108597846D01*
X164383303Y-108507987D01*
X164395867Y-108404524D01*
X164415563Y-108287109D01*
X164442428Y-108155392D01*
X164517824Y-107847659D01*
X164576536Y-107640351D01*
X165770939Y-107640351D01*
X165773355Y-107683121D01*
X165778406Y-107724921D01*
X165786171Y-107765525D01*
X165796726Y-107804705D01*
X165810148Y-107842233D01*
X165826517Y-107877880D01*
X165845909Y-107911421D01*
X165868401Y-107942626D01*
X165894071Y-107971269D01*
X165997056Y-108027306D01*
X166188368Y-108094621D01*
X166455258Y-108170850D01*
X166784973Y-108253630D01*
X167581875Y-108429381D01*
X168477066Y-108602962D01*
X169368536Y-108755459D01*
X170154276Y-108867959D01*
X170475619Y-108903299D01*
X170732277Y-108921547D01*
X170911497Y-108920339D01*
X170968084Y-108911700D01*
X171000529Y-108897311D01*
X171031076Y-108859238D01*
X171051430Y-108823413D01*
X171058839Y-108788364D01*
X171050551Y-108752617D01*
X171023815Y-108714699D01*
X170975879Y-108673138D01*
X170903991Y-108626462D01*
X170805398Y-108573196D01*
X170517096Y-108441008D01*
X170088957Y-108264791D01*
X168725113Y-107733143D01*
X168284055Y-107568760D01*
X167860669Y-107415230D01*
X167465189Y-107275962D01*
X167107847Y-107154368D01*
X166798873Y-107053857D01*
X166548501Y-106977842D01*
X166366962Y-106929731D01*
X166305202Y-106917206D01*
X166264488Y-106912937D01*
X166227681Y-106915147D01*
X166191727Y-106921625D01*
X166156704Y-106932143D01*
X166122687Y-106946474D01*
X166089757Y-106964391D01*
X166057989Y-106985664D01*
X166027461Y-107010068D01*
X165998251Y-107037373D01*
X165970436Y-107067353D01*
X165944094Y-107099779D01*
X165919302Y-107134424D01*
X165896138Y-107171060D01*
X165874679Y-107209459D01*
X165855003Y-107249394D01*
X165837188Y-107290638D01*
X165821310Y-107332962D01*
X165807448Y-107376138D01*
X165795679Y-107419939D01*
X165786080Y-107464138D01*
X165778729Y-107508506D01*
X165773704Y-107552816D01*
X165771081Y-107596840D01*
X165770939Y-107640351D01*
X164576536Y-107640351D01*
X164622365Y-107478534D01*
X164756362Y-107045227D01*
X164837992Y-106803872D01*
X164914544Y-106585307D01*
X164986523Y-106388756D01*
X165054432Y-106213443D01*
X165087018Y-106133509D01*
X165118775Y-106058595D01*
X165149767Y-105988602D01*
X165180057Y-105923435D01*
X165209707Y-105862996D01*
X165238781Y-105807189D01*
X165267341Y-105755916D01*
X165295450Y-105709081D01*
X165323172Y-105666587D01*
X165350570Y-105628337D01*
X165377705Y-105594233D01*
X165404642Y-105564180D01*
X165431444Y-105538080D01*
X165458173Y-105515837D01*
X165484892Y-105497353D01*
X165511664Y-105482531D01*
X165538553Y-105471276D01*
X165565621Y-105463489D01*
X165592931Y-105459073D01*
X165620547Y-105457933D01*
X165648530Y-105459971D01*
G37*
G36*
X195650402Y-101124032D02*
G01*
X196536129Y-101168170D01*
X197432089Y-101235563D01*
X198332970Y-101325938D01*
X199233465Y-101439025D01*
X200128262Y-101574553D01*
X201012052Y-101732250D01*
X201879525Y-101911845D01*
X202725371Y-102113066D01*
X203544282Y-102335643D01*
X204660661Y-102689666D01*
X205755723Y-103105312D01*
X206826756Y-103580335D01*
X207871046Y-104112486D01*
X208885880Y-104699517D01*
X209868546Y-105339181D01*
X210816330Y-106029230D01*
X211726519Y-106767415D01*
X212596401Y-107551488D01*
X213423262Y-108379203D01*
X214204390Y-109248310D01*
X214937071Y-110156562D01*
X215618592Y-111101711D01*
X216246241Y-112081509D01*
X216817304Y-113093709D01*
X217329068Y-114136061D01*
X218298105Y-116381713D01*
X219604491Y-119480646D01*
X220587582Y-121823706D01*
X221555792Y-123997164D01*
X222514080Y-126010012D01*
X222991054Y-126959017D01*
X223467407Y-127871241D01*
X223943761Y-128747808D01*
X224420735Y-129589843D01*
X224898949Y-130398469D01*
X225379023Y-131174810D01*
X225861577Y-131919991D01*
X226347232Y-132635134D01*
X226836607Y-133321365D01*
X227330323Y-133979807D01*
X227561420Y-134291212D01*
X227775153Y-134585872D01*
X227966562Y-134856967D01*
X228130686Y-135097675D01*
X228200966Y-135204503D01*
X228262564Y-135301177D01*
X228314860Y-135386843D01*
X228357235Y-135460650D01*
X228389067Y-135521744D01*
X228409736Y-135569273D01*
X228415692Y-135587685D01*
X228418624Y-135602385D01*
X228418455Y-135613268D01*
X228415109Y-135620226D01*
X228384756Y-135626183D01*
X228314910Y-135624466D01*
X228064953Y-135599559D01*
X227181496Y-135474710D01*
X225896201Y-135270485D01*
X224340531Y-135011692D01*
X220371778Y-134297312D01*
X220451159Y-132312935D01*
X220463348Y-131874073D01*
X220460615Y-131422654D01*
X220443542Y-130961622D01*
X220412710Y-130493925D01*
X220368701Y-130022507D01*
X220312096Y-129550314D01*
X220243476Y-129080292D01*
X220163422Y-128615385D01*
X220072517Y-128158540D01*
X219971340Y-127712702D01*
X219860475Y-127280816D01*
X219740501Y-126865829D01*
X219612000Y-126470685D01*
X219475554Y-126098331D01*
X219331744Y-125751711D01*
X219181151Y-125433771D01*
X218890859Y-124911458D01*
X218566615Y-124416623D01*
X218209816Y-123950081D01*
X217821855Y-123512646D01*
X217404129Y-123105132D01*
X216958032Y-122728353D01*
X216484960Y-122383122D01*
X215986309Y-122070253D01*
X215463472Y-121790561D01*
X214917847Y-121544859D01*
X214350828Y-121333961D01*
X213763810Y-121158681D01*
X213158188Y-121019833D01*
X212535358Y-120918231D01*
X211896716Y-120854688D01*
X211243655Y-120830019D01*
X210766637Y-120837215D01*
X210307330Y-120859061D01*
X209864844Y-120895945D01*
X209438288Y-120948255D01*
X209026769Y-121016377D01*
X208629397Y-121100700D01*
X208245279Y-121201611D01*
X207873525Y-121319498D01*
X207513244Y-121454748D01*
X207163543Y-121607750D01*
X206823531Y-121778889D01*
X206492317Y-121968555D01*
X206169010Y-122177135D01*
X205852718Y-122405015D01*
X205542549Y-122652585D01*
X205237613Y-122920231D01*
X203967610Y-124057940D01*
X204629073Y-124613562D01*
X205186919Y-125074638D01*
X205749416Y-125505445D01*
X206316875Y-125906099D01*
X206889604Y-126276716D01*
X207467915Y-126617412D01*
X208052117Y-126928304D01*
X208642520Y-127209508D01*
X209239434Y-127461140D01*
X209843170Y-127683316D01*
X210454038Y-127876153D01*
X211072346Y-128039766D01*
X211698407Y-128174273D01*
X212332529Y-128279790D01*
X212975022Y-128356432D01*
X213626198Y-128404316D01*
X214286365Y-128423558D01*
X216138448Y-128423558D01*
X216059072Y-131757307D01*
X216051889Y-134116026D01*
X216145476Y-136691786D01*
X216333940Y-139431257D01*
X216611391Y-142281109D01*
X216971936Y-145188012D01*
X217409687Y-148098635D01*
X217918750Y-150959649D01*
X218493236Y-153717724D01*
X218634313Y-154328336D01*
X218758647Y-154901739D01*
X218864377Y-155425533D01*
X218949644Y-155887314D01*
X219012586Y-156274680D01*
X219035105Y-156436582D01*
X219051344Y-156575229D01*
X219061072Y-156689072D01*
X219064056Y-156776560D01*
X219060064Y-156836142D01*
X219055380Y-156854984D01*
X219048863Y-156866269D01*
X218949864Y-156907221D01*
X218779313Y-156902435D01*
X218238112Y-156763691D01*
X217454368Y-156466119D01*
X216457187Y-156025803D01*
X213938943Y-154781280D01*
X210916233Y-153158796D01*
X207621912Y-151287025D01*
X204288833Y-149294640D01*
X201149851Y-147310317D01*
X198437819Y-145462729D01*
X195527407Y-143372517D01*
X193939905Y-143690022D01*
X193525305Y-143778079D01*
X192934902Y-143918226D01*
X191337066Y-144325022D01*
X189367160Y-144850880D01*
X187245947Y-145436270D01*
X185465694Y-145929781D01*
X183585601Y-146422671D01*
X181706750Y-146891996D01*
X179930217Y-147314812D01*
X178357083Y-147668175D01*
X177088427Y-147929141D01*
X176225327Y-148074765D01*
X175977448Y-148097154D01*
X175904954Y-148094488D01*
X175868863Y-148082104D01*
X175862300Y-148064037D01*
X175862248Y-148020661D01*
X175880438Y-147863409D01*
X175920953Y-147621201D01*
X175981311Y-147304890D01*
X176151636Y-146493364D01*
X176371571Y-145515646D01*
X176510529Y-144856720D01*
X176629953Y-144203065D01*
X176730154Y-143545069D01*
X176811441Y-142873120D01*
X176874124Y-142177607D01*
X176918514Y-141448917D01*
X176944921Y-140677439D01*
X176953654Y-139853562D01*
X176956083Y-138737713D01*
X176928436Y-137787745D01*
X176848079Y-136879326D01*
X176692378Y-135888120D01*
X176438698Y-134689795D01*
X176064406Y-133160018D01*
X174863445Y-128608769D01*
X174568961Y-127435598D01*
X174320791Y-126313820D01*
X174119363Y-125238395D01*
X173965102Y-124204285D01*
X173858435Y-123206452D01*
X173799789Y-122239857D01*
X173789589Y-121299462D01*
X173798486Y-121087989D01*
X174774148Y-121087989D01*
X174786661Y-122029818D01*
X174851301Y-123015521D01*
X174967800Y-124053623D01*
X175135884Y-125152652D01*
X175355282Y-126321134D01*
X175625724Y-127567595D01*
X175946938Y-128900563D01*
X176318653Y-130328564D01*
X176728551Y-131843560D01*
X177052873Y-133097178D01*
X177302780Y-134152978D01*
X177403317Y-134626560D01*
X177489436Y-135074524D01*
X177562532Y-135504814D01*
X177624002Y-135925377D01*
X177675239Y-136344156D01*
X177717640Y-136769098D01*
X177781512Y-137669250D01*
X177826781Y-138689394D01*
X177859234Y-139782559D01*
X177858200Y-140851538D01*
X177824920Y-141884550D01*
X177760634Y-142869812D01*
X177666583Y-143795544D01*
X177608783Y-144232404D01*
X177544007Y-144649962D01*
X177472409Y-145046747D01*
X177394145Y-145421286D01*
X177309370Y-145772105D01*
X177218239Y-146097733D01*
X177213740Y-146120128D01*
X177210158Y-146142639D01*
X177207476Y-146165228D01*
X177205681Y-146187856D01*
X177204758Y-146210483D01*
X177204693Y-146233072D01*
X177205470Y-146255584D01*
X177207076Y-146277979D01*
X177209496Y-146300219D01*
X177212715Y-146322265D01*
X177216719Y-146344079D01*
X177221493Y-146365621D01*
X177227024Y-146386853D01*
X177233295Y-146407737D01*
X177240293Y-146428233D01*
X177248003Y-146448303D01*
X177256411Y-146467907D01*
X177265502Y-146487008D01*
X177275261Y-146505566D01*
X177285675Y-146523543D01*
X177296728Y-146540899D01*
X177308406Y-146557597D01*
X177320694Y-146573597D01*
X177333579Y-146588860D01*
X177347044Y-146603349D01*
X177361077Y-146617023D01*
X177375662Y-146629845D01*
X177390784Y-146641776D01*
X177406430Y-146652776D01*
X177422585Y-146662807D01*
X177439233Y-146671831D01*
X177456362Y-146679808D01*
X177582524Y-146703690D01*
X177772364Y-146705906D01*
X178342303Y-146645497D01*
X179164631Y-146498893D01*
X180237795Y-146266402D01*
X181560247Y-145948334D01*
X183130436Y-145545000D01*
X187007824Y-144483773D01*
X189385145Y-143829393D01*
X190389709Y-143559816D01*
X191282497Y-143326633D01*
X192071725Y-143128331D01*
X192765610Y-142963399D01*
X193372369Y-142830325D01*
X193900218Y-142727599D01*
X194357373Y-142653708D01*
X194562009Y-142627104D01*
X194752052Y-142607141D01*
X194928531Y-142593632D01*
X195092471Y-142586387D01*
X195244900Y-142585217D01*
X195386846Y-142589934D01*
X195519335Y-142600348D01*
X195643394Y-142616270D01*
X195760050Y-142637512D01*
X195870331Y-142663884D01*
X195975263Y-142695198D01*
X196075874Y-142731265D01*
X196173191Y-142771895D01*
X196268240Y-142816901D01*
X196354320Y-142858680D01*
X196443423Y-142904334D01*
X196534851Y-142953400D01*
X196627907Y-143005412D01*
X196816112Y-143116411D01*
X197002457Y-143233613D01*
X197181361Y-143353295D01*
X197347242Y-143471738D01*
X197423555Y-143529332D01*
X197494520Y-143585221D01*
X197559438Y-143638939D01*
X197617613Y-143690022D01*
X198244500Y-144187019D01*
X199145169Y-144828348D01*
X201602900Y-146446646D01*
X204660905Y-148350199D01*
X207989281Y-150344288D01*
X211258125Y-152234199D01*
X214137535Y-153825213D01*
X216297609Y-154922614D01*
X217004800Y-155225360D01*
X217408444Y-155331684D01*
X217462633Y-155317473D01*
X217505854Y-155272567D01*
X217537681Y-155193554D01*
X217557686Y-155077024D01*
X217565444Y-154919566D01*
X217560529Y-154717770D01*
X217510971Y-154167520D01*
X217405603Y-153398989D01*
X217241014Y-152384891D01*
X216720529Y-149510853D01*
X216421995Y-147813231D01*
X216142995Y-146005538D01*
X215885698Y-144104207D01*
X215652276Y-142125671D01*
X215444898Y-140086364D01*
X215265735Y-138002718D01*
X215116959Y-135891166D01*
X215000739Y-133768143D01*
X214815528Y-129534813D01*
X213201573Y-129349602D01*
X212547175Y-129269058D01*
X211904132Y-129166616D01*
X211273259Y-129042702D01*
X210655370Y-128897743D01*
X210051279Y-128732165D01*
X209461799Y-128546395D01*
X208887745Y-128340858D01*
X208329930Y-128115981D01*
X207789168Y-127872191D01*
X207266274Y-127609914D01*
X206762061Y-127329576D01*
X206277342Y-127031603D01*
X205812933Y-126716422D01*
X205369646Y-126384460D01*
X204948296Y-126036142D01*
X204549697Y-125671894D01*
X204297884Y-125423764D01*
X204078046Y-125193733D01*
X203980033Y-125084766D01*
X203889912Y-124979437D01*
X203807649Y-124877451D01*
X203733210Y-124778513D01*
X203666561Y-124682326D01*
X203607668Y-124588596D01*
X203556498Y-124497026D01*
X203513016Y-124407321D01*
X203477189Y-124319186D01*
X203448983Y-124232325D01*
X203428363Y-124146443D01*
X203415296Y-124061244D01*
X203409748Y-123976432D01*
X203411685Y-123891712D01*
X203421074Y-123806789D01*
X203437879Y-123721367D01*
X203462067Y-123635151D01*
X203493605Y-123547844D01*
X203532459Y-123459152D01*
X203578594Y-123368778D01*
X203631976Y-123276428D01*
X203692573Y-123181806D01*
X203760349Y-123084616D01*
X203835271Y-122984563D01*
X204006417Y-122774686D01*
X204205739Y-122549809D01*
X204437369Y-122307055D01*
X204685219Y-122074973D01*
X205226246Y-121643353D01*
X205822153Y-121255993D01*
X206466273Y-120913940D01*
X207151942Y-120618241D01*
X207872492Y-120369943D01*
X208621258Y-120170091D01*
X209391572Y-120019732D01*
X210176769Y-119919913D01*
X210970183Y-119871679D01*
X211765147Y-119876078D01*
X212554995Y-119934156D01*
X213333061Y-120046959D01*
X214092678Y-120215534D01*
X214827181Y-120440927D01*
X215529902Y-120724184D01*
X216205108Y-121068505D01*
X216841245Y-121455924D01*
X217437695Y-121885510D01*
X217993838Y-122356335D01*
X218509052Y-122867466D01*
X218982718Y-123417976D01*
X219414217Y-124006932D01*
X219802927Y-124633405D01*
X220148229Y-125296466D01*
X220449502Y-125995183D01*
X220706127Y-126728626D01*
X220917484Y-127495866D01*
X221082952Y-128295972D01*
X221201911Y-129128014D01*
X221273741Y-129991062D01*
X221297822Y-130884186D01*
X221299069Y-131140572D01*
X221302834Y-131383742D01*
X221309158Y-131613502D01*
X221318079Y-131829658D01*
X221329635Y-132032016D01*
X221343865Y-132220383D01*
X221360808Y-132394565D01*
X221380503Y-132554368D01*
X221402989Y-132699598D01*
X221428304Y-132830061D01*
X221456488Y-132945564D01*
X221487578Y-133045913D01*
X221504226Y-133090344D01*
X221521615Y-133130914D01*
X221539749Y-133167599D01*
X221558635Y-133200373D01*
X221578277Y-133229214D01*
X221598679Y-133254097D01*
X221619847Y-133274998D01*
X221641786Y-133291891D01*
X221744827Y-133355169D01*
X221909261Y-133424803D01*
X222126405Y-133499088D01*
X222387577Y-133576319D01*
X223007279Y-133732795D01*
X223698916Y-133880591D01*
X224393034Y-134006061D01*
X225020179Y-134095565D01*
X225286933Y-134122566D01*
X225510898Y-134135459D01*
X225683394Y-134132539D01*
X225795739Y-134112101D01*
X225811175Y-134104525D01*
X225822799Y-134091799D01*
X225830672Y-134074045D01*
X225834859Y-134051383D01*
X225832424Y-133991820D01*
X225815997Y-133914079D01*
X225786082Y-133819130D01*
X225743184Y-133707942D01*
X225687806Y-133581483D01*
X225620451Y-133440723D01*
X225451830Y-133120174D01*
X225241351Y-132754046D01*
X224993044Y-132350091D01*
X224710942Y-131916060D01*
X224013207Y-130817265D01*
X223311132Y-129629482D01*
X222607816Y-128360464D01*
X221906361Y-127017962D01*
X221209866Y-125609727D01*
X220521433Y-124143511D01*
X219844161Y-122627066D01*
X219181151Y-121068142D01*
X218263328Y-118837271D01*
X217528748Y-117072108D01*
X216939896Y-115692658D01*
X216688393Y-115122576D01*
X216459254Y-114618925D01*
X216247787Y-114171704D01*
X216049304Y-113770915D01*
X215859116Y-113406557D01*
X215672532Y-113068632D01*
X215484862Y-112747140D01*
X215291418Y-112432081D01*
X215087509Y-112113457D01*
X214868445Y-111781268D01*
X214531457Y-111280511D01*
X214166835Y-110781537D01*
X213776711Y-110286128D01*
X213363215Y-109796068D01*
X212928481Y-109313139D01*
X212474639Y-108839124D01*
X212003822Y-108375806D01*
X211518160Y-107924968D01*
X211019786Y-107488392D01*
X210510831Y-107067862D01*
X209993427Y-106665160D01*
X209469706Y-106282070D01*
X208941798Y-105920373D01*
X208411837Y-105581854D01*
X207881953Y-105268294D01*
X207354278Y-104981477D01*
X206395216Y-104504659D01*
X205520800Y-104098844D01*
X205105354Y-103919172D01*
X204699094Y-103753181D01*
X204298027Y-103599514D01*
X203898161Y-103456816D01*
X203495505Y-103323730D01*
X203086066Y-103198899D01*
X202665852Y-103080967D01*
X202230872Y-102968577D01*
X201300643Y-102754998D01*
X200263444Y-102547310D01*
X199407947Y-102395711D01*
X198576364Y-102268413D01*
X197766562Y-102165532D01*
X196976410Y-102087184D01*
X196203776Y-102033486D01*
X195446529Y-102004554D01*
X194702537Y-102000504D01*
X193969669Y-102021452D01*
X193245792Y-102067516D01*
X192528775Y-102138810D01*
X191816487Y-102235451D01*
X191106796Y-102357556D01*
X190397569Y-102505240D01*
X189686676Y-102678621D01*
X188971985Y-102877814D01*
X188251365Y-103102935D01*
X187325607Y-103435254D01*
X186423878Y-103816794D01*
X185546645Y-104247169D01*
X184694371Y-104725990D01*
X183867522Y-105252870D01*
X183066563Y-105827421D01*
X182291959Y-106449256D01*
X181544175Y-107117988D01*
X180823676Y-107833229D01*
X180130927Y-108594590D01*
X179466394Y-109401686D01*
X178830542Y-110254127D01*
X178223834Y-111151527D01*
X177646738Y-112093498D01*
X177099717Y-113079652D01*
X176583238Y-114109602D01*
X176168954Y-115007403D01*
X175808969Y-115880864D01*
X175503012Y-116738512D01*
X175250812Y-117588874D01*
X175052097Y-118440476D01*
X174906595Y-119301844D01*
X174814036Y-120181507D01*
X174774148Y-121087989D01*
X173798486Y-121087989D01*
X173828263Y-120380229D01*
X173916235Y-119477119D01*
X174053934Y-118585093D01*
X174241784Y-117699113D01*
X174480212Y-116814141D01*
X174769646Y-115925138D01*
X175110510Y-115027066D01*
X175503231Y-114114886D01*
X175948236Y-113183561D01*
X176559523Y-112029032D01*
X177212087Y-110927368D01*
X177905035Y-109879344D01*
X178637478Y-108885735D01*
X179408522Y-107947317D01*
X180217278Y-107064865D01*
X181062853Y-106239153D01*
X181944356Y-105470957D01*
X182860896Y-104761052D01*
X183811581Y-104110213D01*
X184795520Y-103519216D01*
X185811822Y-102988835D01*
X186859594Y-102519845D01*
X187937946Y-102113022D01*
X189045987Y-101769142D01*
X190182824Y-101488978D01*
X190848255Y-101362739D01*
X191561086Y-101261653D01*
X192316007Y-101185450D01*
X193107709Y-101133857D01*
X193930882Y-101106604D01*
X194780216Y-101103420D01*
X195650402Y-101124032D01*
G37*
G36*
X177930475Y-91606293D02*
G01*
X177972973Y-91653248D01*
X178108313Y-91842849D01*
X178303805Y-92148411D01*
X178551077Y-92555983D01*
X178841757Y-93051612D01*
X179167473Y-93621344D01*
X179890529Y-94927310D01*
X180646659Y-96327537D01*
X181355660Y-97616140D01*
X181940637Y-98651736D01*
X182162587Y-99030472D01*
X182324696Y-99292937D01*
X182449597Y-99496955D01*
X182564888Y-99689811D01*
X182668396Y-99867785D01*
X182757951Y-100027155D01*
X182831383Y-100164200D01*
X182861375Y-100223188D01*
X182886522Y-100275200D01*
X182906553Y-100319771D01*
X182921197Y-100356435D01*
X182930183Y-100384728D01*
X182932469Y-100395589D01*
X182933238Y-100404184D01*
X182927771Y-100419463D01*
X182911825Y-100440222D01*
X182851227Y-100496530D01*
X182756912Y-100569814D01*
X182634341Y-100656779D01*
X182326298Y-100858576D01*
X181970816Y-101075566D01*
X181611612Y-101281394D01*
X181444278Y-101371886D01*
X181292407Y-101449704D01*
X181161465Y-101511555D01*
X181056917Y-101554143D01*
X180984227Y-101574174D01*
X180961537Y-101574701D01*
X180948861Y-101568354D01*
X177687872Y-97665748D01*
X174784072Y-94160021D01*
X174739046Y-94097736D01*
X176245134Y-94097736D01*
X176248116Y-94141466D01*
X176255807Y-94187386D01*
X176268367Y-94235859D01*
X176285956Y-94287249D01*
X176308733Y-94341919D01*
X176370493Y-94462551D01*
X176454926Y-94600662D01*
X176563310Y-94759160D01*
X176696926Y-94940951D01*
X176857052Y-95148943D01*
X177044967Y-95386041D01*
X177509279Y-95959184D01*
X178233937Y-96827556D01*
X178579272Y-97233293D01*
X178911157Y-97617792D01*
X179228004Y-97979346D01*
X179528225Y-98316251D01*
X179810230Y-98626800D01*
X180072429Y-98909290D01*
X180313235Y-99162013D01*
X180531058Y-99383266D01*
X180724308Y-99571342D01*
X180891398Y-99724537D01*
X181030737Y-99841145D01*
X181089504Y-99885196D01*
X181140737Y-99919460D01*
X181184238Y-99943726D01*
X181219809Y-99957778D01*
X181247250Y-99961405D01*
X181266363Y-99954394D01*
X181284153Y-99914925D01*
X181287137Y-99854451D01*
X181274153Y-99770567D01*
X181244038Y-99660871D01*
X181127766Y-99354429D01*
X180929018Y-98915903D01*
X180638493Y-98326069D01*
X180246889Y-97565702D01*
X179123237Y-95456477D01*
X178884814Y-95024669D01*
X178664453Y-94641230D01*
X178560488Y-94467262D01*
X178460370Y-94304920D01*
X178363876Y-94154051D01*
X178270782Y-94014499D01*
X178180867Y-93886109D01*
X178093907Y-93768726D01*
X178009679Y-93662195D01*
X177927961Y-93566361D01*
X177848529Y-93481070D01*
X177771162Y-93406165D01*
X177695635Y-93341492D01*
X177621726Y-93286896D01*
X177549213Y-93242221D01*
X177477872Y-93207314D01*
X177407481Y-93182018D01*
X177337816Y-93166180D01*
X177268655Y-93159642D01*
X177199775Y-93162252D01*
X177130954Y-93173853D01*
X177061967Y-93194291D01*
X176992593Y-93223411D01*
X176922609Y-93261057D01*
X176851791Y-93307075D01*
X176779917Y-93361309D01*
X176706764Y-93423605D01*
X176632109Y-93493807D01*
X176555730Y-93571761D01*
X176477403Y-93657311D01*
X176403822Y-93742751D01*
X176342683Y-93822417D01*
X176295264Y-93899214D01*
X176277099Y-93937446D01*
X176262843Y-93976050D01*
X176252658Y-94015391D01*
X176246701Y-94055832D01*
X176245134Y-94097736D01*
X174739046Y-94097736D01*
X174735270Y-94092512D01*
X174698754Y-94027987D01*
X174675648Y-93965090D01*
X174669475Y-93933828D01*
X174667076Y-93902464D01*
X174668591Y-93870829D01*
X174674162Y-93838753D01*
X174683928Y-93806067D01*
X174698030Y-93772601D01*
X174716608Y-93738185D01*
X174739803Y-93702650D01*
X174800607Y-93627545D01*
X174881565Y-93545928D01*
X174983800Y-93456444D01*
X175108437Y-93357735D01*
X175256600Y-93248446D01*
X175429413Y-93127220D01*
X175627999Y-92992699D01*
X176106989Y-92678352D01*
X176446916Y-92457021D01*
X176767620Y-92252124D01*
X177062280Y-92067691D01*
X177324072Y-91907753D01*
X177546178Y-91776340D01*
X177721774Y-91677483D01*
X177790000Y-91641523D01*
X177844040Y-91615213D01*
X177883043Y-91599058D01*
X177906155Y-91593561D01*
X177930475Y-91606293D01*
G37*
G36*
X196552699Y-66471257D02*
G01*
X196847429Y-66495352D01*
X197049296Y-66532159D01*
X197111810Y-66555450D01*
X197146791Y-66582066D01*
X197152800Y-66612053D01*
X197128400Y-66645460D01*
X197072151Y-66682336D01*
X196982614Y-66722730D01*
X196778543Y-66785258D01*
X196436497Y-66870730D01*
X195411649Y-67093144D01*
X194054419Y-67355246D01*
X192511153Y-67622311D01*
X190054094Y-68082955D01*
X187762296Y-68578946D01*
X185605064Y-69120825D01*
X184567317Y-69412267D01*
X183551701Y-69719134D01*
X182554378Y-70042745D01*
X181571511Y-70384416D01*
X180599264Y-70745467D01*
X179633800Y-71127213D01*
X178671281Y-71530974D01*
X177707871Y-71958066D01*
X175763028Y-72887518D01*
X173728353Y-73960359D01*
X171763944Y-75102886D01*
X169873097Y-76311611D01*
X168059106Y-77583045D01*
X166325265Y-78913700D01*
X164674868Y-80300089D01*
X163111210Y-81738722D01*
X161637586Y-83226112D01*
X160257289Y-84758770D01*
X158973614Y-86333209D01*
X157789856Y-87945941D01*
X156709308Y-89593476D01*
X155735265Y-91272327D01*
X154871022Y-92979006D01*
X154119873Y-94710025D01*
X153485112Y-96461894D01*
X152952134Y-98189372D01*
X152494268Y-99893519D01*
X152111591Y-101580767D01*
X151804181Y-103257551D01*
X151572115Y-104930304D01*
X151415471Y-106605460D01*
X151334326Y-108289453D01*
X151328758Y-109988716D01*
X151398844Y-111709684D01*
X151544662Y-113458789D01*
X151766289Y-115242466D01*
X152063803Y-117067148D01*
X152437282Y-118939269D01*
X152886802Y-120865262D01*
X153412442Y-122851562D01*
X154014279Y-124904602D01*
X154571506Y-126729814D01*
X155039126Y-128324342D01*
X155426751Y-129730355D01*
X155743992Y-130990020D01*
X156000462Y-132145506D01*
X156205773Y-133238981D01*
X156369536Y-134312612D01*
X156501362Y-135408568D01*
X156582326Y-136278662D01*
X156636858Y-137141741D01*
X156665189Y-137996371D01*
X156667553Y-138841119D01*
X156644183Y-139674550D01*
X156595310Y-140495229D01*
X156521167Y-141301724D01*
X156421987Y-142092599D01*
X156298002Y-142866421D01*
X156149446Y-143621756D01*
X155976549Y-144357170D01*
X155779546Y-145071229D01*
X155558668Y-145762498D01*
X155314148Y-146429544D01*
X155046218Y-147070932D01*
X154755112Y-147685229D01*
X154687254Y-147817513D01*
X154622769Y-147946038D01*
X154561926Y-148070145D01*
X154504998Y-148189174D01*
X154452256Y-148302468D01*
X154403971Y-148409367D01*
X154360414Y-148509212D01*
X154321857Y-148601345D01*
X154288571Y-148685106D01*
X154260827Y-148759836D01*
X154238897Y-148824878D01*
X154223052Y-148879571D01*
X154213562Y-148923257D01*
X154211286Y-148940767D01*
X154210701Y-148955277D01*
X154211840Y-148966707D01*
X154214738Y-148974973D01*
X154219429Y-148979992D01*
X154225945Y-148981684D01*
X154319431Y-148972635D01*
X154420992Y-148945879D01*
X154646540Y-148841589D01*
X154898986Y-148673506D01*
X155174725Y-148446317D01*
X155470152Y-148164713D01*
X155781664Y-147833383D01*
X156105656Y-147457018D01*
X156438524Y-147040306D01*
X156776662Y-146587938D01*
X157116467Y-146104602D01*
X157454334Y-145594989D01*
X157786658Y-145063789D01*
X158109836Y-144515690D01*
X158420263Y-143955382D01*
X158714334Y-143387556D01*
X158988445Y-142816901D01*
X159348701Y-141981711D01*
X159675277Y-141105012D01*
X159967979Y-140189324D01*
X160226613Y-139237166D01*
X160450985Y-138251056D01*
X160640903Y-137233514D01*
X160796171Y-136187059D01*
X160916597Y-135114211D01*
X161001985Y-134017488D01*
X161052144Y-132899410D01*
X161066878Y-131762496D01*
X161045994Y-130609265D01*
X160989299Y-129442237D01*
X160896598Y-128263930D01*
X160767698Y-127076864D01*
X160602405Y-125883559D01*
X160261391Y-123596153D01*
X159987661Y-121693221D01*
X159774082Y-120112750D01*
X159613524Y-118792728D01*
X159498854Y-117671143D01*
X159422941Y-116685984D01*
X159378654Y-115775238D01*
X159358862Y-114876894D01*
X159377629Y-113852979D01*
X159443263Y-112825973D01*
X159554882Y-111797126D01*
X159711606Y-110767687D01*
X159912551Y-109738908D01*
X160156837Y-108712037D01*
X160443581Y-107688326D01*
X160771903Y-106669022D01*
X161140919Y-105655378D01*
X161549749Y-104648642D01*
X162483323Y-102660895D01*
X163565570Y-100715781D01*
X164789436Y-98823300D01*
X166147867Y-96993450D01*
X167633810Y-95236232D01*
X169240211Y-93561644D01*
X170960015Y-91979686D01*
X172786170Y-90500358D01*
X174711621Y-89133658D01*
X176729314Y-87889587D01*
X177770548Y-87316661D01*
X178832196Y-86778143D01*
X179868664Y-86289658D01*
X180886799Y-85835667D01*
X181889974Y-85415318D01*
X182881561Y-85027757D01*
X183864931Y-84672132D01*
X184843456Y-84347591D01*
X185820509Y-84053281D01*
X186799461Y-83788349D01*
X187783683Y-83551942D01*
X188776549Y-83343208D01*
X189781429Y-83161294D01*
X190801696Y-83005347D01*
X191840722Y-82874516D01*
X192901878Y-82767946D01*
X193988537Y-82684786D01*
X195104070Y-82624182D01*
X196337948Y-82576221D01*
X197532449Y-82551785D01*
X198692223Y-82551456D01*
X199821921Y-82575816D01*
X200926195Y-82625445D01*
X202009695Y-82700925D01*
X203077071Y-82802837D01*
X204132976Y-82931764D01*
X205182059Y-83088285D01*
X206228972Y-83272983D01*
X207278366Y-83486438D01*
X208334891Y-83729233D01*
X209403198Y-84001948D01*
X210487938Y-84305166D01*
X211593763Y-84639466D01*
X212725322Y-85005432D01*
X213099123Y-85130050D01*
X213456026Y-85245831D01*
X213795255Y-85352621D01*
X214116037Y-85450264D01*
X214417595Y-85538605D01*
X214699154Y-85617490D01*
X214959939Y-85686762D01*
X215199175Y-85746268D01*
X215416088Y-85795852D01*
X215609900Y-85835359D01*
X215779839Y-85864633D01*
X215925127Y-85883521D01*
X216044991Y-85891867D01*
X216138655Y-85889516D01*
X216175420Y-85884280D01*
X216205344Y-85876312D01*
X216228331Y-85865592D01*
X216244283Y-85852101D01*
X216393071Y-85630397D01*
X216640847Y-85176071D01*
X217372894Y-83703189D01*
X218319503Y-81700727D01*
X219359750Y-79435955D01*
X220372712Y-77176144D01*
X221237467Y-75188564D01*
X221833091Y-73740486D01*
X221992190Y-73302283D01*
X222038661Y-73099181D01*
X222009566Y-73009136D01*
X221960937Y-72917075D01*
X221891225Y-72822223D01*
X221798879Y-72723806D01*
X221682348Y-72621048D01*
X221540082Y-72513173D01*
X221370531Y-72399408D01*
X221172145Y-72278976D01*
X220943373Y-72151102D01*
X220682665Y-72015012D01*
X220059240Y-71715082D01*
X219289466Y-71372983D01*
X218360942Y-70982515D01*
X216876591Y-70394077D01*
X215390998Y-69856798D01*
X213890522Y-69367269D01*
X212361521Y-68922077D01*
X210790350Y-68517813D01*
X209163370Y-68151065D01*
X207466935Y-67818425D01*
X205687406Y-67516480D01*
X204035361Y-67241148D01*
X203361791Y-67120225D01*
X202789804Y-67010464D01*
X202319361Y-66911865D01*
X201950424Y-66824428D01*
X201682953Y-66748153D01*
X201516910Y-66683041D01*
X201471912Y-66654670D01*
X201452257Y-66629090D01*
X201457939Y-66606301D01*
X201488954Y-66586302D01*
X201545296Y-66569094D01*
X201626962Y-66554676D01*
X201866243Y-66534212D01*
X202206759Y-66524910D01*
X202648470Y-66526771D01*
X203191337Y-66539793D01*
X203835322Y-66563978D01*
X205194515Y-66641079D01*
X206558049Y-66773990D01*
X207932745Y-66963952D01*
X209325424Y-67212205D01*
X210742909Y-67519990D01*
X212192019Y-67888546D01*
X213679577Y-68319115D01*
X215212403Y-68812936D01*
X216262986Y-69176893D01*
X217505185Y-69645960D01*
X218842882Y-70178899D01*
X220179958Y-70734472D01*
X221420296Y-71271442D01*
X222467777Y-71748570D01*
X223226284Y-72124619D01*
X223467135Y-72261852D01*
X223599698Y-72358352D01*
X223548640Y-72519324D01*
X223364878Y-72961519D01*
X222653811Y-74564314D01*
X221575635Y-76916212D01*
X220239490Y-79766685D01*
X218909542Y-82642374D01*
X217815242Y-85031894D01*
X217073169Y-86687195D01*
X216870650Y-87161999D01*
X216817895Y-87297623D01*
X216799905Y-87360229D01*
X216796753Y-87463633D01*
X216789266Y-87502719D01*
X216774687Y-87532620D01*
X216763999Y-87543944D01*
X216750651Y-87552754D01*
X216734348Y-87558977D01*
X216714794Y-87562540D01*
X216664752Y-87561397D01*
X216598160Y-87548742D01*
X216512656Y-87523996D01*
X216405873Y-87486576D01*
X216119018Y-87371390D01*
X215718681Y-87198533D01*
X215185950Y-86963355D01*
X213720012Y-86356344D01*
X212203340Y-85805647D01*
X210641633Y-85311768D01*
X209040587Y-84875212D01*
X207405899Y-84496481D01*
X205743268Y-84176081D01*
X204058390Y-83914514D01*
X202356962Y-83712285D01*
X200644683Y-83569897D01*
X198927249Y-83487854D01*
X197210357Y-83466661D01*
X195499706Y-83506820D01*
X193800992Y-83608836D01*
X192119912Y-83773212D01*
X190462164Y-84000452D01*
X188833446Y-84291061D01*
X186324174Y-84889571D01*
X183881448Y-85648652D01*
X181512904Y-86561445D01*
X179226177Y-87621090D01*
X177028901Y-88820726D01*
X174928713Y-90153494D01*
X172933247Y-91612533D01*
X171050138Y-93190983D01*
X169287022Y-94881984D01*
X167651534Y-96678677D01*
X166151309Y-98574201D01*
X164793983Y-100561696D01*
X163587189Y-102634302D01*
X163042629Y-103700378D01*
X162538565Y-104785159D01*
X162075952Y-105887788D01*
X161655744Y-107007407D01*
X161278896Y-108143159D01*
X160946362Y-109294186D01*
X160784518Y-109945923D01*
X160646277Y-110613744D01*
X160531678Y-111301331D01*
X160440760Y-112012367D01*
X160373562Y-112750532D01*
X160330121Y-113519510D01*
X160310477Y-114322981D01*
X160314670Y-115164629D01*
X160394716Y-116977179D01*
X160570571Y-118986617D01*
X160842544Y-121222397D01*
X161210946Y-123713976D01*
X161476097Y-125403019D01*
X161680168Y-126788516D01*
X161829047Y-127943949D01*
X161884632Y-128458356D01*
X161928628Y-128942803D01*
X161961772Y-129406477D01*
X161984800Y-129858562D01*
X161998449Y-130308244D01*
X162003455Y-130764709D01*
X161990485Y-131734729D01*
X161951779Y-132842104D01*
X161913745Y-133600920D01*
X161860829Y-134393222D01*
X161795510Y-135195447D01*
X161720269Y-135984030D01*
X161637586Y-136735406D01*
X161549943Y-137426011D01*
X161459819Y-138032280D01*
X161369695Y-138530648D01*
X161065418Y-139819554D01*
X160700330Y-141064394D01*
X160277495Y-142261407D01*
X159799972Y-143406834D01*
X159270825Y-144496916D01*
X158693115Y-145527893D01*
X158387005Y-146020042D01*
X158069903Y-146496005D01*
X157742192Y-146955312D01*
X157404253Y-147397493D01*
X157056470Y-147822079D01*
X156699225Y-148228599D01*
X156332901Y-148616583D01*
X155957881Y-148985561D01*
X155574548Y-149335064D01*
X155183284Y-149664622D01*
X154784472Y-149973764D01*
X154378494Y-150262021D01*
X153965734Y-150528922D01*
X153546575Y-150773999D01*
X153121398Y-150996780D01*
X152690587Y-151196796D01*
X152254524Y-151373577D01*
X151813593Y-151526654D01*
X151368175Y-151655555D01*
X150918654Y-151759812D01*
X149992612Y-151945023D01*
X151606570Y-150251681D01*
X152115654Y-149704636D01*
X152582376Y-149161932D01*
X153008403Y-148619227D01*
X153395402Y-148072182D01*
X153745038Y-147516454D01*
X154058979Y-146947704D01*
X154338891Y-146361590D01*
X154586440Y-145753772D01*
X154803294Y-145119909D01*
X154991118Y-144455660D01*
X155151580Y-143756685D01*
X155286346Y-143018642D01*
X155397082Y-142237191D01*
X155485455Y-141407990D01*
X155553132Y-140526701D01*
X155601779Y-139588980D01*
X155632578Y-138029696D01*
X155624801Y-137290865D01*
X155600125Y-136570250D01*
X155557466Y-135861107D01*
X155495739Y-135156692D01*
X155413858Y-134450262D01*
X155310737Y-133735073D01*
X155185293Y-133004380D01*
X155036439Y-132251441D01*
X154863090Y-131469512D01*
X154664162Y-130651849D01*
X154185224Y-128882345D01*
X153590945Y-126888979D01*
X153015102Y-124949711D01*
X152497782Y-123077687D01*
X152038598Y-121268217D01*
X151637163Y-119516612D01*
X151293088Y-117818182D01*
X151005987Y-116168237D01*
X150775471Y-114562088D01*
X150601154Y-112995045D01*
X150482647Y-111462419D01*
X150419563Y-109959520D01*
X150411514Y-108481658D01*
X150458113Y-107024144D01*
X150558973Y-105582287D01*
X150713705Y-104151399D01*
X150921922Y-102726790D01*
X151183237Y-101303769D01*
X151502307Y-99846823D01*
X151855599Y-98440223D01*
X152245091Y-97080363D01*
X152672759Y-95763641D01*
X153140579Y-94486451D01*
X153650528Y-93245190D01*
X154204584Y-92036251D01*
X154804721Y-90856033D01*
X155452918Y-89700929D01*
X156151151Y-88567335D01*
X156901396Y-87451647D01*
X157705629Y-86350261D01*
X158565829Y-85259572D01*
X159483970Y-84175976D01*
X160462031Y-83095868D01*
X161501987Y-82015644D01*
X162967111Y-80594606D01*
X164492967Y-79229766D01*
X166076417Y-77922753D01*
X167714321Y-76675193D01*
X169403540Y-75488715D01*
X171140934Y-74364946D01*
X172923364Y-73305514D01*
X174747690Y-72312048D01*
X176610774Y-71386174D01*
X178509476Y-70529521D01*
X180440657Y-69743717D01*
X182401176Y-69030388D01*
X184387896Y-68391164D01*
X186397677Y-67827671D01*
X188427378Y-67341539D01*
X190473862Y-66934393D01*
X191030359Y-66844231D01*
X191620614Y-66762518D01*
X192233115Y-66689641D01*
X192856353Y-66625989D01*
X194088991Y-66527907D01*
X195226442Y-66471373D01*
X195730694Y-66459656D01*
X196176617Y-66459488D01*
X196552699Y-66471257D01*
G37*
G36*
X183960583Y-89052755D02*
G01*
X184090116Y-89358815D01*
X184478982Y-90460401D01*
X184983809Y-92025215D01*
X185536076Y-93825983D01*
X186067258Y-95635433D01*
X186508834Y-97226292D01*
X186792279Y-98371286D01*
X186853290Y-98705562D01*
X186849071Y-98843144D01*
X186801761Y-98868013D01*
X186722360Y-98901951D01*
X186485268Y-98991145D01*
X186173762Y-99098942D01*
X185823809Y-99213561D01*
X185471376Y-99323219D01*
X185152430Y-99416133D01*
X184902938Y-99480522D01*
X184815476Y-99498338D01*
X184758865Y-99504604D01*
X184722795Y-99481123D01*
X184665020Y-99412258D01*
X184489320Y-99147830D01*
X184241686Y-98730232D01*
X183932040Y-98178380D01*
X183166402Y-96747563D01*
X182271778Y-95006687D01*
X180368946Y-91223144D01*
X181504486Y-91223144D01*
X182377613Y-93048768D01*
X182682975Y-93673769D01*
X182973803Y-94258617D01*
X183249826Y-94802847D01*
X183510772Y-95305994D01*
X183756371Y-95767594D01*
X183986350Y-96187181D01*
X184200439Y-96564290D01*
X184398366Y-96898455D01*
X184579861Y-97189213D01*
X184744650Y-97436097D01*
X184892464Y-97638643D01*
X184959920Y-97723144D01*
X185023031Y-97796386D01*
X185081762Y-97858310D01*
X185136080Y-97908860D01*
X185185950Y-97947976D01*
X185231338Y-97975600D01*
X185272212Y-97991675D01*
X185308536Y-97996142D01*
X185340278Y-97988943D01*
X185367402Y-97970020D01*
X185386491Y-97927217D01*
X185394539Y-97849911D01*
X185379857Y-97600740D01*
X185328045Y-97240413D01*
X185243793Y-96786836D01*
X184996729Y-95671555D01*
X184676180Y-94398145D01*
X184319665Y-93109852D01*
X183964699Y-91949923D01*
X183799522Y-91462860D01*
X183648801Y-91061605D01*
X183517226Y-90764065D01*
X183409487Y-90588146D01*
X183341732Y-90509410D01*
X183276730Y-90441953D01*
X183244958Y-90412490D01*
X183213510Y-90385890D01*
X183182266Y-90362168D01*
X183151105Y-90341338D01*
X183119904Y-90323415D01*
X183088544Y-90308414D01*
X183056902Y-90296348D01*
X183024859Y-90287232D01*
X182992292Y-90281082D01*
X182959081Y-90277911D01*
X182925105Y-90277734D01*
X182890242Y-90280565D01*
X182854371Y-90286420D01*
X182817372Y-90295312D01*
X182779122Y-90307256D01*
X182739502Y-90322267D01*
X182698389Y-90340360D01*
X182655663Y-90361548D01*
X182564887Y-90413269D01*
X182466204Y-90477548D01*
X182358646Y-90554501D01*
X182241244Y-90644243D01*
X182113029Y-90746892D01*
X181504486Y-91223144D01*
X180368946Y-91223144D01*
X179996364Y-90482311D01*
X181398654Y-89873771D01*
X181973710Y-89619935D01*
X182506597Y-89390904D01*
X182935305Y-89211483D01*
X183197820Y-89106473D01*
X183281639Y-89076864D01*
X183372279Y-89048185D01*
X183466641Y-89021366D01*
X183561622Y-88997337D01*
X183654122Y-88977029D01*
X183741042Y-88961371D01*
X183781440Y-88955577D01*
X183819280Y-88951295D01*
X183854174Y-88948640D01*
X183885736Y-88947729D01*
X183960583Y-89052755D01*
G37*
M02*
