G04 #@! TF.GenerationSoftware,KiCad,Pcbnew,8.0.7*
G04 #@! TF.CreationDate,2024-12-21T12:11:45-05:00*
G04 #@! TF.ProjectId,PCB-Sch,5043422d-5363-4682-9e6b-696361645f70,rev?*
G04 #@! TF.SameCoordinates,Original*
G04 #@! TF.FileFunction,Soldermask,Bot*
G04 #@! TF.FilePolarity,Negative*
%FSLAX46Y46*%
G04 Gerber Fmt 4.6, Leading zero omitted, Abs format (unit mm)*
G04 Created by KiCad (PCBNEW 8.0.7) date 2024-12-21 12:11:45*
%MOMM*%
%LPD*%
G01*
G04 APERTURE LIST*
G04 Aperture macros list*
%AMRoundRect*
0 Rectangle with rounded corners*
0 $1 Rounding radius*
0 $2 $3 $4 $5 $6 $7 $8 $9 X,Y pos of 4 corners*
0 Add a 4 corners polygon primitive as box body*
4,1,4,$2,$3,$4,$5,$6,$7,$8,$9,$2,$3,0*
0 Add four circle primitives for the rounded corners*
1,1,$1+$1,$2,$3*
1,1,$1+$1,$4,$5*
1,1,$1+$1,$6,$7*
1,1,$1+$1,$8,$9*
0 Add four rect primitives between the rounded corners*
20,1,$1+$1,$2,$3,$4,$5,0*
20,1,$1+$1,$4,$5,$6,$7,0*
20,1,$1+$1,$6,$7,$8,$9,0*
20,1,$1+$1,$8,$9,$2,$3,0*%
G04 Aperture macros list end*
%ADD10O,7.000000X3.000000*%
%ADD11RoundRect,0.250000X-0.450000X0.350000X-0.450000X-0.350000X0.450000X-0.350000X0.450000X0.350000X0*%
%ADD12RoundRect,0.225000X0.375000X-0.225000X0.375000X0.225000X-0.375000X0.225000X-0.375000X-0.225000X0*%
%ADD13C,1.701800*%
%ADD14C,3.000000*%
%ADD15C,3.987800*%
%ADD16RoundRect,0.200000X1.075000X1.050000X-1.075000X1.050000X-1.075000X-1.050000X1.075000X-1.050000X0*%
%ADD17RoundRect,0.250000X-0.337500X-0.475000X0.337500X-0.475000X0.337500X0.475000X-0.337500X0.475000X0*%
%ADD18RoundRect,0.250000X0.475000X-0.337500X0.475000X0.337500X-0.475000X0.337500X-0.475000X-0.337500X0*%
%ADD19RoundRect,0.250000X-0.350000X-0.450000X0.350000X-0.450000X0.350000X0.450000X-0.350000X0.450000X0*%
%ADD20R,0.700000X1.000000*%
%ADD21R,0.700000X0.600000*%
%ADD22RoundRect,0.250000X0.337500X0.475000X-0.337500X0.475000X-0.337500X-0.475000X0.337500X-0.475000X0*%
%ADD23C,3.048000*%
%ADD24R,0.550000X1.500000*%
%ADD25R,1.500000X0.550000*%
%ADD26C,1.700000*%
%ADD27R,1.700000X1.700000*%
%ADD28R,1.800000X2.100000*%
%ADD29RoundRect,0.200000X-1.075000X-1.050000X1.075000X-1.050000X1.075000X1.050000X-1.075000X1.050000X0*%
%ADD30C,0.650000*%
%ADD31R,0.600000X2.450000*%
%ADD32R,0.300000X2.450000*%
%ADD33R,1.800000X1.100000*%
%ADD34RoundRect,0.250001X-0.624999X0.462499X-0.624999X-0.462499X0.624999X-0.462499X0.624999X0.462499X0*%
%ADD35RoundRect,0.250000X0.350000X0.450000X-0.350000X0.450000X-0.350000X-0.450000X0.350000X-0.450000X0*%
%ADD36RoundRect,0.250000X-0.475000X0.337500X-0.475000X-0.337500X0.475000X-0.337500X0.475000X0.337500X0*%
%ADD37RoundRect,0.225000X0.225000X0.375000X-0.225000X0.375000X-0.225000X-0.375000X0.225000X-0.375000X0*%
%ADD38C,0.800000*%
G04 APERTURE END LIST*
D10*
X348000000Y-120100000D03*
X65000000Y-120100000D03*
D11*
X214371250Y-138652500D03*
X214371250Y-140652500D03*
D12*
X307240000Y-78802500D03*
X307240000Y-75502500D03*
D13*
X159126250Y-130333750D03*
D14*
X156586250Y-125253750D03*
D15*
X154046250Y-130333750D03*
D14*
X150236250Y-127793750D03*
D13*
X148966250Y-130333750D03*
D16*
X146961250Y-127793750D03*
X159888250Y-125253750D03*
D17*
X231800000Y-151400000D03*
X233875000Y-151400000D03*
D12*
X226277500Y-116902500D03*
X226277500Y-113602500D03*
D13*
X342482500Y-149383750D03*
D14*
X339942500Y-144303750D03*
D15*
X337402500Y-149383750D03*
D14*
X333592500Y-146843750D03*
D13*
X332322500Y-149383750D03*
D16*
X330317500Y-146843750D03*
X343244500Y-144303750D03*
D13*
X254376250Y-130333750D03*
D14*
X251836250Y-125253750D03*
D15*
X249296250Y-130333750D03*
D14*
X245486250Y-127793750D03*
D13*
X244216250Y-130333750D03*
D16*
X242211250Y-127793750D03*
X255138250Y-125253750D03*
D18*
X223650000Y-156575000D03*
X223650000Y-154500000D03*
D13*
X302001250Y-111283750D03*
D14*
X299461250Y-106203750D03*
D15*
X296921250Y-111283750D03*
D14*
X293111250Y-108743750D03*
D13*
X291841250Y-111283750D03*
D16*
X289836250Y-108743750D03*
X302763250Y-106203750D03*
D13*
X230563750Y-73183750D03*
D14*
X228023750Y-68103750D03*
D15*
X225483750Y-73183750D03*
D14*
X221673750Y-70643750D03*
D13*
X220403750Y-73183750D03*
D16*
X218398750Y-70643750D03*
X231325750Y-68103750D03*
D19*
X240946250Y-146208750D03*
X242946250Y-146208750D03*
D12*
X320257500Y-155382500D03*
X320257500Y-152082500D03*
D20*
X83825000Y-78550000D03*
D21*
X83825000Y-80250000D03*
X81825000Y-80250000D03*
X81825000Y-78350000D03*
D13*
X173413750Y-73183750D03*
D14*
X170873750Y-68103750D03*
D15*
X168333750Y-73183750D03*
D14*
X164523750Y-70643750D03*
D13*
X163253750Y-73183750D03*
D16*
X161248750Y-70643750D03*
X174175750Y-68103750D03*
D12*
X141187500Y-135952500D03*
X141187500Y-132652500D03*
D22*
X209302500Y-140652500D03*
X207227500Y-140652500D03*
D13*
X235326250Y-130333750D03*
D14*
X232786250Y-125253750D03*
D15*
X230246250Y-130333750D03*
D14*
X226436250Y-127793750D03*
D13*
X225166250Y-130333750D03*
D16*
X223161250Y-127793750D03*
X236088250Y-125253750D03*
D12*
X344387500Y-155002500D03*
X344387500Y-151702500D03*
D13*
X128170000Y-149383750D03*
D14*
X125630000Y-144303750D03*
D15*
X123090000Y-149383750D03*
D14*
X119280000Y-146843750D03*
D13*
X118010000Y-149383750D03*
D16*
X116005000Y-146843750D03*
X128932000Y-144303750D03*
D13*
X154363750Y-73183750D03*
D14*
X151823750Y-68103750D03*
D15*
X149283750Y-73183750D03*
D14*
X145473750Y-70643750D03*
D13*
X144203750Y-73183750D03*
D16*
X142198750Y-70643750D03*
X155125750Y-68103750D03*
D12*
X207227500Y-116902500D03*
X207227500Y-113602500D03*
X259615000Y-97852500D03*
X259615000Y-94552500D03*
D13*
X116263750Y-73183750D03*
D14*
X113723750Y-68103750D03*
D15*
X111183750Y-73183750D03*
D14*
X107373750Y-70643750D03*
D13*
X106103750Y-73183750D03*
D16*
X104098750Y-70643750D03*
X117025750Y-68103750D03*
D12*
X329147500Y-135952500D03*
X329147500Y-132652500D03*
X236437500Y-135952500D03*
X236437500Y-132652500D03*
X179287500Y-135952500D03*
X179287500Y-132652500D03*
D22*
X219621250Y-139858750D03*
X217546250Y-139858750D03*
D12*
X221515000Y-97852500D03*
X221515000Y-94552500D03*
X107215000Y-97852500D03*
X107215000Y-94552500D03*
X293587500Y-136332500D03*
X293587500Y-133032500D03*
D15*
X335053000Y-138588750D03*
D23*
X335053000Y-123348750D03*
D13*
X328195000Y-130333750D03*
D14*
X325655000Y-125253750D03*
D15*
X323115000Y-130333750D03*
D14*
X319305000Y-127793750D03*
D13*
X318035000Y-130333750D03*
D15*
X311177000Y-138588750D03*
D23*
X311177000Y-123348750D03*
D16*
X316030000Y-127793750D03*
X328957000Y-125253750D03*
D24*
X211815000Y-142871250D03*
X212615000Y-142871250D03*
X213415000Y-142871250D03*
X214215000Y-142871250D03*
X215015000Y-142871250D03*
X215815000Y-142871250D03*
X216615000Y-142871250D03*
X217415000Y-142871250D03*
X218215000Y-142871250D03*
X219015000Y-142871250D03*
X219815000Y-142871250D03*
D25*
X221515000Y-144571250D03*
X221515000Y-145371250D03*
X221515000Y-146171250D03*
X221515000Y-146971250D03*
X221515000Y-147771250D03*
X221515000Y-148571250D03*
X221515000Y-149371250D03*
X221515000Y-150171250D03*
X221515000Y-150971250D03*
X221515000Y-151771250D03*
X221515000Y-152571250D03*
D24*
X219815000Y-154271250D03*
X219015000Y-154271250D03*
X218215000Y-154271250D03*
X217415000Y-154271250D03*
X216615000Y-154271250D03*
X215815000Y-154271250D03*
X215015000Y-154271250D03*
X214215000Y-154271250D03*
X213415000Y-154271250D03*
X212615000Y-154271250D03*
X211815000Y-154271250D03*
D25*
X210115000Y-152571250D03*
X210115000Y-151771250D03*
X210115000Y-150971250D03*
X210115000Y-150171250D03*
X210115000Y-149371250D03*
X210115000Y-148571250D03*
X210115000Y-147771250D03*
X210115000Y-146971250D03*
X210115000Y-146171250D03*
X210115000Y-145371250D03*
X210115000Y-144571250D03*
D26*
X257715000Y-143190000D03*
X257715000Y-140650000D03*
X255175000Y-143190000D03*
X255175000Y-140650000D03*
X252635000Y-143190000D03*
D27*
X252635000Y-140650000D03*
D13*
X282951250Y-111283750D03*
D14*
X280411250Y-106203750D03*
D15*
X277871250Y-111283750D03*
D14*
X274061250Y-108743750D03*
D13*
X272791250Y-111283750D03*
D16*
X270786250Y-108743750D03*
X283713250Y-106203750D03*
D12*
X90387500Y-135952500D03*
X90387500Y-132652500D03*
D15*
X96869250Y-138588750D03*
D23*
X96869250Y-123348750D03*
D13*
X90011250Y-130333750D03*
D14*
X87471250Y-125253750D03*
D15*
X84931250Y-130333750D03*
D14*
X81121250Y-127793750D03*
D13*
X79851250Y-130333750D03*
D15*
X72993250Y-138588750D03*
D23*
X72993250Y-123348750D03*
D16*
X77846250Y-127793750D03*
X90773250Y-125253750D03*
D12*
X245327500Y-116902500D03*
X245327500Y-113602500D03*
D13*
X216276250Y-130333750D03*
D14*
X213736250Y-125253750D03*
D15*
X211196250Y-130333750D03*
D14*
X207386250Y-127793750D03*
D13*
X206116250Y-130333750D03*
D16*
X204111250Y-127793750D03*
X217038250Y-125253750D03*
D13*
X271045000Y-149383750D03*
D14*
X268505000Y-144303750D03*
D15*
X265965000Y-149383750D03*
D14*
X262155000Y-146843750D03*
D13*
X260885000Y-149383750D03*
D16*
X258880000Y-146843750D03*
X271807000Y-144303750D03*
D13*
X85307500Y-111283750D03*
D14*
X82767500Y-106203750D03*
D15*
X80227500Y-111283750D03*
D14*
X76417500Y-108743750D03*
D13*
X75147500Y-111283750D03*
D16*
X73142500Y-108743750D03*
X86069500Y-106203750D03*
D13*
X182938750Y-92233750D03*
D14*
X180398750Y-87153750D03*
D15*
X177858750Y-92233750D03*
D14*
X174048750Y-89693750D03*
D13*
X172778750Y-92233750D03*
D16*
X170773750Y-89693750D03*
X183700750Y-87153750D03*
D12*
X217387500Y-135952500D03*
X217387500Y-132652500D03*
X173890000Y-78802500D03*
X173890000Y-75502500D03*
D13*
X192463750Y-73183750D03*
D14*
X189923750Y-68103750D03*
D15*
X187383750Y-73183750D03*
D14*
X183573750Y-70643750D03*
D13*
X182303750Y-73183750D03*
D16*
X180298750Y-70643750D03*
X193225750Y-68103750D03*
D17*
X231750000Y-148400000D03*
X233825000Y-148400000D03*
D12*
X131027500Y-116902500D03*
X131027500Y-113602500D03*
D13*
X259138750Y-92233750D03*
D14*
X256598750Y-87153750D03*
D15*
X254058750Y-92233750D03*
D14*
X250248750Y-89693750D03*
D13*
X248978750Y-92233750D03*
D16*
X246973750Y-89693750D03*
X259900750Y-87153750D03*
D13*
X340101250Y-92233750D03*
D14*
X337561250Y-87153750D03*
D15*
X335021250Y-92233750D03*
D14*
X331211250Y-89693750D03*
D13*
X329941250Y-92233750D03*
D16*
X327936250Y-89693750D03*
X340863250Y-87153750D03*
D13*
X306763750Y-73183750D03*
D14*
X304223750Y-68103750D03*
D15*
X301683750Y-73183750D03*
D14*
X297873750Y-70643750D03*
D13*
X296603750Y-73183750D03*
D16*
X294598750Y-70643750D03*
X307525750Y-68103750D03*
D12*
X231040000Y-78802500D03*
X231040000Y-75502500D03*
D13*
X178176250Y-130333750D03*
D14*
X175636250Y-125253750D03*
D15*
X173096250Y-130333750D03*
D14*
X169286250Y-127793750D03*
D13*
X168016250Y-130333750D03*
D16*
X166011250Y-127793750D03*
X178938250Y-125253750D03*
D12*
X145315000Y-97852500D03*
X145315000Y-94552500D03*
X302477500Y-116902500D03*
X302477500Y-113602500D03*
D13*
X130551250Y-111283750D03*
D14*
X128011250Y-106203750D03*
D15*
X125471250Y-111283750D03*
D14*
X121661250Y-108743750D03*
D13*
X120391250Y-111283750D03*
D16*
X118386250Y-108743750D03*
X131313250Y-106203750D03*
D12*
X83402500Y-97852500D03*
X83402500Y-94552500D03*
D13*
X106738750Y-92233750D03*
D14*
X104198750Y-87153750D03*
D15*
X101658750Y-92233750D03*
D14*
X97848750Y-89693750D03*
D13*
X96578750Y-92233750D03*
D16*
X94573750Y-89693750D03*
X107500750Y-87153750D03*
D13*
X263901250Y-111283750D03*
D14*
X261361250Y-106203750D03*
D15*
X258821250Y-111283750D03*
D14*
X255011250Y-108743750D03*
D13*
X253741250Y-111283750D03*
D16*
X251736250Y-108743750D03*
X264663250Y-106203750D03*
D12*
X288190000Y-78802500D03*
X288190000Y-75502500D03*
X154840000Y-78802500D03*
X154840000Y-75502500D03*
D13*
X225801250Y-111283750D03*
D14*
X223261250Y-106203750D03*
D15*
X220721250Y-111283750D03*
D14*
X216911250Y-108743750D03*
D13*
X215641250Y-111283750D03*
D16*
X213636250Y-108743750D03*
X226563250Y-106203750D03*
D13*
X297238750Y-92233750D03*
D14*
X294698750Y-87153750D03*
D15*
X292158750Y-92233750D03*
D14*
X288348750Y-89693750D03*
D13*
X287078750Y-92233750D03*
D16*
X285073750Y-89693750D03*
X298000750Y-87153750D03*
D12*
X211990000Y-78802500D03*
X211990000Y-75502500D03*
D13*
X294857500Y-149383750D03*
D14*
X292317500Y-144303750D03*
D15*
X289777500Y-149383750D03*
D14*
X285967500Y-146843750D03*
D13*
X284697500Y-149383750D03*
D16*
X282692500Y-146843750D03*
X295619500Y-144303750D03*
D12*
X335815000Y-78802500D03*
X335815000Y-75502500D03*
D13*
X221038750Y-92233750D03*
D14*
X218498750Y-87153750D03*
D15*
X215958750Y-92233750D03*
D14*
X212148750Y-89693750D03*
D13*
X210878750Y-92233750D03*
D16*
X208873750Y-89693750D03*
X221800750Y-87153750D03*
D12*
X164365000Y-97852500D03*
X164365000Y-94552500D03*
D13*
X292476250Y-130333750D03*
D14*
X289936250Y-125253750D03*
D15*
X287396250Y-130333750D03*
D14*
X283586250Y-127793750D03*
D13*
X282316250Y-130333750D03*
D16*
X280311250Y-127793750D03*
X293238250Y-125253750D03*
D13*
X121026250Y-130333750D03*
D14*
X118486250Y-125253750D03*
D15*
X115946250Y-130333750D03*
D14*
X112136250Y-127793750D03*
D13*
X110866250Y-130333750D03*
D16*
X108861250Y-127793750D03*
X121788250Y-125253750D03*
D12*
X105627500Y-155002500D03*
X105627500Y-151702500D03*
D18*
X206350000Y-152400000D03*
X206350000Y-150325000D03*
D28*
X227425000Y-151300000D03*
X227425000Y-148400000D03*
X229725000Y-148400000D03*
X229725000Y-151300000D03*
D12*
X283427500Y-116902500D03*
X283427500Y-113602500D03*
X111977500Y-116902500D03*
X111977500Y-113602500D03*
X264377500Y-116902500D03*
X264377500Y-113602500D03*
X202465000Y-97852500D03*
X202465000Y-94552500D03*
D13*
X87053750Y-73183750D03*
D14*
X89593750Y-78263750D03*
D15*
X92133750Y-73183750D03*
D14*
X95943750Y-75723750D03*
D13*
X97213750Y-73183750D03*
D29*
X99218750Y-75723750D03*
X86291750Y-78263750D03*
D12*
X278665000Y-97852500D03*
X278665000Y-94552500D03*
X255487500Y-135952500D03*
X255487500Y-132652500D03*
X340577500Y-97852500D03*
X340577500Y-94552500D03*
D13*
X68003750Y-73183750D03*
D14*
X70543750Y-78263750D03*
D15*
X73083750Y-73183750D03*
D14*
X76893750Y-75723750D03*
D13*
X78163750Y-73183750D03*
D29*
X80168750Y-75723750D03*
X67241750Y-78263750D03*
D15*
X342196750Y-81438750D03*
D23*
X342196750Y-66198750D03*
D13*
X335338750Y-73183750D03*
D14*
X332798750Y-68103750D03*
D15*
X330258750Y-73183750D03*
D14*
X326448750Y-70643750D03*
D13*
X325178750Y-73183750D03*
D15*
X318320750Y-81438750D03*
D23*
X318320750Y-66198750D03*
D16*
X323173750Y-70643750D03*
X336100750Y-68103750D03*
D13*
X125788750Y-92233750D03*
D14*
X123248750Y-87153750D03*
D15*
X120708750Y-92233750D03*
D14*
X116898750Y-89693750D03*
D13*
X115628750Y-92233750D03*
D16*
X113623750Y-89693750D03*
X126550750Y-87153750D03*
D12*
X188177500Y-116902500D03*
X188177500Y-113602500D03*
X135790000Y-78802500D03*
X135790000Y-75502500D03*
D13*
X273426250Y-130333750D03*
D14*
X270886250Y-125253750D03*
D15*
X268346250Y-130333750D03*
D14*
X264536250Y-127793750D03*
D13*
X263266250Y-130333750D03*
D16*
X261261250Y-127793750D03*
X274188250Y-125253750D03*
D12*
X116740000Y-78802500D03*
X116740000Y-75502500D03*
D13*
X187701250Y-111283750D03*
D14*
X185161250Y-106203750D03*
D15*
X182621250Y-111283750D03*
D14*
X178811250Y-108743750D03*
D13*
X177541250Y-111283750D03*
D16*
X175536250Y-108743750D03*
X188463250Y-106203750D03*
D13*
X249613750Y-73183750D03*
D14*
X247073750Y-68103750D03*
D15*
X244533750Y-73183750D03*
D14*
X240723750Y-70643750D03*
D13*
X239453750Y-73183750D03*
D16*
X237448750Y-70643750D03*
X250375750Y-68103750D03*
D13*
X135313750Y-73183750D03*
D14*
X132773750Y-68103750D03*
D15*
X130233750Y-73183750D03*
D14*
X126423750Y-70643750D03*
D13*
X125153750Y-73183750D03*
D16*
X123148750Y-70643750D03*
X136075750Y-68103750D03*
D13*
X240088750Y-92233750D03*
D14*
X237548750Y-87153750D03*
D15*
X235008750Y-92233750D03*
D14*
X231198750Y-89693750D03*
D13*
X229928750Y-92233750D03*
D16*
X227923750Y-89693750D03*
X240850750Y-87153750D03*
D12*
X269140000Y-78802500D03*
X269140000Y-75502500D03*
X198337500Y-135952500D03*
X198337500Y-132652500D03*
D13*
X82926250Y-92233750D03*
D14*
X80386250Y-87153750D03*
D15*
X77846250Y-92233750D03*
D14*
X74036250Y-89693750D03*
D13*
X72766250Y-92233750D03*
D16*
X70761250Y-89693750D03*
X83688250Y-87153750D03*
D12*
X316765000Y-97852500D03*
X316765000Y-94552500D03*
D19*
X88080000Y-70620000D03*
X90080000Y-70620000D03*
D13*
X80545000Y-149383750D03*
D14*
X78005000Y-144303750D03*
D15*
X75465000Y-149383750D03*
D14*
X71655000Y-146843750D03*
D13*
X70385000Y-149383750D03*
D16*
X68380000Y-146843750D03*
X81307000Y-144303750D03*
D12*
X160237500Y-135952500D03*
X160237500Y-132652500D03*
D13*
X318670000Y-149383750D03*
D14*
X316130000Y-144303750D03*
D15*
X313590000Y-149383750D03*
D14*
X309780000Y-146843750D03*
D13*
X308510000Y-149383750D03*
D16*
X306505000Y-146843750D03*
X319432000Y-144303750D03*
D13*
X278188750Y-92233750D03*
D14*
X275648750Y-87153750D03*
D15*
X273108750Y-92233750D03*
D14*
X269298750Y-89693750D03*
D13*
X268028750Y-92233750D03*
D16*
X266023750Y-89693750D03*
X278950750Y-87153750D03*
D12*
X297715000Y-97852500D03*
X297715000Y-94552500D03*
X85307500Y-116902500D03*
X85307500Y-113602500D03*
X183415000Y-97852500D03*
X183415000Y-94552500D03*
X169127500Y-116902500D03*
X169127500Y-113602500D03*
D30*
X79530000Y-68665000D03*
X85310000Y-68665000D03*
D31*
X79195000Y-70610000D03*
X79970000Y-70610000D03*
D32*
X80670000Y-70610000D03*
X81170000Y-70610000D03*
X81670000Y-70610000D03*
X82170000Y-70610000D03*
X82670000Y-70610000D03*
X83170000Y-70610000D03*
X83670000Y-70610000D03*
X84170000Y-70610000D03*
D31*
X84870000Y-70610000D03*
X85645000Y-70610000D03*
D13*
X104357500Y-149383750D03*
D14*
X101817500Y-144303750D03*
D15*
X99277500Y-149383750D03*
D14*
X95467500Y-146843750D03*
D13*
X94197500Y-149383750D03*
D16*
X92192500Y-146843750D03*
X105119500Y-144303750D03*
D33*
X251425000Y-146125000D03*
X245225000Y-146125000D03*
X251425000Y-149825000D03*
X245225000Y-149825000D03*
D12*
X126265000Y-97852500D03*
X126265000Y-94552500D03*
D13*
X140076250Y-130333750D03*
D14*
X137536250Y-125253750D03*
D15*
X134996250Y-130333750D03*
D14*
X131186250Y-127793750D03*
D13*
X129916250Y-130333750D03*
D16*
X127911250Y-127793750D03*
X140838250Y-125253750D03*
D12*
X271997500Y-155002500D03*
X271997500Y-151702500D03*
D13*
X163888750Y-92233750D03*
D14*
X161348750Y-87153750D03*
D15*
X158808750Y-92233750D03*
D14*
X154998750Y-89693750D03*
D13*
X153728750Y-92233750D03*
D16*
X151723750Y-89693750D03*
X164650750Y-87153750D03*
D13*
X211513750Y-73183750D03*
D14*
X208973750Y-68103750D03*
D15*
X206433750Y-73183750D03*
D14*
X202623750Y-70643750D03*
D13*
X201353750Y-73183750D03*
D16*
X199348750Y-70643750D03*
X212275750Y-68103750D03*
D12*
X192940000Y-78802500D03*
X192940000Y-75502500D03*
D15*
X339815500Y-119538750D03*
D23*
X339815500Y-104298750D03*
D13*
X332957500Y-111283750D03*
D14*
X330417500Y-106203750D03*
D15*
X327877500Y-111283750D03*
D14*
X324067500Y-108743750D03*
D13*
X322797500Y-111283750D03*
D15*
X315939500Y-119538750D03*
D23*
X315939500Y-104298750D03*
D16*
X320792500Y-108743750D03*
X333719500Y-106203750D03*
D12*
X122137500Y-135952500D03*
X122137500Y-132652500D03*
D34*
X79950000Y-80975000D03*
X79950000Y-83950000D03*
D12*
X129757500Y-155002500D03*
X129757500Y-151702500D03*
D13*
X268663750Y-73183750D03*
D14*
X266123750Y-68103750D03*
D15*
X263583750Y-73183750D03*
D14*
X259773750Y-70643750D03*
D13*
X258503750Y-73183750D03*
D16*
X256498750Y-70643750D03*
X269425750Y-68103750D03*
D12*
X332957500Y-116902500D03*
X332957500Y-113602500D03*
X150077500Y-116902500D03*
X150077500Y-113602500D03*
D13*
X244851250Y-111283750D03*
D14*
X242311250Y-106203750D03*
D15*
X239771250Y-111283750D03*
D14*
X235961250Y-108743750D03*
D13*
X234691250Y-111283750D03*
D16*
X232686250Y-108743750D03*
X245613250Y-106203750D03*
D11*
X211990000Y-138652500D03*
X211990000Y-140652500D03*
D13*
X144838750Y-92233750D03*
D14*
X142298750Y-87153750D03*
D15*
X139758750Y-92233750D03*
D14*
X135948750Y-89693750D03*
D13*
X134678750Y-92233750D03*
D16*
X132673750Y-89693750D03*
X145600750Y-87153750D03*
D12*
X81497500Y-155002500D03*
X81497500Y-151702500D03*
D35*
X207650000Y-154500000D03*
X205650000Y-154500000D03*
D13*
X111501250Y-111283750D03*
D14*
X108961250Y-106203750D03*
D15*
X106421250Y-111283750D03*
D14*
X102611250Y-108743750D03*
D13*
X101341250Y-111283750D03*
D16*
X99336250Y-108743750D03*
X112263250Y-106203750D03*
D13*
X168651250Y-111283750D03*
D14*
X166111250Y-106203750D03*
D15*
X163571250Y-111283750D03*
D14*
X159761250Y-108743750D03*
D13*
X158491250Y-111283750D03*
D16*
X156486250Y-108743750D03*
X169413250Y-106203750D03*
D12*
X200877500Y-155382500D03*
X200877500Y-152082500D03*
D13*
X149601250Y-111283750D03*
D14*
X147061250Y-106203750D03*
D15*
X144521250Y-111283750D03*
D14*
X140711250Y-108743750D03*
D13*
X139441250Y-111283750D03*
D16*
X137436250Y-108743750D03*
X150363250Y-106203750D03*
D13*
X197226250Y-130333750D03*
D14*
X194686250Y-125253750D03*
D15*
X192146250Y-130333750D03*
D14*
X188336250Y-127793750D03*
D13*
X187066250Y-130333750D03*
D16*
X185061250Y-127793750D03*
X197988250Y-125253750D03*
D12*
X240565000Y-97852500D03*
X240565000Y-94552500D03*
X102825000Y-81325000D03*
X102825000Y-78025000D03*
D13*
X201988750Y-92233750D03*
D14*
X199448750Y-87153750D03*
D15*
X196908750Y-92233750D03*
D14*
X193098750Y-89693750D03*
D13*
X191828750Y-92233750D03*
D16*
X189823750Y-89693750D03*
X202750750Y-87153750D03*
D13*
X287713750Y-73183750D03*
D14*
X285173750Y-68103750D03*
D15*
X282633750Y-73183750D03*
D14*
X278823750Y-70643750D03*
D13*
X277553750Y-73183750D03*
D16*
X275548750Y-70643750D03*
X288475750Y-68103750D03*
D36*
X226350000Y-143575000D03*
X226350000Y-145650000D03*
D12*
X296127500Y-155002500D03*
X296127500Y-151702500D03*
D13*
X316288750Y-92233750D03*
D14*
X313748750Y-87153750D03*
D15*
X311208750Y-92233750D03*
D14*
X307398750Y-89693750D03*
D13*
X306128750Y-92233750D03*
D16*
X304123750Y-89693750D03*
X317050750Y-87153750D03*
D11*
X75300000Y-67690000D03*
X75300000Y-69690000D03*
D12*
X274537500Y-135952500D03*
X274537500Y-132652500D03*
D23*
X244527500Y-156368750D03*
D15*
X244527500Y-141128750D03*
D13*
X199607500Y-149383750D03*
D14*
X197067500Y-144303750D03*
D15*
X194527500Y-149383750D03*
D14*
X190717500Y-146843750D03*
D13*
X189447500Y-149383750D03*
D23*
X144527500Y-156368750D03*
D15*
X144527500Y-141128750D03*
D16*
X187442500Y-146843750D03*
X200369500Y-144303750D03*
D12*
X250090000Y-78802500D03*
X250090000Y-75502500D03*
D37*
X69181250Y-70643750D03*
X65881250Y-70643750D03*
D13*
X206751250Y-111283750D03*
D14*
X204211250Y-106203750D03*
D15*
X201671250Y-111283750D03*
D14*
X197861250Y-108743750D03*
D13*
X196591250Y-111283750D03*
D16*
X194586250Y-108743750D03*
X207513250Y-106203750D03*
D38*
X225700000Y-148450000D03*
X235300000Y-151400000D03*
X235380000Y-148380000D03*
X207111600Y-138734800D03*
X216150000Y-139850000D03*
X207227500Y-142600000D03*
X85725000Y-80962500D03*
X223100000Y-142375000D03*
X214281675Y-144425000D03*
X240946250Y-146200000D03*
X225375000Y-156600000D03*
X257715000Y-134760000D03*
X205675000Y-138600000D03*
X203725000Y-151950000D03*
X209625000Y-142225000D03*
X83412500Y-84087500D03*
X216625000Y-144375000D03*
X249775000Y-134450000D03*
X211988400Y-82905600D03*
X213650000Y-145250000D03*
X98188200Y-81288200D03*
X78550000Y-79125000D03*
X92325000Y-97750000D03*
X204850000Y-135900000D03*
X202225000Y-100800000D03*
X95600000Y-97631250D03*
X207550000Y-118975000D03*
X92525000Y-116900000D03*
X95875000Y-116950000D03*
X207000000Y-135400000D03*
X204175000Y-138525000D03*
X195675000Y-138074999D03*
X92650000Y-135975000D03*
X96500000Y-132300000D03*
X202996800Y-155382500D03*
X269450000Y-155050000D03*
X80227500Y-73262500D03*
X84520000Y-73270000D03*
X234200000Y-138700000D03*
X241550000Y-137500000D03*
X228750000Y-139725000D03*
X242750000Y-138775000D03*
X219575000Y-146100000D03*
X234391200Y-146050000D03*
X255250000Y-154300000D03*
X217200000Y-145975000D03*
X136375000Y-148225000D03*
X85725000Y-88900000D03*
X214525000Y-157775000D03*
X90773250Y-122237500D03*
X90487500Y-127793750D03*
X82550000Y-84931250D03*
X136400000Y-151225000D03*
X85725000Y-102393750D03*
X87312500Y-108743750D03*
X67468750Y-82550000D03*
X84750000Y-140675000D03*
X81250000Y-147500000D03*
X122237500Y-128587500D03*
X112268000Y-102311200D03*
X93662500Y-84137500D03*
X111125000Y-142081250D03*
X89693750Y-81756250D03*
X121443750Y-120650000D03*
X145575000Y-152475000D03*
X111125000Y-92075000D03*
X150950000Y-157850000D03*
X121443750Y-115887500D03*
X141287500Y-119062500D03*
X131318000Y-100634800D03*
X134143750Y-108743750D03*
X141287500Y-128587500D03*
X133550000Y-150175000D03*
X119481600Y-71069200D03*
X126542800Y-83312000D03*
X126542800Y-90576400D03*
X146500000Y-155250000D03*
X131762500Y-142081250D03*
X150368000Y-101549200D03*
X161000000Y-141700000D03*
X141528800Y-75641200D03*
X167225000Y-137075000D03*
X145592800Y-82854800D03*
X204300000Y-156400000D03*
X164550000Y-138074999D03*
X159867600Y-121412000D03*
X149707600Y-93980000D03*
X161387500Y-145862500D03*
X164338000Y-132384800D03*
X155803600Y-114046000D03*
X155448000Y-71170800D03*
X184500000Y-138074999D03*
X169418000Y-109423200D03*
X169418000Y-102463600D03*
X187400000Y-137000000D03*
X203047600Y-153720800D03*
X178938250Y-121797750D03*
X184525000Y-140625000D03*
X164795200Y-90322400D03*
X164592000Y-83362800D03*
X184525000Y-145800000D03*
X181914800Y-128270000D03*
X197675000Y-140225000D03*
X188518800Y-94030800D03*
X200507600Y-128930400D03*
X201900000Y-148200000D03*
X190906400Y-111760000D03*
X198525001Y-138049999D03*
X200525000Y-136050000D03*
X208450000Y-150175000D03*
X176784000Y-71221600D03*
X183700750Y-84226400D03*
X197967600Y-121158000D03*
X188468000Y-101346000D03*
X199847200Y-76911200D03*
X207518000Y-101904800D03*
X217474800Y-128219200D03*
X207168750Y-92075000D03*
X202742800Y-80822800D03*
X203352400Y-144729200D03*
X213004400Y-114300000D03*
X217068400Y-121259600D03*
X219760800Y-77774800D03*
X221792800Y-82905600D03*
X223570800Y-91186000D03*
X226568000Y-101041200D03*
X231546400Y-113944400D03*
X232000000Y-138325000D03*
X236118400Y-118872000D03*
X233883200Y-131419600D03*
X240893600Y-82905600D03*
X252526800Y-130606800D03*
X233070400Y-72085200D03*
X225300000Y-151125000D03*
X241909600Y-90779600D03*
X248412000Y-108712000D03*
X255138250Y-122397850D03*
X245668800Y-101549200D03*
X265734800Y-110185200D03*
X264312400Y-99771200D03*
X274828000Y-128778000D03*
X256133600Y-77012800D03*
X264318750Y-92075000D03*
X259943600Y-82448400D03*
X274188250Y-119329200D03*
X225575000Y-152500000D03*
X271170400Y-72186800D03*
X275945600Y-144475200D03*
X280670000Y-90678000D03*
X286207200Y-109220000D03*
X269798800Y-147777200D03*
X278942800Y-81432400D03*
X283667200Y-100939600D03*
X294132000Y-129438400D03*
X226263749Y-153225000D03*
X293217600Y-119227600D03*
X298196000Y-90424000D03*
X289509200Y-71780400D03*
X292575000Y-153700000D03*
X304800000Y-110388400D03*
X303936400Y-139192000D03*
X302768000Y-100888800D03*
X295619500Y-147283500D03*
X297992800Y-80416400D03*
X314452000Y-81788000D03*
X321180000Y-91786250D03*
X320040000Y-139192000D03*
X324525000Y-156625000D03*
X309880000Y-75692000D03*
X324525000Y-148312500D03*
M02*
